<?xml version="1.0" standalone="no"?><!DOCTYPE svg PUBLIC "-//W3C//DTD SVG 1.1//EN" "http://www.w3.org/Graphics/SVG/1.1/DTD/svg11.dtd"><svg t="1584677195750" class="icon" viewBox="0 0 1024 1024" version="1.1" xmlns="http://www.w3.org/2000/svg" p-id="26141" xmlns:xlink="http://www.w3.org/1999/xlink" width="200" height="200"><defs><style type="text/css"></style></defs><path d="M926.318391 21.930588a31.99864 31.99864 0 0 1-14.911366 38.142379l-5.311774 2.303902L96.017679 332.381394V992.00136a31.99864 31.99864 0 0 1-26.238885 31.486662L64.019039 1024a31.99864 31.99864 0 0 1-31.486662-26.238885L32.020399 992.00136v-639.972801a31.99864 31.99864 0 0 1-15.359347-60.029449l5.247777-2.303902 10.11157-3.455853V192.035358a31.99864 31.99864 0 0 1 26.238885-31.486661L64.019039 160.036718a31.99864 31.99864 0 0 1 31.486662 26.238885L96.017679 192.035358v72.892903L885.87211 1.707447a31.99864 31.99864 0 0 1 40.446281 20.223141zM575.99728 256.032639c99.195784 0 179.06439 8.319646 239.989801 25.40692a95.99592 95.99592 0 0 1 49.725886 33.214588l5.88775 8.319647 55.869626 89.468197 50.173867-25.022936a31.99864 31.99864 0 0 1 39.934303 9.4076l3.007872 4.863793a31.99864 31.99864 0 0 1-9.4076 39.934303l-4.863793 3.007872-44.798096 22.335051 8.959619 14.271393a351.985041 351.985041 0 0 1 53.053745 168.568836l0.447981 17.983236V928.00408a31.99864 31.99864 0 0 1-26.238885 31.486662L991.979601 960.00272h-127.99456a31.99864 31.99864 0 0 1-31.486662-26.238885L831.986401 928.00408V896.00544H320.00816v31.99864a31.99864 31.99864 0 0 1-26.238885 31.486662L288.00952 960.00272h-127.994561a31.99864 31.99864 0 0 1-31.486661-26.238885L128.016319 928.00408v-260.212941a351.985041 351.985041 0 0 1 44.350115-171.06473l9.151611-15.487342 8.895622-14.271393-44.734098-22.335051a31.99864 31.99864 0 0 1-16.383304-37.566403l2.11191-5.375772a31.99864 31.99864 0 0 1 37.566404-16.383304l5.375771 2.111911 50.10987 25.022936 55.933623-89.4042a95.99592 95.99592 0 0 1 55.549639-41.598232C396.93289 264.416282 476.801496 256.032639 575.99728 256.032639z m0 63.99728c-93.820013 0-168.248849 7.807668-222.774532 23.039021a31.99864 31.99864 0 0 0-14.975364 9.151611l-3.583847 4.735798-98.875798 158.201277a287.987761 287.987761 0 0 0-43.198164 134.714274l-0.575976 17.919239V896.00544h63.997281v-31.99864a31.99864 31.99864 0 0 1 26.238884-31.486662L288.00952 832.00816h575.975521a31.99864 31.99864 0 0 1 31.486661 26.238885l0.511979 5.759755v31.99864h63.99728v-228.214301a287.987761 287.987761 0 0 0-34.750523-137.146171l-9.023617-15.487342-98.875798-158.201277a31.99864 31.99864 0 0 0-18.559211-13.887409C744.310127 327.837587 669.817293 320.029919 575.99728 320.029919z m191.99184 415.98232a31.99864 31.99864 0 0 1 5.759756 63.485302L767.98912 800.00952H384.00544a31.99864 31.99864 0 0 1-5.759755-63.485302L384.00544 736.012239h383.98368zM256.01088 640.016319h127.99456a31.99864 31.99864 0 0 1 5.759755 63.485302L384.00544 704.013599H256.01088a31.99864 31.99864 0 0 1-5.759756-63.485301L256.01088 640.016319h127.99456-127.99456z m639.972801 0a31.99864 31.99864 0 1 1 0 63.99728h-127.994561a31.99864 31.99864 0 1 1 0-63.99728h127.994561z m-33.022597-168.120855a31.99864 31.99864 0 0 1-22.847029 39.038341C748.213961 535.188774 681.720787 544.020399 575.99728 544.020399c-105.723507 0-172.216681-8.895622-264.116775-33.022596a31.99864 31.99864 0 0 1 16.255309-61.949368C414.788132 471.895464 475.841537 480.023119 575.99728 480.023119c100.155743 0 161.209149-8.127655 247.861466-30.974684a31.99864 31.99864 0 0 1 39.038341 22.847029z" p-id="26142" fill="#ffffff"></path></svg>