<?xml version="1.0" standalone="no"?><!DOCTYPE svg PUBLIC "-//W3C//DTD SVG 1.1//EN" "http://www.w3.org/Graphics/SVG/1.1/DTD/svg11.dtd"><svg t="1594886510767" class="icon" viewBox="0 0 1024 1024" version="1.1" xmlns="http://www.w3.org/2000/svg" p-id="52965" xmlns:xlink="http://www.w3.org/1999/xlink" width="20" height="20"><defs><style type="text/css"></style></defs><path d="M506.29696 0.512L512.05696 0a32 32 0 0 1 31.488 26.24L544.05696 32v64H896.05696a32 32 0 0 1 32 32v256a32 32 0 0 1-32 32H544.05696v64h320a32 32 0 0 1 22.656 9.344l128 128a32 32 0 0 1 0 45.312l-128 128a32 32 0 0 1-22.656 9.344h-320v192a32 32 0 0 1-26.24 31.488L512.05696 1024a32 32 0 0 1-31.488-26.24L480.05696 992v-192H128.05696a32 32 0 0 1-32-32V512a32 32 0 0 1 32-32h352v-64h-320a32 32 0 0 1-22.656-9.344l-128-128a32 32 0 0 1 0-45.312l128-128A32 32 0 0 1 160.05696 96h320v-64a32 32 0 0 1 26.24-31.488L512.05696 0l-5.76 0.512zM850.80896 544H160.05696v192h690.752l96-96-96-96z m13.248-192v-192H173.30496L77.30496 256l96 96H864.05696z" p-id="52966" fill="#ffffff"></path></svg>