<?xml version="1.0" standalone="no"?><!DOCTYPE svg PUBLIC "-//W3C//DTD SVG 1.1//EN" "http://www.w3.org/Graphics/SVG/1.1/DTD/svg11.dtd"><svg t="1553135145206" class="icon" style="" viewBox="0 0 1024 1024" version="1.1" xmlns="http://www.w3.org/2000/svg" p-id="12307" xmlns:xlink="http://www.w3.org/1999/xlink" width="16" height="16"><defs><style type="text/css"></style></defs><path d="M704 480a224 224 0 0 0 0 448 32 32 0 0 1-32 32h-448a32 32 0 0 1-32-32v-832a32 32 0 0 1 32-32h448a32 32 0 0 1 32 32v384zM288 320a32 32 0 0 0-32 32v192a32 32 0 0 0 64 0v-192a32 32 0 0 0-32-32z m416 576a192 192 0 1 1 0-384 192 192 0 0 1 0 384z m0-64a128 128 0 1 0 0-256 128 128 0 0 0 0 256z m0-32a96 96 0 1 1 0-192 96 96 0 0 1 0 192z" p-id="12308" fill="#ffffff"></path></svg>