<?xml version="1.0" encoding="UTF-8"?>
<svg width="28px" height="36px" viewBox="0 0 28 36" version="1.1" xmlns="http://www.w3.org/2000/svg" xmlns:xlink="http://www.w3.org/1999/xlink">
    <!-- Generator: Sketch 62 (91390) - https://sketch.com -->
    <title>Tips/Pin/Locus_icon</title>
    <desc>Created with Sketch.</desc>
    <g id="特殊人员同出现--" stroke="none" stroke-width="1" fill="none" fill-rule="evenodd">
        <g id="5-特殊人员同出现-1历史预警-卡片详情2" transform="translate(-1013.000000, -781.000000)">
            <g id="Bar" transform="translate(0.000000, 44.000000)">
                <g id="编组-12" transform="translate(937.000000, 609.000000)">
                    <g id="Point">
                        <g id="Tips/Pin/Locus_icon" transform="translate(76.000000, 128.000000)">
                            <path d="M14,1 C21.1797017,1 27,6.82029825 27,14 C27,14.110638 26.9986179,14.2209532 26.99587,14.3309293 L27,14 C27,15.6470588 26.7231834,17.0726644 26.2607368,18.3419499 L26.141028,18.6568877 C25.583683,20.1090414 24.7733046,21.4358008 23.7638733,22.5831855 C22.2111997,24.5063503 20.3907044,26.1457274 19,28 C17.0906403,30.5458129 16.5002125,35 14.0001062,35 C11.5,35 10.9093597,30.5458129 9,28 C7.60929557,26.1457274 5.78880029,24.5063503 4.23584488,22.5837752 C3.2266954,21.4358008 2.41631701,20.1090414 1.85897204,18.6568877 L1.73926318,18.3419499 C1.30882049,17.160506 1.03920356,15.8436298 1.00394714,14.3387966 C1.00145014,14.2263179 1,14.1133283 1,14 C1,6.82029825 6.82029825,1 14,1 Z" id="BG" fill="#29CCCC" fill-rule="evenodd"></path>
                            <path d="M14,1 C21.1797017,1 27,6.82029825 27,14 C27,14.110638 26.9986179,14.2209532 26.99587,14.3309293 L27,14 C27,15.6470588 26.7231834,17.0726644 26.2607368,18.3419499 L26.141028,18.6568877 C25.583683,20.1090414 24.7733046,21.4358008 23.7638733,22.5831855 C22.2111997,24.5063503 20.3907044,26.1457274 19,28 C17.0906403,30.5458129 16.5002125,35 14.0001062,35 C11.5,35 10.9093597,30.5458129 9,28 C7.60929557,26.1457274 5.78880029,24.5063503 4.23584488,22.5837752 C3.2266954,21.4358008 2.41631701,20.1090414 1.85897204,18.6568877 L1.73926318,18.3419499 C1.30882049,17.160506 1.03920356,15.8436298 1.00394714,14.3387966 C1.00145014,14.2263179 1,14.1133283 1,14 C1,6.82029825 6.82029825,1 14,1 Z" id="Line" stroke="#12A5B3" stroke-width="1" stroke-linecap="round" stroke-linejoin="round"></path>
                            <g id="iconLine/S/Place/Place" transform="translate(6.000000, 6.000000)" stroke="#FFFFFF" stroke-linecap="round" stroke-linejoin="round" stroke-width="1">
                                <path d="M8,12 L8,15.5 M8,6 L8,8 M8,0.5 L8,2 M2,8 L13.5,8 L15.5,10 L13.5,12 L2,12 L2,8 Z M2.5,2 L14,2 L14,6 L2.5,6 L0.5,4 L2.5,2 Z" id="Place"></path>
                            </g>
                        </g>
                    </g>
                </g>
            </g>
        </g>
    </g>
</svg>