<?xml version="1.0" encoding="utf-8"?>
<!-- Generator: Adobe Illustrator 24.0.1, SVG Export Plug-In . SVG Version: 6.00 Build 0)  -->
<svg version="1.1" id="图层_1" xmlns="http://www.w3.org/2000/svg" xmlns:xlink="http://www.w3.org/1999/xlink" x="0px" y="0px"
	 viewBox="0 0 16 16" style="enable-background:new 0 0 16 16;" xml:space="preserve">
<style type="text/css">
	.st0{fill-rule:evenodd;clip-rule:evenodd;fill:#FFFFFF;}
</style>
<title>icon/S/Point/Capture</title>
<g id="icon_x2F_S_x2F_Point_x2F_Capture">
	<path id="Rectangle-15-Copy" class="st0" d="M1.3,4H12c0.6,0,1,0.4,1,1v6c0,0.6-0.4,1-1,1H1.3c-0.5,0-0.9-0.3-1-0.8
		C0.1,10.1,0,9.1,0,8c0-1.1,0.1-2.1,0.3-3.2C0.4,4.3,0.8,4,1.3,4z M15.5,6C15.8,6,16,6.2,16,6.5v3c0,0.3-0.2,0.5-0.5,0.5h-2V6H15.5z
		 M11.5,5C11.8,5,12,5.2,12,5.5S11.8,6,11.5,6h-5C6.2,6,6,5.8,6,5.5S6.2,5,6.5,5H11.5z"/>
</g>
</svg>
