<?xml version="1.0" standalone="no"?><!DOCTYPE svg PUBLIC "-//W3C//DTD SVG 1.1//EN" "http://www.w3.org/Graphics/SVG/1.1/DTD/svg11.dtd"><svg t="1617268518602" class="icon" viewBox="0 0 1024 1024" version="1.1" xmlns="http://www.w3.org/2000/svg" p-id="83836" width="64" height="64" xmlns:xlink="http://www.w3.org/1999/xlink"><defs><style type="text/css"></style></defs><path d="M889.6 992H134.4c-19.2 0-32-12.8-32-32V454.4C57.6 448 19.2 403.2 19.2 352v-6.4-12.8c0-12.8 6.4-19.2 6.4-25.6L102.4 44.8c6.4-12.8 19.2-25.6 32-25.6h748.8c12.8 0 25.6 6.4 32 25.6l76.8 268.8c0 6.4 6.4 12.8 6.4 19.2V352c0 51.2-32 89.6-76.8 102.4V960c0 12.8-12.8 32-32 32z m-153.6-64h128V454.4c-44.8-12.8-76.8-57.6-76.8-102.4v-6.4-6.4c0-6.4-12.8-19.2-19.2-19.2-12.8 0-19.2 6.4-19.2 19.2v12.8c0 57.6-51.2 108.8-108.8 108.8s-108.8-51.2-108.8-108.8v-6.4-6.4c0-6.4-12.8-19.2-19.2-19.2s-19.2 12.8-19.2 19.2v12.8c0 57.6-51.2 108.8-108.8 108.8-57.6 0-108.8-51.2-108.8-108.8v-6.4-6.4c0-6.4-6.4-19.2-19.2-19.2s-19.2 12.8-19.2 19.2v12.8c0 44.8-25.6 83.2-70.4 102.4v473.6h121.6V576c0-19.2 12.8-32 32-32h384c19.2 0 32 12.8 32 32v352z m-384 0h320v-320h-320v64h140.8v64H352v64h268.8v64H352v64z m499.2-595.2v12.8c0 32 19.2 51.2 44.8 51.2s44.8-19.2 44.8-44.8v-6.4c0-6.4 0-6.4-6.4-12.8l-70.4-249.6h-704L89.6 326.4c0 6.4-6.4 12.8-6.4 12.8 0 32 19.2 51.2 44.8 51.2s44.8-19.2 44.8-44.8v-6.4C172.8 294.4 211.2 256 256 256c44.8 0 76.8 32 83.2 76.8v12.8c0 32 19.2 51.2 44.8 51.2 25.6 0 44.8-19.2 44.8-44.8v-6.4C428.8 294.4 467.2 256 512 256c44.8 0 76.8 32 83.2 76.8v12.8c0 32 19.2 51.2 44.8 51.2s44.8-19.2 44.8-44.8v-6.4c0-51.2 38.4-89.6 83.2-89.6 38.4 0 76.8 32 83.2 76.8z" p-id="83837" fill="#ffffff"></path></svg>