<?xml version="1.0" standalone="no"?><!DOCTYPE svg PUBLIC "-//W3C//DTD SVG 1.1//EN" "http://www.w3.org/Graphics/SVG/1.1/DTD/svg11.dtd"><svg t="1576214431649" class="icon" viewBox="0 0 1024 1024" version="1.1" xmlns="http://www.w3.org/2000/svg" p-id="15729" xmlns:xlink="http://www.w3.org/1999/xlink" width="200" height="200"><defs><style type="text/css"></style></defs><path d="M663.36 421.12c41.408 21.376 80 51.968 113.408 91.776a288.064 288.064 0 0 0-248.32 383.168L128 896c0-249.408 102.528-407.68 232.64-474.88 39.872 36.608 92.992 58.88 151.36 58.88 57.728 0 110.336-21.824 150.08-57.728l1.28-1.152z m-481.024-13.12c24.448 21.696 55.68 35.904 90.112 39.232-77.056 69.056-137.472 176-163.072 320.832L0 768c0-192 81.024-312.064 182.336-360z m659.392 0.064c64.704 30.592 121.152 90.624 153.472 180.096a287.04 287.04 0 0 0-184.64-75.968 437.12 437.12 0 0 0-59.008-65.088 158.4 158.4 0 0 0 90.24-39.04zM512 64a192 192 0 1 1 0 384 192 192 0 0 1 0-384z m224 96a128 128 0 1 1-28.608 252.8l-10.368-6.784-12.352-7.36C716.8 359.936 736 310.208 736 256c0-33.664-7.424-65.6-20.736-94.272A121.6 121.6 0 0 1 736 160z m-448 0c7.04 0 14.08 0.576 20.8 1.664A222.912 222.912 0 0 0 288 256c0 54.208 19.2 103.936 51.328 142.592-7.68 4.416-15.36 9.088-22.848 14.144A128 128 0 1 1 288 160z m512 416a224 224 0 1 1 0 448 224 224 0 0 1 0-448z m0 320a32 32 0 1 0 0 64 32 32 0 0 0 0-64z m0-256a55.488 55.488 0 0 1 54.976 63.36l-18.432 128.96a36.928 36.928 0 0 1-73.088 0l-18.432-128.96A55.488 55.488 0 0 1 800 640z" p-id="15730" data-spm-anchor-id="a313x.7781069.0.i0" class="" fill="#ffffff"></path></svg>