<?xml version="1.0" encoding="utf-8"?>
<!-- Generator: Adobe Illustrator 24.0.1, SVG Export Plug-In . SVG Version: 6.00 Build 0)  -->
<svg version="1.1" id="图层_1" xmlns="http://www.w3.org/2000/svg" xmlns:xlink="http://www.w3.org/1999/xlink" x="0px" y="0px"
	 viewBox="0 0 16 16" style="enable-background:new 0 0 16 16;" xml:space="preserve">
<style type="text/css">
	.st0{fill-rule:evenodd;clip-rule:evenodd;fill:#FFFFFF;}
</style>
<title>icon/S/Point/Mac</title>
<g id="icon_x2F_S_x2F_Point_x2F_Mac">
	<path id="Rectangle-2" class="st0" d="M10.5,1C11.3,1,12,1.7,12,2.5c0,0.7-0.4,1.2-1,1.4L11,9h4c0.6,0,1,0.4,1,1v4c0,0.6-0.4,1-1,1
		H1c-0.6,0-1-0.4-1-1v-4c0-0.6,0.4-1,1-1h9l0-5.1C9.4,3.7,9,3.2,9,2.5C9,1.7,9.7,1,10.5,1z M3,12c-0.6,0-1,0.4-1,1s0.4,1,1,1
		s1-0.4,1-1S3.6,12,3,12z M6,12c-0.6,0-1,0.4-1,1s0.4,1,1,1s1-0.4,1-1S6.6,12,6,12z M9,12c-0.6,0-1,0.4-1,1s0.4,1,1,1s1-0.4,1-1
		S9.6,12,9,12z M7.7,0.4L8.5,1C8.2,1.4,8,1.9,8,2.5C8,3.1,8.2,3.6,8.5,4L7.7,4.6C7.3,4.1,7,3.3,7,2.5C7,1.7,7.3,0.9,7.7,0.4z
		 M13.3,0.4C13.7,0.9,14,1.7,14,2.5c0,0.8-0.3,1.6-0.7,2.1L12.5,4c0.3-0.4,0.5-1,0.5-1.5c0-0.6-0.2-1.1-0.5-1.5L13.3,0.4z"/>
</g>
</svg>
