<?xml version="1.0" encoding="utf-8"?>
<!-- Generator: Adobe Illustrator 24.0.1, SVG Export Plug-In . SVG Version: 6.00 Build 0)  -->
<svg version="1.1" id="图层_1" xmlns="http://www.w3.org/2000/svg" xmlns:xlink="http://www.w3.org/1999/xlink" x="0px" y="0px"
	 viewBox="0 0 16 16" style="enable-background:new 0 0 16 16;" xml:space="preserve">
<style type="text/css">
	.st0{fill-rule:evenodd;clip-rule:evenodd;fill:#FFFFFF;}
</style>
<title>icon/S/Point/Wifi</title>
<g id="icon_x2F_S_x2F_Point_x2F_Wifi">
	<path id="形状结合" class="st0" d="M8,12.3c0.8,0,1.5,0.7,1.5,1.5S8.8,15.2,8,15.2s-1.5-0.7-1.5-1.5S7.2,12.3,8,12.3z M8,9.2
		c0.9,0,1.7,0.2,2.4,0.7l0.2,0.1l0.8,0.6l-1.1,1.5l-0.8-0.6c-0.4-0.3-1-0.5-1.5-0.5c-0.5,0-1,0.1-1.4,0.4l-0.2,0.1l-0.8,0.6
		l-1.1-1.5l0.8-0.6C6.1,9.5,7,9.2,8,9.2z M8,6.5c1.4,0,2.8,0.4,4,1.2l0.2,0.2L13,8.4L11.9,10l-0.8-0.6c-0.9-0.6-2-1-3.1-1
		c-1,0-2,0.3-2.9,0.9L4.9,9.4L4.1,10L3,8.4l0.8-0.6C5,7,6.5,6.5,8,6.5z M8,3.8c2,0,3.9,0.6,5.5,1.6l0.3,0.2l0.8,0.6l-1.1,1.5
		l-0.8-0.6c-1.4-1-3-1.5-4.7-1.5C6.4,5.7,4.9,6.2,3.6,7L3.3,7.2L2.6,7.8L1.4,6.2l0.8-0.6C3.9,4.5,5.9,3.8,8,3.8z M8,1.1
		c2.5,0,5,0.8,7,2.1l0.3,0.2L16.1,4L15,5.6L14.2,5c-1.8-1.3-4-2-6.2-2C5.9,3,3.8,3.6,2.1,4.8L1.8,5L1,5.6L-0.1,4l0.8-0.6
		C2.8,1.9,5.3,1.1,8,1.1z"/>
</g>
</svg>
