<?xml version="1.0" encoding="utf-8"?>
<!-- Generator: Adobe Illustrator 24.0.1, SVG Export Plug-In . SVG Version: 6.00 Build 0)  -->
<svg version="1.1" id="图层_1" xmlns="http://www.w3.org/2000/svg" xmlns:xlink="http://www.w3.org/1999/xlink" x="0px" y="0px"
	 viewBox="0 0 200 200" style="enable-background:new 0 0 200 200;" xml:space="preserve">
<style type="text/css">
	.st0{fill:#FFFFFF;}
</style>
<path class="st0" d="M99.9,0C83.8,0,69.7,8.8,62.2,21.8h75.6C129.9,8.3,115.5,0,99.9,0z"/>
<path class="st0" d="M28.7,89.3l-0.1,1.2v13.1c0,3.2,2.3,5.9,5.4,6.5l1.2,0.1h6.6V83.9h-6.6C32,83.9,29.3,86.2,28.7,89.3z"/>
<path class="st0" d="M171.2,105.1l0.1-1.2V90.7c0-3.2-2.3-5.9-5.4-6.5l-1.2-0.1h-6.6v26.3h6.6C167.9,110.5,170.6,108.2,171.2,105.1z
	"/>
<path class="st0" d="M161.9,197.6H38c-1.6,0-2.8-1.3-2.8-2.8v-11.5c0-1.6,1.3-2.8,2.8-2.8h123.9c1.6,0,2.8,1.3,2.8,2.8v11.5
	C164.7,196.3,163.5,197.6,161.9,197.6z"/>
<path class="st0" d="M153.8,44.3H46.3c-1.6,0-2.8-1.3-2.8-2.8V30c0-1.6,1.3-2.8,2.8-2.8h107.5c1.6,0,2.8,1.3,2.8,2.8v11.5
	C156.6,43,155.3,44.3,153.8,44.3z"/>
<path class="st0" d="M147.7,49.6h-5h-16.4H73.7H57.3h-5c-2.7,0-4.8,2.1-4.8,4.8v5v105.7v5c0,2.7,2.1,4.8,4.8,4.8h5h16.4h52.6h16.4h5
	c2.7,0,4.8-2.1,4.8-4.8v-5V59.4v-5C152.6,51.8,150.4,49.6,147.7,49.6z M80.2,147c0,0.1,0,0.3,0,0.4l-0.1,1c-0.6,3.1-3.3,5.4-6.4,5.4
	l0,0c-0.4,0-0.8,0-1.1-0.1l0,0c-2.7-0.5-4.8-2.6-5.3-5.3l-0.1-1c0-0.1,0-0.3,0-0.4v-34.7V77.6c0-0.1,0-0.3,0-0.4l0.1-1
	c0.5-2.7,2.6-4.8,5.3-5.3l0,0c0.4-0.1,0.7-0.1,1.1-0.1l0,0c3.2,0,5.9,2.3,6.4,5.4l0.1,1c0,0.1,0,0.3,0,0.4v34.7V147z M106.6,136.3
	c0,0.1,0,0.3,0,0.4l-0.1,1l0,0v9.4c0,0.1,0,0.3,0,0.4l-0.1,1c-0.6,3.1-3.2,5.3-6.4,5.4c-3.1,0-5.8-2.3-6.4-5.4l-0.1-1
	c0-0.1,0-0.3,0-0.4v-9.4l0,0l-0.1-1c0-0.1,0-0.3,0-0.4v-24v-24c0-0.1,0-0.3,0-0.4l0.1-1l0,0v-9.4c0-0.1,0-0.3,0-0.4l0.1-1
	c0.6-3.1,3.2-5.3,6.4-5.4c3.1,0,5.8,2.3,6.4,5.4l0.1,1c0,0.1,0,0.3,0,0.4v9.4l0,0l0.1,1c0,0.1,0,0.3,0,0.4v24V136.3z M132.9,147
	c0,0.1,0,0.3,0,0.4l-0.1,1c-0.5,2.7-2.6,4.8-5.3,5.3l0,0c-0.4,0.1-0.7,0.1-1.1,0.1l0,0c-3.2,0-5.9-2.3-6.4-5.4l-0.1-1
	c0-0.1,0-0.3,0-0.4v-34.7V77.6c0-0.1,0-0.3,0-0.4l0.1-1c0.6-3.1,3.3-5.4,6.4-5.4l0,0c0.4,0,0.8,0,1.1,0.1l0,0
	c2.7,0.5,4.8,2.6,5.3,5.3l0.1,1c0,0.1,0,0.3,0,0.4v34.7V147z"/>
</svg>
