<?xml version="1.0" standalone="no"?><!DOCTYPE svg PUBLIC "-//W3C//DTD SVG 1.1//EN" "http://www.w3.org/Graphics/SVG/1.1/DTD/svg11.dtd"><svg t="1553135283061" class="icon" style="" viewBox="0 0 1024 1024" version="1.1" xmlns="http://www.w3.org/2000/svg" p-id="12307" xmlns:xlink="http://www.w3.org/1999/xlink" width="16" height="16"><defs><style type="text/css"></style></defs><path d="M160 325.632L897.472 128l16.576 61.824L160 391.872V800H192v32H64v-32h32v-391.04l-47.424 12.672L32 359.872l64-17.088V288a32 32 0 0 1 64 0v37.568z m750.72 212.736l1.6 1.664c28.8 24 47.552 68.288 47.68 100.48v95.616c0 23.296-9.408 44.352-24.576 60.096v37.12c0 21.632-18.688 39.36-41.664 39.36h-50.368c-23.04 0-41.664-17.728-41.664-39.36v-9.536H350.272v9.536c0 21.76-18.624 39.36-41.6 39.36h-50.432c-22.976 0-41.6-17.728-41.6-39.36v-37.12A86.08 86.08 0 0 1 192 736.128v-95.68c0-32.192 18.752-76.544 47.552-100.48 0.576-0.512 1.024-1.152 1.664-1.664l26.88-25.216c-22.4-5.056-46.4-23.168-46.4-41.856 0-21.632 30.912-29.376 57.472-29.376 27.648 0 30.848 18.432 31.168 31.488L379.712 408.32c14.144-13.568 40.96-24.32 60.864-24.32h270.592c19.968 0 46.72 10.752 60.864 24.32l69.504 65.152c0.32-13.056 3.584-31.488 31.168-31.488 26.56 0 57.536 7.68 57.536 29.376 0 18.688-24.064 36.928-46.4 41.792l26.88 25.216z" p-id="12308" fill="#ffffff"></path></svg>