<?xml version="1.0" encoding="utf-8"?>
<!-- Generator: Adobe Illustrator 24.0.1, SVG Export Plug-In . SVG Version: 6.00 Build 0)  -->
<svg version="1.1" id="图层_1" xmlns="http://www.w3.org/2000/svg" xmlns:xlink="http://www.w3.org/1999/xlink" x="0px" y="0px"
	 viewBox="0 0 200 200" style="enable-background:new 0 0 200 200;" xml:space="preserve">
<style type="text/css">
	.st0{fill:#FFFFFF;}
</style>
<g>
	<circle class="st0" cx="100" cy="100" r="31.5"/>
	<path class="st0" d="M100,5.5C47.8,5.5,5.5,47.8,5.5,100s42.3,94.5,94.5,94.5s94.5-42.3,94.5-94.5S152.2,5.5,100,5.5z M91.8,21.7
		h0.4v15.8H92c-13.8,1.8-26.7,8.1-36.6,17.9c-9.9,9.9-16.2,22.8-18,36.7H21.7C25.4,55,54.7,25.6,91.8,21.7z M92.1,178.3
		c-37.2-3.8-66.7-33.2-70.5-70.5h15.8l0,0c3.6,28.5,26.1,51,54.6,54.6L92.1,178.3L92.1,178.3z M52.8,100c0-26.1,21.1-47.2,47.2-47.2
		s47.2,21.1,47.2,47.2s-21.1,47.2-47.2,47.2S52.8,126.1,52.8,100z M107.9,178.3v-15.8c28.5-3.6,51-26.1,54.6-54.6h15.8l0,0
		C174.6,145.1,145.1,174.6,107.9,178.3z M162.5,92.1c-3.6-28.5-26.1-51-54.6-54.6V21.7l0,0c-0.4,0-0.7-0.1-1.1-0.1l1.1,0.1l0,0
		c37.2,3.7,66.7,33.1,70.5,70.4C178.4,92.1,162.5,92.1,162.5,92.1z"/>
</g>
</svg>
