<?xml version="1.0" encoding="UTF-8"?>
<svg width="40px" height="40px" viewBox="0 0 40 40" version="1.1" xmlns="http://www.w3.org/2000/svg" xmlns:xlink="http://www.w3.org/1999/xlink">
    <!-- Generator: Sketch 52.3 (67297) - http://www.bohemiancoding.com/sketch -->
    <title>Img/Logo_LingMou_40</title>
    <desc>Created with Sketch.</desc>
    <defs>
        <radialGradient cx="30.2218624%" cy="54.573227%" fx="30.2218624%" fy="54.573227%" r="59.6246652%" gradientTransform="translate(0.302219,0.545732),scale(0.967742,1.000000),rotate(90.000000),translate(-0.302219,-0.545732)" id="radialGradient-1">
            <stop stop-color="#FFAA00" offset="0%"></stop>
            <stop stop-color="#FF8800" offset="100%"></stop>
        </radialGradient>
    </defs>
    <g id="Img/Logo_LingMou_40" stroke="none" stroke-width="1" fill="none" fill-rule="evenodd">
        <path d="M18.9324852,16.0242541 C13.3118968,15.4542386 4.32219905,12.0304455 2,1 C8.14240429,6.60360302 14.8964314,8.40453054 20.5312278,8.99569736 C30.4469383,10.0359903 33.0853096,18.5166192 32.9272235,22.1833865 C32.7691374,25.8501538 31.7613936,29.3215911 27.7896619,32.5773921 C32.003305,24.6392382 26.4701997,16.7886961 18.9324852,16.0242541 Z M31.4964961,12.5928051 C30.1520665,10.9472752 28.4666202,9.57939665 26.5450615,8.59156926 C30.707371,8.10402371 34.5059206,6.80866231 38,4.88140546 C36.5384257,7.99568543 34.3513581,10.6635105 31.4964961,12.5928051 Z M11.224765,17.9009828 C11.2578478,17.8764911 11.2909306,17.8524797 11.3256141,17.8295354 C11.7343468,17.5531368 12.2268536,17.3919933 12.7572456,17.3919933 C13.5085453,17.3919933 14.184128,17.7153476 14.6525698,18.2307936 C15.0666384,18.6859441 15.3184945,19.2899123 15.3184945,19.9532155 C15.3184945,21.3678106 14.1717487,22.5144912 12.7572456,22.5144912 C11.7834374,22.5144912 10.937158,21.9712452 10.5038801,21.1713969 C10.3075177,20.809144 10.1959966,20.3939592 10.1959966,19.9532155 C10.1959966,19.2462115 10.4825364,18.6059593 10.9462291,18.142218 C10.9606362,18.1278111 10.9750432,18.1139378 10.9899838,18.0995309 C11.0033236,18.0867248 11.0166635,18.0744523 11.02995,18.0621798 C11.0919002,18.0050858 11.1569986,17.9511935 11.224765,17.9009828 Z M8.56780619,13.9391586 C9.2267044,14.4274194 10.4276002,15.178894 11.319104,15.5967143 C9.04459477,16.6724383 7.82549525,19.0944163 7.82549525,21.1518075 C7.82549525,23.8113862 9.66332664,27.160008 13.6088649,27.4287582 C16.8805147,27.6516066 19.9955398,24.8889341 19.9955398,21.1518075 C19.9955398,19.9432077 19.635706,18.7673895 18.9204129,17.7052215 C22.6820013,18.0698596 27.1198865,21.604897 27.1198865,27.160008 C27.1198865,32.7151189 23.2307182,35.9948375 18.8359431,35.8329857 C10.4645532,35.5246823 5.60223098,28.0657029 5.87537582,22.0191862 C6.05833362,17.9691101 7.1847911,15.8988166 8.56780619,13.9391586 Z" id="Logo" fill="url(#radialGradient-1)"></path>
    </g>
</svg>