<?xml version="1.0" encoding="UTF-8"?>
<svg width="798px" height="391px" viewBox="0 0 798 391" version="1.1" xmlns="http://www.w3.org/2000/svg" xmlns:xlink="http://www.w3.org/1999/xlink">
    <!-- Generator: Sketch 52.3 (67297) - http://www.bohemiancoding.com/sketch -->
    <title>UpgradeImg</title>
    <desc>Created with Sketch.</desc>
    <defs>
        <radialGradient cx="50%" cy="50%" fx="50%" fy="50%" r="50%" gradientTransform="translate(0.500000,0.500000),scale(0.400000,1.000000),rotate(90.000000),scale(1.000000,2.493329),translate(-0.500000,-0.500000)" id="radialGradient-1">
            <stop stop-color="#FFFFFF" offset="0%"></stop>
            <stop stop-color="#FFFFFF" offset="37.9538475%"></stop>
            <stop stop-color="#FFFFFF" stop-opacity="0" offset="100%"></stop>
        </radialGradient>
        <linearGradient x1="99.9996589%" y1="50.0003364%" x2="-6.29664773e-05%" y2="50.0003364%" id="linearGradient-2">
            <stop stop-color="#D3DAED" offset="0%"></stop>
            <stop stop-color="#99A7D8" offset="100%"></stop>
        </linearGradient>
        <polygon id="path-3" points="0.1835 0.0191741667 3.8335 0.0191741667 3.8335 19 0.1835 19"></polygon>
        <polygon id="path-5" points="0 0.0689230769 19.7275589 0.0689230769 19.7275589 34.2105198 0 34.2105198"></polygon>
        <polygon id="path-7" points="0.1835 0.0191741667 3.8335 0.0191741667 3.8335 19 0.1835 19"></polygon>
        <polygon id="path-9" points="0 0.0689230769 19.7275589 0.0689230769 19.7275589 34.2105198 0 34.2105198"></polygon>
        <polygon id="path-11" points="0.1835 0.0191741667 3.8335 0.0191741667 3.8335 19 0.1835 19"></polygon>
        <polygon id="path-13" points="0 0.0689230769 19.7275589 0.0689230769 19.7275589 34.2105198 0 34.2105198"></polygon>
        <linearGradient x1="0.00148236146%" y1="50.00008%" x2="100.001114%" y2="50.00008%" id="linearGradient-15">
            <stop stop-color="#D3DAED" offset="0%"></stop>
            <stop stop-color="#99A7D8" offset="100%"></stop>
        </linearGradient>
        <linearGradient x1="0.000145480652%" y1="49.9983032%" x2="100.002528%" y2="49.9983032%" id="linearGradient-16">
            <stop stop-color="#99A7D8" offset="0%"></stop>
            <stop stop-color="#D3DAED" offset="100%"></stop>
        </linearGradient>
        <linearGradient x1="100%" y1="50%" x2="0%" y2="50%" id="linearGradient-17">
            <stop stop-color="#FF8B1B" offset="0%"></stop>
            <stop stop-color="#FFC124" offset="100%"></stop>
        </linearGradient>
        <linearGradient x1="100%" y1="50%" x2="0%" y2="50%" id="linearGradient-18">
            <stop stop-color="#FFC024" offset="0%"></stop>
            <stop stop-color="#FF821D" offset="100%"></stop>
        </linearGradient>
        <linearGradient x1="100%" y1="50%" x2="0%" y2="50%" id="linearGradient-19">
            <stop stop-color="#49496C" offset="0%"></stop>
            <stop stop-color="#5B619C" offset="100%"></stop>
        </linearGradient>
        <linearGradient x1="-7.16729677%" y1="-8.35304782%" x2="86.329901%" y2="86.8706366%" id="linearGradient-20">
            <stop stop-color="#4B4B70" offset="0%"></stop>
            <stop stop-color="#5B629E" offset="100%"></stop>
        </linearGradient>
        <linearGradient x1="0.000739667932%" y1="50.0038108%" x2="99.9966587%" y2="50.0038108%" id="linearGradient-21">
            <stop stop-color="#F9F6F9" offset="0%"></stop>
            <stop stop-color="#D3DAED" offset="100%"></stop>
        </linearGradient>
        <linearGradient x1="0.00180572548%" y1="50.0003153%" x2="99.998093%" y2="50.0003153%" id="linearGradient-22">
            <stop stop-color="#F9F6F9" offset="0%"></stop>
            <stop stop-color="#D3DAED" offset="100%"></stop>
        </linearGradient>
        <linearGradient x1="0.00188005914%" y1="50.0028224%" x2="100.001512%" y2="50.0028224%" id="linearGradient-23">
            <stop stop-color="#F9F6F9" offset="0%"></stop>
            <stop stop-color="#D3DAED" offset="100%"></stop>
        </linearGradient>
        <linearGradient x1="-0.00105078913%" y1="49.9990804%" x2="99.9970002%" y2="49.9990804%" id="linearGradient-24">
            <stop stop-color="#4B4B70" offset="0%"></stop>
            <stop stop-color="#5B629E" offset="100%"></stop>
        </linearGradient>
        <linearGradient x1="0.00109953515%" y1="49.9989852%" x2="99.999594%" y2="49.9989852%" id="linearGradient-25">
            <stop stop-color="#D3DAED" offset="0%"></stop>
            <stop stop-color="#99A7D8" offset="100%"></stop>
        </linearGradient>
        <linearGradient x1="0.00154738188%" y1="49.9981439%" x2="100.000474%" y2="49.9981439%" id="linearGradient-26">
            <stop stop-color="#99A7D8" offset="0%"></stop>
            <stop stop-color="#D3DAED" offset="100%"></stop>
        </linearGradient>
        <linearGradient x1="-0.000180421577%" y1="50.0002678%" x2="99.9977006%" y2="50.0002678%" id="linearGradient-27">
            <stop stop-color="#4B4B70" offset="0%"></stop>
            <stop stop-color="#5B629E" offset="100%"></stop>
        </linearGradient>
        <linearGradient x1="-2.58753163e-06%" y1="50.002189%" x2="99.9999469%" y2="50.002189%" id="linearGradient-28">
            <stop stop-color="#D3DAED" offset="0%"></stop>
            <stop stop-color="#99A7D8" offset="100%"></stop>
        </linearGradient>
        <linearGradient x1="0.000311802763%" y1="49.9995416%" x2="100.000101%" y2="49.9995416%" id="linearGradient-29">
            <stop stop-color="#D3DAED" offset="0%"></stop>
            <stop stop-color="#99A7D8" offset="100%"></stop>
        </linearGradient>
        <linearGradient x1="4.62461268e-05%" y1="49.9997604%" x2="100.000761%" y2="49.9997604%" id="linearGradient-30">
            <stop stop-color="#D3DAED" offset="0%"></stop>
            <stop stop-color="#99A7D8" offset="100%"></stop>
        </linearGradient>
        <linearGradient x1="100%" y1="3.46944695e-16%" x2="0%" y2="105.693594%" id="linearGradient-31">
            <stop stop-color="#FFCE00" offset="0%"></stop>
            <stop stop-color="#FFA000" offset="100%"></stop>
        </linearGradient>
        <linearGradient x1="-1.11022302e-14%" y1="50%" x2="100%" y2="50%" id="linearGradient-32">
            <stop stop-color="#4966A2" offset="0%"></stop>
            <stop stop-color="#233669" offset="100%"></stop>
        </linearGradient>
        <linearGradient x1="100%" y1="50%" x2="0%" y2="50%" id="linearGradient-33">
            <stop stop-color="#4966A2" offset="0%"></stop>
            <stop stop-color="#233669" offset="100%"></stop>
        </linearGradient>
        <linearGradient x1="0.00106825491%" y1="50.0014589%" x2="100.001729%" y2="50.0014589%" id="linearGradient-34">
            <stop stop-color="#99A7D8" offset="0%"></stop>
            <stop stop-color="#D3DAED" offset="100%"></stop>
        </linearGradient>
        <linearGradient x1="-0.000241517869%" y1="50.0020518%" x2="99.9976722%" y2="50.0020518%" id="linearGradient-35">
            <stop stop-color="#D3DAED" offset="0%"></stop>
            <stop stop-color="#99A7D8" offset="100%"></stop>
        </linearGradient>
        <linearGradient x1="0.000156705401%" y1="49.9988349%" x2="100.00148%" y2="49.9988349%" id="linearGradient-36">
            <stop stop-color="#D3DAED" offset="0%"></stop>
            <stop stop-color="#99A7D8" offset="100%"></stop>
        </linearGradient>
        <linearGradient x1="100%" y1="50%" x2="-2.22044605e-14%" y2="50%" id="linearGradient-37">
            <stop stop-color="#EAF0FF" offset="0%"></stop>
            <stop stop-color="#DEE7FF" offset="100%"></stop>
        </linearGradient>
        <linearGradient x1="-3.15234364e-05%" y1="50.0017964%" x2="99.9999708%" y2="50.0017964%" id="linearGradient-38">
            <stop stop-color="#D3DAED" offset="0%"></stop>
            <stop stop-color="#99A7D8" offset="100%"></stop>
        </linearGradient>
        <linearGradient x1="50%" y1="0%" x2="50%" y2="100%" id="linearGradient-39">
            <stop stop-color="#E9ECF6" offset="0%"></stop>
            <stop stop-color="#AEBFE9" offset="100%"></stop>
        </linearGradient>
        <path d="M1.516,7.002 C0.609,7.311 0,8.162 0,9.119 L0,12.754 L7.134,17.078 L7.134,13.444 C7.134,12.487 7.744,11.635 8.651,11.326 L8.651,5.009 L1.516,0.563 L1.516,7.002 Z" id="path-40"></path>
        <polygon id="path-42" points="0.651 6.009 0.651 19 9.951 13.769 9.897 0.808"></polygon>
        <linearGradient x1="50%" y1="100%" x2="50%" y2="-2.48949813e-15%" id="linearGradient-44">
            <stop stop-color="#FFC024" offset="0%"></stop>
            <stop stop-color="#FF821D" offset="100%"></stop>
        </linearGradient>
        <polygon id="path-45" points="0.5159 0.519 16.8979 0.519 16.8979 10.0096 0.5159 10.0096"></polygon>
    </defs>
    <g id="0_Login" stroke="none" stroke-width="1" fill="none" fill-rule="evenodd">
        <g id="3_System-Upgrade" transform="translate(-561.000000, -286.000000)">
            <g id="UpgradeImg" transform="translate(560.000000, 286.000000)">
                <ellipse id="Oval" fill="url(#radialGradient-1)" cx="400" cy="231" rx="400" ry="160"></ellipse>
                <g id="手机" transform="translate(240.000000, 161.000000)">
                    <path d="M146.66095,2.38359259 L6.47398895,83.8324444 C2.48128177,86.1516852 0.0331049724,90.4400926 0.0561767956,95.0721389 C0.0677127072,97.3411852 1.28667403,99.4326204 3.25162431,100.552343 L67.3887293,137.131222 C71.7403315,139.633222 78.8554254,139.620352 83.1980552,137.10162 L226.854762,53.7556759 C228.838939,52.6063519 230.060464,50.4827407 230.060464,48.1815185 L230.060464,44.9278889 C230.060464,42.7566574 228.904309,40.7501667 227.031646,39.6677685 L162.493348,2.31666667 C160.331006,1.08883333 157.494453,0.474916667 154.651492,0.474916667 C151.754696,0.476203704 148.852773,1.11328704 146.66095,2.38359259" id="Fill-222" fill="url(#linearGradient-2)"></path>
                    <path d="M226.775421,39.0086885 C231.139841,41.4928423 231.156504,45.5862846 226.812592,48.1078038 L83.1981834,131.361746 C78.8555536,133.883265 71.7404597,133.89615 67.3875757,131.391381 L3.31584088,94.5233423 C-1.03576133,92.0198615 -1.0447337,87.9070923 3.2991779,85.3855731 L146.476504,2.38674615 C150.819134,-0.134773077 157.944482,-0.164407692 162.308902,2.31845769 L226.775421,39.0086885 Z" id="Fill-225" fill="#F3F6F9"></path>
                    <path d="M223.048466,42.3869102 L158.710279,4.57236867 C155.293545,2.56419551 151.060699,2.54924305 147.629863,4.5332273 L5.91505235,86.4840852 C4.95885233,87.0370367 4.63195479,88.2604456 5.18490625,89.2166457 C5.35906789,89.5178174 5.60877919,89.7683492 5.90937798,89.9434979 L70.8443857,127.778921 C74.2618137,129.77014 78.4851726,129.773351 81.9056245,127.787331 L223.039305,45.8407354 C223.99453,45.2861019 224.319274,44.0621195 223.764641,43.1068941 C223.591836,42.8092797 223.34516,42.5612908 223.048466,42.3869102 Z" id="Fill-233" fill="#D3DAED"></path>
                </g>
                <g id="Group-11-Copy-2" transform="translate(209.000000, 287.000000)">
                    <g id="Group-3" transform="translate(7.000000, 27.000000)">
                        <mask id="mask-4" fill="white">
                            <use xlink:href="#path-3"></use>
                        </mask>
                        <g id="Clip-2"></g>
                        <path d="M0.1835,0.0191741667 L0.1835,17.0305075 C0.1835,17.7357242 0.5335,18.3844158 1.101,18.7370242 C2.3185,19.4879992 3.8335,18.5432242 3.8335,17.0305075 L3.8335,2.28824917 L0.1835,0.0191741667 Z" id="Fill-1" fill="#A5B3D7" mask="url(#mask-4)"></path>
                    </g>
                    <path d="M7,27 L7,27.7653312 L9.65205479,29.2717403 L9.65205479,44.0313151 C9.65205479,44.9233033 9.07123288,45.6158741 8.32328767,45.8826622 C9.5890411,46.3353933 11,45.4272362 11,44.0313151 L11,29.2717403 L7,27 Z" id="Fill-4" fill="#8493BA"></path>
                    <g id="Group-8">
                        <mask id="mask-6" fill="white">
                            <use xlink:href="#path-5"></use>
                        </mask>
                        <g id="Clip-7"></g>
                        <path d="M8.93828125,0.703907692 L0.5153125,22.6722154 C-0.8128125,26.1337538 0.499375,30.0826769 3.5965625,31.9491385 L5.0575,32.8269846 C8.191875,34.7128308 12.0620313,34.6685231 15.1539063,32.7079077 L16.2721875,31.9989846 C19.27375,30.0937538 20.516875,26.2085231 19.2126563,22.8079077 L10.7392188,0.703907692 C10.4151563,-0.146246154 9.26234375,-0.146246154 8.93828125,0.703907692" id="Fill-6" fill="#A9E9BA" mask="url(#mask-6)"></path>
                    </g>
                    <path d="M8.81508638,7.33785222 L4.31340695,19.0272538 C3.60478383,20.8690473 4.07445264,23.6402908 5.96136769,23.9624621 C8.1861147,24.3445059 10.0977492,21.7044118 9.99612492,20.8490898 L9.77914342,7.33785222 C9.60336094,6.88738259 8.98812226,6.88738259 8.81508638,7.33785222" id="Fill-9" fill="#C3FFD3"></path>
                </g>
                <g id="Group-11-Copy-4" transform="translate(584.000000, 248.000000)">
                    <g id="Group-3" transform="translate(7.000000, 27.000000)">
                        <mask id="mask-8" fill="white">
                            <use xlink:href="#path-7"></use>
                        </mask>
                        <g id="Clip-2"></g>
                        <path d="M0.1835,0.0191741667 L0.1835,17.0305075 C0.1835,17.7357242 0.5335,18.3844158 1.101,18.7370242 C2.3185,19.4879992 3.8335,18.5432242 3.8335,17.0305075 L3.8335,2.28824917 L0.1835,0.0191741667 Z" id="Fill-1" fill="#A5B3D7" mask="url(#mask-8)"></path>
                    </g>
                    <path d="M7,27 L7,27.7653312 L9.65205479,29.2717403 L9.65205479,44.0313151 C9.65205479,44.9233033 9.07123288,45.6158741 8.32328767,45.8826622 C9.5890411,46.3353933 11,45.4272362 11,44.0313151 L11,29.2717403 L7,27 Z" id="Fill-4" fill="#8493BA"></path>
                    <g id="Group-8">
                        <mask id="mask-10" fill="white">
                            <use xlink:href="#path-9"></use>
                        </mask>
                        <g id="Clip-7"></g>
                        <path d="M8.93828125,0.703907692 L0.5153125,22.6722154 C-0.8128125,26.1337538 0.499375,30.0826769 3.5965625,31.9491385 L5.0575,32.8269846 C8.191875,34.7128308 12.0620313,34.6685231 15.1539063,32.7079077 L16.2721875,31.9989846 C19.27375,30.0937538 20.516875,26.2085231 19.2126563,22.8079077 L10.7392188,0.703907692 C10.4151563,-0.146246154 9.26234375,-0.146246154 8.93828125,0.703907692" id="Fill-6" fill="#A9E9BA" mask="url(#mask-10)"></path>
                    </g>
                    <path d="M8.81508638,7.33785222 L4.31340695,19.0272538 C3.60478383,20.8690473 4.07445264,23.6402908 5.96136769,23.9624621 C8.1861147,24.3445059 10.0977492,21.7044118 9.99612492,20.8490898 L9.77914342,7.33785222 C9.60336094,6.88738259 8.98812226,6.88738259 8.81508638,7.33785222" id="Fill-9" fill="#C3FFD3"></path>
                </g>
                <g id="Group-11-Copy-3" transform="translate(183.000000, 271.000000)">
                    <g id="Group-3" transform="translate(7.000000, 27.000000)">
                        <mask id="mask-12" fill="white">
                            <use xlink:href="#path-11"></use>
                        </mask>
                        <g id="Clip-2"></g>
                        <path d="M0.1835,0.0191741667 L0.1835,17.0305075 C0.1835,17.7357242 0.5335,18.3844158 1.101,18.7370242 C2.3185,19.4879992 3.8335,18.5432242 3.8335,17.0305075 L3.8335,2.28824917 L0.1835,0.0191741667 Z" id="Fill-1" fill="#A5B3D7" mask="url(#mask-12)"></path>
                    </g>
                    <path d="M7,27 L7,27.7653312 L9.65205479,29.2717403 L9.65205479,44.0313151 C9.65205479,44.9233033 9.07123288,45.6158741 8.32328767,45.8826622 C9.5890411,46.3353933 11,45.4272362 11,44.0313151 L11,29.2717403 L7,27 Z" id="Fill-4" fill="#8493BA"></path>
                    <g id="Group-8">
                        <mask id="mask-14" fill="white">
                            <use xlink:href="#path-13"></use>
                        </mask>
                        <g id="Clip-7"></g>
                        <path d="M8.93828125,0.703907692 L0.5153125,22.6722154 C-0.8128125,26.1337538 0.499375,30.0826769 3.5965625,31.9491385 L5.0575,32.8269846 C8.191875,34.7128308 12.0620313,34.6685231 15.1539063,32.7079077 L16.2721875,31.9989846 C19.27375,30.0937538 20.516875,26.2085231 19.2126563,22.8079077 L10.7392188,0.703907692 C10.4151563,-0.146246154 9.26234375,-0.146246154 8.93828125,0.703907692" id="Fill-6" fill="#A9E9BA" mask="url(#mask-14)"></path>
                    </g>
                    <path d="M8.81508638,7.33785222 L4.31340695,19.0272538 C3.60478383,20.8690473 4.07445264,23.6402908 5.96136769,23.9624621 C8.1861147,24.3445059 10.0977492,21.7044118 9.99612492,20.8490898 L9.77914342,7.33785222 C9.60336094,6.88738259 8.98812226,6.88738259 8.81508638,7.33785222" id="Fill-9" fill="#C3FFD3"></path>
                </g>
                <g id="应用" transform="translate(279.000000, 177.000000)">
                    <path d="M124.867403,13.7642346 C123.69074,13.08135 121.76168,13.0761962 120.582453,13.7539269 L106.468906,21.8622154 C105.288398,22.5412346 105.285834,23.6544654 106.462497,24.33735 L120.58758,32.5345423 C121.764243,33.2187154 123.69074,33.2187154 124.867403,32.5345423 L138.898917,24.3914654 C140.076862,23.7085808 140.076862,22.5914846 138.898917,21.9073115 L124.867403,13.7642346 Z" id="Fill-235" fill="#99A7D8"></path>
                    <path d="M102.579125,0.561240385 C101.402462,-0.121644231 99.4734011,-0.126798077 98.2941746,0.550932692 L84.1806276,8.65922115 C83.0001193,9.33824038 82.9975558,10.4514712 84.1755006,11.1343558 L98.2993017,19.3315481 C99.4759646,20.0157212 101.402462,20.0157212 102.579125,19.3315481 L116.610639,11.1884712 C117.788583,10.5055865 117.788583,9.38849038 116.610639,8.70431731 L102.579125,0.561240385 Z" id="Fill-237" fill="#C2CAE8"></path>
                    <path d="M148.000623,26.9671 C146.822678,26.2842154 144.894899,26.2790615 143.714391,26.9567923 L129.600844,35.0650808 C128.420336,35.7441 128.419054,36.8573308 129.595717,37.5402154 L143.719518,45.7374077 C144.897463,46.4215808 146.822678,46.4215808 148.000623,45.7374077 L162.030855,37.5943308 C163.2088,36.9114462 163.2088,35.79435 162.030855,35.1101769 L148.000623,26.9671 Z" id="Fill-239" fill="#C2CAE8"></path>
                    <path d="M96.9613923,29.7013442 C95.7847293,29.0184596 93.8556685,29.0133058 92.6751602,29.6910365 L78.562895,37.799325 C77.3823867,38.4783442 77.3798232,39.591575 78.5564862,40.2744596 L92.6802873,48.4716519 C93.858232,49.155825 95.7847293,49.155825 96.9613923,48.4716519 L110.992906,40.328575 C112.169569,39.6456904 112.169569,38.5273058 110.992906,37.8444212 L96.9613923,29.7013442 Z" id="Fill-241" fill="#C2CAE8"></path>
                    <path d="M74.6731138,16.49835 C73.4964508,15.8154654 71.5673901,15.8103115 70.3868818,16.4880423 L56.2746166,24.5963308 C55.0941083,25.27535 55.0915448,26.3885808 56.2682077,27.0714654 L70.3932906,35.2686577 C71.5699536,35.9528308 73.4964508,35.9528308 74.6731138,35.2686577 L88.7046276,27.1255808 C89.8812906,26.4426962 89.8812906,25.3256 88.7046276,24.6414269 L74.6731138,16.49835 Z" id="Fill-243" fill="#C2CAE8"></path>
                    <path d="M120.556433,42.90305 C119.37977,42.2214538 117.450709,42.2163 116.270201,42.8940308 L102.156654,51.0023192 C100.977428,51.68005 100.974864,52.7945692 102.151527,53.4774538 L116.275328,61.6746462 C117.453273,62.3588192 119.37977,62.3588192 120.556433,61.6746462 L134.587947,53.5315692 C135.76461,52.8486846 135.76461,51.7303 134.587947,51.0474154 L120.556433,42.90305 Z" id="Fill-245" fill="#C2CAE8"></path>
                    <path d="M69.0553812,46.9270442 C67.8774365,46.2441596 65.9496575,46.2390058 64.7691492,46.9167365 L50.6556022,55.025025 C49.4750939,55.7040442 49.4725304,56.817275 50.6504751,57.5001596 L64.7742762,65.6973519 C65.952221,66.381525 67.8774365,66.381525 69.0553812,65.6973519 L83.086895,57.554275 C84.263558,56.8713904 84.263558,55.7530058 83.086895,55.0701212 L69.0553812,46.9270442 Z" id="Fill-247" fill="#C2CAE8"></path>
                    <path d="M46.7672309,32.4355885 C45.5892862,31.7527038 43.6615072,31.74755 42.4809989,32.4252808 L28.3674519,40.5335692 C27.1882254,41.2125885 27.1856619,42.3258192 28.3623249,43.0087038 L42.486126,51.2058962 C43.6640707,51.8900692 45.5892862,51.8900692 46.7672309,51.2058962 L60.7987448,43.0628192 C61.9754077,42.3799346 61.9754077,41.2628385 60.7987448,40.5786654 L46.7672309,32.4355885 Z" id="Fill-249" fill="#C2CAE8"></path>
                    <path d="M92.6504221,59.3058096 C91.4724773,58.622925 89.5434166,58.6190596 88.3641901,59.2967904 L74.2506431,67.4050788 C73.0701348,68.0828096 73.0675713,69.1960404 74.245516,69.878925 L88.3693171,78.0761173 C89.5459801,78.7602904 91.4724773,78.7602904 92.6504221,78.0761173 L106.680654,69.9330404 C107.858599,69.2501558 107.858599,68.1330596 106.680654,67.4488865 L92.6504221,59.3058096 Z" id="Fill-251" fill="#C2CAE8"></path>
                    <path d="M41.1482166,61.5744038 C39.9715536,60.8928077 38.0424928,60.8876538 36.8632663,61.5653846 L22.7497193,69.6736731 C21.569211,70.3514038 21.5666475,71.4659231 22.7445923,72.1488077 L36.8683934,80.346 C38.0450564,81.0301731 39.9715536,81.0301731 41.1482166,80.346 L55.1797304,72.2029231 C56.3576751,71.5200385 56.3576751,70.4029423 55.1797304,69.7174808 L41.1482166,61.5744038 Z" id="Fill-253" fill="#C2CAE8"></path>
                    <path d="M20.1417061,49.6598712 C18.9650431,48.978275 17.0359823,48.9731212 15.8567558,49.6508519 L1.74320884,57.7591404 C0.562700552,58.4368712 0.560137017,59.5513904 1.73808177,60.234275 L15.8618829,68.4314673 C17.0385459,69.1156404 18.9650431,69.1156404 20.1417061,68.4314673 L34.1732199,60.2883904 C35.3511646,59.6055058 35.3511646,58.4884096 34.1732199,57.8042365 L20.1417061,49.6598712 Z" id="Fill-255" fill="#C2CAE8"></path>
                    <path d="M65.5630762,76.0658596 C64.3851315,75.3842635 62.4573525,75.3791096 61.2768442,76.0568404 L47.1632972,84.1651288 C45.982789,84.8428596 45.9815072,85.9573788 47.1581702,86.6402635 L61.2819713,94.8374558 C62.459916,95.5216288 64.3851315,95.5216288 65.5630762,94.8374558 L79.5933083,86.6943788 C80.771253,86.0114942 80.771253,84.8931096 79.5933083,84.2089365 L65.5630762,76.0658596 Z" id="Fill-257" fill="#C2CAE8"></path>
                    <path d="M102.173542,2.5206377 C101.002512,1.83081479 99.0860501,1.82560858 97.912472,2.51022528 L83.8817787,10.7008961 C82.7082006,11.3868143 82.7056521,12.5113558 83.8766817,13.2011787 L97.917569,21.4816567 C99.0885986,22.1727811 101.002512,22.1727811 102.173542,21.4816567 L116.122683,13.2558439 C117.292439,12.566021 117.292439,11.4362733 116.122683,10.7464504 L102.173542,2.5206377 Z" id="Fill-247" fill="#C2CAE8"></path>
                </g>
                <g id="方块" transform="translate(280.000000, 170.000000)">
                    <g id="方块1" transform="translate(82.000000, 0.000000)">
                        <path d="M16.9153704,9.50375 L16.2762963,9.79375 L0.0842592593,9.7 L0.146481481,16.86 C0.146481481,17.505 0.501666667,18.10125 1.07981481,18.42625 L15.3662963,26.4725 C16.5601852,27.1375 18.515,27.1375 19.7075926,26.4725 L34.3544444,18.43 C34.7511111,18.2125 34.9948148,17.80625 34.9935185,17.365 L34.9909259,16.05375 C34.9896296,15.99 34.977963,15.935 34.9688889,15.8775 L34.8353704,9.90375 L21.817963,9.8275 L21.2618519,9.5125 C20.662963,9.17875 19.8709259,9.01125 19.0788889,9.01125 C18.2946296,9.01125 17.5116667,9.17625 16.9153704,9.50375" id="Fill-345" fill="url(#linearGradient-15)"></path>
                        <path d="M15.3624074,0.495941176 L1.04611111,8.29311765 C-0.151666667,8.94411765 -0.152962963,10.0151176 1.03962963,10.6722941 L15.3662963,18.5534706 C16.5601852,19.2118824 18.515,19.2118824 19.7075926,18.5534706 L33.9396296,10.7229412 C35.1335185,10.067 35.1335185,8.99229412 33.9396296,8.33511765 L19.7075926,0.504588235 C19.1087037,0.174764706 18.3166667,0.00923529412 17.5246296,0.00923529412 C16.7403704,0.00923529412 15.9574074,0.171058824 15.3624074,0.495941176" id="Fill-348" fill="url(#linearGradient-16)"></path>
                    </g>
                    <g id="方块2" transform="translate(54.000000, 16.000000)">
                        <path d="M17.0331429,10.3428529 L16.4005714,10.6358162 L0.339428571,10.539 L0.399857143,17.742375 C0.399857143,18.3899118 0.753428571,18.9909265 1.32557143,19.3178382 L15.4967143,27.4101618 C16.6795714,28.0803309 18.6184286,28.0803309 19.8038571,27.4101618 L34.3298571,19.3216103 C34.7232857,19.1028309 34.965,18.6941912 34.9637143,18.2516029 L34.9611429,16.930125 C34.9611429,16.8685147 34.9482857,16.8131912 34.9392857,16.7553529 L34.8068571,10.7452059 L21.8944286,10.6685074 L21.3441429,10.3516544 C20.7488571,10.0159412 19.9632857,9.84745588 19.179,9.84745588 C18.3998571,9.84745588 17.6232857,10.0134265 17.0331429,10.3428529" id="Fill-436" fill="url(#linearGradient-17)"></path>
                        <path d="M15.5470968,1.33620915 L1.29806452,9.17464052 C0.105806452,9.82908497 0.103225806,10.9057516 1.2916129,11.5651634 L15.5522581,19.489281 C16.7393548,20.1511765 18.6851613,20.1511765 19.8748387,19.489281 L34.04,11.6173203 C35.2270968,10.9591503 35.2270968,9.87751634 34.04,9.21562092 L19.8748387,1.34490196 C19.2774194,1.01333333 18.4877419,0.846928105 17.7006452,0.846928105 C16.92,0.846928105 16.1393548,1.00960784 15.5470968,1.33620915" id="Fill-439" fill="url(#linearGradient-18)"></path>
                    </g>
                    <g id="方块3" transform="translate(45.000000, 73.000000)">
                        <path d="M17.0871429,9.513 L16.4545714,9.80686667 L0.394714286,9.71186667 L0.455142857,16.9673333 C0.455142857,17.6222 0.807428571,18.2251333 1.38085714,18.5557333 L15.552,26.7092667 C16.7348571,27.3818667 18.6724286,27.3818667 19.8578571,26.7092667 L34.3838571,18.5595333 C34.776,18.3378667 35.019,17.9262 35.0177143,17.4803333 L35.0151429,16.1490667 C35.0151429,16.087 35.0022857,16.03 34.9932857,15.973 L34.8608571,9.9196 L21.9484286,9.84106667 L21.3981429,9.52313333 C20.8041429,9.18493333 20.0172857,9.0152 19.233,9.0152 C18.4551429,9.0152 17.6772857,9.18113333 17.0871429,9.513" id="Fill-527" fill="url(#linearGradient-19)"></path>
                        <path d="M15.6025806,0.51625 L1.35096774,8.40625 C0.161290323,9.065 0.158709677,10.14875 1.34709677,10.815 L15.6077419,18.79 C16.7948387,19.455 18.7393548,19.455 19.9290323,18.79 L34.0954839,10.86625 C35.2825806,10.20125 35.2825806,9.11375 34.0954839,8.45 L19.9290323,0.52625 C19.3316129,0.19125 18.5419355,0.025 17.7535484,0.025 C16.9741935,0.025 16.1948387,0.18875 15.6025806,0.51625" id="Fill-530" fill="url(#linearGradient-20)"></path>
                    </g>
                    <g id="方块4" transform="translate(127.000000, 26.000000)">
                        <path d="M17.2452857,9.70173333 L16.6127143,9.9956 L0.551571429,9.9006 L0.613285714,17.1560667 C0.613285714,17.8096667 0.965571429,18.4138667 1.539,18.7444667 L15.7101429,26.8954667 C16.8942857,27.5693333 18.8305714,27.5693333 20.0147143,26.8954667 L34.542,18.747 C34.9354286,18.5266 35.1784286,18.1136667 35.1771429,17.6690667 L35.172,16.3378 C35.172,16.2757333 35.1604286,16.2187333 35.1514286,16.1617333 L35.019,10.1070667 L22.1065714,10.0285333 L21.5575714,9.71186667 C20.9622857,9.3724 20.1754286,9.20266667 19.3898571,9.20266667 C18.612,9.20266667 17.8354286,9.3686 17.2452857,9.70173333" id="Fill-618" fill="url(#linearGradient-21)"></path>
                        <path d="M20.0152286,0.711625 C18.8310857,0.046625 16.8909429,0.042875 15.7029429,0.701625 L1.50608571,8.591625 C0.318085714,9.251625 0.315514286,10.334125 1.49965714,10.999125 L15.7093714,18.975375 C16.8935143,19.640375 18.8310857,19.640375 20.0152286,18.975375 L34.1310857,11.051625 C35.3152286,10.386625 35.3152286,9.299125 34.1310857,8.635375 L20.0152286,0.711625 Z" id="Fill-621" fill="#F8F9FC"></path>
                    </g>
                    <g id="方块5" transform="translate(49.000000, 44.000000)">
                        <path d="M16.8477419,9.646 L16.2129032,9.93986667 L0.0941935484,9.8436 L0.156129032,17.0990667 C0.156129032,17.7526667 0.509677419,18.3581333 1.08516129,18.6862 L15.3058065,26.8397333 C16.4941935,27.5136 18.44,27.5136 19.6283871,26.8397333 L34.2077419,18.6912667 C34.6025806,18.4696 34.8451613,18.0579333 34.843871,17.6108 L34.84,16.2820667 C34.84,16.2187333 34.8270968,16.163 34.8180645,16.1047333 L34.6864516,10.0500667 L21.7277419,9.9728 L21.1754839,9.6536 C20.5780645,9.31666667 19.7896774,9.14693333 19.0012903,9.14693333 C18.2206452,9.14693333 17.4412903,9.31286667 16.8477419,9.646" id="Fill-709" fill="url(#linearGradient-22)"></path>
                        <path d="M19.6282581,0.6555 C18.439871,-0.00825 16.4914839,-0.01325 15.3005161,0.64675 L1.05148387,8.53675 C-0.139483871,9.1955 -0.142064516,10.27925 1.04632258,10.943 L15.3056774,18.91925 C16.4940645,19.5855 18.439871,19.5855 19.6282581,18.91925 L33.7947097,10.9955 C34.9818065,10.33175 34.9818065,9.24425 33.7947097,8.57925 L19.6282581,0.6555 Z" id="Fill-712" fill="#F8F9FC"></path>
                    </g>
                    <g id="方块6" transform="translate(0.000000, 48.000000)">
                        <path d="M16.992,8.05766667 L16.3594286,8.35153333 L0.297,8.25526667 L0.36,15.512 C0.36,16.1656 0.709714286,16.7698 1.28442857,17.1004 L15.4542857,25.2526667 C16.6397143,25.9252667 18.576,25.9252667 19.7614286,25.2526667 L34.2874286,17.1016667 C34.6808571,16.8825333 34.9225714,16.4708667 34.9212857,16.025 L34.9187143,14.695 C34.9187143,14.6304 34.9058571,14.5746667 34.8981429,14.5164 L34.7644286,8.46173333 L21.8532857,8.38573333 L21.303,8.0678 C20.7077143,7.72833333 19.9208571,7.5586 19.1352857,7.5586 C18.3587143,7.5586 17.5821429,7.72453333 16.992,8.05766667" id="Fill-800" fill="url(#linearGradient-23)"></path>
                        <path d="M19.7469027,0.834092409 C18.5623532,0.161045105 16.6236491,0.157249725 15.4378148,0.823971397 L1.25020078,8.80944994 C0.0643665184,9.47617162 0.0617969967,10.5730363 1.24506174,11.2448185 L15.4429538,19.3175908 C16.6262186,19.9919032 18.5623532,19.9919032 19.7469027,19.3175908 L33.852292,11.2979538 C35.034272,10.6261716 35.034272,9.52551155 33.852292,8.85246425 L19.7469027,0.834092409 Z" id="Fill-803" fill="#F8F9FC"></path>
                    </g>
                </g>
                <g id="右上方块" transform="translate(486.000000, 124.000000)">
                    <g id="方块" transform="translate(0.000000, 7.000000)">
                        <path d="M13.2095722,7.40790909 L12.712,7.62024242 L0.0954434783,7.55130303 L0.143554783,12.7962121 C0.143554783,13.2691364 0.419561739,13.7062121 0.869022609,13.9447424 L12.0017252,19.8376818 C12.9322991,20.3243939 14.4541357,20.3243939 15.3847096,19.8376818 L26.7972174,13.9475 C27.1061426,13.7861818 27.2947896,13.4883636 27.2947896,13.1657273 L27.2922574,12.2047121 C27.2922574,12.1605909 27.2808626,12.1192273 27.2757983,12.0778636 L27.1719791,7.70159091 L17.0280904,7.64506061 L16.5950887,7.41480303 C16.1279026,7.17075758 15.5113183,7.04804545 14.8947339,7.04804545 C14.2832139,7.04804545 13.67296,7.168 13.2095722,7.40790909" id="Fill-976" fill="url(#linearGradient-17)"></path>
                        <path d="M11.999193,0.679090909 L0.84370087,6.39545455 C-0.0894052174,6.87409091 -0.0894052174,7.65818182 0.839902609,8.13954545 L12.0017252,13.9186364 C12.9322991,14.4 14.4541357,14.4 15.3847096,13.9186364 L26.4743652,8.17772727 C27.4049391,7.69636364 27.4049391,6.90954545 26.4743652,6.42681818 L15.3847096,0.687272727 C14.9175235,0.444545455 14.299673,0.323181818 13.6830887,0.323181818 C13.0728348,0.323181818 12.4625809,0.441818182 11.999193,0.679090909" id="Fill-979" fill="url(#linearGradient-18)"></path>
                    </g>
                    <g id="方块2">
                        <path d="M13.2095722,7.47133333 L12.712,7.68504545 L0.0954434783,7.61472727 L0.143554783,12.8610152 C0.143554783,13.3325606 0.419561739,13.7682576 0.869022609,14.0081667 L12.0017252,19.9011061 C12.9322991,20.3878182 14.4541357,20.3878182 15.3847096,19.9011061 L26.7972174,14.0095455 C27.1061426,13.8509848 27.2947896,13.5531667 27.2947896,13.2305303 L27.2922574,12.2681364 C27.2922574,12.2240152 27.2808626,12.1826515 27.2757983,12.1412879 L27.1719791,7.76363636 L17.0280904,7.70848485 L16.5950887,7.47684848 C16.1279026,7.23280303 15.5113183,7.1114697 14.8947339,7.1114697 C14.2832139,7.1114697 13.67296,7.23142424 13.2095722,7.47133333" id="Fill-982" fill="url(#linearGradient-19)"></path>
                        <path d="M11.999193,0.743181818 L0.84370087,6.45818182 C-0.0894052174,6.93545455 -0.0894052174,7.72090909 0.839902609,8.20227273 L12.0017252,13.9813636 C12.9322991,14.4613636 14.4541357,14.4613636 15.3847096,13.9813636 L26.4743652,8.24045455 C27.4049391,7.75909091 27.4049391,6.97090909 26.4743652,6.49090909 L15.3847096,0.75 C14.9175235,0.507272727 14.299673,0.387272727 13.6830887,0.387272727 C13.0728348,0.387272727 12.4625809,0.505909091 11.999193,0.743181818" id="Fill-985" fill="url(#linearGradient-24)"></path>
                    </g>
                </g>
                <g id="右方块" transform="translate(494.000000, 172.000000)">
                    <g id="方块" transform="translate(0.000000, 15.000000)">
                        <path d="M17.1295714,8.765 L16.4867143,9.02130769 L0.171,8.93761538 L0.234,15.2720769 C0.234,15.8435385 0.591428571,16.3705385 1.17385714,16.6595385 L15.57,23.7773077 C16.7721429,24.3644615 18.7418571,24.3644615 19.9427143,23.7773077 L34.7001429,16.6608462 C35.1,16.4699231 35.3468571,16.109 35.3442857,15.7193077 L35.3404286,14.5593846 C35.3404286,14.5044615 35.3275714,14.4560769 35.3198571,14.4037692 L35.1848571,9.11807692 L22.068,9.05138462 L21.5087143,8.77284615 C20.9057143,8.47730769 20.1072857,8.32953846 19.3101429,8.32953846 C18.5194286,8.32953846 17.73,8.47469231 17.1295714,8.765" id="Fill-1073" fill="url(#linearGradient-25)"></path>
                        <path d="M15.5635714,0.864 L1.14042857,7.72585714 C-0.0668571429,8.29928571 -0.0694285714,9.24171429 1.134,9.819 L15.57,16.7592857 C16.7721429,17.3365714 18.7418571,17.3365714 19.9427143,16.7592857 L34.2822857,9.86657143 C35.4857143,9.28671429 35.4857143,8.34171429 34.2822857,7.76314286 L19.9427143,0.871714286 C19.3384286,0.581142857 18.5412857,0.435857143 17.7428571,0.435857143 C16.9534286,0.435857143 16.164,0.578571429 15.5635714,0.864" id="Fill-1076" fill="url(#linearGradient-26)"></path>
                    </g>
                    <g id="方块2" transform="translate(0.000000, 7.000000)">
                        <path d="M17.0807143,8.75453846 L16.4378571,9.01084615 L0.123428571,8.92715385 L0.185142857,15.2629231 C0.185142857,15.8330769 0.543857143,16.3613846 1.125,16.6477692 L15.5198571,23.7655385 C16.7232857,24.3526923 18.6917143,24.3526923 19.8951429,23.7655385 L34.6525714,16.6503846 C35.0511429,16.4568462 35.2967143,16.0998462 35.2954286,15.7101538 L35.2915714,14.5476154 C35.2915714,14.494 35.2787143,14.443 35.2697143,14.3946154 L35.136,9.10892308 L22.0191429,9.04092308 L21.4611429,8.76238462 C20.8555714,8.46684615 20.0571429,8.31907692 19.2587143,8.31907692 C18.4692857,8.31907692 17.6811429,8.46423077 17.0807143,8.75453846" id="Fill-1079" fill="url(#linearGradient-17)"></path>
                        <path d="M15.5147143,0.853714286 L1.09157143,7.71557143 C-0.114428571,8.289 -0.117,9.23271429 1.08514286,9.81 L15.5198571,16.7477143 C16.7232857,17.325 18.6917143,17.325 19.8951429,16.7477143 L34.2347143,9.85628571 C35.4381429,9.27771429 35.4381429,8.33142857 34.2347143,7.75414286 L19.8951429,0.861428571 C19.2895714,0.570857143 18.4911429,0.425571429 17.6927143,0.425571429 C16.9032857,0.425571429 16.1151429,0.568285714 15.5147143,0.853714286" id="Fill-1082" fill="url(#linearGradient-18)"></path>
                    </g>
                    <g id="方块3">
                        <path d="M17.0807143,7.51461224 L16.4378571,7.77061224 L0.123428571,7.68702041 L0.185142857,14.0138776 C0.185142857,14.5833469 0.543857143,15.1110204 1.125,15.3983673 L15.5198571,22.5075918 C16.7232857,23.0940408 18.6917143,23.0940408 19.8951429,22.5075918 L34.6525714,15.4022857 C35.0511429,15.2089796 35.2967143,14.8497959 35.2954286,14.4618776 L35.2915714,13.3007347 C35.2915714,13.2458776 35.2787143,13.197551 35.2697143,13.1466122 L35.136,7.86726531 L22.0191429,7.79934694 L21.4611429,7.52114286 C20.8555714,7.22726531 20.0584286,7.07967347 19.2612857,7.07967347 C18.4705714,7.07967347 17.6811429,7.22465306 17.0807143,7.51461224" id="Fill-1085" fill="url(#linearGradient-19)"></path>
                        <path d="M15.5147143,0.461104762 L1.09157143,7.37508571 C-0.114428571,7.9527619 -0.117,8.90087619 1.08514286,9.48502857 L15.5198571,16.4728381 C16.7232857,17.0544 18.6917143,17.0544 19.8951429,16.4728381 L34.2347143,9.5303619 C35.4381429,8.9488 35.4381429,7.99420952 34.2347143,7.41135238 L19.8951429,0.46887619 C19.2895714,0.176152381 18.4911429,0.0297904762 17.6927143,0.0297904762 C16.9032857,0.0297904762 16.1151429,0.173561905 15.5147143,0.461104762" id="Fill-1088" fill="url(#linearGradient-27)"></path>
                    </g>
                </g>
                <g id="信息流1" transform="translate(429.000000, 215.000000)">
                    <g id="Group-1375">
                        <path d="M62.1663429,0.40797225 C61.3010571,-0.10374525 59.8816286,-0.11272275 59.0099143,0.38745225 L1.1502,33.6901297 C0.279771429,34.1928697 0.274628571,35.0213647 1.13862857,35.5343647 L45.9290571,62.0680072 C46.7930571,62.5810072 48.2137714,62.5887022 49.0842,62.0872447 L106.9272,28.7755897 C107.797629,28.2741322 107.804057,27.4443547 106.938771,26.9326372 L62.1663429,0.40797225 Z" id="Fill-1370" fill="#F6F8FB"></path>
                        <path d="M106.927714,27.3175714 L49.0847143,60.714 C48.2142857,61.2167143 46.7935714,61.209 45.9295714,60.6947143 L1.13785714,34.0945714 C1.017,34.0212857 0.918,33.9402857 0.829285714,33.858 C0.303428571,34.3568571 0.399857143,35.0267143 1.13785714,35.4651429 L45.9295714,62.0665714 C46.7935714,62.5782857 48.2142857,62.5885714 49.0847143,62.0845714 L106.927714,28.6894286 C107.676,28.2574286 107.780143,27.5837143 107.247857,27.0758571 C107.156571,27.1632857 107.053714,27.2442857 106.927714,27.3175714" id="Fill-1373" fill="url(#linearGradient-28)"></path>
                    </g>
                    <g id="文字" transform="translate(23.000000, 18.000000)" fill="#EDF0F8">
                        <polygon id="Fill-1376" points="46.3287222 0.108990609 69.6076111 13.2357802 67.3689074 14.3853871 44.0913148 1.25859757"></polygon>
                        <polygon id="Fill-1378" points="40.9815 3.65010922 64.2603889 16.7768988 62.0229815 17.9277718 38.7440926 4.80098226"></polygon>
                        <polygon id="Fill-1380" points="14.0326667 0.108990609 54.6884074 22.945401 52.4522963 24.095008 11.7952593 1.25859757"></polygon>
                        <polygon id="Fill-1382" points="8.20568519 3.65010922 48.8614259 26.4865197 46.6253148 27.6361266 5.96827778 4.80098226"></polygon>
                        <polygon id="Fill-1384" points="2.3787037 7.1923673 20.5125926 17.351449 18.2764815 18.5035882 0.141296296 8.34197426"></polygon>
                    </g>
                    <path d="M61.2374189,19.041316 C65.4174943,16.6227827 65.4174943,12.6638893 61.2374189,10.245356 C57.0573434,7.82682267 50.2368151,7.82682267 46.081117,10.245356 C41.9241358,12.6638893 41.9241358,16.6227827 46.081117,19.041316 C50.2368151,21.4611427 57.0573434,21.4611427 61.2374189,19.041316" id="Fill-1390" fill="#EDF0F8"></path>
                    <path d="M23.516,37.7372727 C20.8413333,39.315 21.2106667,42.1213636 24.3373333,43.9663636 L32.4253333,48.7431818 C35.5533333,50.5895455 40.3026667,50.8077273 42.9773333,49.2286364 C45.6546667,47.6481818 45.284,44.8445455 42.156,42.9968182 L34.068,38.2213636 C32.344,37.2040909 30.128,36.6804545 28.0373333,36.6804545 C26.336,36.6804545 24.7173333,37.0281818 23.516,37.7372727" id="按钮" fill="url(#linearGradient-20)"></path>
                </g>
                <g id="信息流2" transform="translate(358.000000, 256.000000)">
                    <g id="Group-1482">
                        <path d="M62.445683,0.434606667 C61.5834943,-0.0814333333 60.1657585,-0.0904866667 59.2971547,0.415206667 L1.55873962,33.9991933 C0.68885283,34.5048867 0.683720755,35.3416733 1.54719245,35.8590067 L46.2424377,62.61678 C47.1059094,63.1341133 48.5223623,63.14058 49.3922491,62.63618 L107.112702,29.0418467 C107.982589,28.5374467 107.987721,27.6993667 107.124249,27.1833267 L62.445683,0.434606667 Z" id="Fill-1477" fill="#F6F8FB"></path>
                        <path d="M107.339143,28.1533793 L49.4961429,61.2938966 C48.6257143,61.7927586 47.205,61.7825517 46.3397143,61.2734828 L1.55057143,34.8771724 C1.42842857,34.8057241 1.32814286,34.7266207 1.24071429,34.6436897 C0.712285714,35.14 0.812571429,35.8021724 1.55057143,36.2385172 L46.3397143,62.6335517 C47.205,63.1451724 48.6257143,63.1528276 49.4961429,62.6552414 L107.339143,29.5147241 C108.086143,29.0860345 108.191571,28.4174828 107.659286,27.9147931 C107.569286,28.0002759 107.466429,28.0806552 107.339143,28.1533793" id="Fill-1480" fill="url(#linearGradient-29)"></path>
                    </g>
                    <g id="文字" transform="translate(24.000000, 18.000000)" fill="#EDF0F8">
                        <polygon id="Fill-1483" points="14.2558721 0.7917 54.3713372 23.5327435 52.1649419 24.6788739 12.0481977 1.93656957"></polygon>
                        <polygon id="Fill-1485" points="8.50632558 4.31822609 48.6217907 27.0605304 46.4141163 28.2054 6.29865116 5.46309565"></polygon>
                        <polygon id="Fill-1487" points="2.75677907 7.84475217 20.649686 17.9632304 18.4432907 19.1093609 0.547825581 8.99088261"></polygon>
                    </g>
                    <path d="M23.7776842,38.2822727 C21.1218045,39.8802879 21.4883609,42.713697 24.5915188,44.5819545 L32.6200301,49.4118485 C35.7258346,51.2773485 40.436812,51.4979545 43.0926917,49.8999394 C45.7472481,48.303303 45.382015,45.4685152 42.2775338,43.6016364 L34.2490226,38.7717424 C32.537985,37.7431667 30.3386466,37.2137121 28.2650226,37.2137121 C26.5764812,37.2137121 24.969985,37.565303 23.7776842,38.2822727" id="按钮" fill="url(#linearGradient-18)"></path>
                    <path d="M77.1931274,25.8096279 C82.2689575,22.8904171 82.2689575,18.1111897 77.1931274,15.1894081 C72.1172974,12.2701973 63.8333169,12.2701973 58.7857072,15.1894081 C53.7380976,18.1111897 53.7380976,22.8904171 58.7857072,25.8096279 C63.8333169,28.730124 72.1172974,28.730124 77.1931274,25.8096279" id="Fill-1493" fill="#EDF0F8"></path>
                    <path d="M62.3080381,15.8555556 L63.0787048,18.9917778 C63.0929524,19.0516667 63.057981,19.1078889 62.9815619,19.1396667 L59.1528381,20.7921111 C58.9637333,20.874 59.0582857,21.0707778 59.3121524,21.1245556 L64.4775619,22.238 C64.5772952,22.2612222 64.6640762,22.3076667 64.706819,22.3675556 L66.920381,25.4182222 C67.029181,25.5661111 67.3581714,25.6101111 67.4786286,25.4891111 L69.8994286,23.0434444 C69.9473524,22.9945556 70.0367238,22.9676667 70.1364571,22.9737778 L75.3355429,23.206 C75.5907048,23.217 75.6995048,23.0471111 75.5194667,22.9187778 L71.8513524,20.2934444 C71.778819,20.2408889 71.7490286,20.1761111 71.7671619,20.1186667 L72.7670857,17.2134444 C72.8163048,17.0704444 72.5546667,16.9225556 72.3241143,16.9628889 L67.6353524,17.7878889 C67.5433905,17.8037778 67.4358857,17.7891111 67.3465143,17.75 L62.7665524,15.7223333 C62.6966095,15.6917778 62.622781,15.6783333 62.5554286,15.6783333 C62.4025905,15.6783333 62.2808381,15.7492222 62.3080381,15.8555556" id="Fill-1495" fill="url(#linearGradient-18)"></path>
                </g>
                <g id="信息流3" transform="translate(329.000000, 296.000000)">
                    <path d="M17.9456538,2.98506452 L2.07519231,12.2557419 C0.224653846,13.3364194 0.231,15.0901613 2.09169231,16.1544839 L41.9785385,39.1519032 C43.8379615,40.2174839 46.8701538,40.199871 48.7168846,39.1116452 L64.6013077,29.7642258 C66.4480385,28.6785161 66.4366154,26.9222581 64.5733846,25.8629677 L24.6966923,2.94732258 C23.7777692,2.42396774 22.5732692,2.16354839 21.3649615,2.16354839 C20.1249231,2.16354839 18.8836154,2.43780645 17.9456538,2.98506452" id="Fill-111" fill="url(#linearGradient-30)"></path>
                    <path d="M17.443035,0.826862322 C19.3137857,-0.260254109 22.3855123,-0.277971956 24.2665277,0.788895508 L64.5787684,23.8398136 C66.4623501,24.9054155 66.475181,26.6721379 64.6082796,27.7655822 L48.5490777,37.1686964 C46.6834593,38.260875 43.6168652,38.2798584 41.7371328,37.2079287 L1.41591045,14.0734836 C-0.465105043,13.0028195 -0.472803606,11.2386282 1.39794714,10.1502462 L17.443035,0.826862322 Z" id="Fill-114" fill="#F6F8FB"></path>
                    <g id="Group" transform="translate(4.000000, 3.000000)" fill="url(#linearGradient-18)">
                        <polygon id="Fill-116" points="0.257529412 9.13014286 42.9595294 34.1244286 43.7657647 33.6448571 1.06764706 8.67628571"></polygon>
                        <polygon id="Fill-119" points="3.45941176 6.92314286 46.1588235 31.9174286 46.9689412 31.4378571 4.27082353 6.46928571"></polygon>
                        <polygon id="Fill-122" points="5.5338022 5.6448 48.0780952 30.9181 48.8826667 30.4319 6.34095238 5.1885"></polygon>
                        <polygon id="Fill-125" points="7.64855678 4.55681988 50.1928498 29.6718509 50.9974212 29.1899627 8.45570696 4.10077019"></polygon>
                        <polygon id="Fill-128" points="10.7598571 3.404 53.1845714 28.3982857 53.9868571 27.9187143 11.566 2.95014286"></polygon>
                        <polygon id="Fill-131" points="13.8742857 1.15714286 56.299 26.1527143 57.1012857 25.6731429 14.6804286 0.703285714"></polygon>
                        <polygon id="Fill-134" points="16.1186667 0.47375 29.5053333 7.89625 30.316 7.44125 16.9306667 0.04625"></polygon>
                    </g>
                </g>
                <g id="人2" transform="translate(520.000000, 170.000000)">
                    <path d="M13.50125,56.7788353 L12.2575,56.0243647 L12.2575,55.4458941 L10.96625,55.2517765 L8.04625,53.5008353 C7.3175,53.0647176 7.4125,51.9453059 8.205,51.6463647 C8.76375,51.4354235 9.38,51.4677765 9.915,51.7369529 L12.16125,52.8693059 L15.2725,54.0534235 L15.2075,55.2284824 C15.16,56.0994235 14.465,56.7788353 13.62375,56.7788353 L13.50125,56.7788353 Z" id="Fill-1500" fill="#363650"></path>
                    <path d="M13.987,56.4022471 L13.8645,56.4022471 L12.62075,55.6477765 L12.62075,55.0693059 L11.3295,54.8751882 L8.4095,53.1255412 C7.90325,52.8201294 7.80325,52.1898941 8.05075,51.7330706 C7.41075,52.1122471 7.37075,53.0957765 8.04575,53.5008353 L10.96575,55.2517765 L12.257,55.4458941 L12.257,56.0243647 L13.50075,56.7788353 L13.62325,56.7788353 C14.15825,56.7788353 14.63075,56.5044824 14.91825,56.0826 C14.65575,56.2806 14.33575,56.4022471 13.987,56.4022471" id="Fill-1502" fill="#48486A"></path>
                    <path d="M18.265625,53.4057176 L17.021875,52.6512471 L17.021875,52.0727765 L15.730625,51.8786588 L12.810625,50.1277176 C12.081875,49.6903059 12.176875,48.5721882 12.969375,48.2732471 C13.528125,48.0623059 14.144375,48.0946588 14.679375,48.3638353 L16.925625,49.4961882 L20.036875,50.6803059 L19.973125,51.8553647 C19.924375,52.7263059 19.229375,53.4057176 18.388125,53.4057176 L18.265625,53.4057176 Z" id="Fill-1504" fill="#363650"></path>
                    <path d="M18.7515,53.0291294 L18.629,53.0291294 L17.38525,52.2746588 L17.38525,51.6961882 L16.094,51.5020706 L13.174,49.7524235 C12.66775,49.4470118 12.56775,48.8167765 12.81525,48.3599529 C12.17525,48.7391294 12.13525,49.7226588 12.81025,50.1277176 L15.73025,51.8786588 L17.0215,52.0727765 L17.0215,52.6512471 L18.26525,53.4057176 L18.38775,53.4057176 C18.92275,53.4057176 19.39525,53.1313647 19.68275,52.7094824 C19.42025,52.9074824 19.10025,53.0291294 18.7515,53.0291294" id="Fill-1506" fill="#48486A"></path>
                    <path d="M18.402375,51.8677882 C17.498625,51.8677882 16.766125,51.4860235 16.766125,50.5503765 L15.858625,25.4729647 C15.858625,24.5373176 17.498625,23.7802588 18.402375,23.7802588 C19.306125,23.7802588 20.037375,24.5373176 20.037375,25.4729647 L20.037375,50.5503765 C20.037375,51.4860235 19.306125,51.8677882 18.402375,51.8677882" id="腿" fill="#99A7D8"></path>
                    <path d="M13.749,54.7517294 C12.90525,54.7517294 12.19025,54.6456118 12.1215,53.7578471 L11.20275,39.0877294 L11.2115,38.9622 L12.119,25.2173765 C12.1815,24.2856118 12.9565,23.5764353 13.86275,23.6450235 C14.764,23.7084353 17.714,24.5392588 17.6515,25.4723176 L14.90775,39.0877294 L15.3815,53.4873765 C15.45275,54.4204353 14.7815,54.6714941 13.8815,54.7465529 C13.8365,54.7504353 13.79275,54.7517294 13.749,54.7517294" id="腿" fill="#99A7D8"></path>
                    <path d="M9.99398874,14.0720664 L9.884875,13.6240235 C9.836125,13.4234353 9.952375,13.2189647 10.147375,13.1684941 C10.341125,13.1180235 10.538625,13.2383765 10.587375,13.4402588 L10.8676668,14.5911932 L11.4765,14.9529529 C14.19025,16.5136588 15.33775,17.6408353 17.6315,15.4680118 C18.0765,15.0474235 18.76525,15.0784824 19.17275,15.5404824 C19.57775,15.9998941 19.54775,16.7129529 19.10275,17.1335412 C16.289,19.7994235 14.45775,18.8896588 11.039,17.2526 C10.83025,17.1529529 10.62275,17.0442471 10.419,16.9264824 L8.8215,15.9390706 L8.76275,13.3404824 L9.99398874,14.0720664 Z" id="手" fill="#F2B1B5"></path>
                    <path d="M17.13625,8.87582353 C16.98625,8.95982353 16.84125,9.04752941 16.6975,9.13894118 C12.74625,11.6305294 11.845,14.8731765 11.845,18.3752353 L11.91875,21.3387059 L11.37375,27.9561765 C11.99125,28.3601176 12.78,28.517 13.63125,28.4824118 C13.7125,28.4799412 14.6325,28.4268235 14.83375,28.3922353 C17.14625,27.9957059 19.31,27.0445294 20.18625,25.3336471 L19.91375,17.3709412 C19.91375,17.3709412 20.5575,13.2104706 20.18625,10.6731765 C20.0125,9.49470588 19.115,8.62876471 18.0825,8.62876471 C17.77375,8.62876471 17.4525,8.70658824 17.13625,8.87582353" id="上身" fill="url(#linearGradient-31)" fill-rule="nonzero"></path>
                    <path d="M15.5062765,13.5821824 C15.7138059,12.9200647 15.3456882,12.2147118 14.6835706,12.0071824 C14.0471156,11.808438 14.1356865,11.654515 13.9150261,12.2690791 C13.9052722,12.2962447 13.9112591,12.5018205 13.575742,12.8178534 L12.8204896,14.5990782 C12.6981955,14.9906665 12.2562176,15.4116529 12.0733941,15.7674176 C11.9881588,16.4283 11.7958986,17.1035814 11.7958986,17.7879343 L11.8781349,19.8291174 C13.2221349,18.6963526 14.3821588,17.1633 14.9343353,15.4030059 L15.5062765,13.5821824 Z" id="阴影" fill="#BD7412"></path>
                    <path d="M3.20048826,20.4299989 L2.6625,20.9658118 C2.5175,21.1094588 2.2875,21.1042824 2.15,20.9554588 C2.01125,20.8053412 2.01625,20.5672235 2.16,20.4248706 L2.20472787,20.3804004 L1.75288235,20.3578941 C1.15994118,20.3294824 0.700411765,19.8242471 0.731294118,19.2288353 C0.759705882,18.6346588 1.27482353,18.1714235 1.86035294,18.2060118 L5.77870588,18.4011882 C8.87311765,18.6260118 11.7254118,16.8756 12.9125294,14.0418353 L13.65,12.2827765 C13.8797647,11.7343059 14.511,11.4748941 15.0594706,11.7058941 C15.6091765,11.9356588 15.8673529,12.5668941 15.6363529,13.1153647 L14.9001176,14.8756588 C13.4437059,18.3505412 10.0577647,20.5777765 6.33335294,20.5777765 C6.10482353,20.5777765 5.87629412,20.5691294 5.64652941,20.5518353 L3.20048826,20.4299989 Z" id="手" fill="#F2B1B5"></path>
                    <g id="头" transform="translate(12.000000, 0.000000)">
                        <path d="M4.9008,10.4251412 C4.46350588,10.4251412 4.11021176,10.0718471 4.11021176,9.63455294 L4.11021176,5.97931765 L5.69138824,5.97931765 L5.69138824,9.63455294 C5.69138824,10.0718471 5.33809412,10.4251412 4.9008,10.4251412" id="Fill-1522" fill="#F2B1B5"></path>
                        <path d="M6.76831765,8.39135294 L4.98331765,8.39135294 C3.33172941,8.39135294 1.99267059,7.05352941 1.99267059,5.40194118 L1.99267059,1.57005882 L6.76831765,1.57005882 L6.76831765,8.39135294 Z" id="Fill-1524" fill="#F2B1B5"></path>
                        <path d="M2.43997059,1.56956471 L1.99279412,1.56956471 L1.99279412,5.57685882 C1.99279412,7.13209412 3.25279412,8.39085882 4.80679412,8.39085882 L5.25397059,8.39085882 C3.70120588,8.39085882 2.43997059,7.13209412 2.43997059,5.57685882 L2.43997059,1.56956471 Z" id="Fill-1526" fill="#F7D0D3"></path>
                        <path d="M8.31947647,4.54625294 C8.33059412,3.85572353 8.38741765,3.16148824 8.28612353,2.47466471 C8.15765294,1.61366471 7.72282941,0.730429412 6.92977059,0.373429412 C6.45418235,0.158488235 5.91435882,0.158488235 5.39182941,0.162194118 C4.33318235,0.168370588 3.27206471,0.175782353 2.21341765,0.183194118 C1.74771176,0.185664706 1.23753529,0.199252941 0.838535294,0.469782353 C0.0874764706,0.976252941 0.456829412,1.94472353 0.906476471,2.52284118 C1.14859412,2.8329 1.45494706,3.12319412 1.81318235,3.29366471 C2.15782941,3.45919412 2.74335882,3.32084118 2.96571176,3.66919412 C3.2733,4.15219412 2.69147647,5.68766471 3.36224118,5.87542941 C3.88106471,6.01995882 3.81312353,5.48137059 3.89465294,5.18119412 C3.94653529,4.99342941 4.08735882,4.80442941 4.28377059,4.79578235 C4.52835882,4.78466471 4.69141765,5.05395882 4.73712353,5.29360588 C4.8273,5.77042941 4.68771176,6.2559 4.62718235,6.73642941 C4.56788824,7.21695882 4.61482941,7.7679 4.97924118,8.08784118 C5.11141765,8.20148824 5.27200588,8.27684118 5.43506471,8.33613529 C5.91682941,8.51031176 6.79512353,8.72278235 7.23859412,8.37442941 C7.86735882,7.88154706 8.26759412,7.37507647 8.34171176,6.55484118 C8.38494706,6.06442941 8.34788824,5.57154706 8.32812353,5.0799 C8.32194706,4.90201765 8.31700588,4.72413529 8.31947647,4.54625294 Z" id="Fill-1528" fill="url(#linearGradient-32)" fill-rule="nonzero"></path>
                    </g>
                </g>
                <g id="人" transform="translate(293.000000, 203.000000)">
                    <path d="M21.4873955,6.00360455 L21.6602733,3.65397143 C21.6754733,3.45725714 21.84394,3.31068571 22.03774,3.32482857 C22.23154,3.33897143 22.3772067,3.51125714 22.3632733,3.70797143 L22.3089359,4.44187134 C22.3174156,4.42981322 22.3260758,4.4179402 22.3349106,4.40625411 L23.0588,2.35887143 C23.1234,2.17244286 23.3260667,2.07601429 23.5084667,2.14287143 C23.6921333,2.20972857 23.7871333,2.41415714 23.7212667,2.5993 L23.3486281,3.65230111 L24.1032933,1.94975714 C24.1830933,1.76975714 24.3920933,1.68875714 24.56816,1.77104286 C24.7454933,1.85075714 24.8252933,2.06161429 24.7454933,2.2429 L23.9405488,4.05887521 C23.9526389,4.06548642 23.9645813,4.07226922 23.9763747,4.07921905 L24.5572667,2.76721429 C24.6383333,2.58721429 24.8473333,2.50621429 25.0234,2.58721429 C25.2007333,2.66821429 25.2805333,2.87907143 25.1994667,3.05907143 L24.9071635,3.71926839 C25.0185703,3.57890672 25.2187234,3.54284808 25.3713533,3.64252857 C25.53602,3.74924286 25.5841533,3.97038571 25.47902,4.13624286 L24.52572,5.6478053 C24.5076848,5.69597589 24.4866011,5.74356102 24.4623933,5.79031429 L23.2793267,8.0776 C20.6573267,13.1510286 15.74266,16.5607429 10.13386,17.1971714 L8.84312667,17.3437429 C8.77092667,17.3514571 8.70126,17.3540286 8.63159333,17.3501714 C8.02359333,17.3167429 7.51059333,16.8410286 7.44219333,16.2071714 C7.41118033,15.9284267 7.47063791,15.6603088 7.59677404,15.4330642 C6.45323937,15.8869464 5.2516861,16.2230314 4.0087,16.4287962 L2.70884286,16.6432962 C2.63555714,16.6559885 2.56484286,16.6623346 2.49412857,16.6623346 C1.87698571,16.6623346 1.33184286,16.2219115 1.22641429,15.6012577 C1.10812857,14.9082577 1.58127143,14.2546038 2.28327143,14.1378346 L3.58312857,13.9220654 C8.39041429,13.1275269 12.4687,10.0394885 14.4924143,5.66318077 L14.9052951,4.77136955 L14.9527,2.44783846 C14.9552714,2.25364615 15.1185571,2.0988 15.3165571,2.10387692 C15.5132714,2.10641538 15.6701286,2.26760769 15.6662714,2.46306923 L15.6514716,3.18847729 C15.6592761,3.17635053 15.667267,3.16439023 15.6754387,3.15259842 L16.2982,1.09395 C16.3534857,0.907373077 16.5527714,0.800757692 16.7430571,0.856603846 C16.9307714,0.91245 17.0387714,1.10918077 16.9822,1.29575769 L16.6647568,2.34684293 L17.3333286,0.634107692 C17.4040429,0.452607692 17.6110429,0.362492308 17.7961857,0.4323 C17.9787571,0.502107692 18.0713286,0.706453846 18.0006143,0.887953846 L17.2830631,2.72285211 C17.295919,2.72877603 17.308629,2.73488345 17.3211916,2.74116976 L17.8393857,1.41366923 C17.9101,1.23216923 18.1171,1.14205385 18.3022429,1.21186154 C18.4848143,1.28293846 18.5773857,1.48601538 18.5066714,1.66878462 L18.2462019,2.33484867 C18.3516707,2.19032876 18.5514661,2.14444139 18.7121286,2.23321154 C18.8844143,2.32840385 18.9448429,2.54417308 18.8484143,2.71425 L17.9626789,4.25937553 C17.9472221,4.30681166 17.9287807,4.35385944 17.9072714,4.40029615 L16.8337,6.71918077 C15.223476,10.2006273 12.507874,12.9877225 9.16956723,14.7160259 L9.85139333,14.6386 C14.6229267,14.0973143 18.8029267,11.1967429 21.0335267,6.8806 L21.4873955,6.00360455 Z" id="Combined-Shape" fill="#F2B1B5"></path>
                    <g id="腿" transform="translate(1.000000, 26.000000)">
                        <g id="鞋子" transform="translate(0.000000, 30.000000)">
                            <path d="M9.162,0.765838462 L8.49342857,0.575453846 C7.407,0.265761538 6.23571429,0.4663 5.31514286,1.11614615 L4.61828571,0.607184615 L3.90857143,2.22164615 L0.483428571,1.9348 L1.22914286,4.93906923 C1.27671429,5.13072308 1.42457143,5.28556923 1.61742857,5.34014615 L3.02657143,5.74883846 C4.19914286,6.08772308 5.46557143,5.78437692 6.35014286,4.95303077 L9.47314286,2.01603077 C9.89357143,1.6213 9.72128571,0.924492308 9.162,0.765838462" id="Fill-1550" fill="#48486A"></path>
                            <path d="M9.162,0.765838462 L8.49342857,0.575453846 C7.407,0.265761538 6.23571429,0.4663 5.31514286,1.11614615 L4.61828571,0.607184615 L3.90857143,2.22164615 L0.483428571,1.9348 L0.870428571,3.49341538 C1.04271429,4.18514615 1.57371429,4.73472308 2.26542857,4.93399231 L2.86714286,5.10914615 C4.03971429,5.44803077 5.30742857,5.14468462 6.192,4.31206923 L9.31371429,1.37633846 C9.42942857,1.26845385 9.49628571,1.13772308 9.52585714,1.00191538 C9.43585714,0.8953 9.315,0.808992308 9.162,0.765838462" id="Fill-1552" fill="#FFFFFF"></path>
                            <path d="M4.3443,1.89875385 C5.06301429,1.22352308 4.87015714,0.448023077 3.91744286,0.177676923 C2.96472857,-0.0939384615 1.60058571,0.234792308 0.8883,0.910023077 C0.174728571,1.58398462 0.3663,2.35821538 1.31515714,2.6311 C2.26401429,2.90398462 3.62687143,2.57398462 4.3443,1.89875385" id="Fill-1554" fill="#48486A"></path>
                        </g>
                        <path d="M2.46471429,32.0015615 C1.84114286,32.0015615 1.33457143,31.5014846 1.33457143,30.8859077 L1.33457143,26.5819462 C1.33457143,25.9663692 1.84114286,25.4675615 2.46471429,25.4675615 C3.08957143,25.4675615 3.59614286,25.9663692 3.59614286,26.5819462 L3.59614286,30.8859077 C3.59614286,31.5014846 3.08957143,32.0015615 2.46471429,32.0015615" id="Fill-1556" fill="#EF9EA3"></path>
                        <path d="M2.46715714,30.6667115 C2.44015714,30.6667115 2.41187143,30.6654423 2.38615714,30.6641731 C1.40515714,30.6210192 0.6453,31.0690577 0.6903,30.1019038 L1.17115714,18.93775 L0.689014286,2.08744231 C0.662014286,1.12028846 1.43344286,0.313057692 2.41444286,0.285134615 C3.39158571,0.250865385 4.69787143,1.02128846 4.72615714,1.98844231 L4.72744286,18.9669423 L4.72487143,19.0316731 L4.24015714,30.2605577 C4.19772857,31.2010577 3.41087143,30.6667115 2.46715714,30.6667115" id="Fill-1558" fill="#48486A"></path>
                        <g id="鞋子" transform="translate(5.000000, 32.000000)">
                            <path d="M8.9068,3.05698077 L8.3038,2.71555769 C7.3228,2.15963462 6.13737143,2.07840385 5.08565714,2.49471154 L4.5328,1.83598077 L3.45408571,3.23848077 L0.196085714,2.15328846 L0.196085714,5.24767308 C0.196085714,5.44567308 0.3028,5.62844231 0.475085714,5.72871154 L1.74537143,6.45598077 C2.80222857,7.06013462 4.10722857,7.06394231 5.16665714,6.46359615 L8.9068,4.34651923 C9.4108,4.06094231 9.4108,3.34382692 8.9068,3.05698077" id="Fill-1560" fill="#48486A"></path>
                            <path d="M8.9068,3.05698077 L8.3038,2.71555769 C7.3228,2.15963462 6.13737143,2.07840385 5.08565714,2.49471154 L4.5328,1.83598077 L3.45408571,3.23848077 L0.196085714,2.15328846 L0.196085714,3.75886538 C0.196085714,4.47090385 0.577942857,5.12963462 1.2028,5.48628846 L1.74537143,5.79598077 C2.80222857,6.40267308 4.10722857,6.40521154 5.16665714,5.80486538 L8.9068,3.68778846 C9.04437143,3.61036538 9.14208571,3.49740385 9.2038,3.37301923 C9.14208571,3.24736538 9.04437143,3.13567308 8.9068,3.05698077" id="Fill-1562" fill="#FFFFFF"></path>
                            <path d="M3.95474286,3.02588462 C4.81488571,2.5385 4.81488571,1.74015385 3.95474286,1.25403846 C3.0946,0.766653846 1.6906,0.766653846 0.8356,1.25403846 C-0.0206857143,1.74015385 -0.0206857143,2.5385 0.8356,3.02588462 C1.6906,3.51326923 3.0946,3.51326923 3.95474286,3.02588462" id="Fill-1564" fill="#48486A"></path>
                        </g>
                        <path d="M7.39157143,34.8461615 C6.768,34.8461615 6.26142857,34.3460846 6.26142857,33.7292385 L6.26142857,29.4252769 C6.26142857,28.8097 6.768,28.3108923 7.39157143,28.3108923 C8.01642857,28.3108923 8.523,28.8097 8.523,29.4252769 L8.523,33.7292385 C8.523,34.3460846 8.01642857,34.8461615 7.39157143,34.8461615" id="Fill-1566" fill="#EF9EA3"></path>
                        <path d="M7.39414286,33.9141654 C7.34528571,33.9141654 7.29642857,33.9116269 7.24757143,33.9078192 C6.26914286,33.8291269 5.54142857,33.9332038 5.62114286,32.9673192 L6.58028571,20.1582423 L2.70771429,3.57066538 C2.64728571,2.60351154 6.30128571,3.28255 7.27971429,3.22162692 C8.25942857,3.16197308 9.10414286,3.89558846 9.16585714,4.86147308 L10.143,20.1912423 L9.16328571,33.2541654 C9.08614286,34.17055 8.30957143,33.9141654 7.39414286,33.9141654" id="Fill-1568" fill="#48486A"></path>
                    </g>
                    <path d="M1.89,23.0490909 C1.94,24.4274545 1.8725,25.8045455 1.69125,27.1714545 L1.3375,30.6129091 C2.51875,33.0692727 8.94487679,35.337317 11.1473768,33.769317 L11.1473768,18.0447715 C11.1473768,15.2180442 9.16625,12.5236364 6.76,11.1083636 L1.3375,7.92145455 L1.89,23.0490909 Z" id="Fill-1571" fill="url(#linearGradient-31)" fill-rule="nonzero"></path>
                    <path d="M9.0596,14.5376714 C8.20586667,14.3371 7.35466667,14.8771 7.15706667,15.7423857 C6.97846667,16.5189571 7.39013333,17.2955286 8.0906,17.5912429 C8.17166667,17.6246714 8.25526667,17.6529571 8.34393333,17.6735286 L9.60933333,17.9718143 C10.2996667,18.1338143 10.4213806,18.256964 11.1281806,18.3328211 L11.1281806,16.6566241 C11.1281806,15.9096241 11.6018,15.7411 11.4067333,15.0403857 C11.0419333,14.9851 10.6809333,14.9195286 10.325,14.8346714 L9.0596,14.5376714 Z" id="Fill-1586" fill="#BD7412"></path>
                    <path d="M12.4813333,13.28125 C11.6626667,13.5625 10.8146667,13.7609375 9.96533333,13.871875 L8.60533333,14.0515625 C7.68933333,14.171875 7.02933333,15.1390625 7.13333333,16.2125 C7.22533333,17.1765625 7.89866667,17.8953125 8.69733333,17.9484375 C8.79066667,17.9515625 8.88266667,17.95 8.976,17.9390625 L10.336,17.7609375 C11.376,17.6234375 12.4146667,17.3796875 13.4173333,17.0359375 C14.3026667,16.7328125 14.8093333,15.646875 14.5506667,14.6109375 C14.3373333,13.7578125 13.672,13.2015625 12.952,13.2015625 C12.796,13.2015625 12.6386667,13.228125 12.4813333,13.28125" id="Fill-1589" fill="url(#linearGradient-31)" fill-rule="nonzero"></path>
                    <path d="M5.485875,10.6577333 L3.945875,11.0098667 L2.322125,3.71766667 L8.554625,2.29266667 L9.119625,4.83106667 C9.704625,7.45813333 8.077125,10.0649333 5.485875,10.6577333" id="Fill-1592" fill="#F2B1B5"></path>
                    <path d="M8.715875,0.912886667 C7.352125,-0.13338 4.919625,0.826753333 3.624625,1.59942 C2.029625,2.54942 0.020875,3.69322 0.179625,5.86935333 C0.220875,6.42035333 0.398375,6.95108667 0.519625,7.48815333 C0.803375,8.72948667 0.794625,10.0379533 0.495875,11.2767533 C0.068375,13.04502 -0.080375,14.1444867 1.114625,15.60622 C1.820875,16.4700867 2.473375,17.92042 3.607125,18.29282 C4.775875,18.6740867 7.040875,18.5613533 7.857125,17.57842 C8.997125,16.2091533 9.120875,13.4959533 8.629625,11.8834867 C8.099625,10.1430867 6.827125,8.55468667 6.980875,6.74082 C7.075875,5.60335333 8.219625,4.09222 8.848375,3.16502 C9.408375,2.34295333 9.620875,1.60702 8.715875,0.912886667" id="Fill-1596" fill="url(#linearGradient-33)" fill-rule="nonzero"></path>
                    <path d="M8.715875,0.912886667 C7.915875,0.29982 6.750875,0.38342 5.659625,0.707686667 C6.499625,0.56962 7.323375,0.624086667 7.933375,1.09275333 C8.838375,1.78562 8.624625,2.52282 8.064625,3.34488667 C7.435875,4.27082 6.294625,5.78322 6.197125,6.91942 C6.044625,8.73455333 7.315875,10.3229533 7.847125,12.0633533 C8.337125,13.6745533 8.214625,16.38902 7.075875,17.75702 C6.814625,18.0711533 6.398375,18.2864867 5.927125,18.4359533 C6.717125,18.3257533 7.460875,18.0559533 7.857125,17.57842 C8.997125,16.2091533 9.120875,13.4959533 8.629625,11.8834867 C8.099625,10.1430867 6.827125,8.55468667 6.980875,6.74082 C7.075875,5.60335333 8.219625,4.09222 8.848375,3.16502 C9.408375,2.34295333 9.620875,1.60702 8.715875,0.912886667" id="Fill-1598" fill="#6D6D88"></path>
                </g>
                <g id="无人机方块" transform="translate(291.000000, 152.000000)">
                    <path d="M17.5840444,9.51758824 L16.9169232,9.82517647 L0,9.72511765 L0.0648060606,17.2653529 C0.0648060606,17.9447647 0.435852525,18.5735294 1.04070909,18.9169412 L15.9664343,27.3910588 C17.2142687,28.0902353 19.2537535,28.0902353 20.5015879,27.3910588 L35.8034424,18.9206471 C36.2176929,18.6908824 36.4731051,18.2634706 36.4705636,17.799 L36.4667515,16.4167059 C36.4667515,16.3512353 36.4540444,16.2931765 36.4451495,16.2326471 L36.3053717,9.93882353 L22.7049939,9.85976471 L22.1255515,9.52747059 C21.4990929,9.17664706 20.6705919,9 19.8433616,9 C19.0237556,9 18.2066909,9.17294118 17.5840444,9.51758824" id="Fill-2512" fill="url(#linearGradient-34)"></path>
                    <path d="M15.9594418,0.517588235 L0.943821156,8.82864706 C-0.312902982,9.52164706 -0.314178844,10.6642941 0.937441845,11.3647059 L15.9658212,19.7634706 C17.2174418,20.4638824 19.2664763,20.4638824 20.5193729,19.7634706 L35.4482349,11.4190588 C36.7024074,10.7198824 36.7024074,9.57352941 35.4482349,8.87311765 L20.5193729,0.527470588 C19.8903729,0.176647059 19.0585108,0 18.2279246,0 C17.4049936,0 16.5846143,0.172941176 15.9594418,0.517588235" id="Fill-2515" fill="url(#linearGradient-35)"></path>
                   <animateTransform attributeName="transform" begin="0s" dur="6s" type="translate" values='291 152;291 132;291 152;'  repeatCount="indefinite"/>
                </g>
                <g id="无人机" transform="translate(285.000000, 110.000000)">
                    <polygon id="Fill-2518" fill="#48486A" points="24.7148718 62.7770571 23.9635897 62.7770571 23.9648718 16.9220571 24.7148718 16.9220571"></polygon>
                    <polygon id="Fill-2520" fill="#48486A" points="6.84 52.4009571 6.12846154 52.2325286 24.34 14.8041 42.5502564 52.2325286 41.84 52.4009571 24.34 16.4909571"></polygon>
                    <polygon id="Fill-2522" fill="#48486A" points="7.79410256 25.5729857 7.74794872 26.4678429 22.0492308 21.9742714 21.5274359 19.6612714"></polygon>
                    <polygon id="Fill-2524" fill="#48486A" points="41.2989744 25.5729857 41.3464103 26.4678429 27.0451282 21.9742714 27.5669231 19.6612714"></polygon>
                    <polygon id="Fill-2526" fill="#48486A" points="41.6144872 10.4797286 42.3580769 10.4797286 43.3747436 4.65415714 40.5978205 4.65415714"></polygon>
                    <polygon id="Fill-2528" fill="#48486A" points="7.07666667 10.4797286 6.33307692 10.4797286 5.31641026 4.65415714 8.09461538 4.65415714"></polygon>
                    <polygon id="Fill-2530" fill="#48486A" points="6.57461538 6.65202857 6.57461538 7.58545714 17.3746154 16.2588857 18.9374359 14.6556"></polygon>
                    <polygon id="Fill-2532" fill="#48486A" points="42.3105128 6.65202857 42.3105128 7.58545714 31.5105128 16.2588857 29.9476923 14.6556"></polygon>
                    <polygon id="Fill-2534" fill="#48486A" points="24.1512821 24.5661429 25.1487179 24.5661429 25.1487179 22.6581429 24.1512821 22.6581429"></polygon>
                    <path d="M16.8173077,15.6476571 L16.8173077,20.9370857 L16.8544872,20.9589429 C21.6852564,23.7553714 27.6301282,23.7810857 32.4839744,21.0245143 L32.4839744,15.9318 L16.8173077,15.6476571 Z" id="Fill-2536" fill="#48486A"></path>
                    <polygon id="Fill-2537" fill="#5C629E" points="6.16769231 5.22565714 0.981794872 8.2278 0.131794872 7.73665714 2.82282051 5.21665714 6.16769231 4.48894286"></polygon>
                    <polygon id="Fill-2538" fill="#5C629E" points="13.2728205 1.48654286 8.08692308 4.48868571 7.23820513 3.99754286 9.92923077 1.47754286 12.6035897 0.8964"></polygon>
                    <path d="M7.68884615,3.91988571 C7.14782051,3.60617143 6.26320513,3.60617143 5.72217949,3.91988571 C5.18115385,4.2336 5.18115385,4.74531429 5.72217949,5.05774286 C6.26320513,5.37145714 7.14782051,5.37145714 7.68884615,5.05774286 C8.22987179,4.74531429 8.22987179,4.2336 7.68884615,3.91988571" id="Fill-2539" fill="#48486A"></path>
                    <path d="M7.27576923,4.20055714 C6.96166667,4.01798571 6.4475641,4.01798571 6.13474359,4.20055714 C5.82064103,4.38184286 5.82064103,4.67884286 6.13474359,4.86012857 C6.4475641,5.0427 6.96166667,5.0427 7.27576923,4.86012857 C7.58858974,4.67884286 7.58858974,4.38184286 7.27576923,4.20055714" id="Fill-2540" fill="#48486A"></path>
                    <path d="M7.27576923,4.06118571 C6.96166667,3.8799 6.4475641,3.8799 6.13474359,4.06118571 C5.82064103,4.24247143 5.82064103,4.54075714 6.13474359,4.72204286 C6.4475641,4.90332857 6.96166667,4.90332857 7.27576923,4.72204286 C7.58858974,4.54075714 7.58858974,4.24247143 7.27576923,4.06118571" id="Fill-2541" fill="#FFFFFF"></path>
                    <polygon id="Fill-2542" fill="#5C629E" points="42.5246154 5.22565714 47.7105128 8.2278 48.5592308 7.73665714 45.8682051 5.21665714 42.5246154 4.48894286"></polygon>
                    <polygon id="Fill-2543" fill="#5C629E" points="35.4182051 1.48654286 40.6041026 4.48868571 41.4528205 3.99754286 38.7617949 1.47754286 36.0887179 0.8964"></polygon>
                    <path d="M41.0034615,3.91988571 C41.5444872,3.60617143 42.4278205,3.60617143 42.9688462,3.91988571 C43.5098718,4.2336 43.5098718,4.74531429 42.9688462,5.05774286 C42.4278205,5.37145714 41.5444872,5.37145714 41.0034615,5.05774286 C40.4624359,4.74531429 40.4624359,4.2336 41.0034615,3.91988571" id="Fill-2544" fill="#48486A"></path>
                    <path d="M41.4166667,4.20055714 C41.7294872,4.01798571 42.2435897,4.01798571 42.5564103,4.20055714 C42.8705128,4.38184286 42.8705128,4.67884286 42.5564103,4.86012857 C42.2435897,5.0427 41.7294872,5.0427 41.4166667,4.86012857 C41.1025641,4.67884286 41.1025641,4.38184286 41.4166667,4.20055714" id="Fill-2545" fill="#414042"></path>
                    <path d="M41.4166667,4.06118571 C41.7294872,3.8799 42.2435897,3.8799 42.5564103,4.06118571 C42.8705128,4.24247143 42.8705128,4.54075714 42.5564103,4.72204286 C42.2435897,4.90332857 41.7294872,4.90332857 41.4166667,4.72204286 C41.1025641,4.54075714 41.1025641,4.24247143 41.4166667,4.06118571" id="Fill-2546" fill="#FFFFFF"></path>
                    <path d="M30.1948718,12.4371 C27.1448718,10.6705286 22.1551282,10.6705286 19.1051282,12.4371 C16.0551282,14.2036714 16.0551282,17.0926714 19.1051282,18.8592429 C22.1551282,20.6245286 27.1448718,20.6245286 30.1948718,18.8592429 C33.2461538,17.0926714 33.2461538,14.2036714 30.1948718,12.4371" id="Fill-2547" fill="#5C629E"></path>
                    <polygon id="Fill-2548" fill="#5C629E" points="27.3892308 19.5989143 41.0917949 25.5723429 42.3110256 24.8664857 28.3469231 15.8266286"></polygon>
                    <polygon id="Fill-2549" fill="#5C629E" points="21.5273077 19.6611429 7.79397436 25.5728571 6.57474359 24.867 20.5388462 15.8271429"></polygon>
                    <polygon id="Fill-2550" fill="#5C629E" points="28.0276923 11.5952143 41.0905128 5.94578571 42.3110256 6.65164286 28.3469231 15.6915"></polygon>
                    <polygon id="Fill-2551" fill="#5C629E" points="21.2467949 11.7811286 7.79423077 5.94527143 6.575 6.65241429 20.5378205 15.6922714"></polygon>
                    <polygon id="Fill-2552" fill="#48486A" points="42.5834615 30.6531 41.8398718 30.6531 40.8232051 24.8262429 43.6001282 24.8262429"></polygon>
                    <polygon id="Fill-2553" fill="#5C629E" points="41.6733333 25.3991571 36.4874359 28.4013 35.6387179 27.9101571 38.3297436 25.3901571 41.6733333 24.6624429"></polygon>
                    <polygon id="Fill-2554" fill="#5C629E" points="48.7796154 21.6594 43.5937179 24.6615429 42.7437179 24.1704 45.4347436 21.6504 48.1091026 21.0692571"></polygon>
                    <path d="M43.1944872,24.0927429 C42.6534615,23.7803143 41.7701282,23.7803143 41.2291026,24.0927429 C40.6880769,24.4064571 40.6880769,24.9181714 41.2291026,25.2318857 C41.7701282,25.5443143 42.6534615,25.5443143 43.1944872,25.2318857 C43.7355128,24.9181714 43.7355128,24.4064571 43.1944872,24.0927429" id="Fill-2555" fill="#48486A"></path>
                    <path d="M42.7812821,24.3732857 C42.4684615,24.192 41.954359,24.192 41.6402564,24.3732857 C41.3274359,24.5545714 41.3274359,24.8528571 41.6402564,25.0341429 C41.954359,25.2154286 42.4684615,25.2154286 42.7812821,25.0341429 C43.0953846,24.8528571 43.0953846,24.5545714 42.7812821,24.3732857" id="Fill-2556" fill="#414042"></path>
                    <path d="M42.7812821,24.2339143 C42.4684615,24.0526286 41.954359,24.0526286 41.6402564,24.2339143 C41.3274359,24.4164857 41.3274359,24.7134857 41.6402564,24.8947714 C41.954359,25.0760571 42.4684615,25.0760571 42.7812821,24.8947714 C43.0953846,24.7134857 43.0953846,24.4164857 42.7812821,24.2339143" id="Fill-2557" fill="#FFFFFF"></path>
                    <polygon id="Fill-2558" fill="#48486A" points="6.34179487 30.6531 7.08410256 30.6531 8.10205128 24.8262429 5.32384615 24.8262429"></polygon>
                    <polygon id="Fill-2559" fill="#5C629E" points="7.25064103 25.3991571 12.4365385 28.4013 13.2865385 27.9101571 10.5955128 25.3901571 7.25064103 24.6624429"></polygon>
                    <polygon id="Fill-2560" fill="#5C629E" points="0.145641026 21.6594 5.33025641 24.6615429 6.18025641 24.1704 3.48923077 21.6504 0.814871795 21.0692571"></polygon>
                    <path d="M5.72948718,24.0927429 C6.27051282,23.7803143 7.15512821,23.7803143 7.69615385,24.0927429 C8.23717949,24.4064571 8.23717949,24.9181714 7.69615385,25.2318857 C7.15512821,25.5443143 6.27051282,25.5443143 5.72948718,25.2318857 C5.18846154,24.9181714 5.18846154,24.4064571 5.72948718,24.0927429" id="Fill-2561" fill="#48486A"></path>
                    <path d="M6.14269231,24.3732857 C6.45679487,24.192 6.96961538,24.192 7.28371795,24.3732857 C7.59653846,24.5545714 7.59653846,24.8528571 7.28371795,25.0341429 C6.96961538,25.2154286 6.45679487,25.2154286 6.14269231,25.0341429 C5.82987179,24.8528571 5.82987179,24.5545714 6.14269231,24.3732857" id="Fill-2562" fill="#414042"></path>
                    <path d="M6.14269231,24.2339143 C6.45679487,24.0526286 6.96961538,24.0526286 7.28371795,24.2339143 C7.59653846,24.4164857 7.59653846,24.7134857 7.28371795,24.8947714 C6.96961538,25.0760571 6.45679487,25.0760571 6.14269231,24.8947714 C5.82987179,24.7134857 5.82987179,24.4164857 6.14269231,24.2339143" id="Fill-2563" fill="#FFFFFF"></path>
                    <path d="M25.9519231,25.4750143 C25.9519231,26.1963 25.3698718,26.7813 24.649359,26.7813 C23.9314103,26.7813 23.3480769,26.1963 23.3480769,25.4750143 C23.3480769,24.7537286 23.9314103,24.1687286 24.649359,24.1687286 C25.3698718,24.1687286 25.9519231,24.7537286 25.9519231,25.4750143" id="Fill-2564" fill="#48486A"></path>
                    <path d="M25.6401282,25.4750143 C25.6401282,26.0227286 25.1965385,26.4675857 24.6503846,26.4675857 C24.1042308,26.4675857 23.659359,26.0227286 23.659359,25.4750143 C23.659359,24.9260143 24.1042308,24.4824429 24.6503846,24.4824429 C25.1965385,24.4824429 25.6401282,24.9260143 25.6401282,25.4750143" id="Fill-2565" fill="#FFFFFF"></path>
                    <path d="M25.3120513,25.4750143 C25.3120513,25.8414429 25.0158974,26.1397286 24.6492308,26.1397286 C24.2838462,26.1397286 23.9876923,25.8414429 23.9876923,25.4750143 C23.9876923,25.1085857 24.2838462,24.8103 24.6492308,24.8103 C25.0158974,24.8103 25.3120513,25.1085857 25.3120513,25.4750143" id="Fill-2566" fill="#48486A"></path>
                    <path d="M24.9602564,25.4750143 C24.9602564,25.6473 24.8217949,25.7861571 24.65,25.7861571 C24.4782051,25.7861571 24.3397436,25.6473 24.3397436,25.4750143 C24.3397436,25.3027286 24.4782051,25.1638714 24.65,25.1638714 C24.8217949,25.1638714 24.9602564,25.3027286 24.9602564,25.4750143" id="Fill-2567" fill="#99A7D8"></path>
                    <path d="M28.5760256,13.3743857 C26.4157692,12.1233857 22.8837179,12.1233857 20.7234615,13.3743857 C18.5632051,14.6253857 18.5632051,16.6709571 20.7234615,17.9206714 C22.8837179,19.1716714 26.4157692,19.1716714 28.5760256,17.9206714 C30.7362821,16.6709571 30.7362821,14.6253857 28.5760256,13.3743857" id="Fill-2568" fill="#48486A"></path>
                    <polygon id="Fill-2569" fill="#FFFFFF" points="23.0564103 21.9741429 23.9 21.9741429 23.9 21.2014286 23.0564103 21.2014286"></polygon>
                    <polygon id="Fill-2570" fill="#FFC107" points="24.2115385 21.9741429 25.0538462 21.9741429 25.0538462 21.2014286 24.2115385 21.2014286"></polygon>
                    <polygon id="Fill-2571" fill="#FFFFFF" points="25.3666667 21.9741429 26.2102564 21.9741429 26.2102564 21.2014286 25.3666667 21.2014286"></polygon>
                    <polygon id="Fill-2572" fill="#48486A" points="24.7148718 62.5775143 24.3405128 62.7768 23.9635897 62.5595143 23.9648718 37.5382286 24.7148718 37.5382286"></polygon>
                    <animateTransform attributeName="transform" begin="0s" dur="6s" type="translate" values='285 110;285 90;285 110;' repeatCount="indefinite"/>
                </g>
                <g id="方块" transform="translate(373.000000, 134.000000)">
                    <path d="M16.8645161,9.874 L16.2245161,10.1716667 L0.00516129032,10.0741333 L0.0670967742,17.3764667 C0.0670967742,18.0338667 0.421935484,18.6418667 1.00129032,18.9737333 L15.3122581,27.1779333 C16.5096774,27.8568667 18.4658065,27.8568667 19.6619355,27.1779333 L34.3329032,18.9775333 C34.7303226,18.7558667 34.9754839,18.3404 34.9729032,17.892 L34.9690323,16.5531333 C34.9690323,16.4898 34.956129,16.4340667 34.9483871,16.3758 L34.8154839,10.2818667 L21.7741935,10.2046 L21.2180645,9.88413333 C20.6180645,9.5434 19.8232258,9.3724 19.0309677,9.3724 C18.2451613,9.3724 17.4606452,9.5396 16.8645161,9.874" id="Fill-2574" fill="url(#linearGradient-17)"></path>
                    <path d="M15.377963,0.8175 L0.972222222,8.75625 C-0.232037037,9.42125 -0.23462963,10.51125 0.965740741,11.18 L15.3831481,19.20625 C16.5848148,19.87625 18.5512963,19.87625 19.752963,19.20625 L34.0757407,11.2325 C35.2774074,10.56375 35.2774074,9.47 34.0757407,8.8 L19.752963,0.82625 C19.1501852,0.49 18.3516667,0.3225 17.5557407,0.3225 C16.7662963,0.3225 15.9781481,0.4875 15.377963,0.8175" id="Fill-2577" fill="url(#linearGradient-18)"></path>
                </g>
                <g id="吊钩" transform="translate(381.000000, 92.000000)">
                    <path d="M9.284125,43.0395059 C9.016625,43.0395059 8.766625,42.9735059 8.541625,42.8389176 C8.019125,42.5270353 7.730375,41.8993882 7.727875,41.0711529 L8.382875,41.0711529 C8.384125,41.6444471 8.557875,42.0650353 8.870375,42.2513882 C9.184125,42.4390353 9.619125,42.3833882 10.097875,42.0960941 C10.634125,41.7764471 11.144125,41.2160941 11.532875,40.5185647 C11.920375,39.8223294 12.134125,39.0859765 12.134125,38.4440941 C12.134125,37.8708 11.964125,37.4528 11.651625,37.2664471 C11.337875,37.0788 10.900375,37.1331529 10.419125,37.4191529 L9.927875,37.7116235 L9.931625,32.5118588 L10.586625,32.5131529 L10.584125,36.5960941 C11.097875,36.4136235 11.581625,36.4395059 11.977875,36.6776235 C12.501625,36.9908 12.791625,37.6184471 12.791625,38.4440941 C12.791625,39.2024471 12.545375,40.0604471 12.100375,40.8576235 C11.654125,41.6573882 11.060375,42.3057412 10.426625,42.6849176 C10.031625,42.9204471 9.642875,43.0395059 9.284125,43.0395059" id="Fill-2580" fill="#48486A"></path>
                    <path d="M6.0041223,28.7789765 L6.004125,31.8085059 C6.002875,32.4892118 6.435375,33.1699176 7.297875,33.6862706 C9.025375,34.7176824 11.859125,34.7176824 13.594125,33.6862706 C14.462875,33.1699176 14.896625,32.4892118 14.896625,31.8098 L14.896625,28.7789765 L6.0041223,28.7789765 Z" id="Fill-2582" fill="#48486A"></path>
                    <path d="M13.5945,30.6550588 C15.33075,29.6236471 15.33075,27.9348235 13.5945,26.9034118 C11.85825,25.8707059 9.02575,25.8707059 7.29825,26.9034118 C5.572,27.9348235 5.572,29.6236471 7.29825,30.6550588 C9.02575,31.6877647 11.85825,31.6877647 13.5945,30.6550588" id="Fill-2584" fill="#5C629E"></path>
                    <polygon id="Fill-2586" fill="#48486A" points="9.93125 28.7785882 10.58625 28.7785882 10.58625 0.188941176 9.93125 0.188941176"></polygon>
                    <polygon id="Fill-2754" fill="#48486A" points="18.8389613 65.2245569 18.2070896 65.5845569 18.2160796 57.6379472 9.35716925 42.8103 9.87540331 42.4824429 18.8389613 57.2528078"></polygon>
                    <polygon id="Fill-2755" fill="#48486A" points="0.291964286 46.7444196 2.38794643 45.5728795 9.35716925 42.4824429 9.70334821 42.8103"></polygon>
                </g>
                <g id="蓝色方块" transform="translate(477.000000, 0.000000)">
                    <polygon id="Fill-2599" fill="url(#linearGradient-19)" points="1.01658621 25.2604706 1.01658621 29.4851765 19.3124483 39.7121765 37.6325517 29.4851765 37.6325517 25.2604706 19.3252069 19.2507647"></polygon>
                    <polygon id="Fill-2602" fill="#48486A" points="19.5 15 1 25.5038034 19.487108 36 38 25.5038034"></polygon>
                    <polygon id="Fill-2604" fill="url(#linearGradient-19)" points="1.01658621 17.4593529 1.01658621 21.6840588 19.3124483 31.9110588 37.6325517 21.6840588 37.6325517 17.4593529 19.3252069 11.4508824"></polygon>
                    <polygon id="Fill-2607" fill="#48486A" points="19.5 8 1 18.5038034 19.487108 29 38 18.5038034"></polygon>
                    <polygon id="Fill-2609" fill="url(#linearGradient-19)" points="1.01658621 10.2315833 1.01658621 14.8200833 19.3124483 25.9277417 37.6325517 14.8200833 37.6325517 10.2315833 19.3252069 3.704375"></polygon>
                    <polygon id="Fill-2612" fill="#48486A" points="19.2171106 0.13527027 0.803393805 10.8087387 19.2042788 21.4744775 37.6308274 10.8087387"></polygon>
                </g>
                <path d="M379.997301,99.9894649 L370.087257,94.2462757 L371.097124,92.4903387 L381.007168,98.2348162 L379.997301,99.9894649 Z M389.924412,94.699882 L380.014367,88.9566928 L381.022951,87.2007559 L390.932996,92.9452333 L389.924412,94.699882 Z M399.850367,89.4108144 L389.940323,83.6663369 L390.95019,81.9116883 L400.860235,87.6561658 L399.850367,89.4108144 Z M409.777478,83.0756568 L399.867434,77.3324676 L400.877301,75.5765306 L410.787345,81.3210081 L409.777478,83.0756568 Z M419.703434,76.9758694 L409.794673,71.2326802 L410.803257,69.4767432 L420.713301,75.2212207 L419.703434,76.9758694 Z M429.630544,71.4590324 L419.721783,65.7158432 L420.730367,63.9599063 L430.640412,69.7030955 L429.630544,71.4590324 Z M440.557655,66.0232595 L429.647611,59.2800703 L430.657478,57.5241333 L441.567522,64.2686108 L440.557655,66.0232595 Z M479.265071,42.8041514 L469.355027,37.0609622 L470.363611,35.3050252 L480.273655,41.0495027 L479.265071,42.8041514 Z M471.52337,47.5927915 L461.074372,41.4176955 L462.084239,39.6617586 L472.533237,45.8381429 L471.52337,47.5927915 Z M370.486603,91.9657143 L370.486603,80.9394286 L372.506794,80.9394286 L372.506794,91.9657143 L370.486603,91.9657143 Z M380.420602,86.4525714 L380.420602,75.4262857 L382.442077,75.4262857 L382.442077,86.4525714 L380.420602,86.4525714 Z M390.357169,79.9275714 L390.357169,68.9012857 L392.377361,68.9012857 L392.377361,79.9275714 L390.357169,79.9275714 Z M400.292452,75.2231429 L400.292452,62.7144286 L402.312644,62.7144286 L402.312644,75.2231429 L400.292452,75.2231429 Z M410.226451,68.5644286 L410.226451,57.5381429 L412.247927,57.5381429 L412.247927,68.5644286 L410.226451,68.5644286 Z M420.163019,62.3775714 L420.163019,51.3512857 L422.18321,51.3512857 L422.18321,62.3775714 L420.163019,62.3775714 Z M430.098302,56.8644286 L430.098302,45.8381429 L432.118493,45.8381429 L432.118493,56.8644286 L430.098302,56.8644286 Z M440.032301,51.3512857 L440.032301,40.325 L442.052492,40.325 L442.052492,51.3512857 L440.032301,51.3512857 Z M448.958131,46.5118571 L448.958131,34.3528571 L450.979606,34.3528571 L450.979606,46.5118571 L448.958131,46.5118571 Z M460.240636,39.65 L460.240636,28.6237143 L462.260827,28.6237143 L462.260827,39.65 L460.240636,39.65 Z M471.523142,33.5454286 L471.523142,24.4798571 L473.543333,24.4798571 L473.543333,33.5454286 L471.523142,33.5454286 Z" id="Combined-Shape" fill="#BFC7DE"></path>
                <path d="M460.954364,54.0716635 L460.706706,54.5137571 L449.48713,48.2214714 L450.473467,46.4561857 L461.167889,52.4525764 L461.433535,52.0188604 L472.995438,58.5479054 L471.938093,60.2742117 L460.954364,54.0716635 Z M460.801695,134.637236 L461.433535,133.605642 L472.995438,140.135976 L471.938093,141.862282 L460.820928,135.583143 L450.665296,141.862282 L449.607951,140.135976 L460.169854,133.605642 L460.801695,134.637236 Z M460.801695,122.982865 L461.433535,121.951271 L472.995438,128.480316 L471.938093,130.206623 L460.820928,123.928722 L450.665296,130.206623 L449.607951,128.480316 L460.169854,121.951271 L460.801695,122.982865 Z M460.801695,111.327205 L461.433535,110.295612 L472.995438,116.824657 L471.938093,118.550963 L460.820928,112.273063 L450.665296,118.550963 L449.607951,116.824657 L460.169854,110.295612 L460.801695,111.327205 Z M460.801695,99.6716748 L461.433535,98.6400811 L472.995438,105.169126 L471.938093,106.895432 L460.820928,100.617532 L450.665296,106.895432 L449.607951,105.169126 L460.169854,98.6400811 L460.801695,99.6716748 Z M460.801695,88.0166595 L461.433535,86.9850658 L472.995438,93.5141108 L471.938093,95.2404171 L460.820928,88.9625167 L450.665296,95.2404171 L449.607951,93.5141108 L460.169854,86.9850658 L460.801695,88.0166595 Z M460.801695,76.361 L461.433535,75.3294063 L472.995438,81.8584514 L471.938093,83.5847577 L460.820928,77.3068573 L450.665296,83.5847577 L449.607951,81.8584514 L460.169854,75.3294063 L460.801695,76.361 Z M460.49545,65.2059847 L461.433535,63.674391 L472.995438,70.203436 L471.938093,71.9297423 L460.740829,65.6066097 L461.227199,66.4006973 L450.665296,72.9297423 L449.607951,71.203436 L460.169854,64.674391 L460.49545,65.2059847 Z" id="Combined-Shape" fill="#B4BFDE"></path>
                <g id="底2" transform="translate(428.000000, 143.000000)">
                    <polygon id="Fill-2663" fill="url(#linearGradient-36)" points="0.0260163934 20.14375 0.0260163934 24.5166563 34.3136539 44.04675 68.6480455 24.5166563 68.6480455 20.14375 34.337031 4.97375"></polygon>
                    <polygon id="Fill-2666" fill="url(#linearGradient-37)" points="34.0006435 0 0 19.5063943 33.9761918 39 68 19.5063943"></polygon>
                </g>
                <g id="底1" transform="translate(440.000000, 136.000000)">
                    <polygon id="Fill-2668" fill="url(#linearGradient-38)" points="0.435857143 13.8732857 0.435857143 25.4575714 22.2415714 38.046 44.0768571 25.4575714 44.0768571 13.8732857 22.2557143 12.8601429"></polygon>
                    <polygon id="Fill-2671" fill="url(#linearGradient-37)" points="22.2563571 0.817485149 0.435214286 13.4300594 22.2409286 26.0323366 44.0775 13.4300594"></polygon>
                </g>
                <path d="M451.226857,69.7645266 L460.633271,75.0386895 L460.633271,65.7157992 L451.226857,60.4404289 L451.226857,69.7645266 Z M451.226857,72.0855972 L451.226857,81.4089226 L460.633271,86.6830855 L460.633271,77.3609675 L451.226857,72.0855972 Z M451.226857,58.1193583 L460.633271,63.3935211 L460.633271,40.9351485 L462.6557,40.5979208 L462.6557,63.3038912 L471.907571,58.1157866 L471.907571,33.9357426 L473.931286,33.9357426 L473.931286,149.123465 L471.907571,149.123465 L471.907571,141.951439 L462.6557,147.139543 L462.6557,155.596436 L461.643843,155.972277 L460.633271,155.596436 L460.633271,147.229789 L451.226857,141.954419 L451.226857,149.123465 L449.204429,149.123465 L449.204429,46.4929703 L451.226857,46.4929703 L451.226857,58.1193583 Z M462.6557,144.817881 L471.907571,139.629777 L471.907571,130.306914 L462.6557,135.495018 L462.6557,144.817881 Z M462.6557,133.173357 L471.907571,127.985252 L471.907571,118.661745 L462.6557,123.84985 L462.6557,133.173357 Z M462.6557,121.528188 L471.907571,116.340084 L471.907571,107.017349 L462.6557,112.205454 L462.6557,121.528188 Z M462.6557,109.883792 L471.907571,104.695688 L471.907571,95.3721811 L462.6557,100.560286 L462.6557,109.883792 Z M462.6557,98.2386239 L471.907571,93.0505192 L471.907571,83.7270128 L462.6557,88.9151174 L462.6557,98.2386239 Z M462.6557,86.5934556 L471.907571,81.4053509 L471.907571,72.0826167 L462.6557,77.2707214 L462.6557,86.5934556 Z M462.6557,74.9490595 L471.907571,69.7609549 L471.907571,60.4374484 L462.6557,65.625553 L462.6557,74.9490595 Z M451.226857,139.633348 L460.633271,144.907511 L460.633271,135.585265 L451.226857,130.309894 L451.226857,139.633348 Z M451.226857,127.988824 L460.633271,133.262986 L460.633271,123.940096 L451.226857,118.664726 L451.226857,127.988824 Z M451.226857,116.343655 L460.633271,121.617818 L460.633271,112.2957 L451.226857,107.02033 L451.226857,116.343655 Z M451.226857,104.699259 L460.633271,109.973422 L460.633271,100.650532 L451.226857,95.3751616 L451.226857,104.699259 Z M451.226857,93.054091 L460.633271,98.3282538 L460.633271,89.0053636 L451.226857,83.7299933 L451.226857,93.054091 Z" id="Combined-Shape" fill="url(#linearGradient-39)"></path>
                <g id="Group-24" transform="translate(444.000000, 48.000000)">
                    <polygon id="Fill-1" fill="#FFCD39" points="6.8868 15.7666 6.2288 22.0106 8.6508 23.4816 8.6508 14.8066"></polygon>
                    <g id="Group-4" transform="translate(0.000000, 5.481400)">
                        <mask id="mask-41" fill="white">
                            <use xlink:href="#path-40"></use>
                        </mask>
                        <g id="Clip-3"></g>
                        <path d="M1.516,7.002 C0.609,7.311 0,8.162 0,9.119 L0,12.754 L7.134,17.078 L7.134,13.444 C7.134,12.487 7.744,11.635 8.651,11.326 L8.651,5.009 L1.516,0.563 L1.516,7.002 Z" id="Fill-2" fill="url(#linearGradient-18)" mask="url(#mask-41)"></path>
                    </g>
                    <path d="M6.138,20.1294 C6.288,20.2214 6.482,20.1124 6.482,19.9364 L6.482,18.1544 C6.482,17.4194 6.95,16.7654 7.645,16.5284 L7.645,11.0474 C7.645,10.9694 7.605,10.8964 7.538,10.8554 L3.163,8.1294 C2.73,7.8584 2.169,8.1704 2.169,8.6804 L2.169,13.2094 C1.473,13.4464 1.005,14.0994 1.005,14.8344 L1.005,16.6514 C1.005,16.8794 1.124,17.0904 1.319,17.2084 L6.138,20.1294 Z" id="Fill-5" fill="#99A7D8"></path>
                    <g id="Group-9" transform="translate(8.000000, 4.481400)">
                        <mask id="mask-43" fill="white">
                            <use xlink:href="#path-42"></use>
                        </mask>
                        <g id="Clip-8"></g>
                        <polygon id="Fill-7" fill="url(#linearGradient-44)" mask="url(#mask-43)" points="0.651 6.009 0.651 19 9.951 13.769 9.897 0.808"></polygon>
                    </g>
                    <g id="Group-23" transform="translate(1.000000, 0.481400)">
                        <g id="Group-12">
                            <mask id="mask-46" fill="white">
                                <use xlink:href="#path-45"></use>
                            </mask>
                            <g id="Clip-11"></g>
                            <polygon id="Fill-10" fill="#FFDA6A" mask="url(#mask-46)" points="0.5159 5.5636 9.5699 0.5186 16.8979 4.8086 7.6509 10.0096"></polygon>
                        </g>
                        <path d="M9.0101,11.1803 L9.0101,16.5633 C9.0101,16.5633 7.5121,16.9573 7.6431,18.9753 L7.6431,19.5083 C7.6431,19.8303 7.9921,20.0313 8.2711,19.8683 L11.6741,17.8703 C11.8631,17.7603 11.9851,17.5663 12.0031,17.3493 L12.1821,15.2433 C12.2391,14.5793 12.6141,13.9833 13.1891,13.6463 L15.9321,12.0363 C16.1041,11.9353 16.2101,11.7503 16.2101,11.5513 L16.2101,7.1363 C16.2101,6.9843 16.0461,6.8883 15.9131,6.9633 L9.2851,10.7093 C9.1151,10.8053 9.0101,10.9853 9.0101,11.1803" id="Fill-13" fill="#99A7D8"></path>
                        <path d="M4.6429,9.1925 L2.1639,7.6475 C1.8539,7.4545 1.4819,7.5615 1.2929,7.8225 L6.6449,14.5745 L6.6449,11.6795 L4.6429,9.1925 Z" id="Fill-15" fill="#C2CAE8"></path>
                        <path d="M1.1693,8.2569 L1.1693,9.5699 L6.3943,16.1569 C6.4743,16.1139 6.5583,16.0779 6.6453,16.0479 L6.6453,15.0689 L1.1693,8.2569 Z" id="Fill-17" fill="#C2CAE8"></path>
                        <polygon id="Fill-19" fill="#C2CAE8" points="14.9407 7.5133 13.4777 8.3403 16.2107 9.4403 16.2107 8.0243"></polygon>
                        <polygon id="Fill-21" fill="#C2CAE8" points="16.2103 9.8214 13.0833 8.5624 12.3403 8.9834 16.2103 10.5424"></polygon>
                    </g>
                </g>
                <path d="M490.212116,22.7158792 L492.539168,21.3708714 L494.708337,22.4945857 L491.738771,24.209906 L491.869538,37.0380714 L491.870052,37.0385857 L364.474703,110.989014 L362.338926,112.2053 C362.020963,112.386254 361.653591,112.30411 361.43016,112.071638 L351.105609,105.4544 L351.129134,105.417529 L351.120378,105.422514 L351.120378,102.011514 L359.816319,84.6569429 L480.977714,14.5868 L483.021023,15.7413714 L481.080614,16.8635671 L490.212116,22.7158792 Z M488.241146,23.8550764 L479.110195,18.003118 L471.758826,22.2546302 L480.887717,28.1052689 L488.241146,23.8550764 Z M361.22416,109.537251 L361.22416,109.417871 L368.712747,95.1753745 L354.374774,103.5698 L353.071041,104.31201 L361.22416,109.537251 Z M489.709359,35.9431105 L489.709359,25.3821618 L481.794909,29.9538111 L481.794909,40.5379426 L489.709359,35.9431105 Z M479.774718,41.7107897 L479.774718,31.1207409 L442.052492,52.9103528 L442.052492,63.6108963 L479.774718,41.7107897 Z M440.032301,64.7837434 L440.032301,54.0772825 L432.118493,58.6485609 L432.118493,69.3782027 L440.032301,64.7837434 Z M430.098302,70.5510498 L430.098302,59.8154906 L422.18321,64.3875109 L422.18321,75.1462547 L430.098302,70.5510498 Z M420.163019,76.3191019 L420.163019,65.5544406 L412.247927,70.1264608 L412.247927,80.9143067 L420.163019,76.3191019 Z M410.226451,82.0878995 L410.226451,71.2941324 L402.312644,75.8654108 L402.312644,86.6823587 L410.226451,82.0878995 Z M400.292452,87.8552059 L400.292452,77.0323405 L392.377361,81.6043607 L392.377361,92.4504107 L400.292452,87.8552059 Z M390.357169,93.6232579 L390.357169,82.7712904 L382.442077,87.3433107 L382.442077,98.2184628 L390.357169,93.6232579 Z M380.420602,99.3920556 L380.420602,88.5109822 L372.506794,93.0822606 L372.506794,103.986515 L380.420602,99.3920556 Z M370.486603,105.159362 L370.486603,96.1421524 L363.663031,109.120871 L370.486603,105.159362 Z M469.788407,23.3941811 L462.051029,27.8689337 L471.176637,33.7181561 L478.916747,29.2444661 L469.788407,23.3941811 Z M460.080692,29.0084375 L451.783253,33.8070898 L460.906549,39.6541424 L469.206312,34.8569797 L460.080692,29.0084375 Z M449.811846,34.9472122 L441.263163,39.8911661 L450.384077,45.7360039 L458.936036,40.7930748 L449.811846,34.9472122 Z M439.293318,41.0303856 L431.634405,45.4597593 L440.752057,51.3031948 L448.413115,46.875196 L439.293318,41.0303856 Z M429.663614,46.5995254 L422.376821,50.813692 L431.491879,56.6554655 L438.781596,52.4420976 L429.663614,46.5995254 Z M420.407077,51.9528524 L412.205906,56.6958301 L421.318116,62.5357776 L429.521584,57.7942723 L420.407077,51.9528524 Z M410.235487,57.835381 L402.110778,62.5341385 L411.22016,68.3722738 L419.347145,63.6749748 L410.235487,57.835381 Z M400.141035,63.673299 L392.219594,68.2545003 L401.326769,74.0905341 L409.249865,69.5110806 L400.141035,63.673299 Z M390.249771,69.3937067 L381.939983,74.1995009 L391.043715,80.034015 L399.355831,75.2297127 L390.249771,69.3937067 Z M379.969564,75.3390518 L372.234499,79.8124671 L381.335512,85.6452389 L389.072744,81.1732122 L379.969564,75.3390518 Z M370.263728,80.9522214 L362.528401,85.4257882 L371.627258,91.256492 L379.365069,86.7841308 L370.263728,80.9522214 Z M369.561913,92.3351737 L360.985248,86.838453 L353.525857,101.723514 L369.561913,92.3351737 Z" id="Combined-Shape" fill="#CED5E8"></path>
                <path d="M222,57 C213.163444,57 206,49.836556 206,41 C206,32.163444 213.163444,25 222,25 C222.148702,25 222.296931,25.0020286 222.444659,25.0060596 C224.261337,16.9870611 231.431492,11 240,11 C248.568508,11 255.738663,16.9870611 257.555341,25.0060596 C257.703069,25.0020286 257.851298,25 258,25 C266.836556,25 274,32.163444 274,41 C274,49.836556 266.836556,57 258,57 L222,57 Z" id="Oval" fill="#E6E9F3"></path>
                <path d="M543,83 C536.372583,83 531,77.627417 531,71 C531,64.372583 536.372583,59 543,59 C543.107422,59 543.214514,59.0014115 543.32126,59.004217 C544.693016,52.711741 550.296265,48 557,48 C563.703735,48 569.306984,52.711741 570.67874,59.004217 C570.785486,59.0014115 570.892578,59 571,59 C577.627417,59 583,64.372583 583,71 C583,77.627417 577.627417,83 571,83 L543,83 Z" id="Oval" fill="#E6E9F3"></path>
            </g>
        </g>
    </g>
</svg>