<?xml version="1.0" encoding="utf-8"?>
<!-- Generator: Adobe Illustrator 24.0.1, SVG Export Plug-In . SVG Version: 6.00 Build 0)  -->
<svg version="1.1" id="图层_1" xmlns="http://www.w3.org/2000/svg" xmlns:xlink="http://www.w3.org/1999/xlink" x="0px" y="0px"
	 viewBox="0 0 84 84" style="enable-background:new 0 0 84 84;" xml:space="preserve">
<style type="text/css">
	.st0{fill-rule:evenodd;clip-rule:evenodd;fill:#FFFFFF;fill-opacity:0.5;}
	.st1{fill:#2EE6A8;}
	.st2{enable-background:new    ;}
	.st3{fill:#14CC8F;}
</style>
<title>Img/Other/Seal备份 2</title>
<g id="页面-1">
	<g id="_x31__x5F_List_x5F_2" transform="translate(-1803.000000, -230.000000)">
		
			<g id="Img_x2F_Other_x2F_Seal_x5F_icon_x2B_txt" transform="translate(1845.000000, 272.000000) rotate(-360.000000) translate(-1845.000000, -272.000000) translate(1803.000000, 230.000000)">
			<path id="BG" class="st0" d="M81.5,44.7l-2.3,2.5c-1,1.1-1.3,2.7-0.8,4.1l1.2,3.2c0.7,2-0.2,4.2-2.1,5l-3.1,1.4
				c-1.4,0.6-2.3,2-2.3,3.5L71.8,68c-0.1,2.1-1.8,3.8-3.8,3.8L64.5,72c-1.5,0.1-2.9,1-3.5,2.3l-1.4,3.1c-0.9,1.9-3.1,2.8-5,2.1
				l-3.2-1.2c-1.4-0.5-3-0.2-4.1,0.8l-2.5,2.3c-1.5,1.4-3.9,1.4-5.4,0l-2.5-2.3c-1.1-1-2.7-1.3-4.1-0.8l-3.2,1.2
				c-2,0.7-4.2-0.2-5-2.1l-1.4-3.1c-0.6-1.4-2-2.3-3.5-2.3L16,71.8c-2.1-0.1-3.8-1.8-3.8-3.8L12,64.5c-0.1-1.5-1-2.9-2.3-3.5
				l-3.1-1.4c-1.9-0.9-2.8-3.1-2.1-5l1.2-3.2c0.5-1.4,0.2-3-0.8-4.1l-2.3-2.5c-1.4-1.5-1.4-3.9,0-5.4l2.3-2.5c1-1.1,1.3-2.7,0.8-4.1
				l-1.2-3.2c-0.7-2,0.2-4.2,2.1-5l3.1-1.4c1.4-0.6,2.3-2,2.3-3.5l0.1-3.4c0.1-2.1,1.8-3.8,3.8-3.8l3.4-0.1c1.5-0.1,2.9-1,3.5-2.3
				l1.4-3.1c0.9-1.9,3.1-2.8,5-2.1l3.2,1.2c1.4,0.5,3,0.2,4.1-0.8l2.5-2.3c1.5-1.4,3.9-1.4,5.4,0l2.5,2.3c1.1,1,2.7,1.3,4.1,0.8
				l3.2-1.2c2-0.7,4.2,0.2,5,2.1l1.4,3.1c0.6,1.4,2,2.3,3.5,2.3l3.4,0.1c2.1,0.1,3.8,1.8,3.8,3.8l0.1,3.4c0.1,1.5,1,2.9,2.3,3.5
				l3.1,1.4c1.9,0.9,2.8,3.1,2.1,5l-1.2,3.2c-0.5,1.4-0.2,3,0.8,4.1l2.3,2.5C82.9,40.8,82.9,43.2,81.5,44.7z"/>
			<path class="st1" d="M42,83c-1.1,0-2.2-0.4-3.1-1.2l-2.5-2.3c-1-0.9-2.4-1.2-3.6-0.7L29.6,80c-2.2,0.8-4.7-0.2-5.7-2.3l-1.4-3.1
				c-0.6-1.2-1.7-2-3.1-2L16,72.3c-2.3-0.1-4.2-2-4.3-4.3l-0.1-3.4c0-1.3-0.8-2.5-2-3.1l-3.1-1.4c-2.1-1-3.2-3.5-2.3-5.7l1.2-3.2
				c0.5-1.2,0.2-2.6-0.7-3.6l-2.3-2.5c-1.6-1.7-1.6-4.4,0-6.1l2.3-2.5c0.9-1,1.2-2.4,0.7-3.6L4,29.6c-0.8-2.2,0.2-4.7,2.3-5.7
				l3.1-1.4c1.2-0.6,2-1.7,2-3.1l0.1-3.4c0.1-2.3,2-4.2,4.3-4.3l3.4-0.1c1.3,0,2.5-0.8,3.1-2l1.4-3.1c1-2.1,3.5-3.2,5.7-2.3l3.2,1.2
				c1.2,0.5,2.6,0.2,3.6-0.7l2.5-2.3c1.7-1.6,4.4-1.6,6.1,0l2.5,2.3c1,0.9,2.4,1.2,3.6,0.7L54.4,4c2.2-0.8,4.7,0.2,5.7,2.3l1.4,3.1
				c0.6,1.2,1.7,2,3.1,2l3.4,0.1c2.3,0.1,4.2,2,4.3,4.3l0.1,3.4c0,1.3,0.8,2.5,2,3.1l3.1,1.4c2.1,1,3.2,3.5,2.3,5.7l-1.2,3.2
				c-0.5,1.2-0.2,2.6,0.7,3.6l2.3,2.5c1.6,1.7,1.6,4.4,0,6.1l-2.3,2.5c-0.9,1-1.2,2.4-0.7,3.6l1.2,3.2c0.8,2.2-0.2,4.7-2.3,5.7
				l-3.1,1.4c-1.2,0.6-2,1.7-2,3.1L72.3,68c-0.1,2.3-2,4.2-4.3,4.3l-3.4,0.1c-1.3,0-2.5,0.8-3.1,2l-1.4,3.1c-1,2.1-3.5,3.2-5.7,2.3
				l-3.2-1.2c-1.2-0.5-2.6-0.2-3.6,0.7l-2.5,2.3C44.2,82.6,43.1,83,42,83z M34,77.6c1.1,0,2.2,0.4,3.1,1.2l2.5,2.3
				c1.3,1.2,3.4,1.2,4.8,0l2.5-2.3c1.3-1.2,3-1.5,4.6-0.9l3.2,1.2c1.7,0.6,3.6-0.2,4.4-1.8l1.4-3.1c0.7-1.6,2.2-2.6,3.9-2.6l3.4-0.1
				c1.8-0.1,3.3-1.5,3.4-3.4l0.1-3.4c0.1-1.7,1.1-3.2,2.6-3.9l3.1-1.4c1.7-0.8,2.5-2.7,1.8-4.4l-1.2-3.2c-0.6-1.6-0.2-3.4,0.9-4.6
				l2.3-2.5l0,0c1.2-1.3,1.2-3.4,0-4.8l-2.3-2.5c-1.2-1.3-1.5-3-0.9-4.6l1.2-3.2c0.6-1.7-0.2-3.6-1.8-4.4l-3.1-1.4
				c-1.6-0.7-2.6-2.2-2.6-3.9L71.3,16c-0.1-1.8-1.5-3.3-3.4-3.4l-3.4-0.1c-1.7-0.1-3.2-1.1-3.9-2.6l-1.4-3.1
				c-0.8-1.7-2.7-2.5-4.4-1.8l-3.2,1.2c-1.6,0.6-3.4,0.2-4.6-0.9l-2.5-2.3c-1.3-1.2-3.4-1.2-4.8,0l-2.5,2.3c-1.3,1.2-3,1.5-4.6,0.9
				L29.2,5c-1.7-0.6-3.6,0.2-4.4,1.8l-1.4,3.1c-0.7,1.6-2.2,2.6-3.9,2.6L16,12.7c-1.8,0.1-3.3,1.5-3.4,3.4l-0.1,3.4
				c-0.1,1.7-1.1,3.2-2.6,3.9l-3.1,1.4c-1.7,0.8-2.5,2.7-1.8,4.4l1.2,3.2c0.6,1.6,0.2,3.4-0.9,4.6l-2.3,2.5c-1.2,1.3-1.2,3.4,0,4.8
				l2.3,2.5c1.2,1.3,1.5,3,0.9,4.6L5,54.8c-0.6,1.7,0.2,3.6,1.8,4.4l3.1,1.4c1.6,0.7,2.6,2.2,2.6,3.9l0.1,3.4
				c0.1,1.8,1.5,3.3,3.4,3.4l3.4,0.1c1.7,0.1,3.2,1.1,3.9,2.6l1.4,3.1c0.8,1.7,2.7,2.5,4.4,1.8l3.2-1.2C33,77.7,33.5,77.6,34,77.6z"
				/>
			<path class="st1" d="M42,74.5C24.1,74.5,9.5,59.9,9.5,42C9.5,24.1,24.1,9.5,42,9.5c17.9,0,32.5,14.6,32.5,32.5
				C74.5,59.9,59.9,74.5,42,74.5z M42,10.5c-17.4,0-31.5,14.1-31.5,31.5S24.6,73.5,42,73.5S73.5,59.4,73.5,42S59.4,10.5,42,10.5z"/>
			<circle id="Oval_1_BG" class="st0" cx="42" cy="42" r="28"/>
			<path class="st1" d="M42,70.5c-15.7,0-28.5-12.8-28.5-28.5S26.3,13.5,42,13.5S70.5,26.3,70.5,42S57.7,70.5,42,70.5z M42,14.5
				c-15.2,0-27.5,12.3-27.5,27.5c0,15.2,12.3,27.5,27.5,27.5c15.2,0,27.5-12.3,27.5-27.5C69.5,26.8,57.2,14.5,42,14.5z"/>
			<g class="st2">
				<path class="st3" d="M40.3,44.6v1.2h-4.2v0.7c0,0.6-0.1,1.2-0.1,1.8h5.3v1.2h-3.6v3.7c0,0.4,0.2,0.6,0.5,0.6h1.3
					c0.2,0,0.4-0.1,0.5-0.3c0.1-0.2,0.2-0.7,0.3-1.6l1.2,0.4c-0.1,1.3-0.3,2.1-0.6,2.3c-0.2,0.2-0.6,0.3-1.1,0.3h-1.9
					c-0.9,0-1.4-0.5-1.4-1.5v-4h-0.6c-0.2,1-0.5,1.9-0.9,2.7c-0.7,1.3-1.9,2.3-3.6,3l-0.7-1.1c1.7-0.8,2.8-1.7,3.3-2.8
					c0.2-0.5,0.4-1.1,0.6-1.7h-3.7v-1.2h3.9c0.1-0.6,0.1-1.2,0.1-1.8v-0.7h-3.3v-1.2H40.3z"/>
				<path class="st3" d="M45.1,47.3c-0.5,1.1-1.1,2.1-1.8,2.9l-1-0.7c0.7-0.7,1.3-1.6,1.7-2.7L45.1,47.3z M45.5,50.7
					c0.2-0.5,0.4-1,0.6-1.5l1.1,0.5c-0.2,0.7-0.5,1.4-0.8,1.9c0.5,0.4,0.9,0.9,1.3,1.4l-0.9,1c-0.4-0.4-0.7-0.8-1.1-1.2
					c-0.7,1-1.6,1.9-2.7,2.5l-0.8-1.1c1-0.6,1.9-1.3,2.6-2.3c-0.5-0.4-0.9-0.9-1.4-1.2l0.8-0.9C44.7,50,45.1,50.3,45.5,50.7z
					 M46.1,45.3h2.2v1.2h-5.7v-1.2h2.2c-0.2-0.3-0.3-0.7-0.5-1l1.3-0.2C45.8,44.4,45.9,44.8,46.1,45.3z M45.6,47.4l0.8-0.7
					c0.5,0.4,1,0.9,1.6,1.7l-0.8,0.8C46.7,48.6,46.2,48,45.6,47.4z M49,49.4c-0.2,0.3-0.4,0.6-0.6,0.9l-0.8-1c0.8-1.3,1.4-3,1.7-5.2
					l1.2,0.2c-0.1,0.6-0.2,1.1-0.3,1.6h3.2v1.2h-0.9c-0.1,1.8-0.5,3.4-1.2,4.7c0.6,1,1.4,1.8,2.3,2.3l-0.8,1.1
					c-0.9-0.6-1.6-1.3-2.3-2.3c-0.7,0.9-1.7,1.7-2.8,2.4l-0.7-1.2c1.2-0.6,2.2-1.4,2.9-2.4C49.6,51,49.3,50.2,49,49.4z M49.7,47.8
					c0.2,1,0.6,1.9,0.9,2.7c0.4-1,0.7-2.1,0.8-3.4h-1.5C49.9,47.4,49.8,47.6,49.7,47.8z"/>
			</g>
			<g id="iconLine_x2F_S_x2F_View_x2F_ThumbInvalid" transform="translate(34.000000, 23.000000)">
				<path class="st3" d="M8.4,16H8c-0.1,0-0.1,0-0.2,0c-0.4,0-0.7-0.2-0.9-0.5c-0.2-0.3-0.3-0.7-0.3-1L6.9,12H1.9
					c-0.7,0-1.4-0.6-1.5-1.3L0.2,9.2C0,8.4,0.1,7.6,0.4,6.8l1.2-4C1.9,1.7,2.9,1,4,1h7c0.1,0,0.2,0,0.2,0.1L13.1,2h2.4
					C15.8,2,16,2.2,16,2.5V11c0,0.3-0.2,0.5-0.5,0.5h-3.7l-2.1,3.7C9.5,15.7,9,16,8.4,16z M4,2C3.3,2,2.7,2.4,2.5,3.1l-1.2,4
					C1.1,7.7,1.1,8.4,1.2,9l0.2,1.5c0,0.2,0.2,0.4,0.5,0.4h5.6c0.1,0,0.3,0.1,0.4,0.2C8,11.3,8,11.4,8,11.6l-0.4,3
					c0,0.1,0,0.2,0.1,0.3C7.8,14.9,7.9,15,8,15l0.5,0c0.2,0,0.3-0.1,0.4-0.3l2.2-4c0.1-0.2,0.3-0.3,0.4-0.3h1V2.8L10.9,2H4z
					 M13.5,10.5H15V3h-1.5V10.5z"/>
			</g>
		</g>
	</g>
</g>
</svg>
