<?xml version="1.0" encoding="utf-8"?>
<!-- Generator: Adobe Illustrator 24.0.1, SVG Export Plug-In . SVG Version: 6.00 Build 0)  -->
<svg version="1.1" id="图层_1" xmlns="http://www.w3.org/2000/svg" xmlns:xlink="http://www.w3.org/1999/xlink" x="0px" y="0px"
	 viewBox="0 0 84 84" style="enable-background:new 0 0 84 84;" xml:space="preserve">
<style type="text/css">
	.st0{fill-rule:evenodd;clip-rule:evenodd;fill:#FFFFFF;fill-opacity:0.5;}
	.st1{fill:#FFCC33;}
	.st2{enable-background:new    ;}
	.st3{fill:#FFB319;}
</style>
<title>Img/Other/Seal备份</title>
<g id="页面-1">
	<g id="_x31__x5F_List_x5F_2" transform="translate(-1704.000000, -230.000000)">
		
			<g id="Img_x2F_Other_x2F_Seal_x5F_icon_x2B_txt" transform="translate(1746.000000, 272.000000) rotate(-360.000000) translate(-1746.000000, -272.000000) translate(1704.000000, 230.000000)">
			<path id="BG" class="st0" d="M81.5,44.7l-2.3,2.5c-1,1.1-1.3,2.7-0.8,4.1l1.2,3.2c0.7,2-0.2,4.2-2.1,5l-3.1,1.4
				c-1.4,0.6-2.3,2-2.3,3.5L71.8,68c-0.1,2.1-1.8,3.8-3.8,3.8L64.5,72c-1.5,0.1-2.9,1-3.5,2.3l-1.4,3.1c-0.9,1.9-3.1,2.8-5,2.1
				l-3.2-1.2c-1.4-0.5-3-0.2-4.1,0.8l-2.5,2.3c-1.5,1.4-3.9,1.4-5.4,0l-2.5-2.3c-1.1-1-2.7-1.3-4.1-0.8l-3.2,1.2
				c-2,0.7-4.2-0.2-5-2.1l-1.4-3.1c-0.6-1.4-2-2.3-3.5-2.3L16,71.8c-2.1-0.1-3.8-1.8-3.8-3.8L12,64.5c-0.1-1.5-1-2.9-2.3-3.5
				l-3.1-1.4c-1.9-0.9-2.8-3.1-2.1-5l1.2-3.2c0.5-1.4,0.2-3-0.8-4.1l-2.3-2.5c-1.4-1.5-1.4-3.9,0-5.4l2.3-2.5c1-1.1,1.3-2.7,0.8-4.1
				l-1.2-3.2c-0.7-2,0.2-4.2,2.1-5l3.1-1.4c1.4-0.6,2.3-2,2.3-3.5l0.1-3.4c0.1-2.1,1.8-3.8,3.8-3.8l3.4-0.1c1.5-0.1,2.9-1,3.5-2.3
				l1.4-3.1c0.9-1.9,3.1-2.8,5-2.1l3.2,1.2c1.4,0.5,3,0.2,4.1-0.8l2.5-2.3c1.5-1.4,3.9-1.4,5.4,0l2.5,2.3c1.1,1,2.7,1.3,4.1,0.8
				l3.2-1.2c2-0.7,4.2,0.2,5,2.1l1.4,3.1c0.6,1.4,2,2.3,3.5,2.3l3.4,0.1c2.1,0.1,3.8,1.8,3.8,3.8l0.1,3.4c0.1,1.5,1,2.9,2.3,3.5
				l3.1,1.4c1.9,0.9,2.8,3.1,2.1,5l-1.2,3.2c-0.5,1.4-0.2,3,0.8,4.1l2.3,2.5C82.9,40.8,82.9,43.2,81.5,44.7z"/>
			<path class="st1" d="M42,83c-1.1,0-2.2-0.4-3.1-1.2l-2.5-2.3c-1-0.9-2.4-1.2-3.6-0.7L29.6,80c-2.2,0.8-4.7-0.2-5.7-2.3l-1.4-3.1
				c-0.6-1.2-1.7-2-3.1-2L16,72.3c-2.3-0.1-4.2-2-4.3-4.3l-0.1-3.4c0-1.3-0.8-2.5-2-3.1l-3.1-1.4c-2.1-1-3.2-3.5-2.3-5.7l1.2-3.2
				c0.5-1.2,0.2-2.6-0.7-3.6l-2.3-2.5c-1.6-1.7-1.6-4.4,0-6.1l2.3-2.5c0.9-1,1.2-2.4,0.7-3.6L4,29.6c-0.8-2.2,0.2-4.7,2.3-5.7
				l3.1-1.4c1.2-0.6,2-1.7,2-3.1l0.1-3.4c0.1-2.3,2-4.2,4.3-4.3l3.4-0.1c1.3,0,2.5-0.8,3.1-2l1.4-3.1c1-2.1,3.5-3.2,5.7-2.3l3.2,1.2
				c1.2,0.5,2.6,0.2,3.6-0.7l2.5-2.3c1.7-1.6,4.4-1.6,6.1,0l2.5,2.3c1,0.9,2.4,1.2,3.6,0.7L54.4,4c2.2-0.8,4.7,0.2,5.7,2.3l1.4,3.1
				c0.6,1.2,1.7,2,3.1,2l3.4,0.1c2.3,0.1,4.2,2,4.3,4.3l0.1,3.4c0,1.3,0.8,2.5,2,3.1l3.1,1.4c2.1,1,3.2,3.5,2.3,5.7l-1.2,3.2
				c-0.5,1.2-0.2,2.6,0.7,3.6l2.3,2.5c1.6,1.7,1.6,4.4,0,6.1l-2.3,2.5c-0.9,1-1.2,2.4-0.7,3.6l1.2,3.2c0.8,2.2-0.2,4.7-2.3,5.7
				l-3.1,1.4c-1.2,0.6-2,1.7-2,3.1L72.3,68c-0.1,2.3-2,4.2-4.3,4.3l-3.4,0.1c-1.3,0-2.5,0.8-3.1,2l-1.4,3.1c-1,2.1-3.5,3.2-5.7,2.3
				l-3.2-1.2c-1.2-0.5-2.6-0.2-3.6,0.7l-2.5,2.3C44.2,82.6,43.1,83,42,83z M34,77.6c1.1,0,2.2,0.4,3.1,1.2l2.5,2.3
				c1.3,1.2,3.4,1.2,4.8,0l2.5-2.3c1.3-1.2,3-1.5,4.6-0.9l3.2,1.2c1.7,0.6,3.6-0.2,4.4-1.8l1.4-3.1c0.7-1.6,2.2-2.6,3.9-2.6l3.4-0.1
				c1.8-0.1,3.3-1.5,3.4-3.4l0.1-3.4c0.1-1.7,1.1-3.2,2.6-3.9l3.1-1.4c1.7-0.8,2.5-2.7,1.8-4.4l-1.2-3.2c-0.6-1.6-0.2-3.4,0.9-4.6
				l2.3-2.5l0,0c1.2-1.3,1.2-3.4,0-4.8l-2.3-2.5c-1.2-1.3-1.5-3-0.9-4.6l1.2-3.2c0.6-1.7-0.2-3.6-1.8-4.4l-3.1-1.4
				c-1.6-0.7-2.6-2.2-2.6-3.9L71.3,16c-0.1-1.8-1.5-3.3-3.4-3.4l-3.4-0.1c-1.7-0.1-3.2-1.1-3.9-2.6l-1.4-3.1
				c-0.8-1.7-2.7-2.5-4.4-1.8l-3.2,1.2c-1.6,0.6-3.4,0.2-4.6-0.9l-2.5-2.3c-1.3-1.2-3.4-1.2-4.8,0l-2.5,2.3c-1.3,1.2-3,1.5-4.6,0.9
				L29.2,5c-1.7-0.6-3.6,0.2-4.4,1.8l-1.4,3.1c-0.7,1.6-2.2,2.6-3.9,2.6L16,12.7c-1.8,0.1-3.3,1.5-3.4,3.4l-0.1,3.4
				c-0.1,1.7-1.1,3.2-2.6,3.9l-3.1,1.4c-1.7,0.8-2.5,2.7-1.8,4.4l1.2,3.2c0.6,1.6,0.2,3.4-0.9,4.6l-2.3,2.5c-1.2,1.3-1.2,3.4,0,4.8
				l2.3,2.5c1.2,1.3,1.5,3,0.9,4.6L5,54.8c-0.6,1.7,0.2,3.6,1.8,4.4l3.1,1.4c1.6,0.7,2.6,2.2,2.6,3.9l0.1,3.4
				c0.1,1.8,1.5,3.3,3.4,3.4l3.4,0.1c1.7,0.1,3.2,1.1,3.9,2.6l1.4,3.1c0.8,1.7,2.7,2.5,4.4,1.8l3.2-1.2C33,77.7,33.5,77.6,34,77.6z"
				/>
			<path class="st1" d="M42,74.5C24.1,74.5,9.5,59.9,9.5,42C9.5,24.1,24.1,9.5,42,9.5c17.9,0,32.5,14.6,32.5,32.5
				C74.5,59.9,59.9,74.5,42,74.5z M42,10.5c-17.4,0-31.5,14.1-31.5,31.5S24.6,73.5,42,73.5S73.5,59.4,73.5,42S59.4,10.5,42,10.5z"/>
			<circle id="Oval_1_BG" class="st0" cx="42" cy="42" r="28"/>
			<path class="st1" d="M42,70.5c-15.7,0-28.5-12.8-28.5-28.5S26.3,13.5,42,13.5S70.5,26.3,70.5,42S57.7,70.5,42,70.5z M42,14.5
				c-15.2,0-27.5,12.3-27.5,27.5c0,15.2,12.3,27.5,27.5,27.5c15.2,0,27.5-12.3,27.5-27.5C69.5,26.8,57.2,14.5,42,14.5z"/>
			<g class="st2">
				<path class="st3" d="M33.1,52.5v2.9h-1.4v-6.8c-0.7,0.8-1.5,1.5-2.3,2.2l-1-1.2c1.6-1.2,2.8-2.7,3.8-4.3h-3.4v-1.4H33
					c0.2-0.5,0.4-1,0.5-1.5l1.5,0.2c-0.1,0.4-0.3,0.9-0.4,1.3h6.7v1.4H34c-0.2,0.4-0.4,0.8-0.7,1.2h6.3v7.6c0,0.8-0.5,1.2-1.4,1.2
					h-1.6l-0.4-1.3c0.5,0,1,0.1,1.5,0.1c0.3,0,0.5-0.2,0.5-0.5v-1.1H33.1z M33.1,48.9h5.1v-1.1h-5.1V48.9z M33.1,50.2v1.1h5.1v-1.1
					H33.1z"/>
				<path class="st3" d="M45.6,46.2c-0.6,1.3-1.3,2.4-2.1,3.4l-1.2-0.8c0.8-0.9,1.5-1.9,2-3.1L45.6,46.2z M46.1,50.1
					c0.3-0.6,0.5-1.2,0.7-1.8l1.3,0.6c-0.3,0.8-0.5,1.6-0.9,2.3c0.5,0.5,1.1,1,1.5,1.6l-1,1.1c-0.4-0.5-0.9-1-1.3-1.4
					c-0.8,1.2-1.9,2.2-3.2,2.9l-0.9-1.3c1.2-0.6,2.2-1.5,3-2.7c-0.5-0.5-1.1-1-1.6-1.4l0.9-1C45.2,49.3,45.7,49.7,46.1,50.1z
					 M46.7,43.8h2.6v1.4h-6.6v-1.4h2.6c-0.2-0.4-0.4-0.8-0.6-1.1l1.5-0.3C46.4,42.8,46.6,43.3,46.7,43.8z M46.3,46.3l0.9-0.9
					c0.5,0.4,1.2,1.1,1.9,1.9l-1,1C47.5,47.7,46.9,47,46.3,46.3z M50.2,48.6c-0.2,0.4-0.4,0.7-0.7,1l-0.9-1.1c1-1.5,1.6-3.5,1.9-6.1
					l1.4,0.3c-0.1,0.7-0.2,1.3-0.4,1.9h3.7V46h-1c-0.1,2.1-0.6,3.9-1.4,5.5c0.8,1.2,1.7,2.1,2.7,2.7l-0.9,1.3
					c-1-0.7-1.9-1.6-2.6-2.7c-0.9,1.1-2,2-3.3,2.8l-0.8-1.3c1.4-0.7,2.6-1.6,3.4-2.8C50.9,50.5,50.5,49.6,50.2,48.6z M51,46.8
					c0.3,1.2,0.6,2.2,1.1,3.2c0.5-1.2,0.8-2.5,0.9-4h-1.7C51.2,46.3,51.1,46.5,51,46.8z"/>
			</g>
			<g id="iconLine_x2F_S_x2F_View_x2F_ThumbEffective" transform="translate(34.000000, 23.000000)">
				<path class="st3" d="M11,15H4c-1.1,0-2.1-0.7-2.4-1.8l-1.2-4C0.1,8.4,0,7.6,0.2,6.8l0.2-1.5C0.5,4.6,1.1,4,1.9,4h5.1L6.6,1.6
					c0-0.4,0.1-0.7,0.3-1C7.1,0.2,7.5,0.1,7.8,0C7.9,0,7.9,0,8,0h0.4c0.5,0,1,0.3,1.3,0.8l2.1,3.7h3.7C15.8,4.5,16,4.7,16,5v8.5
					c0,0.3-0.2,0.5-0.5,0.5h-2.4l-1.9,0.9C11.2,15,11.1,15,11,15z M1.9,5C1.6,5,1.4,5.2,1.4,5.4L1.2,7c-0.1,0.7,0,1.3,0.2,2l1.2,4
					C2.7,13.6,3.3,14,4,14h6.9l1.6-0.8V5.5h-1c-0.2,0-0.3-0.1-0.4-0.3l-2.2-4C8.8,1.1,8.6,1,8.4,1L8,1C7.9,1,7.8,1.1,7.7,1.1
					C7.6,1.2,7.6,1.3,7.6,1.4l0.4,3c0,0.1,0,0.3-0.1,0.4C7.8,4.9,7.6,5,7.5,5H1.9z M13.5,13H15V5.5h-1.5V13z"/>
			</g>
		</g>
	</g>
</g>
</svg>
