<?xml version="1.0" encoding="UTF-8"?>
<svg width="84px" height="84px" viewBox="0 0 84 84" version="1.1" xmlns="http://www.w3.org/2000/svg" xmlns:xlink="http://www.w3.org/1999/xlink">
    <title>未违规</title>
    <g id="智能布防" stroke="none" stroke-width="1" fill="none" fill-rule="evenodd">
        <g id="未违规" transform="translate(42.000000, 42.000000) rotate(-360.000000) translate(-42.000000, -42.000000) ">
            <path d="M81.4749264,44.7209325 L79.1287163,47.2491279 C78.1006172,48.3569722 77.7847329,49.9496956 78.3122072,51.3660563 L79.5128794,54.5900704 C80.2449383,56.5557763 79.3341808,58.7531011 77.4261696,59.6245383 L74.2985349,61.0530086 C72.9227737,61.6813536 72.019068,63.0319359 71.9630609,64.5433589 L71.8354568,67.9869218 C71.7578988,70.0799258 70.0789432,71.7587175 67.9859317,71.8360712 L64.5436372,71.9632917 C63.0320681,72.0191564 61.6813001,72.922891 61.0528966,74.2987801 L59.6245383,77.4261696 C58.7531011,79.3341808 56.5557763,80.2449383 54.5900704,79.5128794 L51.3660563,78.3122072 C49.9496956,77.7847329 48.3569722,78.1006172 47.2491279,79.1287163 L44.7209325,81.4749264 C43.1864551,82.8989486 40.8135449,82.8989486 39.2790675,81.4749264 L36.7509437,79.1287828 C35.6430621,78.100649 34.0502724,77.7847808 32.6338826,78.3123231 L29.4106614,79.51283 C27.4450635,80.2449279 25.2477911,79.3343565 24.3762142,77.4265053 L22.9470927,74.2982086 C22.3186759,72.9226263 20.9681859,72.0190725 19.4568957,71.9630704 L16.0130782,71.8354568 C13.9200742,71.7578988 12.2412825,70.0789432 12.1639288,67.9859317 L12.0367083,64.5436372 C11.9808436,63.0320681 11.077109,61.6813001 9.70121991,61.0528966 L6.57383041,59.6245383 C4.66581916,58.7531011 3.75506168,56.5557763 4.48712059,54.5900704 L5.68779276,51.3660563 C6.21526713,49.9496956 5.89938282,48.3569722 4.87128368,47.2491279 L2.52507357,44.7209325 C1.10105136,43.1864551 1.10105136,40.8135449 2.52507357,39.2790675 L4.87121721,36.7509437 C5.89935104,35.6430621 6.21521918,34.0502724 5.68767685,32.6338826 L4.48717004,29.4106614 C3.75507208,27.4450635 4.66564348,25.2477911 6.57349468,24.3762142 L9.70179142,22.9470927 C11.0773737,22.3186759 11.9809275,20.9681859 12.0369296,19.4568957 L12.1645427,16.0130921 C12.2421009,13.9200824 13.9210652,12.2412883 16.0140828,12.1639422 L19.4573289,12.0366994 C20.9689035,11.9808402 22.3196787,11.0771045 22.9480845,9.7012105 L24.3763835,6.57395062 C25.2478434,4.66588977 27.4452531,3.75514269 29.4109841,4.48729023 L32.6338826,5.68767685 C34.0502724,6.21521918 35.6430621,5.89935104 36.7509437,4.87121721 L39.2790675,2.52507357 C40.8135449,1.10105136 43.1864551,1.10105136 44.7209325,2.52507357 L47.2491279,4.87128368 C48.3569722,5.89938282 49.9496956,6.21526713 51.3660563,5.68779276 L54.5900704,4.48712059 C56.5557763,3.75506168 58.7531011,4.66581916 59.6245383,6.57383041 L61.0530086,9.70146511 C61.6813536,11.0772263 63.0319359,11.980932 64.5433589,12.0369391 L67.9869079,12.1645427 C70.0799176,12.2421009 71.7587117,13.9210652 71.8360578,16.0140828 L71.9633006,19.4573289 C72.0191598,20.9689035 72.9228955,22.3196787 74.2987895,22.9480845 L77.4260494,24.3763835 C79.3341102,25.2478434 80.2448573,27.4452531 79.5127098,29.4109841 L78.3123231,32.6338826 C77.7847808,34.0502724 78.100649,35.6430621 79.1287828,36.7509437 L81.4749264,39.2790675 C82.8989486,40.8135449 82.8989486,43.1864551 81.4749264,44.7209325 Z" id="BG" fill-opacity="0.5" fill="#FFFFFF"></path>
            <path d="M81.4749264,44.7209325 L79.1287163,47.2491279 C78.1006172,48.3569722 77.7847329,49.9496956 78.3122072,51.3660563 L79.5128794,54.5900704 C80.2449383,56.5557763 79.3341808,58.7531011 77.4261696,59.6245383 L74.2985349,61.0530086 C72.9227737,61.6813536 72.019068,63.0319359 71.9630609,64.5433589 L71.8354568,67.9869218 C71.7578988,70.0799258 70.0789432,71.7587175 67.9859317,71.8360712 L64.5436372,71.9632917 C63.0320681,72.0191564 61.6813001,72.922891 61.0528966,74.2987801 L59.6245383,77.4261696 C58.7531011,79.3341808 56.5557763,80.2449383 54.5900704,79.5128794 L51.3660563,78.3122072 C49.9496956,77.7847329 48.3569722,78.1006172 47.2491279,79.1287163 L44.7209325,81.4749264 C43.1864551,82.8989486 40.8135449,82.8989486 39.2790675,81.4749264 L36.7509437,79.1287828 C35.6430621,78.100649 34.0502724,77.7847808 32.6338826,78.3123231 L29.4106614,79.51283 C27.4450635,80.2449279 25.2477911,79.3343565 24.3762142,77.4265053 L22.9470927,74.2982086 C22.3186759,72.9226263 20.9681859,72.0190725 19.4568957,71.9630704 L16.0130782,71.8354568 C13.9200742,71.7578988 12.2412825,70.0789432 12.1639288,67.9859317 L12.0367083,64.5436372 C11.9808436,63.0320681 11.077109,61.6813001 9.70121991,61.0528966 L6.57383041,59.6245383 C4.66581916,58.7531011 3.75506168,56.5557763 4.48712059,54.5900704 L5.68779276,51.3660563 C6.21526713,49.9496956 5.89938282,48.3569722 4.87128368,47.2491279 L2.52507357,44.7209325 C1.10105136,43.1864551 1.10105136,40.8135449 2.52507357,39.2790675 L4.87121721,36.7509437 C5.89935104,35.6430621 6.21521918,34.0502724 5.68767685,32.6338826 L4.48717004,29.4106614 C3.75507208,27.4450635 4.66564348,25.2477911 6.57349468,24.3762142 L9.70179142,22.9470927 C11.0773737,22.3186759 11.9809275,20.9681859 12.0369296,19.4568957 L12.1645427,16.0130921 C12.2421009,13.9200824 13.9210652,12.2412883 16.0140828,12.1639422 L19.4573289,12.0366994 C20.9689035,11.9808402 22.3196787,11.0771045 22.9480845,9.7012105 L24.3763835,6.57395062 C25.2478434,4.66588977 27.4452531,3.75514269 29.4109841,4.48729023 L32.6338826,5.68767685 C34.0502724,6.21521918 35.6430621,5.89935104 36.7509437,4.87121721 L39.2790675,2.52507357 C40.8135449,1.10105136 43.1864551,1.10105136 44.7209325,2.52507357 L47.2491279,4.87128368 C48.3569722,5.89938282 49.9496956,6.21526713 51.3660563,5.68779276 L54.5900704,4.48712059 C56.5557763,3.75506168 58.7531011,4.66581916 59.6245383,6.57383041 L61.0530086,9.70146511 C61.6813536,11.0772263 63.0319359,11.980932 64.5433589,12.0369391 L67.9869079,12.1645427 C70.0799176,12.2421009 71.7587117,13.9210652 71.8360578,16.0140828 L71.9633006,19.4573289 C72.0191598,20.9689035 72.9228955,22.3196787 74.2987895,22.9480845 L77.4260494,24.3763835 C79.3341102,25.2478434 80.2448573,27.4452531 79.5127098,29.4109841 L78.3123231,32.6338826 C77.7847808,34.0502724 78.100649,35.6430621 79.1287828,36.7509437 L81.4749264,39.2790675 C82.8989486,40.8135449 82.8989486,43.1864551 81.4749264,44.7209325 Z" id="Line" stroke="#14CC8F" stroke-linecap="round" stroke-linejoin="round"></path>
            <circle id="Oval_2_Line" stroke="#14CC8F" stroke-linecap="round" stroke-linejoin="round" cx="42" cy="42" r="32"></circle>
            <circle id="Oval_1_BG" fill-opacity="0.5" fill="#FFFFFF" cx="42" cy="42" r="28"></circle>
            <circle id="Oval_1_Line" stroke="#14CC8F" stroke-linecap="round" stroke-linejoin="round" cx="42" cy="42" r="28"></circle>
            <text id="有效" font-family="PingFang-SC-Bold, PingFang SC" font-size="14" font-weight="bold" fill="#14CC8F">
                <tspan x="21" y="54">未违规</tspan>
            </text>
            <g id="iconLine/S/Edit/TickOval" transform="translate(34.000000, 23.000000)" stroke="#14CC8F" stroke-linecap="round" stroke-linejoin="round">
                <path d="M8,15 C11.8659932,15 15,11.8659932 15,8 C15,4.13400675 11.8659932,1 8,1 C4.13400675,1 1,4.13400675 1,8 C1,11.8659932 4.13400675,15 8,15 Z M12,6 L7,11 L4,8" id="TickOval"></path>
            </g>
        </g>
    </g>
</svg>