<?xml version="1.0" encoding="UTF-8"?>
<svg width="140px" height="100px" viewBox="0 0 140 100" version="1.1" xmlns="http://www.w3.org/2000/svg" xmlns:xlink="http://www.w3.org/1999/xlink">
    <!-- Generator: Sketch 60 (88103) - https://sketch.com -->
    <title>Img/Other/NotViolation</title>
    <desc>Created with Sketch.</desc>
    <g id="Img/Other/NotViolation" stroke="none" stroke-width="1" fill="none" fill-rule="evenodd">
        <g id="Coin" fill="#0FC484" fill-rule="nonzero">
            <path d="M70,0 C93.3739419,0 113.00184,16.0387198 118.478616,37.7110814 C120.692988,38.2173379 122.533528,38.4039 125.4575,38.4039 C128.648731,38.4039 130.650885,37.897021 134.05728,36.5120326 L135.553795,35.9004443 C136.010624,35.7182706 136.33939,35.5961627 136.693274,35.4769319 L136.827457,35.4322435 C137.830899,35.1017678 138.728853,34.9188577 139.652576,34.8819146 L140.000564,34.8749 L140.000564,35.1249 C138.980684,35.1254211 138.010945,35.3056804 136.90566,35.6696971 L136.512913,35.8037173 C136.252454,35.8959632 135.984056,35.9979999 135.64361,36.133782 L134.605293,36.5574027 C130.890563,38.0944781 128.827618,38.6539 125.4575,38.6539 C122.567484,38.6539 120.724414,38.472081 118.547211,37.9841274 C118.676386,38.5094266 118.797827,39.0387133 118.910795,39.571131 C120.939215,40.0059132 122.726119,40.1689 125.4568,40.1689 C128.648825,40.1689 130.651168,39.6620215 134.057579,38.2770326 L135.555797,37.6647654 C136.070561,37.4595102 136.42297,37.3304305 136.831493,37.1959874 C137.833365,36.8662766 138.730145,36.6837636 139.652429,36.6468997 L139.999864,36.6399 L139.999864,36.8899 C138.981666,36.8904205 138.013175,37.0702919 136.909644,37.4334584 L136.384886,37.6147084 C136.031147,37.7430919 135.644241,37.8960522 135.071949,38.1304481 L134.605593,38.3224027 C130.890862,39.8594784 128.827743,40.4189 125.4568,40.4189 C122.754673,40.4189 120.966664,40.2596862 118.966274,39.8398792 C119.074227,40.3590399 119.173735,40.8832821 119.264991,41.4103525 C121.150995,41.7892377 122.88512,41.9337 125.4572,41.9337 C128.336299,41.9337 130.478001,41.4506456 133.225879,40.3770126 L135.448414,39.4746963 C137.391464,38.7036372 138.437505,38.4314211 139.794158,38.4065993 L140.000264,38.4047 L140.000264,38.6547 C138.442436,38.6554964 137.356208,38.9606665 134.929261,39.953754 L133.842536,40.4004149 C130.809509,41.6311192 128.553284,42.1837 125.4572,42.1837 C122.909513,42.1837 121.175044,42.0423028 119.308934,41.6744091 C119.396302,42.189383 119.474896,42.7080709 119.545458,43.2293093 C121.324801,43.5676912 123.012492,43.6982 125.4572,43.6982 C128.649075,43.6982 130.649766,43.1916819 134.056894,41.8063698 L135.558702,41.1928673 C136.074772,40.987216 136.427402,40.8582011 136.836813,40.7236878 C137.836969,40.3950827 138.732496,40.2133407 139.653412,40.1770105 L140.0002,40.1702 L140.0002,40.4202 C138.983579,40.4202 138.016441,40.5992643 136.914847,40.961197 L136.520774,41.0953869 C136.172398,41.2185524 135.80994,41.3592381 135.27997,41.5747164 L134.604993,41.8517027 C130.889312,43.3891714 128.827993,43.9482 125.4572,43.9482 C123.033105,43.9482 121.345241,43.8201888 119.579696,43.4908609 C119.646692,44.0025972 119.705496,44.5168928 119.756438,45.0334981 C121.460281,45.3428182 123.110004,45.4632 125.4568,45.4632 C128.336,45.4632 130.478625,44.9799999 133.226469,43.9064858 L135.450638,43.0034853 C137.396238,42.2312089 138.438244,41.9600619 139.793941,41.9359895 L139.9998,41.9342 L139.9998,42.1842 C138.442787,42.1842 137.361941,42.487969 134.930504,43.4829835 L133.843102,43.9299161 C130.810246,45.1604558 128.552987,45.7132 125.4568,45.7132 C123.125088,45.7132 121.474052,45.5946452 119.77986,45.2923943 C119.828759,45.8006876 119.868633,46.311422 119.900776,46.8242529 C121.55384,47.1138952 123.176216,47.2276 125.457,47.2276 C128.509942,47.2276 130.471949,46.7645405 133.620457,45.5116093 L135.721874,44.6577658 C136.149771,44.4894787 136.468569,44.3742307 136.831705,44.2547626 C137.83359,43.9251518 138.730386,43.7428688 139.652687,43.7064307 L140,43.6996 L140,43.9496 C138.981821,43.9496 138.013348,44.129195 136.909833,44.492241 L136.646539,44.5808976 C136.169873,44.7453736 135.702441,44.929471 134.848537,45.2809815 L134.605775,45.3811098 C130.887458,46.9190196 128.827616,47.4776 125.457,47.4776 C123.187172,47.4776 121.562369,47.3652546 119.914876,47.0804732 C119.945209,47.5843655 119.966817,48.0917741 119.980808,48.6010852 C121.606286,48.8823431 123.2129,48.9924 125.4568,48.9924 C128.336,48.9924 130.478625,48.5091999 133.226469,47.4356858 L134.119601,47.076017 L135.150941,46.652716 C137.289192,45.7897601 138.369632,45.491523 139.79385,45.4661935 L139.9998,45.4644 L139.9998,45.7144 C138.509904,45.7144 137.453092,45.9929938 135.239217,46.8866833 L133.843102,47.4591161 C130.810246,48.6896558 128.552987,49.2424 125.4568,49.2424 C123.219542,49.2424 121.608931,49.1332556 119.985582,48.8574254 C119.995708,49.236249 120,49.6176232 120,50 L119.997498,50.368729 C121.616135,50.6429445 123.246151,50.7575 125.4571,50.7575 C128.338356,50.7575 130.480499,50.2739076 133.231201,49.1983391 L135.721974,48.1866658 C136.149871,48.0183787 136.468669,47.9031307 136.831805,47.7836626 C137.83369,47.4540518 138.730486,47.2717688 139.652787,47.2353307 L140.0001,47.2285 L140.0001,47.4785 C138.981921,47.4785 138.013448,47.658095 136.909933,48.021141 L136.646639,48.1097976 C136.169973,48.2742736 135.702541,48.458371 134.848637,48.8098815 L133.848476,49.2213379 C130.8121,50.4543016 128.555508,51.0075 125.4571,51.0075 C123.249211,51.0075 121.6142,50.893582 119.995581,50.6219739 L120,50 C120,50.7122453 119.985108,51.4210122 119.955617,52.1260065 C121.586839,52.406332 123.225589,52.5228 125.4572,52.5228 C128.334288,52.5228 130.475113,52.0399302 133.221509,50.9669126 L134.509417,50.4442934 L135.151011,50.1818306 C137.291288,49.3179801 138.370537,49.0199052 139.794309,48.9945922 L140.0002,48.9928 L140.0002,49.2428 C138.51071,49.2428 137.455268,49.5211794 135.239283,50.4158 L133.837878,50.9904364 C130.806514,52.2204279 128.551148,52.7728 125.4572,52.7728 C123.22502,52.7728 121.579399,52.6565973 119.944515,52.3786422 C119.92094,52.8798802 119.890097,53.37899 119.851986,53.8760655 C121.522129,54.1715138 123.153616,54.2874 125.4573,54.2874 C128.333774,54.2874 130.475277,53.8043852 133.221604,52.731486 L134.228061,52.3251332 L134.509517,52.2088934 C137.088942,51.1418303 138.235039,50.7869159 139.794409,50.7591922 L140.0003,50.7574 L140.0003,51.0074 C138.578514,51.0074 137.552215,51.2610473 135.534519,52.0621942 L133.837945,52.7550376 C130.806763,53.9848651 128.550593,54.5374 125.4573,54.5374 C123.149018,54.5374 121.508299,54.4213283 119.832392,54.1258891 C119.791647,54.6224651 119.743824,55.1170554 119.688849,55.6094851 C121.409916,55.9226787 123.103955,56.0522 125.4573,56.0522 C128.333774,56.0522 130.475277,55.5691852 133.221604,54.496286 L135.449798,53.5916405 C137.394955,52.8196105 138.438435,52.5480998 139.794409,52.5239922 L140.0003,52.5222 L140.0003,52.7722 C138.578514,52.7722 137.552215,53.0258473 135.534519,53.8269942 L133.837945,54.5198376 C130.806763,55.7496651 128.550593,56.3022 125.4573,56.3022 C123.095289,56.3022 121.390054,56.1720868 119.659339,55.8578912 C119.602947,56.3510232 119.538176,56.8423235 119.466326,57.331322 C121.266179,57.6756409 123.003021,57.8162 125.4569,57.8162 C128.338156,57.8162 130.480299,57.3326076 133.231001,56.2570391 L135.721774,55.2453658 C136.149671,55.0770787 136.468469,54.9618307 136.831605,54.8423626 C137.83349,54.5127518 138.730286,54.3304688 139.652587,54.2940307 L139.9999,54.2872 L139.9999,54.5372 C138.981721,54.5372 138.013248,54.716795 136.909733,55.079841 L136.516371,55.2139522 C136.212026,55.3216663 135.896852,55.442767 135.468876,55.6153406 L133.848276,56.2800379 C130.8119,57.5130016 128.555308,58.0662 125.4569,58.0662 C122.989446,58.0662 121.23892,57.9244761 119.427558,57.5793686 C119.354781,58.0690139 119.273281,58.5559662 119.184799,59.0404803 C121.087139,59.425066 122.874846,59.5806 125.4572,59.5806 C128.336299,59.5806 130.478001,59.0975456 133.225879,58.0239126 L134.509439,57.5030844 L135.186393,57.2249577 C135.918273,56.9270721 136.336054,56.7698919 136.836793,56.6052797 C137.836722,56.2765648 138.732325,56.0947566 139.653364,56.058413 L140.0002,56.0516 L140.0002,56.3016 C138.983442,56.3016 138.016191,56.4807286 136.914867,56.8427759 L136.388334,57.0245267 C136.033296,57.153351 135.64497,57.30692 135.071828,57.5418155 L133.842536,58.0473149 C130.809509,59.2780192 128.553284,59.8306 125.4572,59.8306 C122.857881,59.8306 121.05473,59.6734521 119.137889,59.2869602 C119.048076,59.771814 118.94999,60.2542853 118.845011,60.7341783 C120.900728,61.1789862 122.69562,61.3454 125.4566,61.3454 C128.648074,61.3454 130.647707,60.8389333 134.056975,59.452704 L135.377698,58.9116207 C135.992743,58.663639 136.377385,58.5208977 136.831305,58.3715626 C137.83319,58.0419518 138.729986,57.8596688 139.652287,57.8232307 L139.9996,57.8164 L139.9996,58.0664 C139.094552,58.0664 138.228778,58.2083022 137.272523,58.4948148 L136.909433,58.609041 C136.3715,58.7860156 135.930179,58.9543621 135.071747,59.3059502 L134.605393,59.4979027 C130.887157,61.0364286 128.826988,61.5954 125.4566,61.5954 C122.67527,61.5954 120.863698,61.4269278 118.790211,60.9790971 C118.68335,61.458664 118.568768,61.9366325 118.447377,62.4118771 C120.642208,62.91217 122.544076,63.1101 125.4572,63.1101 C128.336299,63.1101 130.478001,62.6270456 133.225879,61.5534126 L134.509439,61.0325844 L135.378507,60.6765935 C135.994919,60.4279325 136.381575,60.2844272 136.836793,60.1347797 C137.836722,59.8060648 138.732325,59.6242566 139.653364,59.587913 L140.0002,59.5811 L140.0002,59.8311 C138.983442,59.8311 138.016191,60.0102286 136.914867,60.3722759 L136.520209,60.5067669 C136.171125,60.6302892 135.807695,60.7714834 135.278389,60.9869314 L133.842536,61.5768149 C130.809509,62.8075192 128.553284,63.3601 125.4572,63.3601 C122.521122,63.3601 120.600873,63.1595953 118.385167,62.6545368 C118.261333,63.1277474 118.130848,63.5993118 117.993684,64.0680239 C120.431963,64.6604013 122.322824,64.8751 125.4569,64.8751 C128.335889,64.8751 130.477049,64.3922087 133.226073,63.3184369 L134.230412,62.9130622 L135.151969,62.535017 C137.292922,61.6708413 138.370559,61.3731655 139.794041,61.3478895 L139.9999,61.3461 L139.9999,61.5961 C138.510583,61.5961 137.456927,61.8740286 135.240226,62.7689927 L133.842939,63.3418202 C130.808469,64.5727071 128.552863,65.1251 125.4569,65.1251 C122.296077,65.1251 120.386063,64.9072439 117.923782,64.3092637 C111.768625,84.9502509 92.6418411,100 70,100 C47.3581589,100 28.231375,84.9502509 22.0773297,64.3084342 C19.6556053,64.8952023 17.6772166,65.1247 14.538,65.1247 C11.6225471,65.1247 9.45270104,64.6346479 6.67713907,63.5490797 L6.05970389,63.3020765 L4.35398012,62.6034337 C3.84295193,62.3995544 3.49351793,62.2714804 3.09030339,62.1387503 C2.10924904,61.8158069 1.23496062,61.6379083 0.337772304,61.6023623 L0,61.5957 L0,61.3457 C1.04695356,61.3457 2.04117006,61.5302 3.16847212,61.9012853 L3.56628844,62.0369738 C3.87380841,62.1458451 4.19150456,62.267947 4.62152447,62.4414086 L6.24338342,63.106913 C9.25112771,64.3287503 11.4774172,64.8747 14.538,64.8747 C17.6512819,64.8747 19.6099858,64.6483502 22.0069543,64.0684924 C21.869241,63.599653 21.7385724,63.1274232 21.6147127,62.6524434 C19.3972406,63.1590773 17.4760191,63.3601 14.538,63.3601 C11.6225471,63.3601 9.45270104,62.8700479 6.67713907,61.7844797 L5.54088968,61.3241016 L4.35398012,60.8388337 C3.84295193,60.6349544 3.49351793,60.5068804 3.09030339,60.3741503 C2.10924904,60.0512069 1.23496062,59.8733083 0.337772304,59.8377623 L0,59.8311 L0,59.5811 C1.04695356,59.5811 2.04117006,59.7656 3.16847212,60.1366853 L3.69900355,60.3199541 C4.05616023,60.449588 4.44566785,60.603617 5.02000329,60.8389571 L6.24338342,61.342313 C9.25112771,62.5641503 11.4774172,63.1101 14.538,63.1101 C17.45263,63.1101 19.3553235,62.9117144 21.5530571,62.4106061 C21.4310716,61.9359625 21.3165743,61.4583272 21.2089861,60.9780817 C19.1578471,61.4182703 17.2958956,61.5954 14.538,61.5954 C11.6225471,61.5954 9.45270104,61.1053479 6.67713907,60.0197797 L5.54088968,59.5594016 L4.18932692,59.0088712 C3.76463597,58.841736 3.44871631,58.7274327 3.09030339,58.6094503 C2.10924904,58.2865069 1.23496062,58.1086083 0.337772304,58.0730623 L0,58.0664 L0,57.8164 C1.04695356,57.8164 2.04117006,58.0009 3.16847212,58.3719853 L3.56628844,58.5076738 C3.82987699,58.6009921 4.10094191,58.7040307 4.44380938,58.8408012 L6.24338342,59.577613 C9.25112771,60.7994503 11.4774172,61.3454 14.538,61.3454 C17.2758036,61.3454 19.1207316,61.1703558 21.1560232,60.7337913 C21.0499379,60.2539552 20.951789,59.7711503 20.8606509,59.2858727 C18.9433133,59.6732317 17.1391565,59.8308 14.538,59.8308 C11.6225471,59.8308 9.45270104,59.3407479 6.67713907,58.2551797 L4.35398012,57.3095337 C3.84295193,57.1056544 3.49351793,56.9775804 3.09030339,56.8448503 C2.10924904,56.5219069 1.23496062,56.3440083 0.337772304,56.3084623 L0,56.3018 L0,56.0518 C1.04695356,56.0518 2.04117006,56.2363 3.16847212,56.6073853 L3.69900355,56.7906541 C3.96687106,56.8878795 4.25293597,56.9988272 4.62152447,57.1475086 L6.24338342,57.813013 C9.25112771,59.0348503 11.4774172,59.5808 14.538,59.5808 C17.1220616,59.5808 18.9107112,59.4248631 20.8147553,59.0402787 C20.7264856,58.5546338 20.6449457,58.0673483 20.570507,57.5777297 C18.7585027,57.9240896 17.0074045,58.0661 14.538,58.0661 C11.6225471,58.0661 9.45270104,57.5760479 6.67713907,56.4904797 L5.54088968,56.0301016 L4.35398012,55.5448337 C3.84295193,55.3409544 3.49351793,55.2128804 3.09030339,55.0801503 C2.10924904,54.7572069 1.23496062,54.5793083 0.337772304,54.5437623 L0,54.5371 L0,54.2871 C1.04695356,54.2871 2.04117006,54.4716 3.16847212,54.8426853 L3.69900355,55.0259541 C4.05616023,55.155588 4.44566785,55.309617 5.02000329,55.5449571 L6.24338342,56.048313 C9.25112771,57.2701503 11.4774172,57.8161 14.538,57.8161 C16.9942731,57.8161 18.7318594,57.6752047 20.5330123,57.330966 C20.4616869,56.8413212 20.3969262,56.3500213 20.3393516,55.8565271 C18.608573,56.1712878 16.9026012,56.3015 14.538,56.3015 C11.6225471,56.3015 9.45270104,55.8114479 6.67713907,54.7258797 L4.18932692,53.7149712 C3.76463597,53.547836 3.44871631,53.4335327 3.09030339,53.3155503 C2.10924904,52.9926069 1.23496062,52.8147083 0.337772304,52.7791623 L0,52.7725 L0,52.5225 C0.93062539,52.5225 1.81958198,52.6682778 2.79737896,52.9612979 L3.16847212,53.0780853 C3.66749395,53.2423532 4.08354096,53.3989401 4.8129935,53.6958049 L6.24338342,54.283713 C9.25112771,55.5055503 11.4774172,56.0515 14.538,56.0515 C16.8939152,56.0515 18.5886717,55.9218828 20.3125037,55.6075465 C20.255936,55.1147256 20.2081052,54.619799 20.1675424,54.1228156 C18.4940209,54.4151304 16.8237203,54.5368 14.538,54.5368 C11.6225471,54.5368 9.45270104,54.0467479 6.67713907,52.9611797 L4.35398012,52.0155337 C3.84295193,51.8116544 3.49351793,51.6835804 3.09030339,51.5508503 C2.10924904,51.2279069 1.23496062,51.0500083 0.337772304,51.0144623 L0,51.0078 L0,50.7578 C1.04695356,50.7578 2.04117006,50.9423 3.16847212,51.3133853 L3.69900355,51.4966541 C3.96687106,51.5938795 4.25293597,51.7048272 4.62152447,51.8535086 L6.24338342,52.519013 C9.25112771,53.7408503 11.4774172,54.2868 14.538,54.2868 C16.8190973,54.2868 18.4803626,54.1652847 20.1483361,53.8722369 C20.1096868,53.3756537 20.0789153,52.8772106 20.0554986,52.3768445 C18.4183305,52.6555885 16.7713471,52.7722 14.538,52.7722 C11.6225471,52.7722 9.45270104,52.2821479 6.67713907,51.1965797 L5.54088968,50.7362016 L4.35185724,50.2499953 C3.84084751,50.0460542 3.4931698,49.9185843 3.09027359,49.7858469 C2.10895268,49.4625428 1.23475253,49.2844534 0.337713877,49.2488694 L0,49.2422 L0,48.9922 C1.04680375,48.9922 2.04088681,49.1768995 3.16850192,49.5484015 L3.56562546,49.6839375 C3.82858772,49.7770805 4.09885521,49.8798599 4.44170077,50.0166681 L6.24338342,50.754413 C9.25112771,51.9762503 11.4774172,52.5222 14.538,52.5222 C16.7707818,52.5222 18.4108951,52.4053195 20.045127,52.1250781 C20.0234426,51.6251759 20.0098821,51.123449 20.0037643,50.6199308 C18.3840599,50.8932979 16.7481541,51.0075 14.538,51.0075 C11.6225471,51.0075 9.45270104,50.5174479 6.67713907,49.4318797 L5.39224786,48.9100194 L4.35185724,48.4852953 C3.84084751,48.2813542 3.4931698,48.1538843 3.09027359,48.0211469 C2.10895268,47.6978428 1.23475253,47.5197534 0.337713877,47.4841694 L0,47.4775 L0,47.2275 C1.04680375,47.2275 2.04088681,47.4121995 3.16850192,47.7837015 L3.69801755,47.966725 C4.05429817,48.0961019 4.44290599,48.2498377 5.01856173,48.4857508 L6.24338342,48.989713 C9.25112771,50.2115503 11.4774172,50.7575 14.538,50.7575 C16.7516632,50.7575 18.382764,50.6426125 20.0031451,50.3675411 C20.0004419,50.2452824 20,50.1226928 20,50 C20,49.6166179 20.0043149,49.2342435 20.0128987,48.8529229 C18.3914903,49.127544 16.7539587,49.2419 14.538,49.2419 C11.3085922,49.2419 9.28272517,48.7288477 5.84840482,47.3325804 L4.35185724,46.7206953 C3.84084751,46.5167542 3.4931698,46.3892843 3.09027359,46.2565469 C2.10895268,45.9332428 1.23475253,45.7551534 0.337713877,45.7195694 L0,45.7129 L0,45.4629 C0.930492218,45.4629 1.81932859,45.6088354 2.79732035,45.9021832 L3.16850192,46.0191015 C3.75778154,46.2132444 4.22814544,46.3953718 5.2435027,46.8135832 L5.48779254,46.9143973 C9.17666105,48.4407719 11.2083314,48.9919 14.538,48.9919 C16.7606779,48.9919 18.3948653,48.8765291 20.0201871,48.5995153 C20.0332959,48.0887768 20.0549335,47.5813674 20.0840776,47.0759705 C18.4392125,47.3594783 16.7863317,47.4772 14.538,47.4772 C11.4490012,47.4772 9.46116264,47.0077911 6.28858688,45.7450239 L4.35185724,44.9559953 C3.84084751,44.7520542 3.4931698,44.6245843 3.09027359,44.4918469 C2.10895268,44.1685428 1.23475253,43.9904534 0.337713877,43.9548694 L0,43.9482 L0,43.6982 C1.04680375,43.6982 2.04088681,43.8828995 3.16850192,44.2544015 L3.56562546,44.3899375 C3.82858772,44.4830805 4.09885521,44.5858599 4.44170077,44.7226681 L5.48779254,45.1496973 C9.17666105,46.6760719 11.2083314,47.2272 14.538,47.2272 C16.79719,47.2272 18.4483964,47.1080075 20.1002805,46.8210326 C20.1316583,46.3074286 20.1715731,45.7966939 20.2191035,45.2881714 C18.5292707,45.5883441 16.8478861,45.7126 14.538,45.7126 C11.3085922,45.7126 9.28272517,45.1995477 5.84835839,43.8032612 L4.75817827,43.3565667 C2.64399264,42.5025813 1.58695745,42.2101748 0.200461766,42.1853568 L0,42.1836 L0,41.9336 C1.52849984,41.9336 2.60540798,42.2175851 4.84650586,43.1226188 L5.48779254,43.3850973 C9.17666105,44.9114719 11.2083314,45.4626 14.538,45.4626 C16.8629119,45.4626 18.543952,45.3363718 20.2444617,45.0309604 C20.294831,44.5138913 20.3536665,43.9995999 20.4202432,43.4877397 C18.6607917,43.8136596 16.9388982,43.9479 14.538,43.9479 C11.3085922,43.9479 9.28272517,43.4348477 5.84835839,42.0385612 L4.75817827,41.5918667 C2.64399264,40.7378813 1.58695745,40.4454748 0.200461766,40.4206568 L0,40.4189 L0,40.1689 C1.52849984,40.1689 2.60540798,40.4528851 4.84650586,41.3579188 L5.48779254,41.6203973 C9.17666105,43.1467719 11.2083314,43.6979 14.538,43.6979 C16.9593068,43.6979 18.6822428,43.5609876 20.4561275,43.2273438 C20.5254515,42.7057417 20.6039658,42.1877213 20.6903633,41.6723734 C18.8353653,42.0349588 17.0618467,42.1833 14.538,42.1833 C11.4484076,42.1833 9.45771082,41.712982 6.28773629,40.4501264 L4.53060326,39.7329115 C3.91993997,39.4865578 3.53831954,39.3448282 3.09030339,39.1973503 C2.10924904,38.8744069 1.23496062,38.6965083 0.337772304,38.6609623 L0,38.6543 L0,38.4043 C1.04695356,38.4043 2.04117006,38.5888 3.16847212,38.9598853 L3.56628885,39.095574 C3.82987822,39.1888926 4.1009456,39.2919323 4.44382045,39.4287058 L5.48783421,39.8548146 C9.17273713,41.3811057 11.207701,41.9333 14.538,41.9333 C17.0863664,41.9333 18.861144,41.7816414 20.7359138,41.4085855 C20.8265747,40.8816201 20.9260358,40.3577109 21.0336011,39.8367642 C19.0509319,40.2514279 17.2172544,40.4186 14.538,40.4186 C11.3079716,40.4186 9.27900883,39.9045541 5.84794351,38.5082761 L4.35398012,37.8973337 C3.84295193,37.6934544 3.49351793,37.5653804 3.09030339,37.4326503 C2.10924904,37.1097069 1.23496062,36.9318083 0.337772304,36.8962623 L0,36.8896 L0,36.6396 C0.93062539,36.6396 1.81958198,36.7853778 2.79737896,37.0783979 L3.16847212,37.1951853 C3.66749395,37.3594532 4.08354096,37.5160401 4.81301371,37.8129132 L5.48783421,38.0901146 C9.17273713,39.6164057 11.207701,40.1686 14.538,40.1686 C17.2458652,40.1686 19.0802755,39.9973631 21.0893211,39.5712193 C21.2023964,39.037714 21.3238492,38.5084257 21.4536277,37.9824164 C19.3033618,38.462619 17.4046954,38.654 14.538,38.654 C11.6225471,38.654 9.45270104,38.1639479 6.67713907,37.0783797 L5.54088968,36.6180016 L4.35398012,36.1327337 C3.84295193,35.9288544 3.49351793,35.8007804 3.09030339,35.6680503 C2.10924904,35.3451069 1.23496062,35.1672083 0.337772304,35.1316623 L0,35.125 L0,34.875 C1.04695356,34.875 2.04117006,35.0595 3.16847212,35.4305853 L3.69900355,35.6138541 C3.96687106,35.7110795 4.25293597,35.8220272 4.62152447,35.9707086 L6.24338342,36.636213 C9.25112771,37.8580503 11.4774172,38.404 14.538,38.404 C17.4389979,38.404 19.3375031,38.2074658 21.5222391,37.7115175 C26.99816,16.0387198 46.6260581,0 70,0 Z M26.9282484,63.0726925 L26.7463986,63.1098179 C26.1097501,63.2434134 25.456786,63.4037261 24.751014,63.5937237 L23.7293968,63.8759464 C23.3241356,63.9885891 22.9368265,64.0924924 22.5619709,64.1880922 C28.662734,84.6115044 47.5926698,99.5 70,99.5 C92.4073302,99.5 111.337266,84.6115044 117.43684,64.1874807 C117.28122,64.1482965 117.122759,64.1070672 116.961361,64.0643297 L115.673851,63.711656 C114.730947,63.4505189 113.889054,63.2400133 113.069108,63.0737056 C107.469846,81.5509536 90.3055197,95 70,95 C49.6937461,95 32.5289124,81.549981 26.9282484,63.0726925 Z M33.021,62.5487 C30.9566902,62.5487 29.4202915,62.6496493 27.9195483,62.8915781 C33.4295129,80.9020193 50.1851578,94 70,94 C89.8141081,94 106.569246,80.9029899 112.080619,62.8937626 C110.575306,62.6502993 109.03705,62.5491 106.9679,62.5491 C103.498703,62.5491 101.521755,62.8335894 98.6965835,63.59279 L97.7381819,63.8569217 C92.6505099,74.0214143 82.140223,81 70,81 C57.8617725,81 47.3529452,74.0237082 42.2643272,63.8619336 L42.0934279,63.8141073 C38.6551385,62.8554382 36.8151969,62.5487 33.021,62.5487 Z M74.4131668,85.2652795 C75.0279604,85.9139928 75.3736049,86.777086 75.4306511,87.8655922 C75.4871739,88.9441121 75.2331173,89.8286205 74.6895007,90.5380435 C74.1075089,91.2795187 73.2775147,91.6835109 72.2089811,91.7395104 C71.1404475,91.7955099 70.2827578,91.4799655 69.6264489,90.8033868 C69.001669,90.1551969 68.6660108,89.2915803 68.6100114,88.2230467 C68.5534885,87.1445268 68.7970355,86.2505554 69.3506384,85.5406091 C69.9321069,84.7891476 70.7521147,84.3856787 71.8306346,84.3291559 C72.8891819,84.2736798 73.7563346,84.5787146 74.4131668,85.2652795 Z M67.2913958,84.2361804 C67.4863669,84.2532382 67.6369372,84.4057684 67.6584735,84.5929092 L67.6595565,84.6749374 L67.1078607,90.9808498 C67.0883661,91.203674 66.8919279,91.3685052 66.6691038,91.3490106 C66.4741326,91.3319528 66.3235623,91.1794226 66.302026,90.9922818 L66.300943,90.9102537 L66.8526388,84.6043412 C66.8672598,84.4372231 66.9814115,84.302726 67.1315775,84.2541466 L67.2093676,84.2372635 L67.2913958,84.2361804 Z M71.8688399,85.0581555 C71.0499637,85.1010709 70.4155085,85.4147056 69.9759841,86.0085223 C69.5648486,86.5708101 69.3823086,87.291351 69.4288876,88.1801313 C69.4749432,89.0589252 69.7318003,89.7564383 70.1994587,90.2726704 C70.6881364,90.8078284 71.3518997,91.0534263 72.1707759,91.0105108 C72.9896521,90.9675954 73.6241072,90.6539607 74.0552154,90.0906262 C74.466351,89.5283385 74.6588772,88.8072742 74.6117749,87.9085076 C74.5641492,86.9997548 74.2967825,86.2927788 73.8291241,85.7765466 C73.3409697,85.2513749 72.6877161,85.01524 71.8688399,85.0581555 Z M77.0169392,83.7110481 L77.0378345,83.7903777 L77.9803522,89.7411999 L81.7088756,89.1506598 C81.9025229,89.1199891 82.0843685,89.2521077 82.1150392,89.4457549 C82.1418761,89.6151963 82.0440774,89.775602 81.8894799,89.8336029 L81.8199441,89.8519185 L77.7852372,90.4909533 C77.5427994,90.5293517 77.3134949,90.38659 77.235192,90.1628353 L77.2131758,90.0753264 L76.2378069,83.9170896 C76.2028164,83.6961681 76.3535433,83.4887104 76.5744648,83.4537198 C76.7677711,83.4231031 76.9507692,83.5346763 77.0169392,83.7110481 Z M59.8457935,82.3672295 L59.9178013,82.3740735 L60.0131967,82.3943504 C60.1904057,82.4320174 60.3309057,82.561707 60.3851196,82.7299151 L60.4048065,82.8169812 L61.2397888,89.0446994 L61.2691332,89.0509367 L64.5649687,83.701251 C64.6599961,83.5470057 64.8293586,83.4582588 65.0060029,83.463724 L65.0946214,83.4744406 L65.1900168,83.4947175 C65.2262997,83.5024297 65.2609252,83.516522 65.2922817,83.5363384 C65.4176912,83.6155938 65.4676771,83.7691278 65.421171,83.9035148 L65.3897794,83.9686802 L61.7494086,89.7290095 C61.6535829,89.880639 61.4855086,89.9673694 61.3105398,89.9616559 L61.2227835,89.9509679 L60.9160557,89.8857709 C60.7406041,89.8484775 60.600968,89.7209123 60.5456476,89.5548208 L60.5252383,89.4688041 L59.5425312,82.7258092 C59.5371818,82.6891036 59.5383913,82.6517397 59.5461035,82.6154569 C59.5718073,82.49453 59.6640567,82.4048412 59.7763698,82.3765762 L59.8457935,82.3672295 Z M84.3425403,81.8731166 L84.402266,81.9361641 L88.688188,87.3276885 C88.7118292,87.3574281 88.7296683,87.3913473 88.740776,87.4276787 C88.782725,87.5648879 88.7225261,87.7089776 88.6036636,87.7781656 L88.539545,87.8061392 L88.4438028,87.8354105 C88.2736172,87.8874414 88.0910484,87.8446828 87.9622108,87.728103 L87.9025757,87.6637585 L86.8024543,86.2458376 L83.6657747,87.2048168 L83.5466241,88.9955065 C83.5348088,89.1730755 83.429987,89.3285493 83.2752448,89.4075733 L83.1939131,89.4404628 L83.1029524,89.4682723 C83.0670293,89.4792551 83.0293615,89.4833863 82.9919118,89.4804504 C82.8504793,89.4693629 82.7397043,89.3618003 82.7190866,89.2273848 L82.7165663,89.1582617 L83.2552453,82.2868435 C83.2690095,82.111267 83.3736396,81.9582282 83.52699,81.8802558 L83.6075301,81.8477683 L83.8646809,81.7691494 C84.0331007,81.7176583 84.2138252,81.7589743 84.3425403,81.8731166 Z M84.0173002,82.6426977 L83.979048,82.6543926 L83.7126775,86.4689498 L86.3520786,85.6620039 L84.0173002,82.6426977 Z M51.2295187,78.772165 L51.2934494,78.8050823 L55.6042161,81.604527 C55.7686468,81.7113095 55.8153798,81.9311712 55.7085973,82.0956019 C55.6151626,82.2394787 55.4351516,82.2932433 55.2814531,82.2329004 L55.2175224,82.1999831 L53.4018006,81.0208396 L50.1203504,86.0738297 C49.9985281,86.2614197 49.7477,86.3147348 49.5601101,86.1929125 C49.3959689,86.086318 49.3346318,85.8809534 49.4034737,85.7056072 L49.4410273,85.6326721 L52.7224775,80.579682 L50.9067557,79.4005384 C50.742325,79.2937559 50.695592,79.0738942 50.8023745,78.9094635 C50.8958092,78.7655867 51.0758202,78.7118221 51.2295187,78.772165 Z M90.8694786,78.1285365 C90.96541,78.2707607 90.9445647,78.4574692 90.828964,78.5753716 L90.7736837,78.6213583 L88.9788174,79.8320109 L92.3479546,84.8269623 C92.4730323,85.0123975 92.4241028,85.264118 92.2386675,85.3891956 C92.0764117,85.4986386 91.8634062,85.4748573 91.7288979,85.3429748 L91.6764342,85.2799085 L88.3072969,80.2849572 L86.5124306,81.4956098 C86.3498886,81.6052458 86.1292447,81.5623569 86.0196088,81.3998149 C85.9236773,81.2575907 85.9445226,81.0708822 86.0601233,80.9529798 L86.1154036,80.9069931 L90.3766568,78.0327416 C90.5391988,77.9231056 90.7598426,77.9659944 90.8694786,78.1285365 Z M48.0804334,76.561588 C48.8924405,77.2429428 49.3186026,78.0574279 49.3307431,79.0075082 C49.3379533,79.9012352 49.0021135,80.7681906 48.301475,81.603179 C47.6072644,82.430507 46.8182259,82.9041294 45.9368245,83.0522228 C45.0054977,83.1975861 44.1229564,82.9269926 43.3032889,82.2392099 C42.4836213,81.5514271 42.0715475,80.7357095 42.0529792,79.7932897 C42.0381085,78.8931347 42.3816087,78.0326072 43.0693915,77.2129397 C43.7636021,76.3856117 44.5514081,75.897901 45.4404699,75.7562354 C46.3782245,75.6032118 47.2531054,75.8673774 48.0804334,76.561588 Z M95.3154916,73.9716831 C95.4235135,74.1004186 95.4245524,74.2833208 95.3280634,74.4123144 L95.2717354,74.4718184 L92.2956527,76.9690483 L93.8319151,78.7998945 L96.6241471,76.4569337 C96.7743386,76.330908 96.9982569,76.3504984 97.1242825,76.5006899 C97.2323045,76.6294254 97.2333433,76.8123276 97.1368543,76.9413212 L97.0805263,77.0008252 L94.2882943,79.3437861 L95.9723979,81.3508225 L99.0787081,78.7443188 C99.2288996,78.6182931 99.4528178,78.6378834 99.5788435,78.7880749 C99.6868654,78.9168105 99.6879043,79.0997127 99.5914153,79.2287063 L99.5350873,79.2882103 L95.8006206,82.4217999 L91.2111171,76.9522426 L94.8153562,73.9279269 C94.9655477,73.8019012 95.1894659,73.8214916 95.3154916,73.9716831 Z M45.5787027,76.5249302 C44.8945379,76.6557677 44.2696289,77.058246 43.6975479,77.7400255 C43.1318948,78.4141446 42.8440454,79.0994495 42.8339996,79.79594 C42.826419,80.5206072 43.1443674,81.1529116 43.7725238,81.6799974 C44.4006803,82.2070833 45.0785897,82.4104028 45.7780754,82.2924211 C46.4622403,82.1615836 47.0948097,81.7655332 47.6733186,81.0760932 C48.2582553,80.3789928 48.5448722,79.6795996 48.5549179,78.9831091 C48.5560707,78.2661023 48.2393549,77.6478863 47.6111984,77.1208004 C46.983042,76.5937146 46.3051326,76.3903951 45.5787027,76.5249302 Z M96.4289796,64.2076919 L96.13793,64.2808421 C95.1273782,64.530943 94.2878456,64.6945314 93.3111668,64.825306 L92.5998028,64.9123244 L92.587437,64.7977315 C87.7629205,72.1470018 79.4481995,77 70,77 C60.5518005,77 52.2370795,72.1470018 47.412563,64.7977315 L47.4001837,64.9129341 C45.9968038,64.756862 44.958593,64.5643469 43.5757457,64.2122831 C48.6388872,73.6116573 58.5734049,80 70,80 C81.4282234,80 91.3639442,73.6098364 96.4289796,64.2076919 Z M41.2286123,69.5934501 L41.2899384,69.6552997 L41.396091,69.7863873 C41.4785114,69.888168 41.5168948,70.0170696 41.5055847,70.1450553 L41.4876963,70.2404347 L39.5877825,76.7854937 L39.6066621,76.808808 L43.8032503,73.4104779 C43.9792247,73.2679767 44.2374002,73.295112 44.3799015,73.4710864 C44.5045901,73.625064 44.4994007,73.8419769 44.3782659,73.9892639 L44.319293,74.0477376 L39.415502,78.0187493 C39.2577688,78.1464791 39.0355654,78.1411631 38.884686,78.0170739 L38.8247861,77.9566625 L38.7254275,77.8339649 C38.6427848,77.7319096 38.6044278,77.6026031 38.616022,77.4743081 L38.634172,77.3787182 L40.5672776,70.7809379 L40.5483979,70.7576236 L36.305181,74.1937129 C36.1292066,74.3362142 35.8710311,74.3090788 35.7285298,74.1331044 C35.6038412,73.9791268 35.6090306,73.762214 35.7301653,73.6149269 L35.7891383,73.5564532 L40.6851578,69.5917347 C40.8466465,69.4609638 41.0741405,69.4664063 41.2286123,69.5934501 Z M99.6351462,70.0570983 C100.434919,70.0926432 101.248302,70.5027743 102.053963,71.2807916 C102.845237,72.0449158 103.269611,72.8578772 103.319647,73.698589 C103.366517,74.5137876 103.063356,75.2989402 102.404507,76.0485832 L102.232381,76.2352509 L100.856958,77.6595437 C100.686447,77.8361128 100.4174,77.8600971 100.220206,77.7285225 L100.149959,77.6718845 L95.7332122,73.4066821 C95.5566432,73.2361713 95.5326589,72.9671245 95.6642334,72.76993 L95.7208715,72.699683 L97.1518678,71.217843 C97.9368317,70.404989 98.7574801,70.0158409 99.6351462,70.0570983 Z M99.5284077,70.8298252 C98.8702815,70.8059521 98.2252723,71.1283852 97.5722934,71.8045646 L96.4538935,72.9627017 L100.568517,76.9361476 L101.624398,75.8427511 C102.27043,75.173765 102.576856,74.4965626 102.550869,73.8180903 C102.511236,73.1681448 102.160276,72.5094892 101.49129,71.8634569 C100.800723,71.1965848 100.144114,70.8544388 99.5284077,70.8298252 Z M70,23.5 C55.3644541,23.5 43.5,35.3644541 43.5,50 C43.5,64.6355459 55.3644541,76.5 70,76.5 C79.3389333,76.5 87.5495587,71.66914 92.2692799,64.3700163 C92.1115463,64.4058396 91.9368533,64.424 91.744,64.424 L91.744,64.424 L90.304,64.424 C89.36,64.424 88.896,63.912 88.896,62.92 L88.896,62.92 L88.896,60.361 L88.76075,60.70175 C88.66825,60.92525 88.57075,61.13975 88.46625,61.34325 L88.304,61.64 C87.504,62.968 86.192,63.992 84.4,64.712 L84.4,64.712 L83.536,63.32 C85.296,62.584 86.496,61.656 87.104,60.552 C87.712,59.368 88.064,57.816 88.128,55.928 L88.128,55.928 L88.128,52.936 L89.648,52.936 L89.648,55.928 C89.616,57.24 89.456,58.392 89.2,59.4 L89.2,59.4 L90.416,59.4 L90.416,62.584 C90.416,62.824 90.528,62.952 90.784,62.952 L90.784,62.952 L91.472,62.952 C91.632,62.952 91.744,62.872 91.824,62.712 C91.92,62.52 91.984,61.992 92.016,61.096 L92.016,61.096 L93.456,61.56 C93.426607,61.9253134 93.391704,62.2520576 93.3515804,62.5402326 C95.3602312,58.8062184 96.5,54.5362129 96.5,50 C96.5,35.3644541 84.6355459,23.5 70,23.5 Z M66.576,55.24 L66.576,61.336 L66.736,61.496 C67.088,61.912 67.456,62.232 67.824,62.44 C68.288,62.68 68.976,62.808 69.904,62.84 C70.816,62.856 71.888,62.872 73.104,62.872 C73.904,62.872 74.704,62.856 75.536,62.856 C76.352,62.824 76.976,62.792 77.408,62.76 L77.408,62.76 L77.008,64.408 L73.344,64.408 C72.48,64.408 71.536,64.392 70.528,64.376 C69.504,64.36 68.672,64.264 68,64.104 C67.36,63.912 66.816,63.544 66.352,63 C66.144,62.728 65.952,62.6 65.76,62.6 C65.456,62.6 64.912,63.32 64.112,64.76 L64.112,64.76 L62.88,63.608 C63.68,62.328 64.384,61.512 65.024,61.16 L65.024,61.16 L65.024,56.776 L62.912,56.776 L62.912,55.24 L66.576,55.24 Z M82.864,49.944 L82.864,51.944 L84.784,51.944 L84.784,53.544 L82.864,53.544 L82.864,55.688 L85.008,55.688 L85.008,57.288 L82.784,57.288 L82.688,58.2 C83.552,58.968 84.416,59.832 85.28,60.792 L85.28,60.792 L84.352,62.216 C83.584,61.176 82.944,60.36 82.432,59.768 C81.952,61.88 81.12,63.528 79.936,64.728 L79.936,64.728 L78.688,63.624 C80.08,62.216 80.896,60.104 81.12,57.288 L81.12,57.288 L78.848,57.288 L78.848,55.688 L81.2,55.688 L81.2,53.544 L79.056,53.544 L79.056,51.944 L81.2,51.944 L81.2,49.944 L82.864,49.944 Z M42.5803798,62.1839054 L42.7348356,62.5318148 C42.9498462,62.9988365 43.176503,63.4593894 43.4144339,63.9131014 C44.7772394,64.266685 45.7829149,64.4663861 47.0671328,64.6225361 L47.3174592,64.6518361 C46.9428596,64.0731098 46.589806,63.4791373 46.2594338,62.8710542 L46.2408444,62.9956235 L45.6731522,62.9023693 C44.6925476,62.7314448 43.8364294,62.5272134 42.5803798,62.1839054 Z M97.4249816,62.1786579 L97.173427,62.2477092 C95.9294036,62.5839362 95.0811227,62.7781299 94.0473301,62.9478542 L93.7603505,62.9936243 L93.7421971,62.8680519 C93.4115465,63.4768315 93.0581641,64.0714721 92.683189,64.6508346 L92.5719972,64.6638756 C94.03615,64.5000125 95.0953812,64.2970913 96.5863877,63.9088714 C96.8845811,63.3426987 97.1639274,62.7656451 97.4249816,62.1786579 Z M54.848,49.912 L54.848,51.928 L60.16,51.928 L60.16,53.56 L54.848,53.56 L54.848,55.88 L61.008,55.88 L61.008,57.512 L56.192,57.512 C57.248,59.336 58.992,60.968 61.408,62.408 L61.408,62.408 L60.224,63.912 C57.696,61.992 55.92,59.848 54.88,57.512 L54.88,57.512 L54.848,57.512 L54.848,64.632 L53.152,64.632 L53.152,57.512 L53.136,57.512 C52,60.104 50.16,62.248 47.616,63.928 L47.616,63.928 L46.656,62.344 C48.96,61.064 50.688,59.464 51.808,57.512 L51.808,57.512 L46.992,57.512 L46.992,55.88 L53.152,55.88 L53.152,53.56 L47.952,53.56 L47.952,51.928 L53.152,51.928 L53.152,49.912 L54.848,49.912 Z M113.538774,61.4092173 L113.515945,61.5047098 C113.39837,61.9506191 113.274122,62.3938197 113.143316,62.8341983 C113.832504,62.9740906 114.538791,63.1458234 115.306874,63.3523143 L116.107474,63.5726932 C116.601035,63.7103167 117.064305,63.8350831 117.507018,63.9478735 C117.644518,63.4812156 117.774601,63.0117422 117.897885,62.5395215 C117.51979,62.4480485 117.129754,62.3473179 116.72264,62.2373595 L116.040593,62.0494977 C115.114246,61.790927 114.30349,61.5797486 113.538774,61.4092173 Z M26.4586373,61.4078709 L26.0862543,61.4931404 C25.5603905,61.6167755 25.0086662,61.7593371 24.4098309,61.9228868 L23.7293968,62.1113464 C23.1559066,62.2707486 22.618366,62.4126496 22.1011933,62.5382849 C22.2250329,63.0104199 22.3552897,63.4805585 22.492253,63.9478309 C22.7245376,63.888682 22.9621035,63.8261497 23.2058749,63.7602772 L24.2541125,63.4704004 C25.1948388,63.2095146 26.0367603,62.9986782 26.8569845,62.8316586 C26.7160392,62.3606158 26.5835081,61.8857918 26.4586373,61.4078709 Z M33.021,60.7841 C30.7016556,60.7841 29.1108044,60.8989817 27.4409628,61.2070864 C27.5672575,61.6915336 27.7024961,62.1725937 27.8456311,62.6502411 C29.3699742,62.4023 30.9270992,62.2987 33.021,62.2987 C36.6671574,62.2987 38.528886,62.5814406 41.6985253,63.4458184 L42.1162108,63.5621066 C41.8418731,62.9991166 41.5840838,62.42658 41.3434758,61.8451298 C38.3740098,61.0470975 36.5307977,60.7841 33.021,60.7841 Z M106.9682,60.7841 C103.462635,60.7841 101.621669,61.0460539 98.6579939,61.8404208 C98.4175156,62.4228876 98.1601266,62.9947539 97.8862287,63.5570992 L98.1994582,63.4693149 C101.281439,62.6161787 103.30073,62.2991 106.9679,62.2991 C109.067089,62.2991 110.626262,62.4029948 112.153958,62.6519177 C112.297118,62.1739225 112.432282,61.6931922 112.55941,61.2092049 C110.884466,60.8993534 109.291765,60.7841 106.9682,60.7841 Z M42.4475021,61.8877734 L42.8775169,62.0055896 C44.0024426,62.3094354 44.80561,62.497357 45.7163606,62.6561221 L46.1854624,62.733959 C45.8745032,62.1536314 45.5841365,61.5606176 45.3153391,60.9558946 L45.2942985,61.0671324 L44.755391,60.9582267 C44.1388884,60.8277363 43.5469726,60.6811762 42.7886162,60.4760031 L42.0933802,60.284794 L41.7777447,60.1977708 C41.9843261,60.7693772 42.207779,61.3329118 42.4475021,61.8877734 Z M98.2229763,60.1957754 L96.9631472,60.5394914 C96.205839,60.7411812 95.6104662,60.8832233 94.9552447,61.0150713 L94.706298,61.0641331 L94.6851066,60.9548919 C94.4164929,61.5592683 94.1263349,62.1519498 93.8156078,62.7319615 L93.7220495,62.7465757 C94.978203,62.5518292 95.9048814,62.3378824 97.4577007,61.9110655 L97.5537939,61.8847732 C97.7933053,61.3302348 98.0165662,60.7670355 98.2229763,60.1957754 Z M72.736,49.816 L72.736,51.464 L76.48,51.464 L76.48,52.952 L72.736,52.952 L72.736,54.104 L76.064,54.104 L76.064,55.56 L72.736,55.56 L72.736,56.76 L76.816,56.76 C76.752,58.744 76.608,59.976 76.352,60.472 C76.032,61.048 75.36,61.352 74.32,61.368 C74.096,61.368 73.856,61.336 73.6,61.288 L73.6,61.288 L73.104,59.864 C73.504,59.912 73.84,59.944 74.128,59.944 C74.608,59.928 74.912,59.8 75.04,59.56 C75.12,59.4 75.168,58.952 75.2,58.248 L75.2,58.248 L72.736,58.248 L72.736,62.312 L71.104,62.312 L71.104,58.248 L67.376,58.248 L67.376,56.76 L71.104,56.76 L71.104,55.56 L68.128,55.56 L68.128,54.104 L71.104,54.104 L71.104,52.952 L67.504,52.952 L67.504,51.464 L71.104,51.464 L71.104,49.816 L72.736,49.816 Z M113.941952,59.7370443 L113.857717,60.1191192 C113.77702,60.4703016 113.692213,60.8199149 113.60335,61.1679056 C114.108332,61.2802337 114.635701,61.4112209 115.202942,61.5618211 L116.329834,61.8704742 C116.90466,62.0301829 117.442841,62.1721659 117.960347,62.297699 C118.081508,61.823797 118.195628,61.3479873 118.302822,60.8695608 C117.73805,60.7389578 117.148357,60.5877342 116.510175,60.4140429 L116.040993,60.2847977 C115.275467,60.0711168 114.588872,59.8898012 113.941952,59.7370443 Z M26.0559307,59.7356111 L25.6866756,59.8247476 C25.4166145,59.8913613 25.1387601,59.9628353 24.8504561,60.0394276 L23.7293968,60.3466464 C23.0052808,60.5479152 22.3384786,60.7212821 21.6976238,60.8692345 C21.8041381,61.346988 21.9182476,61.8227976 22.0391723,62.2958797 C22.4154791,62.204698 22.8021674,62.104768 23.2058749,61.9956772 L24.7888128,61.5618385 C25.3587607,61.4104559 25.8884418,61.2788906 26.3980038,61.1651981 C26.2751722,60.6921021 26.1617246,60.215293 26.0559307,59.7356111 Z M33.021,59.0194 C30.5146634,59.0194 28.8590217,59.1535526 27.0351171,59.5207162 C27.139848,60.0059999 27.2545907,60.4869859 27.3771573,60.9648359 C29.0689042,60.6512013 30.6771648,60.5341 33.021,60.5341 C36.482785,60.5341 38.3415348,60.7894731 41.2247669,61.5535118 C41.0046769,61.0064365 40.7998032,60.4511835 40.6106238,59.8887194 C38.049471,59.239691 36.233215,59.0194 33.021,59.0194 Z M106.9676,59.0194 C103.759863,59.0194 101.945183,59.2388532 99.3907005,59.8845994 C99.201272,60.4481782 98.9964621,61.0034362 98.7764788,61.5509641 C101.654377,60.7884264 103.510835,60.5341 106.9682,60.5341 C109.316479,60.5341 110.926671,60.6515978 112.620391,60.9658546 C112.744921,60.4889839 112.859687,60.0079986 112.966485,59.5240216 C111.136581,59.1539733 109.478928,59.0194 106.9676,59.0194 Z M41.1529788,58.2638114 L41.2455009,58.5820515 C41.3788347,59.0294504 41.5223255,59.4724719 41.6757057,59.9108486 C41.6832934,59.9121804 41.6914438,59.9144045 41.6996029,59.9166325 L42.8525113,60.2343008 C43.714854,60.4676224 44.3597708,60.6244975 45.0712303,60.7682513 L45.2483665,60.8039601 C44.9944735,60.2231159 44.7604271,59.6316132 44.5470846,59.0303092 L44.5227349,59.1437902 L44.0341405,59.0309199 C43.7107182,58.9536833 43.3850122,58.8708065 43.0156349,58.7723229 L42.0933802,58.520194 C41.7665559,58.4289288 41.4541079,58.3435667 41.1529788,58.2638114 Z M98.8480462,58.2616013 L97.2565457,58.6960389 C96.7646958,58.8298215 96.3614977,58.9340685 95.9617829,59.0293194 L95.4783462,59.1406167 L95.4539819,59.0273028 C95.2408415,59.6282639 95.0070218,60.2194374 94.7533783,60.7999675 L95.1473157,60.7203609 C95.8659846,60.5694392 96.5451644,60.3977348 97.4993146,60.135038 L97.8279802,60.044006 C97.997569,59.9966486 98.1633317,59.9508674 98.3256885,59.9066218 C98.515066,59.3653557 98.6893525,58.8167691 98.8480462,58.2616013 Z M114.280498,58.0520682 L114.156325,58.7170468 C114.105377,58.9766012 114.052199,59.2353556 113.996809,59.4932892 C114.647489,59.6467189 115.338411,59.8291298 116.108139,60.0439835 C116.925921,60.2717563 117.660391,60.4642731 118.355817,60.6255427 C118.461388,60.1475797 118.559033,59.6669912 118.649661,59.1839287 C118.035796,59.0496408 117.403071,58.8916387 116.72264,58.7078595 L115.671133,58.4172118 C115.184379,58.2822811 114.724461,58.1608614 114.280498,58.0520682 Z M25.718376,58.0521689 L25.6866756,58.0601476 C25.2815839,58.1600681 24.8589574,58.2709245 24.4098309,58.3935868 L23.7293968,58.5820464 C22.8737897,58.8198633 22.0982013,59.018725 21.3508874,59.1827346 C21.4407691,59.6659901 21.5384039,60.1465787 21.6429459,60.6245836 C22.1433465,60.5097249 22.658995,60.3787564 23.2058749,60.2309772 L23.8843802,60.044006 C24.6569192,59.8282757 25.3500367,59.6452533 26.0034416,59.4911069 C25.9003631,59.0143417 25.8055245,58.5345926 25.718376,58.0521689 Z M33.021,57.2548 C30.3594355,57.2548 28.6572032,57.4060845 26.6940526,57.827041 C26.7814332,58.3134993 26.8767619,58.7971508 26.9799443,59.2778868 C28.8222452,58.9055016 30.49416,58.7694 33.021,58.7694 C36.1915701,58.7694 38.0174643,58.9836149 40.5173355,59.6066462 C40.3432882,59.0724353 40.1830668,58.530501 40.0374741,57.9826061 C37.7651742,57.4428619 35.9889507,57.2548 33.021,57.2548 Z M106.9682,57.2546 C104.03915,57.2546 102.172592,57.4576064 99.9640644,57.9777237 C99.8181812,58.5261755 99.6578406,59.068782 99.4832804,59.6049698 C101.977256,58.9827936 103.801515,58.7694 106.9676,58.7694 C109.499664,58.7694 111.17367,58.9059493 113.019107,59.2783496 C113.122903,58.7988229 113.218315,58.3148361 113.305722,57.8280707 C111.371759,57.418397 109.598271,57.2546 106.9682,57.2546 Z M92.384,50.392 L92.384,59.416 L90.768,59.416 L90.768,51.928 L87.008,51.928 L87.008,59.416 L85.392,59.416 L85.392,50.392 L92.384,50.392 Z M114.551975,56.3572291 L114.52168,56.5846561 C114.461698,56.993752 114.396211,57.4010592 114.325298,57.8065 C114.641219,57.8829218 114.96702,57.9670583 115.304722,58.0579213 L116.329834,58.3409742 C117.181407,58.577574 117.952556,58.7752716 118.695207,58.9382149 C118.783369,58.4542444 118.86447,57.968572 118.938446,57.4805606 C118.232756,57.334125 117.509401,57.1560236 116.722284,56.943439 L116.04028,56.755594 C115.510776,56.6077308 115.019008,56.4753625 114.551975,56.3572291 Z M25.4455315,56.3569733 L25.2754069,56.3990456 C24.9968885,56.4705841 24.7092485,56.5471119 24.4098309,56.6288868 L23.7293968,56.8173464 C22.7631066,57.0859278 21.8988769,57.3048234 21.0621727,57.4799436 C21.1353681,57.9675702 21.2164589,58.4532421 21.3045657,58.9364657 C21.910054,58.8039177 22.5344246,58.6478181 23.2058749,58.4663772 L24.7888128,58.0325385 C25.0951678,57.9511682 25.3898889,57.8755236 25.676105,57.8053026 C25.5905376,57.3252344 25.5141625,56.8423487 25.4455315,56.3569733 Z M40.6785464,56.3757785 L40.7615219,56.7460795 C40.8571808,57.1623722 40.9615016,57.5753575 41.0742844,57.9848355 C41.1333448,58.0000288 41.1945587,58.0161795 41.2562435,58.0325622 L43.0789005,58.5304557 C43.4465495,58.6284847 43.770471,58.710914 44.0918812,58.7876759 L44.4943288,58.8802046 C44.2945671,58.3063876 44.1136228,57.7237574 43.9522349,57.1330529 L43.926398,57.2425443 L43.3925967,57.108402 C43.152685,57.0462441 42.8995576,56.9782146 42.5945752,56.8943686 L42.0933802,56.755494 C41.5915653,56.6153629 41.1236429,56.4891486 40.6785464,56.3757785 Z M99.3216309,56.373284 L99.219117,56.3990693 C98.9404657,56.4706149 98.6526778,56.5471522 98.3530929,56.6289394 L96.987123,57.0052351 C96.724759,57.0756995 96.4914353,57.1362507 96.2539523,57.1954013 L96.0745415,57.2396347 L96.048584,57.1300552 C95.8872697,57.7207595 95.7063996,58.3033917 95.5067126,58.8772127 L95.9041758,58.7860432 C96.2218783,58.710329 96.5420609,58.6288262 96.9081506,58.5310538 L98.1997152,58.1756761 C98.4487311,58.1066493 98.6908288,58.041128 98.9274389,57.9789967 C99.0727471,57.4507227 99.204497,56.9147249 99.3216309,56.373284 Z M33.021,55.4901 C30.2380227,55.4901 28.5038977,55.6555016 26.4236482,56.1216442 C26.4904859,56.6105389 26.5665709,57.0968629 26.6505516,57.5804781 C28.6275452,57.15747 30.3447726,57.0048 33.021,57.0048 C35.9543209,57.0048 37.736677,57.1881556 39.9666087,57.7089656 C39.8319072,57.1846543 39.7108832,56.6540185 39.6036625,56.1183971 C37.5314515,55.6547193 35.7978125,55.4901 33.021,55.4901 Z M106.9679,55.4902 C104.196031,55.4902 102.464894,55.6539775 100.396596,56.115225 C100.289842,56.6506741 100.168958,57.1809793 100.034675,57.7059204 C102.206054,57.2021885 104.074828,57.0046 106.9682,57.0046 C109.612618,57.0046 111.401245,57.1697677 113.348235,57.5820513 C113.433048,57.0991921 113.509109,56.6132022 113.577148,56.1246444 C111.491595,55.6560807 109.755331,55.4902 106.9679,55.4902 Z M114.760863,54.6435879 L114.709133,55.1446217 C114.672432,55.4670956 114.632322,55.7885351 114.588841,56.1089032 C114.78679,56.1586348 114.992219,56.2119433 115.203154,56.267965 L116.329536,56.5765739 C117.288498,56.8430033 118.145584,57.0601132 118.974892,57.2338175 C119.046712,56.7454711 119.111002,56.2554865 119.168073,55.7633007 C118.527265,55.6353896 117.874854,55.4813531 117.176392,55.2990685 L115.671383,54.8878532 C115.357703,54.8008995 115.055168,54.7195566 114.760863,54.6435879 Z M25.2368009,54.6448005 L24.8504561,54.7455276 L24.8504561,54.7455276 L23.7293968,55.0527464 C22.6742434,55.3460274 21.7407854,55.5800639 20.831975,55.7625514 C20.8888714,56.254486 20.9531522,56.744472 21.024544,57.2321482 C21.7173448,57.0870701 22.4301945,56.9112834 23.2058749,56.7016772 L24.7888128,56.2678385 C25.0022241,56.2111548 25.2099898,56.1572496 25.4131676,56.1060208 C25.3450903,55.6219461 25.2870188,55.1345367 25.2368009,54.6448005 Z M40.3392085,54.526173 L40.3926494,54.8661558 C40.4604553,55.2818659 40.5368054,55.6947055 40.6215133,56.1044886 C40.8276326,56.1553556 41.0390362,56.2101749 41.2562799,56.2678723 L43.2726603,56.8186125 L43.9111703,56.9809936 C43.7593727,56.4122622 43.6256778,55.8361394 43.5107406,55.2532802 L43.482904,55.3645704 L42.813687,55.1884524 L42.0933802,54.990894 C41.4624049,54.8146951 40.8850142,54.6604988 40.3392085,54.526173 Z M99.6614542,54.5218472 L99.520592,54.5558305 C99.2528694,54.6224803 98.9790409,54.6936863 98.6967721,54.7696384 L97.1555927,55.1932015 L96.5184646,55.3612527 L96.4900496,55.2492716 C96.3751373,55.8324715 96.2414459,56.4089292 96.0896315,56.9779888 L96.7321038,56.8144676 C96.9808701,56.7487283 97.2504808,56.6751874 97.5740152,56.5853596 L97.8272935,56.5148023 C98.3807579,56.3603142 98.8934405,56.2226027 99.3799381,56.1002592 C99.4868976,55.5797695 99.5811417,55.053093 99.6614542,54.5218472 Z M106.9673,53.7252 C104.371341,53.7252 102.609992,53.8847358 100.705074,54.2832851 C100.633768,54.8094605 100.54788,55.3311892 100.449142,55.8483587 C102.487949,55.4004373 104.223602,55.2402 106.9679,55.2402 C109.766893,55.2402 111.517922,55.407147 113.609825,55.8749256 C113.676236,55.3875208 113.733342,54.8971231 113.782319,54.4043331 C111.653605,53.9166224 109.811198,53.7252 106.9673,53.7252 Z M33.021,53.7255 C30.1473647,53.7255 28.3920295,53.9018533 26.2192002,54.4035613 C26.2665907,54.8964485 26.3236081,55.386178 26.3885984,55.8733863 C28.4781384,55.4065145 30.2269008,55.2401 33.021,55.2401 C35.7702624,55.2401 37.5084687,55.4011673 39.5517507,55.8501799 C39.4526399,55.3341879 39.3666991,54.8124597 39.2939526,54.2865164 C37.3549576,53.8740232 35.658566,53.7255 33.021,53.7255 Z M114.904407,52.9184499 L114.904282,52.9587624 C114.873128,53.4387393 114.834449,53.9166651 114.788362,54.3924229 C114.9565,54.4357576 115.129113,54.4812456 115.304952,54.5285572 L116.339372,54.8141995 C117.379548,55.1031778 118.30002,55.3340836 119.195493,55.5144591 C119.250864,55.0220099 119.298127,54.5284474 119.338089,54.0328233 C118.456747,53.8610486 117.547236,53.6378247 116.509712,53.3551407 L116.040741,53.225811 C115.642385,53.114788 115.265449,53.0125131 114.904407,52.9184499 Z M25.0930806,52.9178383 L24.8504561,52.9808276 C24.7063041,53.0191237 24.5595397,53.0586993 24.4098309,53.0995868 L23.7293968,53.2880464 C22.6084078,53.5996264 21.6247741,53.8443383 20.6621254,54.0314099 C20.7017191,54.5267865 20.7489987,55.0206817 20.8034812,55.5124049 C21.5666758,55.3594181 22.3478346,55.1689388 23.2058749,54.9370772 L23.8843802,54.750106 C24.3534432,54.6191209 24.7932269,54.5001938 25.2126198,54.3924669 C25.1642409,53.9031453 25.1246795,53.4115748 25.0930806,52.9178383 Z M40.120393,52.7082873 L40.1428362,52.9462335 C40.1858367,53.3873772 40.2383921,53.8257211 40.3002927,54.2610556 C40.7422382,54.3668391 41.2050992,54.4876971 41.6996164,54.6227363 L42.8784599,54.9469891 L43.4822038,55.106414 C43.3759764,54.5514615 43.2867376,53.9904754 43.2150493,53.4240176 L43.1886906,53.5245522 L42.0933802,53.226194 C41.3774435,53.0262697 40.7304932,52.8546723 40.120393,52.7082873 Z M99.8795543,52.7066263 L99.6325685,52.7658566 C99.3622335,52.8324372 99.0840439,52.9038819 98.7953326,52.9804497 L96.8115488,53.5211684 L96.7853297,53.4210211 C96.7137061,53.987477 96.6245321,54.5484626 96.5183699,55.103416 L96.8731899,55.0100019 L98.1999656,54.6462343 C98.7270525,54.5001273 99.2231409,54.369726 99.7017951,54.2539349 C99.7732687,53.7429672 99.8330476,53.2267074 99.8795543,52.7066263 Z M33.021,51.9608 C30.0864028,51.9608 28.3180566,52.1447151 26.0803373,52.6712321 C26.1094361,53.1670566 26.1474065,53.6614878 26.1934804,54.1535643 C28.3710179,53.6523624 30.1405265,53.4755 33.021,53.4755 C35.638056,53.4755 37.3389571,53.621449 39.2589506,54.0227875 C39.1924753,53.5122103 39.1387812,52.998182 39.0978008,52.4805753 C37.2379856,52.0993513 35.5684849,51.9608 33.021,51.9608 Z M106.9673,51.9614 C104.424362,51.9614 102.758873,52.0990615 100.902687,52.4780825 C100.86141,52.9961843 100.80775,53.5102129 100.741688,54.0203515 C102.629213,53.631739 104.392566,53.4752 106.9673,53.4752 C109.817382,53.4752 111.673416,53.6669674 113.804494,54.1530429 C113.852501,53.6624775 113.890411,53.1690455 113.920117,52.6734022 C111.674744,52.1454478 109.906765,51.9614 106.9673,51.9614 Z M114.982108,51.1719177 L114.975947,51.4853985 C114.963141,51.8802686 114.945247,52.2738528 114.92233,52.6660877 C115.154895,52.7251626 115.396456,52.7896065 115.646117,52.8576571 L116.107874,52.9849932 C117.326396,53.3247631 118.360105,53.5861496 119.355553,53.7824304 C119.395113,53.2865027 119.425261,52.7888398 119.448003,52.2892463 C118.583016,52.1249671 117.705961,51.9146663 116.731309,51.6514596 L115.671133,51.3584118 C115.435585,51.2931166 115.206321,51.2309853 114.982108,51.1719177 Z M25.0150077,51.1736583 L24.8504197,51.2162377 C24.7062658,51.2545343 24.5594995,51.2941105 24.4097887,51.3349985 L23.7101724,51.5286915 C22.5552974,51.849139 21.5454855,52.0986511 20.5533021,52.2872538 C20.5746285,52.7868415 20.6047564,53.284504 20.642183,53.7801289 C21.4571309,53.6213177 22.2874624,53.4205528 23.2058749,53.1723772 L24.7888128,52.7385385 L25.0774951,52.6630884 C25.0486426,52.1687126 25.0277712,51.6721936 25.0150077,51.1736583 Z M64.24,49.992 C65.296,50.824 66.192,51.656 66.928,52.488 L66.928,52.488 L65.728,53.672 C65.12,52.872 64.24,52.008 63.088,51.08 L63.088,51.08 Z M40.0141519,50.9183638 L40.0160354,50.9902657 C40.0318767,51.4787178 40.0593944,51.9642186 40.0983185,52.4464979 C40.6016643,52.5655681 41.129478,52.702346 41.699325,52.8579555 L43.1957729,53.2680629 C43.1294991,52.7187677 43.0797187,52.1643938 43.0469415,51.605451 L43.0186002,51.714928 L42.0933802,51.461594 C41.3357422,51.2500247 40.6553613,51.0701783 40.0141519,50.9183638 Z M99.9863612,50.913371 L99.9177233,50.9298717 C99.6555069,50.9920151 99.3883533,51.0586203 99.1139272,51.129877 L96.9819906,51.7124225 L96.9531756,51.6034516 C96.9204596,52.1620536 96.8707612,52.7160931 96.8045891,53.2650611 L97.5746392,53.0552909 L97.8277412,52.984989 C98.5829835,52.7745011 99.2621096,52.5951957 99.9021701,52.4434946 C99.9427218,51.9375792 99.9709992,51.4270976 99.9863612,50.913371 Z M106.9682,50.1958 C104.502302,50.1958 102.789452,50.3396819 100.991628,50.6955302 C100.981092,51.2068401 100.957468,51.7148862 100.921762,52.2195953 C102.766177,51.8474028 104.437377,51.7114 106.9673,51.7114 C109.909455,51.7114 111.691176,51.895441 113.93324,52.4199406 C113.961483,51.9237563 113.980175,51.4248283 113.990494,50.9238431 C111.772423,50.399883 109.903942,50.1958 106.9682,50.1958 Z M33.021,50.1962 C30.0562204,50.1962 28.281805,50.3839177 26.0111183,50.9229931 C26.0198043,51.4238194 26.0384421,51.9217467 26.0652861,52.4174916 C28.3017891,51.8946933 30.0838295,51.7108 33.021,51.7108 C35.5554596,51.7108 37.2306809,51.8476818 39.0776823,52.2208205 C39.0426646,51.7172172 39.0190155,51.2095037 39.0077196,50.6987439 C37.1842252,50.3303441 35.5276407,50.1962 33.021,50.1962 Z M114.99251,49.4122375 L115,50 L115,50 C115,50.3062162 114.996941,50.611718 114.990853,50.9164765 L116.339272,51.2847995 C117.481134,51.6020276 118.478742,51.8492742 119.457382,52.0365167 C119.47908,51.5370382 119.491888,51.0357847 119.497192,50.5327321 C118.618551,50.368275 117.729411,50.1560122 116.740148,49.8893292 L116.040493,49.6968977 C115.674557,49.594754 115.326658,49.5000059 114.99251,49.4122375 Z M24.8504197,49.4515377 L23.7101724,49.7639915 C22.5362439,50.0897259 21.5122046,50.3421648 20.5042079,50.531839 L20.5,50 C20.5,50.681769 20.513783,51.3603188 20.5410857,52.0353859 C21.3837428,51.8737091 22.2392814,51.6683146 23.1883224,51.4123401 L23.8843802,51.220806 C24.2794192,51.110492 24.653691,51.0087304 25.012505,50.915009 C25.0030519,50.6110488 25,50.3058808 25,50 L25.0071145,49.4101457 C24.9552197,49.4237739 24.9029934,49.4375707 24.8504197,49.4515377 Z M40.0131624,49.1534295 L40.0040191,49.5038951 C40.0013431,49.6689429 40,49.8343146 40,50 C40,50.2206903 40.002383,50.440824 40.0071246,50.6603769 C40.4065441,50.7536537 40.8196132,50.8579987 41.2562775,50.9739717 L43.0388761,51.4613946 C43.0130685,50.9775349 43,50.4902936 43,50 L43.001,49.829 L42.9724887,49.938198 L42.0933802,49.696894 C41.3353525,49.4852159 40.6546613,49.3052933 40.0131624,49.1534295 Z M99.9882063,49.1505784 L99.6305805,49.2368161 C99.3603791,49.3034406 99.0823689,49.3749283 98.7938893,49.4515376 L97.027641,49.93519 L96.9994698,49.8289903 C96.9998231,49.8859519 97,49.9429553 97,50 C97,50.4896173 96.9869676,50.9761908 96.9612307,51.4593924 L98.1997152,51.1168761 C98.8343368,50.9409602 99.4240254,50.7878119 99.9924596,50.6555189 C99.9976531,50.4374785 100,50.2190133 100,50 C100,49.7159199 99.9960515,49.4327621 99.9882063,49.1505784 Z M106.9681,48.4315 C104.461369,48.4315 102.805794,48.5654443 100.982164,48.9322419 C100.993957,49.2869202 101,49.6427544 101,50 L100.996533,50.4397506 C102.790235,50.0885166 104.509188,49.9458 106.9682,49.9458 C109.901599,49.9458 111.781946,50.149039 113.993531,50.667374 L114,50 L114,50 C114,49.7197898 113.997381,49.4401913 113.992165,49.1612278 C111.714228,48.6198268 109.938289,48.4315 106.9681,48.4315 Z M33.021,48.4315 C30.055358,48.4315 28.2807728,48.6193269 26.0091368,49.1587636 C26.0026319,49.4388535 26,49.7191194 26,50 L26.0054165,50.667441 C28.2695084,50.1334495 30.0571483,49.9462 33.021,49.9462 C35.5211731,49.9462 37.1851984,50.0794033 39.0029061,50.4412317 L39,50 L39,50 C39,49.6437655 39.0060088,49.2889344 39.0179305,48.9356025 C37.1902882,48.5661358 35.5322299,48.4315 33.021,48.4315 Z M114.936895,47.6323608 L114.94602,47.7763689 C114.968289,48.2340293 114.983722,48.693485 114.992219,49.1546361 C115.202981,49.2088051 115.421393,49.2672812 115.646364,49.3286907 L116.348862,49.5230894 C117.502475,49.8430486 118.50938,50.0916706 119.498772,50.2791866 L119.5,50 L119.5,50 C119.5,49.5874128 119.494952,49.1760046 119.484915,48.7658337 C118.55677,48.5905973 117.604178,48.3584675 116.509153,48.060123 L116.040276,47.9308206 C115.653989,47.8232806 115.287875,47.7239569 114.936895,47.6323608 Z M25.0612822,47.6310945 L24.8514141,47.68602 C24.7071304,47.7242994 24.5602209,47.7638589 24.4103527,47.8047309 L23.7293968,47.9931464 C22.5517177,48.3204835 21.5256377,48.5740182 20.5162235,48.7644503 C20.5050725,49.1739977 20.5,49.5864065 20.5,50 L20.5022338,50.2777558 C21.3565848,50.115522 22.2242053,49.907681 23.1883224,49.6476401 L23.8843802,49.456106 C24.2790527,49.3458943 24.6529966,49.2442193 25.0115064,49.1505699 C25.0172471,48.6426752 25.035107,48.1357849 25.0612822,47.6310945 Z M40.1091058,47.4113315 L40.0994491,47.5395336 C40.062899,47.9897921 40.0362913,48.4428615 40.0198457,48.8985219 C40.5477877,49.0223273 41.1003393,49.165089 41.6993344,49.3286581 L43.002,49.686 L43.0036172,49.5535056 C43.0114953,49.0676112 43.0322085,48.5848368 43.0654328,48.1055069 L43.0435574,48.1916165 L42.0934279,47.9313073 C41.3728625,47.7303982 40.7223327,47.5581308 40.1091058,47.4113315 Z M99.8895308,47.4073775 L99.519906,47.496755 C99.2521763,47.563302 98.9783438,47.6343984 98.6960738,47.7102334 L96.9562693,48.1891093 L96.9344978,48.1045055 C96.9707181,48.6267808 96.9920851,49.1531457 96.9981794,49.6831806 L97.8274935,49.4561023 C98.6129986,49.2368448 99.3163578,49.0513802 99.9793002,48.8956809 C99.9620178,48.3969267 99.9317375,47.9004496 99.8895308,47.4073775 Z M106.9678,46.6674 C104.448337,46.6674 102.714932,46.817366 100.873926,47.1897828 C100.91871,47.6836431 100.951476,48.1803638 100.97241,48.6801429 C102.795724,48.3152344 104.461003,48.1815 106.9681,48.1815 C109.932203,48.1815 111.720341,48.3687049 113.984828,48.9025094 C113.974096,48.3927448 113.952964,47.8855013 113.923317,47.3805464 C111.675226,46.8513621 109.908362,46.6674 106.9678,46.6674 Z M33.021,46.6669 C30.0854289,46.6669 28.3188054,46.8506161 26.078194,47.3775156 C26.0471107,47.8838327 26.0259479,48.3914092 26.0134537,48.9011357 C28.2741881,48.3682598 30.061026,48.1815 33.021,48.1815 C35.5326019,48.1815 37.2003942,48.3159239 39.0277535,48.6814831 C39.0484221,48.1820275 39.0811868,47.6849727 39.125527,47.1912535 C37.2542897,46.8066878 35.5820566,46.6669 33.021,46.6669 Z M114.807096,45.8315138 L114.850826,46.3093003 C114.879433,46.6617036 114.903979,47.0152548 114.924419,47.369907 C115.155952,47.4308479 115.396631,47.4949979 115.645362,47.5627241 L116.107374,47.6899932 C117.375724,48.0436572 118.444039,48.312415 119.477497,48.5112202 C119.462932,48.0002513 119.440161,47.4925482 119.409799,46.9868913 C118.504844,46.8130718 117.574484,46.5855227 116.509364,46.2953262 L115.668601,46.062722 C115.372313,45.9807184 115.085964,45.9037154 114.807096,45.8315138 Z M25.1904483,45.8321515 L24.8514141,45.92132 L24.8514141,45.92132 L23.7293968,46.2284464 C22.5808393,46.5476891 21.5764762,46.7967343 20.5911385,46.9855074 C20.5599383,47.4905503 20.5371471,47.9982531 20.5220591,48.5078901 C21.3757052,48.3460424 22.2423131,48.1378531 23.2058749,47.8774772 L23.8844279,47.6904927 C24.3037926,47.5735648 24.6997012,47.4662577 25.0784999,47.3679585 C25.1053585,46.8536254 25.1436566,46.3416592 25.1904483,45.8321515 Z M40.3061655,45.6943614 L40.2526133,46.0890526 C40.2063639,46.444295 40.1663292,46.8014897 40.1326217,47.1605239 C40.4919782,47.2455897 40.8642762,47.3400531 41.2555876,47.4438413 L43.0772297,47.9424147 C43.1161626,47.4257499 43.1696362,46.9131431 43.2372424,46.4050023 L43.2199698,46.4730266 L42.6521879,46.3205666 L42.0934279,46.1666073 C41.4495351,45.9870761 40.8615663,45.8304157 40.3061655,45.6943614 Z M99.6925676,45.6890339 L99.520106,45.731955 C99.2523763,45.798502 98.9785438,45.8695984 98.6962738,45.9454334 L96.7803473,46.4703421 L96.7619575,46.3989935 C96.829811,46.9081188 96.8834767,47.4217296 96.9225441,47.9394155 L98.199363,47.5866217 C98.7873137,47.4238939 99.3367032,47.2806784 99.8663615,47.1554572 C99.8205992,46.6631417 99.7623884,46.1742119 99.6925676,45.6890339 Z M106.968,44.9026 C104.355949,44.9026 102.588792,45.0637907 100.67068,45.4669456 C100.742376,45.9545124 100.80247,46.4458183 100.850935,46.9405355 C102.697791,46.567668 104.442602,46.4174 106.9678,46.4174 C109.898274,46.4174 111.676183,46.5997619 113.906691,47.1193859 C113.873936,46.6043809 113.831743,46.091224 113.780822,45.5806373 C111.653652,45.0937068 109.811457,44.9026 106.968,44.9026 Z M33.021,44.9022 C30.1476574,44.9022 28.3942287,45.0782098 26.2200607,45.579769 C26.1683222,46.0905653 26.1261728,46.603057 26.0928803,47.1179615 C28.3179926,46.5990053 30.0955964,46.4169 33.021,46.4169 C35.5877091,46.4169 37.2717102,46.5570436 39.1478583,46.9410225 C39.1973171,46.4478302 39.2572486,45.9575205 39.3284866,45.4708831 C37.3728252,45.0521707 35.6736978,44.9022 33.021,44.9022 Z M114.604293,44.0149059 L114.62108,44.1335788 C114.683014,44.6092969 114.737519,45.087349 114.784473,45.5676148 C114.953457,45.610896 115.126294,45.6563678 115.302364,45.7036661 L116.107574,45.9251932 C117.341712,46.2693177 118.386461,46.5330546 119.393989,46.7301798 C119.360176,46.2158944 119.318857,45.7045998 119.269828,45.1955587 C118.540491,45.0513583 117.789538,44.8717543 116.961261,44.6524297 L115.673747,44.2997468 C115.303217,44.1971129 114.948331,44.1022962 114.604293,44.0149059 Z M25.3947454,44.013289 L25.1684322,44.0711636 C25.0312105,44.106812 24.8921684,44.1436242 24.751014,44.1816237 L23.7293968,44.4638464 C22.6348114,44.7680875 21.6711871,45.0085734 20.7301841,45.193895 C20.6813149,45.7026016 20.6399757,46.2138929 20.6064644,46.7273197 C21.4319792,46.567793 22.2735414,46.3647145 23.2058749,46.1127772 L23.8844279,45.9257927 C24.3547914,45.7946452 24.795647,45.6756008 25.2159492,45.5677947 C25.2664405,45.0468523 25.3262312,44.5286926 25.3947454,44.013289 Z M40.5985192,44.0024148 L40.5624503,44.1886354 C40.4807644,44.6047906 40.4076832,45.0240306 40.3433997,45.4461625 C40.7724503,45.5509495 41.2209464,45.6681003 41.6991232,45.7984894 L42.7178164,46.0793346 L43.2618188,46.2249203 C43.3346169,45.7045821 43.4222454,45.1889973 43.5242636,44.678607 L43.4989713,44.7806877 L42.8227086,44.6027234 L42.0934279,44.4020073 C41.5612213,44.2536166 41.0673102,44.1208459 40.5985192,44.0024148 Z M99.3995741,43.9984373 L99.1133196,44.0708589 C98.9758776,44.1065326 98.8365954,44.1433723 98.6951793,44.1814019 L97.1720866,44.6006938 L96.5000117,44.7782406 L96.4757364,44.678607 C96.5775586,45.188017 96.6650465,45.7026016 96.7377615,46.2219221 L98.199563,45.8218217 C98.7101484,45.6805064 99.191653,45.5539062 99.6564089,45.441027 C99.5819249,44.9563423 99.4964058,44.4753356 99.3995741,43.9984373 Z M106.9678,43.1362 C104.220581,43.1362 102.410513,43.314643 100.371807,43.7665373 C100.471124,44.2468205 100.558083,44.7312553 100.633652,45.2194535 C102.561873,44.8149277 104.343429,44.6526 106.968,44.6526 C109.794507,44.6526 111.64325,44.8409564 113.75202,45.3174727 C113.698832,44.7979417 113.634717,44.2802294 113.561691,43.7653847 C111.522562,43.3144271 109.71302,43.1362 106.9678,43.1362 Z M33.021,43.1366 C30.2807889,43.1366 28.4707837,43.3144777 26.4396057,43.7638633 C26.3654123,44.2792296 26.3012857,44.7969417 26.2462317,45.3173604 C28.4018248,44.8258813 30.1640605,44.6522 33.021,44.6522 C35.6865474,44.6522 37.4000956,44.8033447 39.3654028,45.2217407 C39.4413506,44.7345972 39.5281922,44.2504965 39.6261292,43.7704328 C37.5408293,43.3021258 35.8082042,43.1366 33.021,43.1366 Z M114.321988,42.179438 L114.411026,42.7007663 C114.467748,43.0485224 114.520484,43.3976177 114.569186,43.7480037 C114.671849,43.773985 114.777906,43.8010934 114.885065,43.8289035 L116.107374,44.1607932 C117.280436,44.4878874 118.282391,44.7423537 119.243914,44.9360223 C119.191472,44.4177427 119.130887,43.9024345 119.062449,43.3896097 C118.397232,43.2518413 117.711216,43.0859237 116.961825,42.8874797 L115.671176,42.5339736 C115.199475,42.4033967 114.753044,42.2854865 114.321988,42.179438 Z M25.6774997,42.177523 L25.5749281,42.2029854 C25.3071823,42.2696752 25.0333228,42.3409247 24.751014,42.4169237 L23.7293968,42.6991464 C22.7151978,42.9810441 21.8134305,43.208207 20.9379148,43.387469 C20.8694384,43.8997606 20.8087868,44.4154032 20.7561223,44.9334075 C21.534671,44.7783127 22.3302395,44.5847934 23.2058749,44.3481772 L24.2541125,44.0583004 C24.6639199,43.9446511 25.0549769,43.8404997 25.433658,43.7453311 C25.5043021,43.2195524 25.586446,42.6970045 25.6774997,42.177523 Z M40.9855026,42.3371996 L40.8718799,42.7906526 C40.7927655,43.111371 40.7188097,43.4341208 40.6501054,43.7588089 C40.9846929,43.8420473 41.3329702,43.9340303 41.6986569,44.0337552 L42.8875499,44.3612781 L43.553053,44.5365702 C43.6513958,44.0580178 43.762401,43.5840855 43.885703,43.1151388 L43.1164151,42.918031 L42.0934279,42.6373073 C41.7054711,42.5291366 41.3378639,42.429266 40.9855026,42.3371996 Z M99.011156,42.3321893 L98.6968835,42.41589 L98.6968835,42.41589 L96.8778206,42.9171591 C96.657468,42.9761671 96.4632569,43.0263103 96.2602418,43.0766836 L96.1135095,43.1121443 C96.2369546,43.5814151 96.3480857,44.0556797 96.4465362,44.5345717 L97.1071149,44.3592837 L98.1975025,44.058156 C98.5974828,43.9473675 98.979504,43.8456096 99.3494882,43.7524027 C99.2475701,43.2756409 99.1349099,42.8016635 99.011156,42.3321893 Z M33.021,41.3719 C30.4158347,41.3719 28.651448,41.532677 26.7384396,41.9346892 C26.6413582,42.4539993 26.5543939,42.9757659 26.4766954,43.5005522 C28.4883777,43.0612629 30.3022042,42.8866 33.021,42.8866 C35.8264162,42.8866 37.5754455,43.0539832 39.6766996,43.524913 C39.779302,43.0446493 39.8926363,42.5678529 40.0168385,42.0954627 C37.7499464,41.5584108 35.9796113,41.3719 33.021,41.3719 Z M106.9682,41.3722 C104.047403,41.3722 102.184363,41.5738559 99.9823248,42.090689 C100.106309,42.5635191 100.219868,43.0409792 100.322245,43.5225746 C102.375929,43.0665081 104.202752,42.8862 106.9678,42.8862 C109.691692,42.8862 111.505185,43.0612227 113.522845,43.5016032 C113.445877,42.9774316 113.358876,42.4553309 113.262769,41.9364255 C111.343781,41.5333523 109.578301,41.3722 106.9682,41.3722 Z M113.956503,40.3270327 L114.012463,40.5799031 C114.106518,41.0214896 114.194095,41.4654732 114.275091,41.9117498 C114.607043,41.9912347 114.949064,42.0792586 115.304299,42.1747144 L116.107774,42.3957932 C117.192215,42.6981764 118.130278,42.938477 119.025264,43.1260544 C118.9538,42.6024051 118.872962,42.082013 118.784085,41.564368 C118.072515,41.411856 117.331218,41.2252958 116.509654,41.0014522 L115.671176,40.7694736 C115.064873,40.601636 114.50032,40.4547254 113.956503,40.3270327 Z M26.0425141,40.3254242 L25.9722534,40.3417467 C25.7100375,40.4039243 25.4428756,40.4705667 25.1684322,40.5418636 L23.7293968,40.9345464 C22.8226517,41.1865771 22.0057763,41.3948569 21.2171829,41.5642696 C21.1271986,42.0810131 21.0463496,42.6014051 20.9736723,43.1244112 C21.6836641,42.9771654 22.4118507,42.7980403 23.2058749,42.5834772 L24.2541125,42.2936004 C24.7704661,42.1504033 25.257052,42.0222849 25.7266213,41.9082147 C25.8218791,41.3776642 25.927624,40.8498326 26.0425141,40.3254242 Z M41.468368,40.7009867 L41.3840177,40.9662862 C41.2662262,41.3397687 41.1555444,41.7164066 41.052131,42.0960411 C41.1179681,42.1134286 41.1858178,42.1312973 41.2542511,42.1494514 L43.3413476,42.7190479 L43.9503248,42.873942 C44.0801561,42.3982331 44.2226698,41.9277577 44.3774802,41.4629017 L43.9335681,41.3588073 C43.5478343,41.2659374 43.1570404,41.1645394 42.6918333,41.0378854 L42.0934279,40.8727073 C41.8791536,40.812963 41.6710869,40.7557507 41.468368,40.7009867 Z M98.5296934,40.697151 L97.0299313,41.1092354 C96.5939572,41.2260315 96.2183491,41.3212761 95.8341483,41.4117286 L95.6218515,41.4608951 C95.7765947,41.9254273 95.9190582,42.395572 96.0488568,42.8709441 L96.8141705,42.6753917 L98.1997582,42.2924149 C98.4555417,42.2216104 98.7040055,42.1544982 98.9466991,42.0909531 C98.8185782,41.6217331 98.67954,41.1570014 98.5296934,40.697151 Z M33.021,39.6073 C30.5896899,39.6073 28.8906844,39.7473342 27.1197407,40.0928038 C26.9997668,40.6147672 26.8889235,41.1403801 26.7875522,41.6693586 C28.6792146,41.2788923 30.4434004,41.1219 33.021,41.1219 C36.0045331,41.1219 37.7932802,41.3112124 40.0814553,41.8535913 C40.2097897,41.3812221 40.3491865,40.9127051 40.4992139,40.4489705 C37.9912019,39.8207453 36.1860401,39.6073 33.021,39.6073 Z M106.9682,39.6077 C103.835694,39.6077 101.919842,39.8396487 99.4976169,40.4435851 C99.6490828,40.9070331 99.7886739,41.3758824 99.9173309,41.8492348 C102.140739,41.3267154 104.023029,41.1222 106.9682,41.1222 C109.550858,41.1222 111.316254,41.27958 113.211959,41.6709372 C113.11155,41.1427208 113.000811,40.6174454 112.880794,40.0957139 C111.105523,39.7481553 109.404934,39.6077 106.9682,39.6077 Z M113.506078,38.4598242 L113.515945,38.4952902 C113.652305,39.0124425 113.779691,39.5332381 113.897926,40.0575005 C114.348206,40.1607049 114.813648,40.2783707 115.304299,40.4102144 L116.107774,40.6312932 C117.076815,40.9014984 117.928973,41.122131 118.737958,41.2998691 C118.644105,40.7706962 118.541913,40.2446307 118.431464,39.7216109 C117.962301,39.6157467 117.476757,39.494631 116.961261,39.3581297 L115.673751,39.005456 C114.89743,38.7904539 114.189581,38.6097736 113.506078,38.4598242 Z M26.4938487,38.4582129 L26.3621597,38.487105 C25.8464522,38.6026259 25.3156316,38.7356256 24.751014,38.8876237 L23.7293968,39.1698464 C22.9568813,39.3845679 22.2495973,39.567533 21.5694592,39.7217617 C21.4582255,40.2439729 21.3561525,40.7693729 21.2624591,41.2976686 C21.8805122,41.1637959 22.5185257,41.0046143 23.2058749,40.8188772 L24.2541125,40.5290004 C24.9100814,40.3470846 25.5180086,40.1895043 26.1040372,40.0541462 C26.2236215,39.5187233 26.3540505,38.9865632 26.4938487,38.4582129 Z M97.9550416,39.0913459 L96.7698815,39.4145815 C96.2747558,39.5453795 95.8598496,39.6468731 95.429672,39.74137 L95.0184446,39.8283476 C95.2124788,40.3051181 95.3932805,40.7886833 95.5603936,41.2785872 L95.546355,41.2218408 L96.2355172,41.0571056 C96.4672252,40.9992468 96.7058669,40.9372377 96.9662823,40.8674691 L98.1997582,40.5279149 L98.4511248,40.459438 C98.2965586,39.998308 98.1310956,39.5421754 97.9550416,39.0913459 Z M41.5471934,40.4644567 L43.0260939,40.8691781 C43.4622403,40.9858526 43.8377291,41.080618 44.2216353,41.1701485 L44.4535417,41.2233719 L44.441654,41.2725869 C44.6079615,40.7854221 44.787806,40.3045283 44.9807389,39.8303543 L44.5242682,39.7335195 C43.9698022,39.6111961 43.4330153,39.4755911 42.7351807,39.285381 L42.0934279,39.1080073 L42.0437825,39.0943576 C41.8675291,39.5458423 41.701897,40.0026444 41.5471934,40.4644567 Z M33.021,37.8426 C30.8053219,37.8426 29.197813,37.9588965 27.5897973,38.2409872 C27.4436594,38.7657984 27.3080677,39.2940659 27.1821343,39.8260685 C28.9298576,39.493109 30.6235997,39.3573 33.021,39.3573 C36.2158962,39.3573 38.0407251,39.5743855 40.5759294,40.2096502 C40.7319479,39.745893 40.8971767,39.2861085 41.0728134,38.8315021 C38.2527791,38.0890543 36.4219802,37.8426 33.021,37.8426 Z M106.9678,37.8429 C103.670928,37.8429 101.722024,38.0997563 99.1125694,38.7768243 L98.9256375,38.8274931 C99.1012243,39.2817819 99.2664173,39.741243 99.4209249,40.2055849 C101.86983,39.5933784 103.806597,39.3577 106.9682,39.3577 C109.370928,39.3577 111.066303,39.4939151 112.817324,39.8280226 C112.692432,39.2960669 112.556867,38.7677977 112.411838,38.2434586 C110.798231,37.9595055 109.188873,37.8429 106.9678,37.8429 Z M42.1364461,38.8599262 L43.0878839,39.121728 C43.6468721,39.2713682 44.1061929,39.3852579 44.5779385,39.489343 L45.057977,39.5911208 L45.0362074,39.6950855 C45.2448558,39.1901879 45.4683755,38.6929992 45.7062208,38.2040652 L45.2612101,38.1226506 C44.4733048,37.972369 43.7717673,37.8022891 42.7489402,37.5240423 L42.713759,37.5140676 C42.5107483,37.9569956 42.3182051,38.4057206 42.1364461,38.8599262 Z M97.2844112,37.5100762 L96.9343762,37.606155 C96.0653616,37.8386186 95.4363261,37.9875956 94.7342318,38.1213715 L94.2928038,38.2020602 C94.5297562,38.6890561 94.7524958,39.1842429 94.9604832,39.6870811 L94.9407329,39.5894392 L95.3761456,39.4971622 C96.0166024,39.3564589 96.6238533,39.1999017 97.518847,38.9524374 L97.8619533,38.8559272 C97.6801184,38.4017225 97.4874989,37.9529999 97.2844112,37.5100762 Z M112.964332,36.581704 L113.131749,37.1269227 C113.236627,37.4788383 113.337315,37.8325594 113.433756,38.1880283 C113.901626,38.2887681 114.381574,38.4040509 114.885806,38.5348663 L116.107374,38.8664932 C116.932107,39.0964601 117.672263,39.2905275 118.373254,39.4528066 C118.257653,38.9171009 118.132795,38.3849291 117.999428,37.8561416 C117.665575,37.7763931 117.321297,37.6889213 116.96247,37.5940011 L115.671583,37.2405532 C114.689761,36.9683865 113.817113,36.7511898 112.964332,36.581704 Z M27.0350132,36.58017 L26.7463986,36.6391179 C26.2370798,36.7459943 25.717319,36.8699697 25.1684322,37.0125636 L23.7293968,37.4052464 C23.1187291,37.5749821 22.5488231,37.724874 22.0008661,37.8564137 C21.8672886,38.3845994 21.7425027,38.9164373 21.6263688,39.4515015 C22.1316702,39.3358893 22.6528012,39.2036301 23.2058749,39.0541772 L24.2541125,38.7643004 C25.085081,38.5338531 25.8389556,38.3424576 26.5688808,38.1858182 C26.7131501,37.6466512 26.8692931,37.1112973 27.0350132,36.58017 Z M33.021,36.078 C31.0614845,36.078 29.5776419,36.1689601 28.1484431,36.3851184 C27.9759852,36.9109223 27.8146599,37.441173 27.6631796,37.9755618 C29.2464682,37.7046394 30.8434831,37.5926 33.021,37.5926 C36.4575105,37.5926 38.3088951,37.8437613 41.1642217,38.596346 C41.3450593,38.140834 41.5360802,37.6900468 41.7373104,37.2448626 L42.0934279,37.3434073 C38.6551385,36.3847382 36.8151969,36.078 33.021,36.078 Z M106.9675,36.0779 C103.671768,36.0779 101.721252,36.3350379 99.1143369,37.0119461 L98.2622381,37.2438639 C98.4628983,37.687745 98.6534087,38.1371967 98.8334733,38.5919232 C101.573038,37.8669792 103.557868,37.5929 106.9678,37.5929 C109.150909,37.5929 110.749963,37.7052677 112.336959,37.9762695 C112.185734,37.442513 112.02453,36.9125948 111.853703,36.3870172 C110.419837,36.1693168 108.932807,36.0779 106.9675,36.0779 Z M70,20 C57.977206,20 47.6062539,27.0723761 42.820499,37.2837728 L43.1089256,37.3622506 C43.9706233,37.5927705 44.6050853,37.7429736 45.3082331,37.8771046 L45.7904214,37.9648492 L45.7719288,38.0699388 C50.1766013,29.1417475 59.3710597,23 70,23 C80.6289403,23 89.8233987,29.1417475 94.2280712,38.0699388 L94.2090898,37.9627472 L94.6872209,37.8758225 C95.4626397,37.7280576 96.1490536,37.5613733 97.1772388,37.2816644 C92.3917141,27.0709904 82.0216162,20 70,20 Z M70,0.5 C46.9507484,0.5 27.5809848,16.2537607 22.0707508,37.5812402 C22.4372971,37.4929559 22.8135494,37.3955923 23.2058749,37.2895772 L24.2541125,36.9997004 C25.2967259,36.7105589 26.2179731,36.4828953 27.1228266,36.3082245 C32.9139915,18.1502767 49.9212899,5 70,5 C90.0794487,5 107.08726,18.1512441 112.87977,36.3100693 C113.653052,36.4598692 114.440056,36.6484929 115.305152,36.8812572 L116.108039,37.1024835 C116.760539,37.2842209 117.360005,37.4435134 117.928928,37.5823972 C112.419015,16.2537607 93.0492516,0.5 70,0.5 Z M70,6 C50.5496055,6 34.0469096,18.6205982 28.234201,36.1195057 C29.6375505,35.9147964 31.104419,35.828 33.021,35.828 C36.4935309,35.828 38.3475322,36.0844541 41.2542534,36.855552 L41.8417363,37.0163253 C46.7540834,26.3804177 57.5151472,19 70,19 C82.4824967,19 93.241855,26.3776324 98.155482,37.0103042 L98.2001656,36.9989343 C101.279116,36.145458 103.300316,35.8279 106.9675,35.8279 C108.889039,35.8279 110.358731,35.9150682 111.765504,36.1208294 L111.756851,36.0925969 C105.936169,18.6076614 89.4404232,6 70,6 Z M101.859,25.3934 C101.974,25.5684 101.943,25.7124 101.769,25.8264 L101.418,26.0564 C101.702,26.0464 101.974,26.1044 102.232,26.2354 C102.491,26.3654 102.702,26.5534 102.864,26.8014 C103.061,27.1004 103.166,27.3994 103.181,27.6984 C103.195,27.9964 103.118,28.2934 102.951,28.5894 C103.272,28.5574 103.575,28.6124 103.857,28.7524 C104.14,28.8914 104.374,29.1024 104.56,29.3854 C104.867,29.8544 104.977,30.3024 104.891,30.7314 C104.804,31.1604 104.533,31.5234 104.078,31.8214 L101.417,33.5674 C101.245,33.6804 101.104,33.6524 100.993,33.4834 C100.877,33.3064 100.905,33.1624 101.076,33.0484 L103.661,31.3534 C103.981,31.1434 104.177,30.8884 104.246,30.5894 C104.315,30.2924 104.248,29.9874 104.044,29.6774 C103.824,29.3424 103.529,29.1524 103.158,29.1054 C102.787,29.0584 102.377,29.1824 101.928,29.4774 L99.694,30.9424 C99.522,31.0544 99.382,31.0274 99.271,30.8584 C99.155,30.6814 99.183,30.5364 99.354,30.4234 L101.938,28.7284 C102.266,28.5144 102.464,28.2624 102.536,27.9744 C102.607,27.6864 102.543,27.3894 102.344,27.0854 C102.109,26.7284 101.802,26.5304 101.422,26.4894 C101.041,26.4494 100.636,26.5704 100.205,26.8524 L97.973,28.3174 C97.801,28.4294 97.658,28.3994 97.544,28.2244 C97.431,28.0534 97.461,27.9114 97.632,27.7984 L101.429,25.3074 C101.604,25.1934 101.746,25.2224 101.859,25.3934 Z M36.8876,27.7687 L40.7866,30.1177 C40.9616,30.2227 40.9946,30.3657 40.8876,30.5437 C40.7826,30.7187 40.6416,30.7537 40.4656,30.6487 L40.0516,30.3987 C40.2096,30.6917 40.2846,30.9857 40.2736,31.2797 C40.2636,31.5737 40.1696,31.8687 39.9916,32.1637 C39.6526,32.7277 39.1796,33.0427 38.5726,33.1107 C37.9656,33.1777 37.3196,33.0047 36.6326,32.5917 C35.9576,32.1857 35.5096,31.6947 35.2886,31.1187 C35.0686,30.5417 35.1356,29.9587 35.4916,29.3677 C35.6606,29.0857 35.8656,28.8737 36.1046,28.7337 C36.3426,28.5927 36.6176,28.5207 36.9276,28.5167 L36.5676,28.2997 C36.3946,28.1967 36.3616,28.0557 36.4666,27.8797 C36.5746,27.7017 36.7146,27.6647 36.8876,27.7687 Z M36.9186,28.9907 C36.5286,29.0747 36.2246,29.2957 36.0076,29.6557 C35.7516,30.0787 35.7186,30.5097 35.9086,30.9467 C36.0976,31.3837 36.4456,31.7547 36.9526,32.0607 C37.5016,32.3917 38.0026,32.5387 38.4556,32.5037 C38.9086,32.4687 39.2686,32.2287 39.5376,31.7827 C39.7576,31.4167 39.8126,31.0427 39.7026,30.6607 C39.5926,30.2807 39.3406,29.9707 38.9476,29.7337 L38.0986,29.2227 C37.7026,28.9837 37.3096,28.9067 36.9186,28.9907 Z M41.6743,24.0151 L44.0713,25.9961 C44.2293,26.1271 44.2443,26.2691 44.1153,26.4251 C43.9803,26.5881 43.8343,26.6041 43.6753,26.4741 L41.4103,24.6001 C41.0613,24.3121 40.7303,24.1721 40.4163,24.1791 C40.1023,24.1851 39.8193,24.3421 39.5663,24.6471 C39.2803,24.9941 39.1693,25.3791 39.2333,25.8021 C39.2983,26.2251 39.5413,26.6091 39.9633,26.9581 L41.9303,28.5851 C42.0893,28.7161 42.1013,28.8611 41.9683,29.0221 C41.8383,29.1801 41.6933,29.1931 41.5363,29.0631 L38.0353,26.1701 C37.8753,26.0371 37.8603,25.8921 37.9903,25.7331 C38.1233,25.5731 38.2703,25.5591 38.4303,25.6921 L38.8373,26.0281 C38.7203,25.7291 38.6903,25.4181 38.7473,25.0951 C38.8023,24.7711 38.9403,24.4771 39.1603,24.2111 C39.5233,23.7721 39.9253,23.5401 40.3653,23.5161 C40.8053,23.4911 41.2423,23.6571 41.6743,24.0151 Z M97.3139,21.4111 C97.9359,21.3901 98.4739,21.6151 98.9279,22.0861 C99.3869,22.5611 99.5919,23.1111 99.5439,23.7371 C99.4959,24.3621 99.1739,24.9631 98.5759,25.5401 C97.9949,26.1001 97.3869,26.3961 96.7519,26.4281 C96.1169,26.4591 95.5719,26.2371 95.1149,25.7651 C94.6609,25.2941 94.4609,24.7431 94.5149,24.1111 C94.5679,23.4801 94.8869,22.8841 95.4709,22.3211 C96.0769,21.7351 96.6909,21.4331 97.3139,21.4111 Z M97.3369,22.0261 C96.8759,22.0411 96.3979,22.2881 95.9009,22.7671 C95.4089,23.2421 95.1509,23.7161 95.1279,24.1881 C95.1049,24.6611 95.2409,25.0511 95.5369,25.3571 C95.8349,25.6671 96.2219,25.8181 96.6959,25.8131 C97.1699,25.8081 97.6529,25.5681 98.1459,25.0941 C98.6329,24.6231 98.8959,24.1571 98.9359,23.6971 C98.9749,23.2361 98.8299,22.8361 98.5029,22.4961 C98.1869,22.1681 97.7979,22.0121 97.3369,22.0261 Z M41.5217,20.1297 L42.3307,20.9767 L42.9457,20.3897 C43.0937,20.2477 43.2347,20.2457 43.3677,20.3857 C43.4947,20.5197 43.4857,20.6567 43.3367,20.7987 L42.7227,21.3857 L44.9227,23.6877 C45.1207,23.8947 45.3047,24.0157 45.4747,24.0517 C45.6447,24.0877 45.8007,24.0367 45.9447,23.8997 C46.0007,23.8457 46.0437,23.7937 46.0737,23.7447 C46.1037,23.6967 46.1447,23.6047 46.1957,23.4707 C46.2127,23.4317 46.2337,23.3997 46.2597,23.3747 C46.3067,23.3297 46.3687,23.3117 46.4467,23.3187 C46.5227,23.3257 46.5867,23.3577 46.6387,23.4107 C46.7197,23.4957 46.7307,23.6317 46.6707,23.8197 C46.6117,24.0067 46.4997,24.1797 46.3347,24.3367 C46.0297,24.6287 45.7297,24.7557 45.4357,24.7167 C45.1417,24.6787 44.8327,24.4897 44.5087,24.1517 L42.2747,21.8147 L41.8687,22.2027 C41.7207,22.3447 41.5817,22.3487 41.4537,22.2147 C41.3217,22.0747 41.3287,21.9357 41.4777,21.7937 L41.8827,21.4057 L41.0737,20.5587 C40.9337,20.4127 40.9387,20.2687 41.0857,20.1267 C41.2377,19.9837 41.3817,19.9847 41.5217,20.1297 Z M95.0719,18.5734 C95.4329,18.8564 95.6819,19.1734 95.8179,19.5244 C95.9539,19.8754 95.9739,20.1124 95.8779,20.2354 C95.8269,20.2994 95.7599,20.3384 95.6759,20.3494 C95.5919,20.3624 95.5179,20.3434 95.4529,20.2944 C95.4069,20.2564 95.3629,20.1654 95.3219,20.0174 C95.2499,19.7614 95.1629,19.5614 95.0629,19.4164 C94.9609,19.2704 94.8379,19.1394 94.6909,19.0254 C94.2999,18.7174 93.8679,18.6154 93.3979,18.7174 C92.9269,18.8194 92.4959,19.1194 92.1069,19.6164 C91.7159,20.1124 91.5239,20.5984 91.5289,21.0754 C91.5339,21.5504 91.7329,21.9424 92.1249,22.2504 C92.4419,22.4994 92.8309,22.6264 93.2909,22.6314 C93.4459,22.6324 93.5479,22.6534 93.5969,22.6914 C93.6629,22.7434 93.6969,22.8124 93.6969,22.8994 C93.6969,22.9864 93.6739,23.0594 93.6279,23.1184 C93.5309,23.2414 93.2789,23.2694 92.8729,23.2034 C92.4659,23.1354 92.0909,22.9674 91.7479,22.6984 C91.2179,22.2824 90.9409,21.7574 90.9159,21.1244 C90.8919,20.4914 91.1259,19.8604 91.6179,19.2334 C92.1099,18.6054 92.6779,18.2354 93.3179,18.1224 C93.9599,18.0084 94.5439,18.1594 95.0719,18.5734 Z M47.3027,17.5276 C47.8297,17.6436 48.3037,17.9756 48.7217,18.5246 C48.8337,18.6716 48.8867,18.8096 48.8797,18.9376 C48.8727,19.0656 48.8117,19.1736 48.6957,19.2626 L46.2127,21.1536 C46.5427,21.5856 46.9387,21.8476 47.3997,21.9376 C47.8617,22.0286 48.2847,21.9266 48.6667,21.6346 C48.8297,21.5106 48.9757,21.3586 49.1037,21.1766 C49.2317,20.9956 49.3257,20.8186 49.3857,20.6456 C49.4277,20.5276 49.4677,20.4546 49.5067,20.4246 C49.5687,20.3766 49.6417,20.3646 49.7257,20.3856 C49.8107,20.4086 49.8757,20.4506 49.9227,20.5116 C50.0117,20.6286 49.9677,20.8596 49.7897,21.2036 C49.6127,21.5466 49.3537,21.8486 49.0147,22.1076 C48.4577,22.5316 47.8727,22.6796 47.2607,22.5526 C46.6487,22.4256 46.1037,22.0496 45.6257,21.4226 C45.1527,20.8016 44.9217,20.1656 44.9347,19.5156 C44.9477,18.8666 45.2287,18.3306 45.7807,17.9116 C46.2667,17.5396 46.7747,17.4126 47.3027,17.5276 Z M89.4019,19.8267 C89.5179,19.8997 89.5889,20.0017 89.6169,20.1327 C89.6459,20.2627 89.6229,20.3857 89.5489,20.5007 C89.4799,20.6077 89.3789,20.6747 89.2459,20.7037 C89.1129,20.7327 88.9909,20.7107 88.8789,20.6387 C88.7619,20.5627 88.6889,20.4597 88.6599,20.3287 C88.6319,20.1987 88.6529,20.0777 88.7239,19.9687 C88.7959,19.8577 88.8979,19.7857 89.0289,19.7567 C89.1599,19.7267 89.2849,19.7497 89.4019,19.8267 Z M46.1227,18.3926 C45.7677,18.6636 45.5697,19.0056 45.5257,19.4216 C45.4827,19.8366 45.5997,20.2566 45.8767,20.6796 L48.2227,18.8926 C47.9227,18.4986 47.5817,18.2526 47.2017,18.1536 C46.8217,18.0546 46.4617,18.1336 46.1227,18.3926 Z M48.1334,13.8979 L51.7744,19.7979 C51.8784,19.9679 51.8414,20.1069 51.6654,20.2159 C51.4904,20.3229 51.3504,20.2929 51.2464,20.1239 L47.6054,14.2229 C47.5024,14.0539 47.5374,13.9159 47.7114,13.8079 C47.8884,13.6979 48.0294,13.7289 48.1334,13.8979 Z M90.7405,12.8585 C90.9195,12.9495 90.9645,13.0845 90.8755,13.2605 L87.7375,19.4325 C87.6445,19.6165 87.5075,19.6615 87.3285,19.5705 C87.1395,19.4735 87.0915,19.3345 87.1845,19.1525 L87.3625,18.8035 C87.1225,18.9525 86.8555,19.0275 86.5625,19.0305 C86.2685,19.0325 85.9885,18.9655 85.7215,18.8305 C85.1035,18.5155 84.7285,18.0655 84.5945,17.4795 C84.4615,16.8935 84.5825,16.2345 84.9535,15.5035 C85.3175,14.7875 85.7895,14.2995 86.3675,14.0425 C86.9455,13.7845 87.5305,13.8065 88.1225,14.1075 C88.3985,14.2475 88.6185,14.4345 88.7815,14.6695 C88.9455,14.9045 89.0385,15.1675 89.0615,15.4605 L90.3225,12.9795 C90.4125,12.8025 90.5515,12.7615 90.7405,12.8585 Z M59.84,11.7638 C60.345,12.0838 60.721,12.6368 60.966,13.4228 C61.211,14.2088 61.216,14.8948 60.98,15.4778 C60.744,16.0608 60.306,16.4518 59.666,16.6518 C59.361,16.7468 59.076,16.7688 58.809,16.7168 C58.542,16.6648 58.294,16.5388 58.064,16.3378 L58.806,18.7158 C58.865,18.9048 58.792,19.0308 58.587,19.0958 C58.397,19.1538 58.272,19.0898 58.214,18.9008 L56.239,12.5698 C56.178,12.3708 56.241,12.2418 56.431,12.1828 C56.636,12.1188 56.77,12.1868 56.831,12.3848 L56.942,12.7388 C57.009,12.4728 57.146,12.2378 57.351,12.0338 C57.557,11.8298 57.806,11.6828 58.098,11.5918 C58.754,11.3868 59.334,11.4438 59.84,11.7638 Z M54.2716,13.7241 C54.8506,13.9651 55.3206,14.4591 55.6826,15.2061 C56.0346,15.9321 56.1246,16.6021 55.9566,17.2151 C55.7886,17.8281 55.4096,18.2781 54.8176,18.5641 C54.2276,18.8481 53.6426,18.8671 53.0596,18.6201 C52.4766,18.3721 52.0086,17.8831 51.6566,17.1531 C51.2886,16.3941 51.1926,15.7161 51.3666,15.1191 C51.5396,14.5211 51.9206,14.0801 52.5096,13.7951 C53.1046,13.5071 53.6926,13.4831 54.2716,13.7241 Z M86.5865,14.6325 C86.1515,14.8405 85.7915,15.2245 85.5055,15.7845 C85.2105,16.3655 85.1085,16.8755 85.1965,17.3145 C85.2855,17.7535 85.5485,18.0845 85.9875,18.3075 C86.3615,18.4985 86.7385,18.5225 87.1175,18.3805 C87.4955,18.2395 87.7895,17.9635 87.9975,17.5545 L88.4375,16.6885 C88.6465,16.2765 88.6955,15.8785 88.5835,15.4955 C88.4715,15.1115 88.2285,14.8245 87.8545,14.6335 C87.4455,14.4255 87.0225,14.4255 86.5865,14.6325 Z M52.7676,14.3271 C52.3576,14.5251 52.0866,14.8461 51.9576,15.2881 C51.8286,15.7301 51.9136,16.2621 52.2136,16.8841 C52.5116,17.4991 52.8816,17.8911 53.3236,18.0601 C53.7656,18.2301 54.1776,18.2231 54.5616,18.0371 C54.9486,17.8491 55.2136,17.5301 55.3566,17.0771 C55.4986,16.6251 55.4216,16.0911 55.1236,15.4751 C54.8296,14.8661 54.4686,14.4711 54.0426,14.2901 C53.6176,14.1091 53.1926,14.1211 52.7676,14.3271 Z M81.0536,11.3736 C81.2546,11.4406 81.3226,11.5736 81.2556,11.7706 L80.3136,14.6066 C80.1856,14.9926 80.1826,15.3336 80.3046,15.6316 C80.4266,15.9296 80.6686,16.1396 81.0306,16.2596 C81.4846,16.4106 81.8926,16.3766 82.2546,16.1596 C82.6176,15.9416 82.8806,15.5826 83.0466,15.0816 L83.8606,12.6356 C83.9256,12.4386 84.0566,12.3716 84.2506,12.4366 C84.4486,12.5016 84.5146,12.6336 84.4496,12.8306 L83.0166,17.1406 C82.9526,17.3346 82.8216,17.3996 82.6226,17.3336 C82.4286,17.2696 82.3636,17.1396 82.4286,16.9456 L82.5956,16.4406 C82.3306,16.6706 82.0446,16.8156 81.7396,16.8726 C81.4336,16.9306 81.1086,16.9026 80.7616,16.7876 C80.2376,16.6136 79.8846,16.3176 79.7056,15.9016 C79.5276,15.4856 79.5296,15.0006 79.7126,14.4476 L80.6676,11.5756 C80.7336,11.3766 80.8626,11.3106 81.0536,11.3736 Z M58.273,12.1548 C57.866,12.2818 57.578,12.5248 57.408,12.8828 C57.239,13.2408 57.221,13.6348 57.355,14.0638 L57.658,15.0368 C57.795,15.4758 58.035,15.7918 58.379,15.9858 C58.723,16.1818 59.097,16.2158 59.501,16.0898 C59.948,15.9498 60.254,15.6548 60.417,15.2048 C60.58,14.7558 60.565,14.2228 60.374,13.6078 C60.186,13.0048 59.906,12.5748 59.534,12.3188 C59.163,12.0638 58.743,12.0088 58.273,12.1548 Z M76.9204,10.3936 C77.5714,10.5066 78.0614,10.8306 78.3914,11.3636 C78.7214,11.8966 78.8164,12.5726 78.6734,13.3896 C78.5364,14.1856 78.2194,14.7836 77.7254,15.1826 C77.2314,15.5826 76.6614,15.7266 76.0124,15.6136 C75.3684,15.5016 74.8814,15.1746 74.5524,14.6336 C74.2234,14.0926 74.1294,13.4226 74.2674,12.6236 C74.4124,11.7936 74.7284,11.1866 75.2184,10.8016 C75.7084,10.4176 76.2754,10.2826 76.9204,10.3936 Z M65.3429,10.6559 C65.7529,11.0089 66.0119,11.5249 66.1199,12.2069 C66.1489,12.3909 66.1299,12.5369 66.0639,12.6469 C65.9969,12.7559 65.8909,12.8209 65.7459,12.8449 L62.6649,13.3329 C62.7499,13.8699 62.9739,14.2869 63.3379,14.5859 C63.7009,14.8839 64.1209,14.9949 64.5969,14.9199 C64.7999,14.8879 64.9999,14.8219 65.1979,14.7239 C65.3979,14.6249 65.5639,14.5139 65.6989,14.3899 C65.7909,14.3059 65.8609,14.2599 65.9099,14.2519 C65.9869,14.2399 66.0579,14.2639 66.1209,14.3219 C66.1849,14.3819 66.2229,14.4499 66.2349,14.5269 C66.2579,14.6719 66.1099,14.8539 65.7899,15.0719 C65.4709,15.2909 65.0999,15.4339 64.6789,15.4999 C63.9869,15.6099 63.4019,15.4639 62.9239,15.0619 C62.4439,14.6599 62.1439,14.0689 62.0209,13.2919 C61.8989,12.5199 61.9959,11.8509 62.3159,11.2839 C62.6349,10.7189 63.1369,10.3809 63.8209,10.2729 C64.4259,10.1769 64.9329,10.3049 65.3429,10.6559 Z M73.0241,7.6068 C73.2321,7.6208 73.3301,7.7278 73.3151,7.9248 L72.8281,14.8418 C72.8141,15.0398 72.7031,15.1318 72.4951,15.1168 C72.2911,15.1028 72.1951,14.9958 72.2091,14.7978 L72.6971,7.8818 C72.7111,7.6838 72.8201,7.5918 73.0241,7.6068 Z M69.4421,9.8032 C69.9011,9.7922 70.2951,9.8802 70.6231,10.0642 C70.9511,10.2492 71.1171,10.4202 71.1201,10.5762 C71.1221,10.6572 71.0951,10.7292 71.0371,10.7932 C70.9801,10.8562 70.9111,10.8882 70.8291,10.8902 C70.7701,10.8912 70.6791,10.8472 70.5531,10.7602 C70.3351,10.6082 70.1411,10.5082 69.9701,10.4602 C69.8001,10.4122 69.6221,10.3892 69.4361,10.3932 C68.9381,10.4042 68.5401,10.5982 68.2401,10.9762 C67.9411,11.3542 67.7991,11.8592 67.8121,12.4902 C67.8261,13.1222 67.9861,13.6202 68.2921,13.9842 C68.5991,14.3482 69.0001,14.5252 69.4981,14.5142 C69.9011,14.5062 70.2831,14.3572 70.6411,14.0692 C70.7631,13.9722 70.8541,13.9232 70.9161,13.9212 C71.0011,13.9192 71.0701,13.9522 71.1261,14.0192 C71.1811,14.0862 71.2101,14.1572 71.2111,14.2322 C71.2151,14.3892 71.0381,14.5702 70.6811,14.7762 C70.3241,14.9822 69.9281,15.0912 69.4921,15.1002 C68.8181,15.1152 68.2701,14.8862 67.8501,14.4122 C67.4301,13.9372 67.2101,13.3022 67.1921,12.5042 C67.1751,11.7072 67.3781,11.0612 67.8021,10.5662 C68.2251,10.0722 68.7721,9.8172 69.4421,9.8032 Z M75.6004,11.2856 C75.2374,11.5686 74.9974,12.0506 74.8794,12.7306 C74.7614,13.4046 74.8334,13.9386 75.0924,14.3336 C75.3534,14.7296 75.6934,14.9626 76.1134,15.0366 C76.5374,15.1106 76.9384,15.0046 77.3184,14.7206 C77.6984,14.4366 77.9464,13.9566 78.0634,13.2846 C78.1784,12.6166 78.1174,12.0856 77.8774,11.6906 C77.6364,11.2946 77.2844,11.0566 76.8184,10.9766 C76.3704,10.8986 75.9644,11.0006 75.6004,11.2856 Z M63.8949,10.8589 C63.4539,10.9289 63.1159,11.1369 62.8809,11.4819 C62.6459,11.8269 62.5499,12.2519 62.5929,12.7559 L65.5059,12.2949 C65.4289,11.8059 65.2459,11.4279 64.9579,11.1599 C64.6699,10.8929 64.3159,10.7919 63.8949,10.8589 Z" id=""></path>
        </g>
        <g id="Line" transform="translate(0.000000, 34.000000)"></g>
        <g id="icon/S/Photo/MarkYes" transform="translate(62.000000, 28.000000)" fill="#0FC484">
            <path d="M7.61327046,8.38672954 L12.6464466,3.35355339 C12.8417088,3.15829124 13.1582912,3.15829124 13.3535534,3.35355339 L13.6933648,3.69336477 C13.8693107,3.86931075 13.8891065,4.14785801 13.7398114,4.34691816 L8.6,11.2 C8.22229124,11.7036117 7.62951461,12 7,12 L6.96124969,12 C6.35368225,12 5.77905645,11.7238206 5.39951208,11.2493901 L2.2795644,7.3494555 C2.12040796,7.15050995 2.13629256,6.86370744 2.31644541,6.68355459 L2.69336477,6.30663523 C2.86931075,6.13068925 3.14785801,6.11089351 3.34691816,6.26018862 L6.30616368,8.47962276 C6.70428398,8.77821298 7.2613785,8.7386215 7.61327046,8.38672954 Z" id="Path"></path>
        </g>
    </g>
</svg>