<?xml version="1.0" encoding="utf-8"?>
<!-- Generator: Adobe Illustrator 24.0.1, SVG Export Plug-In . SVG Version: 6.00 Build 0)  -->
<svg version="1.1" id="图层_1" xmlns="http://www.w3.org/2000/svg" xmlns:xlink="http://www.w3.org/1999/xlink" x="0px" y="0px"
	 viewBox="0 0 83 56" style="enable-background:new 0 0 83 56;" xml:space="preserve">
<style type="text/css">
	.st0{fill-rule:evenodd;clip-rule:evenodd;fill:#B5B6B9;fill-opacity:8.156687e-02;}
	.st1{fill-rule:evenodd;clip-rule:evenodd;fill:#B5B6B9;}
	.st2{enable-background:new    ;}
	.st3{fill:#B5B6B9;}
</style>
<title>编组 5备份 2</title>
<g id="控件">
	<g id="编组-17" transform="translate(0.176112, 0.155362)">
		<polygon id="路径-2" class="st0" points="0.9,26.3 10.7,53.5 12.7,54.2 81,29.7 69.8,0 		"/>
		<g id="编组" transform="translate(0.714283, 0.000000)">
			<path id="Fill-1" class="st1" d="M13.2,52.8c0.4-0.5,1-0.7,1.6-0.5L13.9,53c-0.1,0.6-0.8,0.6-1.1,1l-0.2,0.4
				c-0.5-0.1-1-0.4-1.5-0.7c-0.3,0.1-0.6,0.5-1.3,0l1.5-0.4l1.1-0.2L13.2,52.8z M53.2,38.3c0.3-0.1,0.7-0.3,1-0.2
				c0.4,0.2-0.1,0.5-0.1,0.8c0,0.1,0.1,0.1,0.1,0.2c0.5,0,0.8-0.6,1.5-0.2c-0.4,0.5-1,0.7-1.7,0.6c-0.6,0.4-1.2,0.8-2,0.8
				c-0.2,0.2-0.4,0.3-0.8,0.4c-0.5,0.3-0.7-0.2-1-0.4c-0.7,1.3-0.7,1.3-1.7,0.9c-0.9-0.3,0.3,1-0.6,0.8c-0.4-0.1-0.9,0.2-1.3,0.2
				c-1.6,0.9-3.3,1.5-5,1.9c-2.8,1,4.3-1.3,1.5-0.2c-0.1,0.1-0.3,0-0.5,0l-0.4,0.3c-0.5,0.5-1,0.8-1.6,0.3l0,0
				c-0.5,0.7-1.2,1-1.9,1.2l-0.4,0.1c-0.2,0.1-0.4,0.1-0.6,0.2c-0.4,0.2-0.6-0.1-0.5-0.5c-0.5-0.9-1-0.1-1.1,0.1
				c-0.4,1.7-1.6,1.5-2.7,1.3c-0.8-0.2-1.4,0.7-2.2,0.3c-0.6,0-0.2,0.9-0.8,0.9c-0.5,0.4-1,0.9-1.8,0.8l-0.8,0.3
				c-1,0.8-2.3,0.8-3.4,1.2c-0.7,0.4-1.5,0.7-2.3,0.9l-0.6,0.3c-0.3-0.5,0.2-0.5,0.5-0.7l0,0c-0.1-0.4-0.2-0.7-0.7-0.6l-0.3,0.1
				c-0.1,0.1-0.2,0.2-0.3,0.2c0,0,0,0-0.1,0c0,0.2-0.1,0.4-0.3,0.5c-0.2,0.6-0.8,0.9-1.3,1.1l0,0.1l-0.6,0.1l0,0l-0.5,0.2
				c-0.3,0.2-0.7,0.4-1,0.4c-0.8,0.4-1.2,0-1.5-0.6c0.1-0.3,0.3-0.7,0.6-0.2c0.3,0.5,0.6,0.5,1,0.2c0.2-0.3,0.4-0.6,0.8-0.3l0.8-0.3
				l-0.2-0.4c-0.3-0.1-0.8-0.4-0.2-0.6c1-0.4,1.9-1,3-0.8c0.7-0.7,1.1,0.1,1.6,0.3c0.1-0.1,0.1-0.2,0.1-0.3l0-0.2
				c0-0.2,0.1-0.4,0.5-0.4c1.3-1,2.9-1.4,4.4-1.9c0.6-0.6,1.3-0.2,2-0.1l0,0c0.4-0.6,1.2-0.6,1.6-1.2l0.3-0.1
				c0.6-0.3,1.2-0.6,1.9-0.5c0.6-0.8,1.5-0.8,2.3-1.1c1.7-0.6,3.4-1.2,5.1-1.8c0.7-0.2,1.8,0.6,2.1-0.7c3.9-1.4-2.2,0.6,1.7-0.7
				c0.1,0,0.2,0.1,0.4,0.1l0.7,0.3l0.8-0.3c-0.4-1.1,0.1-1.2,0.7-1.3l0.2,0c0.2,0,0.5,0,0.7-0.1c0.8,0.1,1.3-1,2.2-0.5
				c0.1,0,0.1,0.1,0.1,0.2l0.5-0.1l0.5-0.4c0.1-0.3,0.2-0.6,0.5-0.5l0.1-0.1c0.1,0.1,0.1,0.1,0.1,0.2l0.1,0
				C52.5,39.3,52.6,38.1,53.2,38.3L53.2,38.3z M10.1,51.9c0.2-0.1,0.5-0.2,0.6,0.1c0.1,0.3-0.1,0.5-0.3,0.6c-0.3,0.1-0.5,0-0.6-0.2
				C9.7,52.2,9.9,52,10.1,51.9L10.1,51.9z M6.9,42.1c0.1-0.2,0.3-0.6,0.5-0.2c0.3,0.6,0.7,1.2,0.4,1.9l2.4,5.9
				c0.2,1.1,0,1.3-0.9,1.4c-0.5-0.5-0.8-1.1-1-1.7C7.6,47.2,6.8,45,6,42.7C6.1,42.2,6.7,42.4,6.9,42.1L6.9,42.1z M13.9,50.8
				c0.4-0.7,1-0.5,1.5-0.4C15,50.8,14.4,51,13.9,50.8L13.9,50.8z M16.7,49.5l0.2,0c0,0.1,0.1,0.2,0.1,0.2c-0.3,0.4-0.6,0.6-1.1,0.2
				c0.3-0.3,0.7-0.5,1.1-0.4L16.7,49.5z M17.6,49.4c0.6-0.6,1.2-0.7,2.2-0.5C19,49.2,18.5,49.8,17.6,49.4L17.6,49.4z M20.2,48.2
				c0.1,0,0.2,0,0.4,0c-0.1,0.2-0.2,0.3-0.3,0.4c-0.1,0-0.2-0.1-0.3-0.1C20.1,48.4,20.1,48.3,20.2,48.2L20.2,48.2z M34.1,43.5
				c0.6-0.5,1.4-0.6,2-0.2l-1.9,0.7l-3.4,1.3l-0.3,0.1c-0.4,0.2-0.9,0.3-1.3,0.3C29,46,28.5,46,28,46.2c-1.5,0.5-2.9,1.3-4.8,1.2
				l0.1,0c-0.4,0.5-1,0.7-1.6,0.8c-0.1,0-0.1-0.2-0.2-0.3l1.9-0.9c0,0.1,0,0.2,0,0.3c0.4-0.4,0.9-0.7,1.5-0.8
				c0.3-0.2,0.7-0.3,1.1-0.2l0.5-0.2c0.4-0.8,1.5-0.4,2-1c0.7-0.1,1.3-0.5,2-0.4c0.2-0.3,0.6-0.5,1-0.4c0.4-0.5,1-0.5,1.6-0.6
				c0.1,0,0.2,0,0.2-0.1l0.1-0.1c0.1-0.1,0.2-0.1,0.4-0.1C33.9,43.5,34,43.5,34.1,43.5L34.1,43.5z M37.8,42.1c0.3-0.1,0.7-0.4,1,0
				c0.1,0.2-0.2,0.3-0.4,0.3c-0.1,0-0.1,0.1-0.2,0.1L38,42.6c-0.3,0.2-0.7,0.3-1.1,0C37,42.2,37.5,42.3,37.8,42.1L37.8,42.1z
				 M42.1,40.5c0.5-0.3,1.1-0.5,1.8-0.1l-2.8,1l-1,0.4c-0.3,0-0.7,0.5-0.8,0c-0.1-0.4,0.5-0.4,0.8-0.5L41,41c0.3,0,0.6-0.2,0.9-0.3
				L42.1,40.5z M5,23.2c0.9,1,0.9,1-0.3,1.5c-3,1.2-3.1,1.2-2,4.2c1.3,3.6,2.6,7.2,3.9,10.8c0.2,0.5,0.6,1.1-0.3,1.4
				c-1,0.4-0.9-0.5-1.1-0.8c-1.2-2.9-2.2-5.9-3.1-9c-0.4-1.5-1.1-2.9-1.6-4.3c-0.2-0.6-0.7-1.2-0.3-2c0.1-0.7,0.6-0.8,1-0.8l0.2,0
				c0.2,0,0.4,0,0.5-0.1c0.8-0.3,1.5-1.1,2.6-0.3c0.3,0.2,0.4,0,0.4-0.2l0-0.1C4.9,23.4,4.9,23.2,5,23.2L5,23.2z M46.6,39
				c0,0.8-0.6,0.6-0.9,0.8c-0.2,0.2-0.5,0.3-0.7,0.1s0.1-0.4,0.3-0.4L46.6,39z M6.6,34.2c1.2,1.5,1.5,3.4,2,5.1
				C7.5,37.7,7.1,35.9,6.6,34.2L6.6,34.2z M42,40.8l5.4-1.7C48.7,38.1,40.4,40.8,42,40.8L42,40.8z M44.9,39.3
				c0.5-0.2,0.9-0.5,1.6-0.4c-0.4,0.6-1,0.7-1.5,0.8l-1,0.3c-0.3,0.2-0.6,0.5-0.9,0.1c-0.2-0.2,0.2-0.4,0.5-0.5L44.9,39.3z
				 M42.4,38.9c0.2-0.1,0.4-0.3,0.6,0.1c-0.1,0.1-0.1,0.3-0.2,0.4c-0.2,0.1-0.5,0.1-0.6-0.1C42,39,42.3,39,42.4,38.9L42.4,38.9z
				 M75.8,30.8c0.1,0.4,0.5,0.7,0.1,1.2c-0.3,0.2-0.7,0.3-1.1,0.1c-1.2,0.7-2.5,1.1-3.8,1.4c-0.8,0.1-1.4,0.6-2.2,0.9
				c-1,0.4-2,0.5-3,0.4c-0.1,0.1-0.1,0.3-0.2,0.4c0,0.9-0.4,0.5-0.8,0.3l-0.5,0.2c0,0.1-0.1,0.1-0.2,0.1l0,0c0,0.2-0.2,0.3-0.5,0.4
				c-2.4,0.8-4.8,1.6-7.2,2.5c-0.7,0.3-1.1,0.2-1.2-0.6c-0.2,0-0.6,0.1-0.6-0.1c0-0.5,0.5-0.1,0.7-0.2c0.8-0.8,1.9-0.9,2.9-1.3
				c1.1-0.5,2.3-0.8,3.5-1.3C62.1,35,62.5,35,63,35c0-0.2,0.2-0.2,0.3-0.2l0.1,0c0.1,0,0.2,0,0.3-0.1c0.5-0.3,0.9-1.2,1.7-0.4
				c0.1,0,0.2,0.1,0.2,0.2c1.2-1.3,2.9-1.6,4.5-2c1.1-0.3,2.1-0.8,3.1-1.3c0.5-0.2,1.1-0.5,1.6,0.1c0.2,0.3,0.4,0.5,0.7,0.3
				C75.6,31.4,75.5,31.1,75.8,30.8L75.8,30.8z M48,38.4c0.7-0.7,1.3-0.8,2.1-0.6C49.4,38.3,48.7,38.5,48,38.4L48,38.4z M53.5,36.3
				c-0.3,0.7-0.7,0.6-1.1,0.7C52.6,36.5,53,36.3,53.5,36.3L53.5,36.3z M13.5,22.9c0.3-0.1,0.7-0.5,1-0.1c0.3,0.4-0.3,0.4-0.5,0.6
				l-1.3,0.5l-2.1,0.8c-1,0-1.7,0.8-2.6,0.9L6.4,26c-0.5,0.6-1.3,0.1-1.8,0.7c-0.1,0.1-0.1,0.2-0.2,0.3l0.5,1.3
				c0.5,0.4,0.7,1,0.6,1.6l1.2,3.2c-1.1-0.6-1.2-1.8-1.6-2.8c0-0.1,0-0.1,0-0.2l0,0.2c-0.3-1.3-1.2-2.4-1.1-3.7
				c0-0.2,0.2-0.4,0.4-0.4l1.8-0.7c0.5-0.3,1.1-0.4,1.6-0.4c0.7-0.6,1.7-1,2.6-1c0.6-0.5,1.3-0.7,2.1-0.8L13.5,22.9z M60.3,34
				c0.3-0.1,0.4-0.6,0.7-0.2c0.2,0.3,0,0.5-0.3,0.6L58.9,35c-0.4-0.1-0.7,0.3-1,0.4c-0.6,0.2-1.2,0.5-1.8,0.7
				c-0.3,0.1-0.6,0-0.7-0.3c-0.1-0.3,0.2-0.3,0.4-0.4c0.4-0.2,0.8-0.4,1.3-0.5c0.5-0.2,1.1-0.4,1.6-0.3L60.3,34z M65.7,32.1
				c0.4-0.3,0.7-0.5,1.5-0.4c-0.4,0.5-1.1,0.8-1.7,0.7c-0.2,0.2-0.3,0.4-0.6,0.3c-0.5,0.3-1.1,0.5-1.7,0.5c0.1-0.5,0.4-0.6,0.7-0.7
				l0.2,0c0.1,0,0.3-0.1,0.4-0.1c0.5,0,0.9-0.6,1.4-0.2L65.7,32.1z M77.1,31.1c0.1,0,0.2,0,0.4,0.1c-0.1,0.2-0.1,0.3-0.2,0.4
				c-0.1,0.1-0.3,0.1-0.4,0c0-0.1-0.1-0.2,0-0.3C77,31.2,77,31.1,77.1,31.1L77.1,31.1z M71.7,30.4c0.5-0.8,1-1.1,1.9-1
				C73.1,29.9,72.4,30.2,71.7,30.4L71.7,30.4z M78.8,27.5c1.5-0.6,0.3,0.7,0.7,0.9c0.5-0.3,0.8,0,0.8,0.5c0,0.5-0.2,0.6-0.6,0.4
				c-0.3,0.2-0.4,0.5-0.8,0.4c-0.5-0.2-0.2-0.6-0.2-1C78.5,28.3,77.8,27.8,78.8,27.5L78.8,27.5z M76.3,28c0.1,0.1,0.2,0.3,0.1,0.4
				c-0.1,0.6-0.7,0.5-1.2,0.5L76.3,28z M44.7,8.6c0.9-0.4,2-0.4,2.9-1.1c0.9-0.1,1.5-0.8,2.4-1c0.2,0,0.4-0.1,0.6-0.1
				c0.2-0.1,0.3-0.2,0.6-0.2c0.5-0.1,0.9-0.1,0.9,0.6c0.7,0.6,0.7,0.6-0.6,1.1l0.1,0c0,0-0.1,0.1-0.1,0.1C51.4,8,51.2,8,51.1,8.1
				c-0.1,0.1-0.2,0.1-0.3,0.1L50,8.5c-3.4,1.5-6.9,2.7-10.5,3.8c-2.4,0.9-4.6,2-7.1,2.3l0,0c-1.7,1.3-3.8,1.5-5.7,2.3
				c-0.4,0.4-1-0.6-1.4,0.2l0,0c-0.1,0.1-0.2,0.2-0.4,0.3c-0.7,0.5-1.4,0.7-2.3,0.7c-2.5,1.1-5,2.1-7.6,2.8c-0.5,0.3-1,0.4-1.6,0.5
				c-1.1,0.4-2,1.2-3.3,0.9c-0.5-0.1-0.5,0.7-1.1,0.7c-0.6,0.3-1.2,0.5-1.8,0.7c-0.1,0-0.2,0.1-0.3,0.1L6.9,24
				c-0.3,0.1-0.6,0.2-0.8-0.2c-0.2-0.3-0.7-0.5-0.5-0.9c0.3-0.5,1-0.7,1.6-0.4l0.6,0.1l-0.2-0.4c0-0.3,0.2-0.3,0.4-0.3
				c1.1-0.9,2.4-1.1,3.8-1.3c1.3-0.3,2.5-1.3,4-1.1c0.2,0.1,0.4,0.2,0.5,0.2c1.8-1.9,4.3-2.1,6.6-2.8l0.5-0.2l0,0
				c0.5-0.5,1.2-0.7,1.9-0.9l0.4-0.1c0.1,0,0.3-0.1,0.4-0.1c1.9-0.6,3.6-1.6,5.6-1.8l0.3,0.1l0.7-0.5c2-1.2,4.2-1.6,6.3-2.4
				L44.7,8.6z M75.5,25.9c0.2-0.2,0.3,0.1,0.3,0.2c0,0.2,0,0.4-0.1,0.6c-0.2-0.1-0.3-0.2-0.3-0.3C75.4,26.3,75.4,26,75.5,25.9
				L75.5,25.9z M15.7,22.3c0.3-0.2,0.7-0.7,1-0.1c0.1,0.2-0.4,0.7-0.9,0.5c-0.2,0.1-0.4,0.4-0.7,0.2c-0.1,0-0.1-0.1-0.2-0.2
				c0-0.1,0-0.2,0.1-0.3c0.1-0.1,0.2-0.2,0.3-0.2S15.6,22.2,15.7,22.3L15.7,22.3z M75.7,20.7c-0.5-1.3-0.3-1.5,1.2-1.4
				c0.4,1,0.8,2.1,1.2,3.1c0.3,0.8-0.8,1.4-0.4,2.2c0.1,0.1,0.3,0.1,0.4,0.1c0.5,0,0.7,0.4,0.8,0.8c0,0.1-0.1,0.2-0.2,0.3
				c-0.5,0.2-0.6-0.4-0.9-0.4c-0.4-0.1-0.5-0.3-0.5-0.6c-1-0.6-0.7-1.7-1.2-2.6l-0.4-1L75.7,20.7z M21.6,20.5
				c-0.7,0.6-1.5,1-2.4,1.1c-0.3,0.1-0.6,0-0.8-0.2c0.4-0.3,0.8-0.5,1.3-0.2C20,20.2,21.1,21,21.6,20.5L21.6,20.5z M25.1,19.1
				c-0.4,0.5-1,0.6-1.4,0.7c-0.6,0.1-1,0.9-1.8,0.5c0.5-0.4,1.1-0.7,1.7-0.8C24.1,19.2,24.6,19.1,25.1,19.1L25.1,19.1z M47.4,11.4
				l-2.1,0.8l-3.9,1.4l-10.7,3.9c-0.5,0.1-0.9,0.5-1.7,0.3c0.6-0.5,1.3-0.8,2.1-1c0.1,0,0.2-0.1,0.3-0.1l0.2-0.1
				c0.3-0.2,0.7-0.3,1.1-0.1c1.6-0.9,3.3-1.5,4.9-2.1l1.4-0.5c0.7-0.3,1.4-0.5,2.2-0.8l3.9-1.4c0.7-0.2,1.4-0.6,2.2-0.6
				c0.2-0.5,0.6-0.5,1-0.5L47.4,11.4z M69.6,8.9c0.9,2.5,2,4.8,2.5,7.4l0.3,0.2c0.4,0.1,0.3,0.4,0.2,0.6c-0.1,0.7,0.4,1.4,0.6,2.3
				c-0.8-0.7-0.8-1.5-1.1-2.2L71.9,17l-0.7-0.3l0.5-0.3l-0.5-1.6l-0.5-1.3L69.1,9L69.6,8.9z M71.2,7.1C71.9,7,72.6,7.4,72.9,8
				c0.4,1.2,0.8,2.3,1.2,3.5c0.2,0.4,0.3,0.9,0.5,1.3l-0.1,0c0.5,1.5,1,3,1.7,4.5c0.3,0.7-0.1,0.9-0.5,1.1c-0.7,0.4-0.8-0.2-0.9-0.6
				c-1.1-3.2-2.3-6.4-3.4-9.6C71.2,8,70.5,7.3,71.2,7.1L71.2,7.1z M49.1,10.2c0.1-0.1,0.2-0.3,0.6,0.1c-0.1,0.1-0.2,0.2-0.3,0.3
				c-0.2,0.2-0.4,0.2-0.6-0.1C48.7,10.5,48.9,10.3,49.1,10.2L49.1,10.2z M50.3,9.6c0.1,0,0.2,0.1,0.3,0.2c0,0.1-0.1,0.2-0.1,0.4
				c-0.2-0.1-0.3-0.2-0.3-0.3C50,9.8,50.1,9.6,50.3,9.6L50.3,9.6z M54.4,8.4c0.1,0,0.2,0.1,0.4,0.1c-0.1,0.1-0.2,0.2-0.3,0.2
				c-0.1,0-0.2-0.1-0.3-0.1C54.3,8.6,54.3,8.4,54.4,8.4L54.4,8.4z M59.4,6.5c-0.6,0.7-1.3,1-2,1.3L56.8,8c-0.2,0.1-0.3,0.1-0.5,0.2
				c-0.1,0-0.2-0.1-0.2-0.2c0-0.1,0-0.2,0-0.3L59.4,6.5z M68.3,0.4C68.6,0,69-0.3,69.5,0.4L70,0.9l0.1,0.1c0.7,0.4,0.9,1,0.4,1.7
				c-0.2,0.3-0.2,0.7,0,1c0.4-0.1,0.7,0.1,0.7,0.6l-1.3-0.4c-0.6-0.4-0.8-1.1-0.7-1.7c-1-0.6-1.7,0.2-2.6,0.4
				c-0.3,0.1-0.6,0.2-0.8,0.3L65.4,3c-0.6,0.3-1.3,0.5-2,0.3L63,3.7C62,4.6,60.7,5,59.3,5c-0.2,0.1-0.4,0.2-0.6,0.2l-0.6,0.3
				c-0.5,0.2-1,0.4-1.5,0.4c-0.8,0.4-1.6,0.7-2.5,0.8c-0.6,0.1-1.1,0-1.3-0.6c-0.2,0.1-0.5,0.3-0.7,0c-0.2-0.2,0.1-0.4,0.3-0.5
				c0.7-0.1,1.2-0.7,1.9-0.5L55.2,5l0.5-0.2L56,4.7l2.6-0.8c-0.2-0.2-0.2-0.3,0-0.4c1.1-0.4,2.2-0.8,3.3-1.2c0.3-0.1,0.5,0,0.7,0.3
				c1-1,2.5-0.7,3.6-1.5c0.1,0,0.2-0.1,0.3-0.1l0.2-0.1c0.3-0.2,0.6-0.3,0.9,0c0.2,0,0.4-0.1,0.6-0.3L68.3,0.4z M65,4.7
				c0.9-0.4,1.6-1.3,2.7-0.6c0.6,0.5,0.6,1.3,0.9,2c0.1,0.3,0.4,0.7-0.1,0.7C68.1,6.9,68.1,6.3,68,6l-0.7-1.8
				c-0.2,0-0.4,0.1-0.7,0.2l-0.3,0.1C65.9,4.7,65.5,4.9,65,4.7L65,4.7z M62.9,5.2c-0.2,1-1,0.8-1.6,1.1c-0.3,0.1-0.8,0.6-1,0
				C60.2,6,60.8,6,61.2,5.9L62.9,5.2z M70.2,4.9c0.6-0.4,1.1-0.5,1.5,0.1c0.2,0.3,0.5,0.7,0.2,1c-0.4,0.3-0.5-0.2-0.7-0.4
				c-0.3-0.4-0.9,0-1.1-0.6l0,0L70.2,4.9z"/>
		</g>
		<g class="st2">
			<path class="st3" d="M27.9,43.6l0.6-0.2l0.1,0.4l-1.9,0.7l-0.1-0.4l0.6-0.2L25.7,40l-0.6,0.2L25,39.8l0.7-0.2
				c0.2-0.1,0.4-0.2,0.6-0.3c0.2-0.1,0.5-0.2,0.7-0.3c0.2-0.1,0.5-0.1,0.7-0.2c0.2,0,0.4,0,0.6,0c0.2,0,0.4,0.1,0.5,0.3
				c0.1,0.1,0.3,0.3,0.3,0.5c0.1,0.3,0.1,0.6,0,0.9c-0.1,0.3-0.3,0.5-0.6,0.7l1.9,1.2l0.4-0.1l0.1,0.4L30,43.2l-2-1.5L27.3,42
				L27.9,43.6z M27.7,41.5c0.3-0.1,0.6-0.3,0.7-0.6c0.1-0.3,0.1-0.5,0-0.9c-0.1-0.3-0.3-0.5-0.6-0.6c-0.3-0.1-0.6-0.1-0.9,0.1
				c-0.1,0-0.2,0.1-0.3,0.1c-0.1,0-0.1,0.1-0.2,0.1l0.7,1.9L27.7,41.5z"/>
			<path class="st3" d="M34,36.6l0.4,1.1l-0.4,0.2l-0.2-0.6l-0.2-0.1l-1.6,0.6l0.6,1.7l1.1-0.4l0.1-0.1l-0.1-0.3l0.4-0.2l0.4,1.1
				L34,39.7l-0.1-0.3l-0.1-0.1l-1.1,0.4l0.7,1.8l1.7-0.6l0.1-0.2l-0.2-0.6l0.4-0.2l0.4,1.1l-3.6,1.3L32,42.1l0.6-0.2L31.2,38
				l-0.6,0.2l-0.1-0.4L34,36.6z"/>
			<path class="st3" d="M37.5,41.3c0.1-0.1,0.1-0.1,0.2-0.2s0.1-0.2,0.1-0.3c0-0.1,0-0.2,0-0.4s-0.1-0.4-0.2-0.6l-1.4-3.7l-0.5,0.2
				L35.6,36l1.9-0.7l0.1,0.4L37,35.9l1.3,3.7c0.1,0.3,0.2,0.6,0.2,0.8c0,0.2,0,0.4-0.1,0.6c-0.1,0.2-0.2,0.3-0.3,0.4
				s-0.2,0.2-0.3,0.3L37.5,41.3z"/>
			<path class="st3" d="M42.3,33.5l0.4,1.1l-0.4,0.2l-0.2-0.6l-0.2-0.1l-1.6,0.6l0.6,1.7L42,36l0.1-0.1L42,35.6l0.4-0.2l0.4,1.1
				l-0.4,0.2l-0.1-0.3l-0.1-0.1l-1.1,0.4l0.7,1.8l1.7-0.6l0.1-0.2l-0.2-0.6l0.4-0.2l0.4,1.1l-3.6,1.3L40.4,39l0.6-0.2l-1.4-3.9
				L39,35.2l-0.1-0.4L42.3,33.5z"/>
			<path class="st3" d="M48.7,35.1l0.4-0.2l0.4,1c-0.1,0.1-0.3,0.3-0.5,0.4c-0.2,0.1-0.4,0.2-0.6,0.3c-0.4,0.1-0.8,0.2-1.1,0.3
				c-0.4,0-0.7,0-1-0.1s-0.6-0.3-0.8-0.6c-0.2-0.3-0.4-0.6-0.6-1c-0.2-0.4-0.2-0.8-0.2-1.2c0-0.3,0.1-0.7,0.3-0.9
				c0.2-0.3,0.4-0.5,0.6-0.7c0.3-0.2,0.6-0.4,0.9-0.5c0.2-0.1,0.3-0.1,0.4-0.1c0.1,0,0.3-0.1,0.4-0.1c0.1,0,0.2,0,0.3,0
				c0.1,0,0.2,0,0.3,0l0.4,1.1L47.9,33l-0.3-0.7l-0.1-0.1c-0.1,0-0.1,0-0.3,0c-0.1,0-0.3,0.1-0.5,0.1c-0.2,0.1-0.4,0.2-0.6,0.4
				c-0.2,0.1-0.3,0.3-0.4,0.5c-0.1,0.2-0.1,0.5-0.1,0.7c0,0.3,0.1,0.6,0.2,0.9c0.2,0.6,0.6,1.1,1,1.3c0.4,0.2,0.9,0.2,1.5,0
				c0.2-0.1,0.3-0.1,0.4-0.2c0.1-0.1,0.2-0.1,0.2-0.2l0-0.2L48.7,35.1z"/>
			<path class="st3" d="M54.1,34.4L52,35.2l-0.1-0.4l0.7-0.2l-1.4-3.9L50,31.2l-0.1,0.2l0.3,0.8l-0.5,0.2L49.3,31l4.3-1.6l0.5,1.4
				L53.6,31l-0.3-0.8L53.1,30l-1.2,0.4l1.4,3.9l0.7-0.2L54.1,34.4z"/>
			<path class="st3" d="M58.2,27.7l0.4,1.1L58.2,29L58,28.4l-0.2-0.1l-1.6,0.6l0.6,1.7l1.1-0.4l0.1-0.1l-0.1-0.3l0.4-0.2l0.4,1.1
				l-0.4,0.2l-0.1-0.3l-0.1-0.1L57,31l0.7,1.8l1.7-0.6l0.1-0.2l-0.2-0.6l0.4-0.2l0.4,1.1l-3.6,1.3l-0.1-0.4l0.6-0.2l-1.4-3.9
				l-0.6,0.2L54.7,29L58.2,27.7z"/>
			<path class="st3" d="M61.5,31.8l-0.1-0.4l0.6-0.2l-1.4-3.9l-0.6,0.2l-0.1-0.4l0.8-0.3c0.1,0,0.2-0.1,0.3-0.1
				c0.1,0,0.2-0.1,0.3-0.1c0.1,0,0.2-0.1,0.3-0.1c0.1,0,0.2-0.1,0.3-0.1c0.4-0.1,0.8-0.2,1.1-0.2c0.3,0,0.7,0,0.9,0.2
				c0.3,0.1,0.5,0.3,0.7,0.5c0.2,0.2,0.4,0.5,0.5,0.9c0.1,0.4,0.2,0.7,0.2,1c0,0.3-0.1,0.6-0.2,0.9c-0.1,0.3-0.3,0.6-0.6,0.8
				c-0.3,0.2-0.7,0.5-1.1,0.6c-0.1,0-0.2,0.1-0.2,0.1c-0.1,0-0.2,0.1-0.3,0.1c-0.1,0-0.2,0.1-0.3,0.1c-0.1,0-0.2,0.1-0.3,0.1
				L61.5,31.8z M61.9,26.8c-0.1,0-0.2,0.1-0.4,0.1c-0.1,0-0.2,0.1-0.3,0.1l1.4,3.9c0,0,0.1,0,0.1,0c0.1,0,0.1,0,0.2-0.1
				c0.1,0,0.1,0,0.2-0.1c0.1,0,0.1,0,0.1,0c0.3-0.1,0.6-0.3,0.8-0.5c0.2-0.2,0.3-0.4,0.4-0.6c0.1-0.2,0.1-0.5,0-0.8
				s-0.1-0.5-0.2-0.8c-0.1-0.2-0.2-0.4-0.3-0.6c-0.1-0.2-0.3-0.4-0.5-0.5c-0.2-0.1-0.4-0.2-0.7-0.3C62.5,26.6,62.2,26.6,61.9,26.8z"
				/>
		</g>
		<g class="st2">
			<path class="st3" d="M16,25.4l10.2-3.7l2-0.7l0.5,1.3l1.6,4.5l0.5,1.3l-2,0.7l-8.2,3l1.7,4.8l10.2-3.7l0.1,0.4
				c-0.3,0.1-0.5,0.3-0.6,0.6C32,34,31.9,34.3,32,34.5l-9.1,3.3l0,0l-2,0.7l-2.2-6.1l-0.5-1.3l-0.8-2.1l2-0.7l0.8,2.1l8.2-3L26.7,23
				l-10.2,3.7L16,25.4z"/>
			<path class="st3" d="M31.6,19.8l5.4-2l0.6,1.6l0.7,4.4l-1.5,0.6L36,20l-3.8,1.4L31.6,19.8z M39.1,24l2.6,7L38,32.4
				c-0.1-0.3-0.3-0.5-0.6-0.6s-0.6-0.2-0.8-0.1l-0.2-0.5l3.2-1.2L38,26l-3.5,1.3L34,25.8l-0.8-4.4l1.6-0.6l0.8,4.4l1.9-0.7L39.1,24z
				 M34.8,28.4l3.3-1.2l0.5,1.5l-3.3,1.2L34.8,28.4z M39,22.7l1.8-3.5l-3.6-1.5l2.3-0.8l2.1,0.8l1.1-2l2.3-0.8l-1.8,3.5l3.6,1.5
				l-2.3,0.8l-2.1-0.9l-1,2L39,22.7z M45.7,25.1l4.2,2.9l-2.1,0.8L45.1,27l-0.8,3l-2.1,0.8l1.3-4.9L39.3,23l2.1-0.8L44,24l0.8-3
				l2.1-0.8L45.7,25.1z"/>
			<path class="st3" d="M47.8,14l2-0.7l0.3,0.8l0.3-1l10.9-4l4.7,13l-2,0.7l-0.1-0.3L54.5,26l0.1,0.3l-2,0.7L47.8,14z M54,24.6
				l9.4-3.4l-3.6-9.9l-9.4,3.4L54,24.6z M59.1,12.3l3.1,8.6l-1.7,0.6l-0.2-0.6l-4,1.5l0.2,0.6l-1.8,0.6L51.5,15l1.8-0.6l0.3,0.7
				l0.3-0.9L59.1,12.3z M57.8,14.3l-4,1.5l1.9,5.3l4-1.5L57.8,14.3z"/>
		</g>
	</g>
</g>
</svg>
