<?xml version="1.0" encoding="utf-8"?>
<!-- Generator: Adobe Illustrator 24.0.1, SVG Export Plug-In . SVG Version: 6.00 Build 0)  -->
<svg version="1.1" id="图层_1" xmlns="http://www.w3.org/2000/svg" xmlns:xlink="http://www.w3.org/1999/xlink" x="0px" y="0px"
	 viewBox="0 0 83 56" style="enable-background:new 0 0 83 56;" xml:space="preserve">
<style type="text/css">
	.st0{fill-rule:evenodd;clip-rule:evenodd;fill:#B5B6B9;fill-opacity:8.156687e-02;}
	.st1{fill-rule:evenodd;clip-rule:evenodd;fill:#B5B6B9;}
	.st2{enable-background:new    ;}
	.st3{fill:#B5B6B9;}
</style>
<title>编组 5备份 2</title>
<g id="控件">
	<g id="编组-17" transform="translate(0.176112, 0.155362)">
		<polygon id="路径-2" class="st0" points="0.9,26.3 10.7,53.5 12.7,54.2 81,29.7 69.8,0 		"/>
		<g id="编组" transform="translate(0.714283, 0.000000)">
			<path id="Fill-1" class="st1" d="M13.2,52.8c0.4-0.5,1-0.7,1.6-0.5L13.9,53c-0.1,0.6-0.8,0.6-1.1,1l-0.2,0.4
				c-0.5-0.1-1-0.4-1.5-0.7c-0.3,0.1-0.6,0.5-1.3,0l1.5-0.4l1.1-0.2L13.2,52.8z M53.2,38.3c0.3-0.1,0.7-0.3,1-0.2
				c0.4,0.2-0.1,0.5-0.1,0.8c0,0.1,0.1,0.1,0.1,0.2c0.5,0,0.8-0.6,1.5-0.2c-0.4,0.5-1,0.7-1.7,0.6c-0.6,0.4-1.2,0.8-2,0.8
				c-0.2,0.2-0.4,0.3-0.8,0.4c-0.5,0.3-0.7-0.2-1-0.4c-0.7,1.3-0.7,1.3-1.7,0.9c-0.9-0.3,0.3,1-0.6,0.8c-0.4-0.1-0.9,0.2-1.3,0.2
				c-1.6,0.9-3.3,1.5-5,1.9c-2.8,1,4.3-1.3,1.5-0.2c-0.1,0.1-0.3,0-0.5,0l-0.4,0.3c-0.5,0.5-1,0.8-1.6,0.3l0,0
				c-0.5,0.7-1.2,1-1.9,1.2l-0.4,0.1c-0.2,0.1-0.4,0.1-0.6,0.2c-0.4,0.2-0.6-0.1-0.5-0.5c-0.5-0.9-1-0.1-1.1,0.1
				c-0.4,1.7-1.6,1.5-2.7,1.3c-0.8-0.2-1.4,0.7-2.2,0.3c-0.6,0-0.2,0.9-0.8,0.9c-0.5,0.4-1,0.9-1.8,0.8l-0.8,0.3
				c-1,0.8-2.3,0.8-3.4,1.2c-0.7,0.4-1.5,0.7-2.3,0.9l-0.6,0.3c-0.3-0.5,0.2-0.5,0.5-0.7l0,0c-0.1-0.4-0.2-0.7-0.7-0.6l-0.3,0.1
				c-0.1,0.1-0.2,0.2-0.3,0.2c0,0,0,0-0.1,0c0,0.2-0.1,0.4-0.3,0.5c-0.2,0.6-0.8,0.9-1.3,1.1l0,0.1l-0.6,0.1l0,0l-0.5,0.2
				c-0.3,0.2-0.7,0.4-1,0.4c-0.8,0.4-1.2,0-1.5-0.6c0.1-0.3,0.3-0.7,0.6-0.2c0.3,0.5,0.6,0.5,1,0.2c0.2-0.3,0.4-0.6,0.8-0.3l0.8-0.3
				l-0.2-0.4c-0.3-0.1-0.8-0.4-0.2-0.6c1-0.4,1.9-1,3-0.8c0.7-0.7,1.1,0.1,1.6,0.3c0.1-0.1,0.1-0.2,0.1-0.3l0-0.2
				c0-0.2,0.1-0.4,0.5-0.4c1.3-1,2.9-1.4,4.4-1.9c0.6-0.6,1.3-0.2,2-0.1l0,0c0.4-0.6,1.2-0.6,1.6-1.2l0.3-0.1
				c0.6-0.3,1.2-0.6,1.9-0.5c0.6-0.8,1.5-0.8,2.3-1.1c1.7-0.6,3.4-1.2,5.1-1.8c0.7-0.2,1.8,0.6,2.1-0.7c3.9-1.4-2.2,0.6,1.7-0.7
				c0.1,0,0.2,0.1,0.4,0.1l0.7,0.3l0.8-0.3c-0.4-1.1,0.1-1.2,0.7-1.3l0.2,0c0.2,0,0.5,0,0.7-0.1c0.8,0.1,1.3-1,2.2-0.5
				c0.1,0,0.1,0.1,0.1,0.2l0.5-0.1l0.5-0.4c0.1-0.3,0.2-0.6,0.5-0.5l0.1-0.1c0.1,0.1,0.1,0.1,0.1,0.2l0.1,0
				C52.5,39.3,52.6,38.1,53.2,38.3L53.2,38.3z M10.1,51.9c0.2-0.1,0.5-0.2,0.6,0.1c0.1,0.3-0.1,0.5-0.3,0.6c-0.3,0.1-0.5,0-0.6-0.2
				C9.7,52.2,9.9,52,10.1,51.9L10.1,51.9z M6.9,42.1c0.1-0.2,0.3-0.6,0.5-0.2c0.3,0.6,0.7,1.2,0.4,1.9l2.4,5.9
				c0.2,1.1,0,1.3-0.9,1.4c-0.5-0.5-0.8-1.1-1-1.7C7.6,47.2,6.8,45,6,42.7C6.1,42.2,6.7,42.4,6.9,42.1L6.9,42.1z M13.9,50.8
				c0.4-0.7,1-0.5,1.5-0.4C15,50.8,14.4,51,13.9,50.8L13.9,50.8z M16.7,49.5l0.2,0c0,0.1,0.1,0.2,0.1,0.2c-0.3,0.4-0.6,0.6-1.1,0.2
				c0.3-0.3,0.7-0.5,1.1-0.4L16.7,49.5z M17.6,49.4c0.6-0.6,1.2-0.7,2.2-0.5C19,49.2,18.5,49.8,17.6,49.4L17.6,49.4z M20.2,48.2
				c0.1,0,0.2,0,0.4,0c-0.1,0.2-0.2,0.3-0.3,0.4c-0.1,0-0.2-0.1-0.3-0.1C20.1,48.4,20.1,48.3,20.2,48.2L20.2,48.2z M34.1,43.5
				c0.6-0.5,1.4-0.6,2-0.2l-1.9,0.7l-3.4,1.3l-0.3,0.1c-0.4,0.2-0.9,0.3-1.3,0.3C29,46,28.5,46,28,46.2c-1.5,0.5-2.9,1.3-4.8,1.2
				l0.1,0c-0.4,0.5-1,0.7-1.6,0.8c-0.1,0-0.1-0.2-0.2-0.3l1.9-0.9c0,0.1,0,0.2,0,0.3c0.4-0.4,0.9-0.7,1.5-0.8
				c0.3-0.2,0.7-0.3,1.1-0.2l0.5-0.2c0.4-0.8,1.5-0.4,2-1c0.7-0.1,1.3-0.5,2-0.4c0.2-0.3,0.6-0.5,1-0.4c0.4-0.5,1-0.5,1.6-0.6
				c0.1,0,0.2,0,0.2-0.1l0.1-0.1c0.1-0.1,0.2-0.1,0.4-0.1C33.9,43.5,34,43.5,34.1,43.5L34.1,43.5z M37.8,42.1c0.3-0.1,0.7-0.4,1,0
				c0.1,0.2-0.2,0.3-0.4,0.3c-0.1,0-0.1,0.1-0.2,0.1L38,42.6c-0.3,0.2-0.7,0.3-1.1,0C37,42.2,37.5,42.3,37.8,42.1L37.8,42.1z
				 M42.1,40.5c0.5-0.3,1.1-0.5,1.8-0.1l-2.8,1l-1,0.4c-0.3,0-0.7,0.5-0.8,0c-0.1-0.4,0.5-0.4,0.8-0.5L41,41c0.3,0,0.6-0.2,0.9-0.3
				L42.1,40.5z M5,23.2c0.9,1,0.9,1-0.3,1.5c-3,1.2-3.1,1.2-2,4.2c1.3,3.6,2.6,7.2,3.9,10.8c0.2,0.5,0.6,1.1-0.3,1.4
				c-1,0.4-0.9-0.5-1.1-0.8c-1.2-2.9-2.2-5.9-3.1-9c-0.4-1.5-1.1-2.9-1.6-4.3c-0.2-0.6-0.7-1.2-0.3-2c0.1-0.7,0.6-0.8,1-0.8l0.2,0
				c0.2,0,0.4,0,0.5-0.1c0.8-0.3,1.5-1.1,2.6-0.3c0.3,0.2,0.4,0,0.4-0.2l0-0.1C4.9,23.4,4.9,23.2,5,23.2L5,23.2z M46.6,39
				c0,0.8-0.6,0.6-0.9,0.8c-0.2,0.2-0.5,0.3-0.7,0.1s0.1-0.4,0.3-0.4L46.6,39z M6.6,34.2c1.2,1.5,1.5,3.4,2,5.1
				C7.5,37.7,7.1,35.9,6.6,34.2L6.6,34.2z M42,40.8l5.4-1.7C48.7,38.1,40.4,40.8,42,40.8L42,40.8z M44.9,39.3
				c0.5-0.2,0.9-0.5,1.6-0.4c-0.4,0.6-1,0.7-1.5,0.8l-1,0.3c-0.3,0.2-0.6,0.5-0.9,0.1c-0.2-0.2,0.2-0.4,0.5-0.5L44.9,39.3z
				 M42.4,38.9c0.2-0.1,0.4-0.3,0.6,0.1c-0.1,0.1-0.1,0.3-0.2,0.4c-0.2,0.1-0.5,0.1-0.6-0.1C42,39,42.3,39,42.4,38.9L42.4,38.9z
				 M75.8,30.8c0.1,0.4,0.5,0.7,0.1,1.2c-0.3,0.2-0.7,0.3-1.1,0.1c-1.2,0.7-2.5,1.1-3.8,1.4c-0.8,0.1-1.4,0.6-2.2,0.9
				c-1,0.4-2,0.5-3,0.4c-0.1,0.1-0.1,0.3-0.2,0.4c0,0.9-0.4,0.5-0.8,0.3l-0.5,0.2c0,0.1-0.1,0.1-0.2,0.1l0,0c0,0.2-0.2,0.3-0.5,0.4
				c-2.4,0.8-4.8,1.6-7.2,2.5c-0.7,0.3-1.1,0.2-1.2-0.6c-0.2,0-0.6,0.1-0.6-0.1c0-0.5,0.5-0.1,0.7-0.2c0.8-0.8,1.9-0.9,2.9-1.3
				c1.1-0.5,2.3-0.8,3.5-1.3C62.1,35,62.5,35,63,35c0-0.2,0.2-0.2,0.3-0.2l0.1,0c0.1,0,0.2,0,0.3-0.1c0.5-0.3,0.9-1.2,1.7-0.4
				c0.1,0,0.2,0.1,0.2,0.2c1.2-1.3,2.9-1.6,4.5-2c1.1-0.3,2.1-0.8,3.1-1.3c0.5-0.2,1.1-0.5,1.6,0.1c0.2,0.3,0.4,0.5,0.7,0.3
				C75.6,31.4,75.5,31.1,75.8,30.8L75.8,30.8z M48,38.4c0.7-0.7,1.3-0.8,2.1-0.6C49.4,38.3,48.7,38.5,48,38.4L48,38.4z M53.5,36.3
				c-0.3,0.7-0.7,0.6-1.1,0.7C52.6,36.5,53,36.3,53.5,36.3L53.5,36.3z M13.5,22.9c0.3-0.1,0.7-0.5,1-0.1c0.3,0.4-0.3,0.4-0.5,0.6
				l-1.3,0.5l-2.1,0.8c-1,0-1.7,0.8-2.6,0.9L6.4,26c-0.5,0.6-1.3,0.1-1.8,0.7c-0.1,0.1-0.1,0.2-0.2,0.3l0.5,1.3
				c0.5,0.4,0.7,1,0.6,1.6l1.2,3.2c-1.1-0.6-1.2-1.8-1.6-2.8c0-0.1,0-0.1,0-0.2l0,0.2c-0.3-1.3-1.2-2.4-1.1-3.7
				c0-0.2,0.2-0.4,0.4-0.4l1.8-0.7c0.5-0.3,1.1-0.4,1.6-0.4c0.7-0.6,1.7-1,2.6-1c0.6-0.5,1.3-0.7,2.1-0.8L13.5,22.9z M60.3,34
				c0.3-0.1,0.4-0.6,0.7-0.2c0.2,0.3,0,0.5-0.3,0.6L58.9,35c-0.4-0.1-0.7,0.3-1,0.4c-0.6,0.2-1.2,0.5-1.8,0.7
				c-0.3,0.1-0.6,0-0.7-0.3c-0.1-0.3,0.2-0.3,0.4-0.4c0.4-0.2,0.8-0.4,1.3-0.5c0.5-0.2,1.1-0.4,1.6-0.3L60.3,34z M65.7,32.1
				c0.4-0.3,0.7-0.5,1.5-0.4c-0.4,0.5-1.1,0.8-1.7,0.7c-0.2,0.2-0.3,0.4-0.6,0.3c-0.5,0.3-1.1,0.5-1.7,0.5c0.1-0.5,0.4-0.6,0.7-0.7
				l0.2,0c0.1,0,0.3-0.1,0.4-0.1c0.5,0,0.9-0.6,1.4-0.2L65.7,32.1z M77.1,31.1c0.1,0,0.2,0,0.4,0.1c-0.1,0.2-0.1,0.3-0.2,0.4
				c-0.1,0.1-0.3,0.1-0.4,0c0-0.1-0.1-0.2,0-0.3C77,31.2,77,31.1,77.1,31.1L77.1,31.1z M71.7,30.4c0.5-0.8,1-1.1,1.9-1
				C73.1,29.9,72.4,30.2,71.7,30.4L71.7,30.4z M78.8,27.5c1.5-0.6,0.3,0.7,0.7,0.9c0.5-0.3,0.8,0,0.8,0.5c0,0.5-0.2,0.6-0.6,0.4
				c-0.3,0.2-0.4,0.5-0.8,0.4c-0.5-0.2-0.2-0.6-0.2-1C78.5,28.3,77.8,27.8,78.8,27.5L78.8,27.5z M76.3,28c0.1,0.1,0.2,0.3,0.1,0.4
				c-0.1,0.6-0.7,0.5-1.2,0.5L76.3,28z M44.7,8.6c0.9-0.4,2-0.4,2.9-1.1c0.9-0.1,1.5-0.8,2.4-1c0.2,0,0.4-0.1,0.6-0.1
				c0.2-0.1,0.3-0.2,0.6-0.2c0.5-0.1,0.9-0.1,0.9,0.6c0.7,0.6,0.7,0.6-0.6,1.1l0.1,0c0,0-0.1,0.1-0.1,0.1C51.4,8,51.2,8,51.1,8.1
				c-0.1,0.1-0.2,0.1-0.3,0.1L50,8.5c-3.4,1.5-6.9,2.7-10.5,3.8c-2.4,0.9-4.6,2-7.1,2.3l0,0c-1.7,1.3-3.8,1.5-5.7,2.3
				c-0.4,0.4-1-0.6-1.4,0.2l0,0c-0.1,0.1-0.2,0.2-0.4,0.3c-0.7,0.5-1.4,0.7-2.3,0.7c-2.5,1.1-5,2.1-7.6,2.8c-0.5,0.3-1,0.4-1.6,0.5
				c-1.1,0.4-2,1.2-3.3,0.9c-0.5-0.1-0.5,0.7-1.1,0.7c-0.6,0.3-1.2,0.5-1.8,0.7c-0.1,0-0.2,0.1-0.3,0.1L6.9,24
				c-0.3,0.1-0.6,0.2-0.8-0.2c-0.2-0.3-0.7-0.5-0.5-0.9c0.3-0.5,1-0.7,1.6-0.4l0.6,0.1l-0.2-0.4c0-0.3,0.2-0.3,0.4-0.3
				c1.1-0.9,2.4-1.1,3.8-1.3c1.3-0.3,2.5-1.3,4-1.1c0.2,0.1,0.4,0.2,0.5,0.2c1.8-1.9,4.3-2.1,6.6-2.8l0.5-0.2l0,0
				c0.5-0.5,1.2-0.7,1.9-0.9l0.4-0.1c0.1,0,0.3-0.1,0.4-0.1c1.9-0.6,3.6-1.6,5.6-1.8l0.3,0.1l0.7-0.5c2-1.2,4.2-1.6,6.3-2.4
				L44.7,8.6z M75.5,25.9c0.2-0.2,0.3,0.1,0.3,0.2c0,0.2,0,0.4-0.1,0.6c-0.2-0.1-0.3-0.2-0.3-0.3C75.4,26.3,75.4,26,75.5,25.9
				L75.5,25.9z M15.7,22.3c0.3-0.2,0.7-0.7,1-0.1c0.1,0.2-0.4,0.7-0.9,0.5c-0.2,0.1-0.4,0.4-0.7,0.2c-0.1,0-0.1-0.1-0.2-0.2
				c0-0.1,0-0.2,0.1-0.3c0.1-0.1,0.2-0.2,0.3-0.2S15.6,22.2,15.7,22.3L15.7,22.3z M75.7,20.7c-0.5-1.3-0.3-1.5,1.2-1.4
				c0.4,1,0.8,2.1,1.2,3.1c0.3,0.8-0.8,1.4-0.4,2.2c0.1,0.1,0.3,0.1,0.4,0.1c0.5,0,0.7,0.4,0.8,0.8c0,0.1-0.1,0.2-0.2,0.3
				c-0.5,0.2-0.6-0.4-0.9-0.4c-0.4-0.1-0.5-0.3-0.5-0.6c-1-0.6-0.7-1.7-1.2-2.6l-0.4-1L75.7,20.7z M21.6,20.5
				c-0.7,0.6-1.5,1-2.4,1.1c-0.3,0.1-0.6,0-0.8-0.2c0.4-0.3,0.8-0.5,1.3-0.2C20,20.2,21.1,21,21.6,20.5L21.6,20.5z M25.1,19.1
				c-0.4,0.5-1,0.6-1.4,0.7c-0.6,0.1-1,0.9-1.8,0.5c0.5-0.4,1.1-0.7,1.7-0.8C24.1,19.2,24.6,19.1,25.1,19.1L25.1,19.1z M47.4,11.4
				l-2.1,0.8l-3.9,1.4l-10.7,3.9c-0.5,0.1-0.9,0.5-1.7,0.3c0.6-0.5,1.3-0.8,2.1-1c0.1,0,0.2-0.1,0.3-0.1l0.2-0.1
				c0.3-0.2,0.7-0.3,1.1-0.1c1.6-0.9,3.3-1.5,4.9-2.1l1.4-0.5c0.7-0.3,1.4-0.5,2.2-0.8l3.9-1.4c0.7-0.2,1.4-0.6,2.2-0.6
				c0.2-0.5,0.6-0.5,1-0.5L47.4,11.4z M69.6,8.9c0.9,2.5,2,4.8,2.5,7.4l0.3,0.2c0.4,0.1,0.3,0.4,0.2,0.6c-0.1,0.7,0.4,1.4,0.6,2.3
				c-0.8-0.7-0.8-1.5-1.1-2.2L71.9,17l-0.7-0.3l0.5-0.3l-0.5-1.6l-0.5-1.3L69.1,9L69.6,8.9z M71.2,7.1C71.9,7,72.6,7.4,72.9,8
				c0.4,1.2,0.8,2.3,1.2,3.5c0.2,0.4,0.3,0.9,0.5,1.3l-0.1,0c0.5,1.5,1,3,1.7,4.5c0.3,0.7-0.1,0.9-0.5,1.1c-0.7,0.4-0.8-0.2-0.9-0.6
				c-1.1-3.2-2.3-6.4-3.4-9.6C71.2,8,70.5,7.3,71.2,7.1L71.2,7.1z M49.1,10.2c0.1-0.1,0.2-0.3,0.6,0.1c-0.1,0.1-0.2,0.2-0.3,0.3
				c-0.2,0.2-0.4,0.2-0.6-0.1C48.7,10.5,48.9,10.3,49.1,10.2L49.1,10.2z M50.3,9.6c0.1,0,0.2,0.1,0.3,0.2c0,0.1-0.1,0.2-0.1,0.4
				c-0.2-0.1-0.3-0.2-0.3-0.3C50,9.8,50.1,9.6,50.3,9.6L50.3,9.6z M54.4,8.4c0.1,0,0.2,0.1,0.4,0.1c-0.1,0.1-0.2,0.2-0.3,0.2
				c-0.1,0-0.2-0.1-0.3-0.1C54.3,8.6,54.3,8.4,54.4,8.4L54.4,8.4z M59.4,6.5c-0.6,0.7-1.3,1-2,1.3L56.8,8c-0.2,0.1-0.3,0.1-0.5,0.2
				c-0.1,0-0.2-0.1-0.2-0.2c0-0.1,0-0.2,0-0.3L59.4,6.5z M68.3,0.4C68.6,0,69-0.3,69.5,0.4L70,0.9l0.1,0.1c0.7,0.4,0.9,1,0.4,1.7
				c-0.2,0.3-0.2,0.7,0,1c0.4-0.1,0.7,0.1,0.7,0.6l-1.3-0.4c-0.6-0.4-0.8-1.1-0.7-1.7c-1-0.6-1.7,0.2-2.6,0.4
				c-0.3,0.1-0.6,0.2-0.8,0.3L65.4,3c-0.6,0.3-1.3,0.5-2,0.3L63,3.7C62,4.6,60.7,5,59.3,5c-0.2,0.1-0.4,0.2-0.6,0.2l-0.6,0.3
				c-0.5,0.2-1,0.4-1.5,0.4c-0.8,0.4-1.6,0.7-2.5,0.8c-0.6,0.1-1.1,0-1.3-0.6c-0.2,0.1-0.5,0.3-0.7,0c-0.2-0.2,0.1-0.4,0.3-0.5
				c0.7-0.1,1.2-0.7,1.9-0.5L55.2,5l0.5-0.2L56,4.7l2.6-0.8c-0.2-0.2-0.2-0.3,0-0.4c1.1-0.4,2.2-0.8,3.3-1.2c0.3-0.1,0.5,0,0.7,0.3
				c1-1,2.5-0.7,3.6-1.5c0.1,0,0.2-0.1,0.3-0.1l0.2-0.1c0.3-0.2,0.6-0.3,0.9,0c0.2,0,0.4-0.1,0.6-0.3L68.3,0.4z M65,4.7
				c0.9-0.4,1.6-1.3,2.7-0.6c0.6,0.5,0.6,1.3,0.9,2c0.1,0.3,0.4,0.7-0.1,0.7C68.1,6.9,68.1,6.3,68,6l-0.7-1.8
				c-0.2,0-0.4,0.1-0.7,0.2l-0.3,0.1C65.9,4.7,65.5,4.9,65,4.7L65,4.7z M62.9,5.2c-0.2,1-1,0.8-1.6,1.1c-0.3,0.1-0.8,0.6-1,0
				C60.2,6,60.8,6,61.2,5.9L62.9,5.2z M70.2,4.9c0.6-0.4,1.1-0.5,1.5,0.1c0.2,0.3,0.5,0.7,0.2,1c-0.4,0.3-0.5-0.2-0.7-0.4
				c-0.3-0.4-0.9,0-1.1-0.6l0,0L70.2,4.9z"/>
		</g>
		<g class="st2">
			<path class="st3" d="M18,42.3l1.6-0.6l0.1,0.4l-0.6,0.2l1.6,4.3l-0.4,0.2l-4-2.6l-0.5-0.4l0,0l0.3,0.5l1.1,3.2l0.6-0.2l0.1,0.4
				l-1.6,0.6l-0.1-0.4l0.6-0.2l-1.4-3.9l-0.6,0.2l-0.1-0.4L16,43l3.4,2.3l0.5,0.4l0,0l-0.2-0.6l-1-2.7l-0.6,0.2L18,42.3z"/>
			<path class="st3" d="M21.5,43.6c-0.1-0.3-0.2-0.7-0.2-1s0.1-0.6,0.2-0.9c0.1-0.3,0.3-0.5,0.6-0.8s0.6-0.4,0.9-0.5
				c0.4-0.1,0.7-0.2,1.1-0.2c0.3,0,0.6,0.1,0.9,0.2c0.3,0.1,0.5,0.3,0.7,0.6c0.2,0.3,0.4,0.6,0.5,0.9c0.1,0.3,0.2,0.7,0.2,1
				c0,0.3-0.1,0.6-0.2,0.9c-0.1,0.3-0.3,0.5-0.6,0.8c-0.2,0.2-0.6,0.4-0.9,0.5c-0.4,0.1-0.7,0.2-1.1,0.2c-0.3,0-0.6-0.1-0.9-0.2
				c-0.3-0.1-0.5-0.3-0.7-0.6C21.8,44.3,21.6,44,21.5,43.6z M22.3,43.3c0.1,0.3,0.2,0.5,0.4,0.8s0.3,0.4,0.5,0.5s0.4,0.2,0.7,0.2
				c0.2,0,0.5,0,0.8-0.1c0.2-0.1,0.4-0.2,0.6-0.4c0.1-0.2,0.2-0.4,0.3-0.6c0.1-0.2,0.1-0.5,0-0.7c0-0.3-0.1-0.5-0.2-0.8
				c-0.1-0.3-0.2-0.5-0.4-0.8s-0.3-0.4-0.5-0.5s-0.4-0.2-0.7-0.2s-0.5,0-0.8,0.1c-0.3,0.1-0.5,0.2-0.6,0.4c-0.1,0.2-0.2,0.4-0.3,0.6
				c-0.1,0.2-0.1,0.5,0,0.7C22.1,42.8,22.2,43,22.3,43.3z"/>
			<path class="st3" d="M31.2,42.7l-2.1,0.8L29,43.1l0.7-0.2L28.2,39L27,39.4L27,39.6l0.3,0.8l-0.5,0.2l-0.5-1.4l4.3-1.6l0.5,1.4
				l-0.5,0.2l-0.3-0.8l-0.2-0.1L29,38.7l1.4,3.9l0.7-0.2L31.2,42.7z"/>
			<path class="st3" d="M38.4,40.1l-2.1,0.8l-0.1-0.4l0.7-0.2l-1.4-3.9l-1.2,0.4L34.2,37l0.3,0.8L34,38l-0.5-1.4l4.3-1.6l0.5,1.4
				l-0.5,0.2l-0.3-0.8l-0.2-0.1l-1.2,0.4l1.4,3.9l0.7-0.2L38.4,40.1z"/>
			<path class="st3" d="M42,38.3l0.1,0.4l-1.9,0.7L40.2,39l0.6-0.2l-1.4-3.9l-0.6,0.2l-0.1-0.4l1.9-0.7l0.1,0.4l-0.5,0.2l0.6,1.7
				l2.3-0.8l-0.6-1.7L41.8,34l-0.1-0.4l1.9-0.7l0.1,0.4l-0.6,0.2l1.4,3.9l0.6-0.2l0.1,0.4l-1.9,0.7l-0.1-0.4l0.5-0.2l-0.7-1.8
				l-2.3,0.8l0.7,1.8L42,38.3z"/>
			<path class="st3" d="M47.3,36.4l0.6-0.2l0.1,0.4l-1.9,0.7L46,36.9l0.6-0.2l-1.4-3.9L44.6,33l-0.1-0.4l0.7-0.2
				c0.2-0.1,0.4-0.2,0.6-0.3s0.5-0.2,0.7-0.3c0.2-0.1,0.5-0.1,0.7-0.2s0.4,0,0.6,0s0.4,0.1,0.5,0.3c0.2,0.1,0.3,0.3,0.3,0.5
				c0.1,0.3,0.1,0.6,0,0.9c-0.1,0.3-0.3,0.5-0.6,0.8l1.9,1.2l0.4-0.1l0.1,0.4l-1.1,0.4l-2-1.5l-0.7,0.2L47.3,36.4z M47.1,34.3
				c0.3-0.1,0.6-0.3,0.7-0.6s0.1-0.5,0-0.9c-0.1-0.3-0.3-0.5-0.6-0.6c-0.3-0.1-0.6-0.1-0.9,0.1c-0.1,0-0.2,0.1-0.3,0.1
				c-0.1,0-0.1,0.1-0.2,0.1l0.7,1.9L47.1,34.3z"/>
			<path class="st3" d="M50.3,33.1c-0.1-0.3-0.2-0.7-0.2-1c0-0.3,0.1-0.6,0.2-0.9c0.1-0.3,0.3-0.5,0.6-0.8c0.2-0.2,0.6-0.4,0.9-0.5
				c0.4-0.1,0.7-0.2,1.1-0.2c0.3,0,0.6,0.1,0.9,0.2c0.3,0.1,0.5,0.3,0.7,0.6s0.4,0.6,0.5,0.9c0.1,0.3,0.2,0.7,0.2,1
				c0,0.3-0.1,0.6-0.2,0.9c-0.1,0.3-0.3,0.5-0.6,0.8c-0.2,0.2-0.6,0.4-0.9,0.5c-0.4,0.1-0.7,0.2-1.1,0.2c-0.3,0-0.6-0.1-0.9-0.2
				c-0.3-0.1-0.5-0.3-0.7-0.6S50.4,33.5,50.3,33.1z M51.1,32.8c0.1,0.3,0.2,0.5,0.4,0.8c0.2,0.2,0.3,0.4,0.5,0.5
				c0.2,0.1,0.4,0.2,0.7,0.2c0.2,0,0.5,0,0.8-0.1c0.2-0.1,0.4-0.2,0.6-0.4c0.1-0.2,0.2-0.4,0.3-0.6c0.1-0.2,0.1-0.5,0-0.7
				c0-0.3-0.1-0.5-0.2-0.8c-0.1-0.3-0.2-0.5-0.4-0.8c-0.2-0.2-0.3-0.4-0.5-0.5s-0.4-0.2-0.7-0.2c-0.2,0-0.5,0-0.8,0.1
				c-0.3,0.1-0.5,0.2-0.6,0.4c-0.1,0.2-0.2,0.4-0.3,0.6s-0.1,0.5,0,0.7C50.9,32.3,51,32.6,51.1,32.8z"/>
			<path class="st3" d="M60.5,31.1c0,0.2-0.1,0.4-0.2,0.6c-0.1,0.2-0.2,0.4-0.4,0.5c-0.2,0.1-0.4,0.3-0.7,0.4
				c-0.6,0.2-1.1,0.3-1.6,0.1c-0.4-0.1-0.7-0.5-0.9-1l-1-2.8l-0.6,0.2L55,28.8l1.9-0.7l0.1,0.4l-0.5,0.2l1,2.6
				c0.1,0.2,0.2,0.4,0.3,0.5c0.1,0.1,0.2,0.2,0.4,0.3c0.1,0.1,0.3,0.1,0.5,0.1s0.4-0.1,0.6-0.1c0.4-0.1,0.7-0.3,0.8-0.6
				c0.1-0.3,0.1-0.6,0-1.1l-1-2.6L58.5,28l-0.1-0.4l1.6-0.6l0.1,0.4l-0.6,0.2l1,2.7C60.5,30.6,60.5,30.8,60.5,31.1z"/>
			<path class="st3" d="M66.3,29.5c-0.1,0.1-0.2,0.2-0.3,0.3c-0.1,0.1-0.2,0.2-0.3,0.3c-0.1,0.1-0.2,0.2-0.4,0.2
				c-0.1,0.1-0.2,0.1-0.4,0.2c-0.4,0.1-0.8,0.2-1.1,0.3c-0.4,0-0.7,0-1-0.1c-0.3-0.1-0.5-0.3-0.8-0.6s-0.4-0.6-0.6-1
				c-0.2-0.4-0.2-0.8-0.2-1.2s0.1-0.7,0.3-0.9c0.2-0.3,0.4-0.5,0.6-0.7c0.3-0.2,0.6-0.3,0.9-0.5c0.3-0.1,0.6-0.2,0.8-0.2
				c0.2,0,0.4,0,0.6,0l0.4,1.1l-0.4,0.2l-0.3-0.7L64.2,26c0,0-0.1,0-0.2,0c-0.1,0-0.1,0-0.2,0c-0.1,0-0.1,0-0.2,0.1
				c-0.1,0-0.1,0-0.2,0.1c-0.2,0.1-0.5,0.2-0.6,0.4s-0.3,0.3-0.4,0.5c-0.1,0.2-0.1,0.5-0.1,0.7c0,0.3,0.1,0.6,0.2,0.9
				c0.2,0.6,0.6,1,1,1.3c0.4,0.2,0.9,0.2,1.5,0c0.1-0.1,0.3-0.1,0.4-0.2c0.1-0.1,0.2-0.1,0.2-0.2l0.1-0.2l-0.5-1.2l-0.7,0.3
				l-0.1-0.4l1.8-0.7l0.1,0.4L65.8,28L66.3,29.5z"/>
			<path class="st3" d="M69.5,28.3l0.1,0.4l-1.9,0.7L67.7,29l0.6-0.2l-1.4-3.9l-0.6,0.2l-0.1-0.4l1.9-0.7l0.1,0.4l-0.5,0.2l0.6,1.7
				l2.3-0.8l-0.6-1.7L69.3,24l-0.1-0.4l1.9-0.7l0.1,0.4l-0.6,0.2l1.4,3.9l0.6-0.2l0.1,0.4l-1.9,0.7l-0.1-0.4l0.5-0.2l-0.7-1.8
				l-2.3,0.8l0.7,1.8L69.5,28.3z"/>
		</g>
		<g class="st2">
			<path class="st3" d="M12.3,28l4.9-1.8l-0.5-1.3l2.6-1l0.5,1.3l4.9-1.8l0.7,1.8l-4.9,1.8l0.7,1.8l6.1-2.2l0.7,1.8l-6.1,2.2
				l2.8,7.6l-2.6,1l-2.8-7.6l-6.1,2.2l-0.7-1.8l6.1-2.2l-0.7-1.8L13,29.8L12.3,28z M15.7,34.1l2.4-0.9l0.2,7.4l-2.4,0.9L15.7,34.1z
				 M28.3,37l-4.7-5.8l2.4-0.9l4.7,5.8L28.3,37z"/>
			<path class="st3" d="M28.5,20.6l2.1-0.8l1.8,2.5l-2.1,0.8L28.5,20.6z M33.1,33.6l1-0.4l-3.1-8.5l-1,0.4l-0.5-1.3l3.1-1.1
				l3.9,10.6l0.4-1l11.1-4l0.5,1.5l-14.8,5.4L33.1,33.6z M45.2,28.5C45.2,28.5,45.2,28.5,45.2,28.5c-0.1-0.3-0.3-0.5-0.5-0.6
				c-0.3-0.1-0.5-0.1-0.8,0l0,0l-0.1-0.4L45,27l-0.2-0.6l-2.2,0.8l0.8,2.1L41.2,30l-0.8-2.1l-2.2,0.8l0.8,2.1l-2.2,0.8l-3.2-8.7
				l2.2-0.8l0.3,0.9l0.4-1.2l0.9-0.3l-2.3-0.8l2.6-1l1.4,0.5l1.1-2.4l-6.6,2.4l-0.5-1.3l9.3-3.4l0.5,1.3l-1.5,3.2l2.8-1l3.2,8.7
				L46.6,28L45.2,28.5z M36.4,23.5l0.4,1.2l2.2-0.8l-0.4-1.2L36.4,23.5z M39.9,26.4l-0.4-1.1l-2.2,0.8l0.4,1.1L39.9,26.4z
				 M42.9,21.1l-2.2,0.8l0.4,1.2l2.2-0.8L42.9,21.1z M44.2,24.9l-0.4-1.1l-2.2,0.8l0.4,1.1L44.2,24.9z"/>
			<path class="st3" d="M50.2,15.9l-2.1,0.8l-1.8-2.5l2.1-0.8L50.2,15.9z M54.7,25.8l11.1-4l0.5,1.5l-14.8,5.4l-0.6-1.5l1-0.4
				l-3.1-8.5l-1,0.4l-0.5-1.3l3.1-1.1l3.9,10.6L54.7,25.8z M60.3,11.4l1.5-0.5l0.6,1.6L60.9,13l3.2,8.7l-2.9,1.1c0,0,0,0,0-0.1
				c-0.1-0.3-0.3-0.5-0.5-0.7c-0.2-0.1-0.5-0.2-0.8-0.1l0,0l-0.2-0.4l1.7-0.6l-2.6-7.1l-7.1,2.6L51,14.8l7.1-2.6l-0.8-2.1l2.2-0.8
				L60.3,11.4z M58.9,20.9l-2.1,0.8l-3.5-4.6l2.1-0.8L58.9,20.9z"/>
		</g>
	</g>
</g>
</svg>
