<?xml version="1.0" encoding="utf-8"?>
<!-- Generator: Adobe Illustrator 24.0.1, SVG Export Plug-In . SVG Version: 6.00 Build 0)  -->
<svg version="1.1" id="图层_1" xmlns="http://www.w3.org/2000/svg" xmlns:xlink="http://www.w3.org/1999/xlink" x="0px" y="0px"
	 viewBox="0 0 84 24" style="enable-background:new 0 0 84 24;" xml:space="preserve">
<style type="text/css">
	.st0{fill-rule:evenodd;clip-rule:evenodd;fill:#E9EDF5;}
	.st1{fill-rule:evenodd;clip-rule:evenodd;}
</style>
<title>Img/license/Other</title>
<g id="Img_x2F_license_x2F_Other">
	<path id="Path" class="st0" d="M0.5,0h83C83.8,0,84,0.2,84,0.5v23c0,0.3-0.2,0.5-0.5,0.5h-83C0.2,24,0,23.8,0,23.5v-23
		C0,0.2,0.2,0,0.5,0z"/>
	<path d="M81,22H3c-0.6,0-1-0.4-1-1V3c0-0.6,0.4-1,1-1h78c0.6,0,1,0.4,1,1v18C82,21.6,81.6,22,81,22z M3,3v18h78V3L3,3z M3,2.5L3,3
		c0,0,0,0,0,0V2.5z"/>
	<circle id="_x34_" class="st1" cx="79" cy="19" r="1"/>
	<circle id="_x33_" class="st1" cx="5" cy="19" r="1"/>
	<circle id="_x32_" class="st1" cx="79" cy="5" r="1"/>
	<circle id="_x31_" class="st1" cx="5" cy="5" r="1"/>
</g>
</svg>
