<?xml version="1.0" standalone="no"?><!DOCTYPE svg PUBLIC "-//W3C//DTD SVG 1.1//EN" "http://www.w3.org/Graphics/SVG/1.1/DTD/svg11.dtd"><svg t="1589260524929" class="icon" viewBox="0 0 1024 1024" version="1.1" xmlns="http://www.w3.org/2000/svg" p-id="23350" xmlns:xlink="http://www.w3.org/1999/xlink" width="200" height="200"><defs><style type="text/css"></style></defs><path d="M32.0608 896h960a32 32 0 0 1 5.76 63.488L992.0608 960H32.0608a32 32 0 0 1-5.76-63.488L32.0608 896h960-960zM128.0608 64h512a32 32 0 0 1 31.488 26.24l0.512 5.76V832a32 32 0 0 1-63.488 5.76L608.0608 832V128h-448v704a32 32 0 0 1-63.488 5.76L96.0608 832V96a32 32 0 0 1 26.24-31.488L128.0608 64h512-512z m608 192h192a32 32 0 0 1 31.488 26.24L960.0608 288V832a32 32 0 0 1-63.488 5.76L896.0608 832V320h-160a32 32 0 0 1-5.76-63.488L736.0608 256h192-192zM256.0608 704h256a32 32 0 0 1 5.76 63.488L512.0608 768H256.0608a32 32 0 0 1-5.76-63.488L256.0608 704h256-256z m0-128h256a32 32 0 0 1 5.76 63.488L512.0608 640H256.0608a32 32 0 0 1-5.76-63.488L256.0608 576h256-256z m0-128h256a32 32 0 0 1 5.76 63.488L512.0608 512H256.0608a32 32 0 0 1-5.76-63.488L256.0608 448h256-256z m0-128h256a32 32 0 0 1 5.76 63.488L512.0608 384H256.0608a32 32 0 0 1-5.76-63.488L256.0608 320h256-256z m0-128h256a32 32 0 0 1 5.76 63.488L512.0608 256H256.0608a32 32 0 0 1-5.76-63.488L256.0608 192h256-256z" p-id="23351"></path></svg>