<?xml version="1.0" encoding="UTF-8"?>
<svg width="72px" height="28px" viewBox="0 0 72 28" version="1.1" xmlns="http://www.w3.org/2000/svg" xmlns:xlink="http://www.w3.org/1999/xlink">
    <!-- Generator: Sketch 57 (83077) - https://sketch.com -->
    <title>LingZhi</title>
    <desc>Created with Sketch.</desc>
    <g id="0_Login" stroke="none" stroke-width="1" fill="none" fill-rule="evenodd">
        <g id="1_Login" transform="translate(-806.000000, -314.000000)" fill="#1ECBCE">
            <g id="Logo_LingZhi" transform="translate(806.000000, 308.000000)">
                <path d="M41.9,6 C41.9,6.48781378 41.8946883,6.95438093 41.8822142,7.40108954 L53.8,7.4 L53.8,10.2 L47.5,10.2 L47.5,18.6 L54.5,18.6 L54.5,21.4 L47.5605041,21.4004971 C48.0410049,26.8245336 51.3221323,29.9073774 55.2,31.2 L55.2,34 C51.4190323,33.0547581 47.9571653,30.8331128 46.1070885,26.9041679 C44.2682519,30.8474391 40.8147646,33.0814656 37,34 L37,31.2 C42.0779622,29.3008214 44.3075204,26.2212754 44.6520195,21.4002236 L37.7,21.4 L37.7,18.6 L44.7,18.6 L44.7,10.2 L41.6575744,10.2007044 C41.2040664,13.1584323 39.987415,15.0062925 37,16.5 L37,13 C39.1,11.6 39.1,8.8 39.1,6 L41.9,6 Z M4.2,6 C4.2,7.35625 4.85693359,9.36943359 7.44360962,10.1303375 L7.695,10.199 L7.703,10.199 L7.95639038,10.1323242 C10.4596252,9.43505859 11.1556091,8.12255859 11.1979065,6.19482422 L11.2,6 L14,6 C14,7.61027851 13.5884132,9.22055703 12.4496351,10.1996266 L15.4,10.2 L15.4,13 L9.1,12.999 L9.1,16.5 L14,16.5 L14,19.3 L9.1,19.3 L9.1,22.8 L15.4,22.8 L15.4,25.6 L8.83904084,25.6012687 C7.93121758,30.1621328 4.70763391,32.8230915 -7.10542736e-15,34 L-7.10542736e-15,31.2 C2.98665157,30.2044495 4.91138794,28.5183224 5.77420913,25.6011457 L-7.10542736e-15,25.6 L-7.10542736e-15,22.8 L6.25273956,22.8004241 C6.28424652,22.354485 6.3,21.8880024 6.3,21.4 L6.3,19.3 L1.4,19.3 L1.4,16.5 L6.3,16.5 L6.3,12.999 L-7.10542736e-15,13 L-7.10542736e-15,10.2 L2.9503649,10.1996266 C1.81158681,9.22055703 1.4,7.61027851 1.4,6 L4.2,6 Z M70,6.7 C71.1045695,6.7 72,7.5954305 72,8.7 L72,31.3 C72,32.4045695 71.1045695,33.3 70,33.3 L58.6,33.3 C57.4954305,33.3 56.6,32.4045695 56.6,31.3 L56.6,8.7 C56.6,7.5954305 57.4954305,6.7 58.6,6.7 L70,6.7 Z M27.3,15.8 L27.3,18.6 L30.6,18.6 C32.2568542,18.6 33.6,19.9431458 33.6,21.6 L33.6,30.3 C33.6,31.9568542 32.2568542,33.3 30.6,33.3 L21.7622777,33.3 C20.4709864,33.3 19.3245699,32.4737097 18.9162278,31.2486833 L17.5,27 L21,27 L22.1485563,29.8713907 C22.3004196,30.2510491 22.6681284,30.5 23.077033,30.5 L29.8,30.5 C30.3522847,30.5 30.8,30.0522847 30.8,29.5 L30.8,22.4 C30.8,21.8477153 30.3522847,21.4 29.8,21.4 L18.2,21.4 L18.2,18.6 L24.499,18.6 L24.5,15.8 L27.3,15.8 Z M68.2,9.5 L60.4,9.5 C59.8871642,9.5 59.4644928,9.88604019 59.4067277,10.3833789 L59.4,10.5 L59.4,29.5 C59.4,30.0128358 59.7860402,30.4355072 60.2833789,30.4932723 L60.4,30.5 L68.2,30.5 C68.7128358,30.5 69.1355072,30.1139598 69.1932723,29.6166211 L69.2,29.5 L69.2,10.5 C69.2,9.94771525 68.7522847,9.5 68.2,9.5 Z M28.6769895,6 C30.1828482,5.9999962 31.4553736,7.11632939 31.6514523,8.60936782 C32.0358629,11.5364559 33.1520454,13 35,13 L35,15.8 C32.091232,15.8 30.107493,13.9499422 29.0487828,10.2498265 C28.8032217,9.3915866 28.0186248,8.8 27.1259457,8.8 L24.6740809,8.8 C23.7813932,8.79997603 22.9967889,9.39156867 22.7512203,10.2498155 C21.692511,13.9499385 19.7087709,15.8 16.8,15.8 L16.8,13 C18.6479549,13 19.7641375,11.5364555 20.1485478,8.60936652 C20.3446281,7.11633116 21.617151,6 23.123007,6 L28.6769895,6 Z" id="LingZhi"></path>
            </g>
        </g>
    </g>
</svg>