<?xml version="1.0" encoding="UTF-8"?>
<svg width="132px" height="40px" viewBox="0 0 132 40" version="1.1" xmlns="http://www.w3.org/2000/svg" xmlns:xlink="http://www.w3.org/1999/xlink">
    <!-- Generator: Sketch 57 (83077) - https://sketch.com -->
    <title>Logo_AntelopeCloud</title>
    <desc>Created with Sketch.</desc>
    <defs>
        <radialGradient cx="65.5520584%" cy="87.5677333%" fx="65.5520584%" fy="87.5677333%" r="139.647713%" gradientTransform="translate(0.655521,0.875677),scale(0.563783,1.000000),rotate(-90.000000),translate(-0.655521,-0.875677)" id="radialGradient-1">
            <stop stop-color="#FFE687" offset="0%"></stop>
            <stop stop-color="#F7B52C" offset="54.8590583%"></stop>
            <stop stop-color="#E95513" offset="100%"></stop>
        </radialGradient>
    </defs>
    <g id="0_Login" stroke="none" stroke-width="1" fill="none" fill-rule="evenodd">
        <g id="1_Login" transform="translate(-894.000000, -973.000000)">
            <g id="Down" transform="translate(646.000000, 973.000000)">
                <g id="Logo_AntelopeCloud" transform="translate(248.000000, 0.000000)">
                    <path d="M97.7922366,34.8467651 C98.14428,34.8467651 98.4518657,34.9190354 98.7149936,35.062551 C98.9776046,35.2055541 99.1988595,35.3957122 99.3772074,35.6325129 C99.5555554,35.8698262 99.6894457,36.143531 99.7788781,36.4546523 C99.8683106,36.7657736 99.9132853,37.0886837 99.9132853,37.4238951 C99.9132853,37.7637195 99.8693445,38.0881673 99.7824968,38.3998011 C99.6956491,38.7104099 99.5643436,38.9841146 99.3880634,39.2209153 C99.2117832,39.4582286 98.9910453,39.6468491 98.7258496,39.7883145 C98.4601369,39.9292673 98.1489326,40 97.7922366,40 C97.4350237,40 97.1238193,39.9292673 96.8581067,39.7883145 C96.592911,39.6468491 96.372173,39.456691 96.1958928,39.21784 C96.0196126,38.9784765 95.8883072,38.7047718 95.8014594,38.3962132 C95.7146117,38.0871422 95.6711879,37.7637195 95.6711879,37.4238951 C95.6711879,37.0886837 95.7156456,36.7657736 95.8050781,36.4546523 C95.8945106,36.143531 96.0268499,35.8682886 96.2031301,35.6294376 C96.3794103,35.3900741 96.6001483,35.1999159 96.865344,35.0584506 C97.1310566,34.9180103 97.4396762,34.8467651 97.7922366,34.8467651 Z M112.593828,34.8467138 C113.149033,34.8467138 113.631348,35.0317464 114.04129,35.3992488 C114.123485,35.4812578 114.164324,35.5576286 114.164324,35.6293864 C114.164324,35.7201087 114.111595,35.7657262 114.00562,35.7657262 C113.966849,35.7657262 113.903264,35.7349728 113.813831,35.672441 C113.724399,35.6104218 113.616873,35.5412268 113.491771,35.4643434 C113.366152,35.3879726 113.225024,35.3182651 113.067871,35.2562458 C112.911235,35.1942266 112.745811,35.1624481 112.572116,35.1624481 C112.291928,35.1624481 112.039139,35.2311306 111.812198,35.3674704 C111.585257,35.5038102 111.390883,35.6796168 111.229595,35.8948902 C111.067789,36.1101636 110.94217,36.3520899 110.853255,36.619644 C110.763822,36.8877106 110.718847,37.1532144 110.718847,37.4161555 C110.718847,37.7703315 110.767441,38.0876035 110.86411,38.3669463 C110.960263,38.6468017 111.096738,38.8851401 111.273019,39.0814489 C111.449299,39.2777578 111.662799,39.4284491 111.91352,39.5335231 C112.164242,39.638597 112.444429,39.6908777 112.753048,39.6908777 C113.158338,39.6908777 113.510898,39.5478746 113.810213,39.2608434 C113.901713,39.1747341 113.976154,39.1316794 114.034569,39.1316794 C114.077993,39.1316794 114.11418,39.1496189 114.142612,39.1854977 C114.172078,39.2208641 114.186036,39.2587932 114.186036,39.2967223 C114.186036,39.3449026 114.146231,39.4079469 114.067137,39.4868805 C113.987527,39.5658141 113.881552,39.6437225 113.748695,39.7200933 C113.615839,39.7969767 113.462305,39.8620713 113.288609,39.9174273 C113.114914,39.9722707 112.936566,39.9999487 112.753048,39.9999487 C112.391183,39.9999487 112.06447,39.9415174 111.77291,39.8241421 C111.480316,39.7072794 111.232179,39.537111 111.02695,39.3146618 C110.821721,39.0922126 110.663534,38.8205581 110.552906,38.4996982 C110.441762,38.1793509 110.386448,37.8179992 110.386448,37.4161555 C110.386448,37.1009337 110.439177,36.7882748 110.545152,36.4797162 C110.651644,36.1711577 110.800009,35.8959153 110.990763,35.653989 C111.181518,35.4130879 111.412595,35.2178041 111.686062,35.0696755 C111.957978,34.9215469 112.260911,34.8467138 112.593828,34.8467138 Z M120.346227,34.8467651 C120.69827,34.8467651 121.005856,34.9190354 121.268984,35.062551 C121.531595,35.2055541 121.75285,35.3957122 121.931198,35.6325129 C122.109546,35.8698262 122.243436,36.143531 122.332869,36.4546523 C122.422301,36.7657736 122.467276,37.0886837 122.467276,37.4238951 C122.467276,37.7637195 122.423335,38.0881673 122.336487,38.3998011 C122.24964,38.7104099 122.118334,38.9841146 121.942054,39.2209153 C121.765774,39.4582286 121.545036,39.6468491 121.27984,39.7883145 C121.014127,39.9292673 120.702923,40 120.346227,40 C119.989014,40 119.67781,39.9292673 119.412097,39.7883145 C119.146901,39.6468491 118.926163,39.456691 118.749883,39.21784 C118.573603,38.9784765 118.442298,38.7047718 118.35545,38.3962132 C118.268602,38.0871422 118.225178,37.7637195 118.225178,37.4238951 C118.225178,37.0886837 118.269636,36.7657736 118.359069,36.4546523 C118.448501,36.143531 118.58084,35.8682886 118.757121,35.6294376 C118.933401,35.3900741 119.154139,35.1999159 119.419334,35.0584506 C119.685047,34.9180103 119.993667,34.8467651 120.346227,34.8467651 Z M126.925924,34.9190867 C127.037068,34.9190867 127.092382,34.9954575 127.092382,35.1487116 L127.092382,38.327582 C127.092382,38.5720711 127.048958,38.7940077 126.96211,38.9954421 C126.875263,39.1958514 126.752228,39.3680701 126.593008,39.5120982 C126.434304,39.6556138 126.241998,39.7668384 126.017641,39.845772 C125.793285,39.924193 125.543598,39.9641724 125.26858,39.9641724 C124.993045,39.9641724 124.742324,39.9231679 124.5159,39.8421841 C124.288958,39.7606877 124.094585,39.6479255 123.933296,39.5049225 C123.770974,39.3614069 123.646906,39.1891882 123.560058,38.9877538 C123.47321,38.7873445 123.429786,38.5669455 123.429786,38.327582 L123.429786,35.1487116 C123.429786,34.9954575 123.4851,34.9190867 123.596244,34.9190867 C123.707389,34.9190867 123.763219,34.9954575 123.763219,35.1487116 L123.763219,37.7893986 C123.763219,38.0625907 123.781313,38.3122054 123.816982,38.5392675 C123.853169,38.7668423 123.925542,38.9616134 124.034619,39.1246061 C124.143178,39.2870863 124.296196,39.4126624 124.494188,39.5013346 C124.691663,39.5900067 124.952206,39.6340865 125.2753,39.6340865 C125.758132,39.6340865 126.126201,39.5187615 126.379507,39.2896491 C126.632813,39.0600241 126.759466,38.7345513 126.759466,38.313743 L126.759466,35.1487116 C126.759466,34.9954575 126.814779,34.9190867 126.925924,34.9190867 Z M77.0115421,34.9261599 C77.170763,34.9261599 77.27467,34.999968 77.3227465,35.1486091 L78.8575731,39.5909293 C78.8715308,39.6288584 78.8834206,39.6678127 78.8932427,39.7057418 C78.9035817,39.7441835 78.9051326,39.7810875 78.900997,39.8169664 C78.8958274,39.8528453 78.8813528,39.8815484 78.8575731,39.9030757 C78.8332764,39.9246031 78.7945051,39.9353667 78.7412592,39.9353667 C78.6404538,39.9353667 78.5727333,39.8610462 78.5386145,39.712405 L78.1116132,38.4715077 L75.9187084,38.4715077 L75.6359363,39.2967223 C75.6121566,39.3638671 75.5878599,39.4351124 75.5640802,39.5119957 C75.5397835,39.5883665 75.5154868,39.6580741 75.4917071,39.7200933 C75.4674104,39.7821126 75.4394951,39.8338807 75.408478,39.8743726 C75.376944,39.9148645 75.3397236,39.9353667 75.2962997,39.9353667 C75.2285792,39.9353667 75.1799858,39.9112766 75.1515535,39.8636089 C75.1220873,39.8159413 75.1324263,39.7226561 75.1799858,39.583241 L76.7148124,35.1486091 C76.7628889,34.999968 76.8616264,34.9261599 77.0115421,34.9261599 Z M102.265308,35.0118593 C102.762097,35.0118593 103.138437,35.1353852 103.394328,35.3819245 C103.649702,35.6279512 103.777905,35.9903281 103.777905,36.4690551 C103.777905,36.932918 103.646083,37.2922195 103.383472,37.545422 C103.120344,37.7991371 102.747623,37.9257384 102.265308,37.9257384 L101.13577,37.9257384 L101.13577,39.6986685 C101.13577,39.8519227 101.082524,39.9282935 100.97655,39.9282935 C100.909346,39.9282935 100.863337,39.9088163 100.839558,39.8708872 C100.815261,39.8329581 100.802854,39.7750393 100.802854,39.6986685 L100.802854,35.2701873 C100.802854,35.1651134 100.81888,35.0959184 100.849897,35.0626023 C100.881431,35.0292862 100.948117,35.0118593 101.048923,35.0118593 L102.265308,35.0118593 Z M87.5864408,35.0121668 C87.6639834,35.0121668 87.720331,35.0275435 87.7565175,35.0588094 C87.793221,35.0900753 87.8113143,35.129542 87.8113143,35.1772097 C87.8113143,35.234616 87.7870176,35.2745953 87.7384243,35.2961226 C87.6903479,35.3171374 87.6396867,35.3279011 87.5864408,35.3279011 L86.2764877,35.3279011 L86.2764877,39.6984635 C86.2764877,39.7896984 86.2676995,39.85018 86.2511571,39.8814459 C86.2340977,39.9121992 86.1870552,39.928601 86.1100296,39.928601 C86.0376565,39.928601 85.9916479,39.9121992 85.9725207,39.8814459 C85.9528766,39.85018 85.9430545,39.7896984 85.9430545,39.6984635 L85.9430545,35.3279011 L84.6331014,35.3279011 C84.5462537,35.3279011 84.4873213,35.3161123 84.4563043,35.2920222 C84.4247703,35.2684446 84.4092618,35.2274402 84.4092618,35.1700339 C84.4092618,35.06496 84.4837027,35.0121668 84.6331014,35.0121668 L87.5864408,35.0121668 Z M83.3232517,34.9190354 C83.3909723,34.9190354 83.4369809,34.9354372 83.4607606,34.9687533 C83.4845403,35.002582 83.4969472,35.062551 83.4969472,35.1486604 L83.4969472,39.6770899 C83.4969472,39.8446956 83.4437012,39.9282422 83.3377263,39.9282422 C83.2457091,39.9282422 83.1588614,39.8657104 83.0771832,39.7416719 L80.2830647,35.5720314 L80.2830647,39.6986173 C80.2830647,39.8518714 80.2277509,39.9282422 80.1166065,39.9282422 C80.0054621,39.9282422 79.9501484,39.8518714 79.9501484,39.6986173 L79.9501484,35.1624994 C79.9501484,35.0000192 80.0033943,34.9190354 80.1093692,34.9190354 C80.1719202,34.9190354 80.2205136,34.938 80.2541154,34.9764417 C80.2882342,35.0143708 80.3239038,35.0574255 80.3626751,35.1056057 L83.1640309,39.3111251 L83.1640309,35.1486604 C83.1640309,35.067164 83.1748869,35.0087327 83.1965988,34.9723412 C83.2183107,34.9369749 83.2607007,34.9190354 83.3232517,34.9190354 Z M129.625699,35.0118593 C129.968437,35.0118593 130.26465,35.0754162 130.515888,35.2020174 C130.766609,35.3296438 130.973906,35.5023751 131.138814,35.722774 C131.30217,35.9426604 131.42417,36.1989382 131.504298,36.4905824 C131.583391,36.7822266 131.623196,37.0933479 131.623196,37.4234338 C131.623196,37.7489067 131.584942,38.0574652 131.507399,38.3491094 C131.430374,38.6407536 131.310958,38.8995942 131.149153,39.1246061 C130.987864,39.3491055 130.783668,39.5274749 130.5376,39.6592017 C130.291531,39.7909285 129.999454,39.8565357 129.661885,39.8565357 L128.307992,39.8565357 C128.245441,39.8565357 128.196847,39.8529478 128.163762,39.845772 C128.129644,39.8380837 128.105347,39.8268074 128.090872,39.8098931 C128.076915,39.7934913 128.068126,39.7678635 128.065542,39.7345474 C128.062957,39.7012313 128.061923,39.6581766 128.061923,39.6048708 L128.061923,35.2635241 C128.061923,35.2107309 128.062957,35.1676762 128.065542,35.1343601 C128.068126,35.1005314 128.076915,35.0754162 128.090872,35.0585018 C128.105347,35.0421 128.129644,35.0303113 128.163762,35.0231355 C128.196847,35.0154471 128.245441,35.0118593 128.307992,35.0118593 L129.625699,35.0118593 Z M115.315366,34.9188817 C115.426511,34.9188817 115.482341,34.9885892 115.482341,35.1269793 L115.482341,39.5549479 L117.219296,39.5549479 C117.359389,39.5549479 117.429178,39.6051784 117.429178,39.7056393 C117.429178,39.8061002 117.359389,39.8563306 117.219296,39.8563306 L115.43168,39.8563306 C115.24351,39.8563306 115.148908,39.7794473 115.148908,39.6267057 L115.148908,35.1269793 C115.148908,34.9885892 115.204739,34.9188817 115.315366,34.9188817 Z M107.396974,35.0121668 C107.474516,35.0121668 107.531898,35.0229305 107.570669,35.0444578 C107.609441,35.0659851 107.629085,35.1054519 107.629085,35.1628582 C107.629085,35.2202644 107.609441,35.2597312 107.570669,35.2812585 C107.531898,35.3027859 107.474516,35.3135495 107.396974,35.3135495 L105.14617,35.3135495 L105.14617,37.2007796 L107.325118,37.2007796 C107.411965,37.2007796 107.471932,37.2110307 107.505533,37.2299953 C107.539652,37.2489598 107.556195,37.2920145 107.556195,37.3591593 C107.556195,37.416053 107.539652,37.4544947 107.505533,37.4734592 C107.471932,37.4929363 107.411965,37.5021623 107.325118,37.5021623 L105.14617,37.5021623 L105.14617,39.5549479 L107.078532,39.5549479 C107.146253,39.5549479 107.217592,39.5523851 107.292033,39.5477721 C107.366991,39.5431591 107.434711,39.5441842 107.494678,39.55136 C107.555161,39.5585358 107.604788,39.5728873 107.643042,39.5944147 C107.681814,39.615942 107.700941,39.652846 107.700941,39.7056393 C107.700941,39.7727841 107.682848,39.8148136 107.647178,39.8312154 C107.610991,39.8481297 107.551542,39.8563306 107.469347,39.8563306 L105.059323,39.8563306 C104.967306,39.8563306 104.903721,39.8424916 104.867534,39.813276 C104.831348,39.7845728 104.812737,39.7148653 104.812737,39.6051784 L104.812737,35.2633191 C104.812737,35.1674712 104.828763,35.101864 104.860297,35.0659851 C104.891831,35.0301062 104.958,35.0121668 105.059323,35.0121668 L107.396974,35.0121668 Z M92.7613758,34.9188817 C92.8725202,34.9188817 92.9283508,34.9885892 92.9283508,35.1269793 L92.9283508,39.5549479 L94.6653052,39.5549479 C94.8053988,39.5549479 94.8751872,39.6051784 94.8751872,39.7056393 C94.8751872,39.8061002 94.8053988,39.8563306 94.6653052,39.8563306 L92.8776897,39.8563306 C92.6895196,39.8563306 92.5949176,39.7794473 92.5949176,39.6267057 L92.5949176,35.1269793 C92.5949176,34.9885892 92.6507483,34.9188817 92.7613758,34.9188817 Z M91.2559119,35.0121668 C91.3334545,35.0121668 91.3908361,35.0229305 91.4296074,35.0444578 C91.4683787,35.0659851 91.4880228,35.1054519 91.4880228,35.1628582 C91.4880228,35.2202644 91.4683787,35.2597312 91.4296074,35.2812585 C91.3908361,35.3027859 91.3334545,35.3135495 91.2559119,35.3135495 L89.0051086,35.3135495 L89.0051086,37.2007796 L91.1840558,37.2007796 C91.2709035,37.2007796 91.3308698,37.2110307 91.3644716,37.2299953 C91.3985903,37.2489598 91.4151327,37.2920145 91.4151327,37.3591593 C91.4151327,37.416053 91.3985903,37.4544947 91.3644716,37.4734592 C91.3308698,37.4929363 91.2709035,37.5021623 91.1840558,37.5021623 L89.0051086,37.5021623 L89.0051086,39.5549479 L90.9374703,39.5549479 C91.0051908,39.5549479 91.07653,39.5523851 91.1509709,39.5477721 C91.2259288,39.5431591 91.2936493,39.5441842 91.3536156,39.55136 C91.4140988,39.5585358 91.4637261,39.5728873 91.5019805,39.5944147 C91.5407518,39.615942 91.5598789,39.652846 91.5598789,39.7056393 C91.5598789,39.7727841 91.5417857,39.8148136 91.5061161,39.8312154 C91.4699295,39.8481297 91.4104802,39.8563306 91.328285,39.8563306 L88.9182609,39.8563306 C88.8262436,39.8563306 88.7626587,39.8424916 88.7264721,39.813276 C88.6902856,39.7845728 88.6716754,39.7148653 88.6716754,39.6051784 L88.6716754,35.2633191 C88.6716754,35.1674712 88.6877008,35.101864 88.7192348,35.0659851 C88.7507688,35.0301062 88.8169385,35.0121668 88.9182609,35.0121668 L91.2559119,35.0121668 Z M120.346227,35.1624994 C120.041743,35.1624994 119.777581,35.2260563 119.553742,35.3526575 C119.328868,35.4802839 119.143283,35.6499398 118.996469,35.8626505 C118.849138,36.0758736 118.737993,36.3167748 118.663036,36.5874042 C118.588595,36.8580336 118.550857,37.1363513 118.550857,37.4238951 C118.550857,37.7155393 118.587044,37.9969324 118.659417,38.2665366 C118.73179,38.5371661 118.8419,38.776017 118.988714,38.9841146 C119.136045,39.1927248 119.323182,39.3603305 119.549606,39.4869318 C119.776547,39.613533 120.041743,39.6770899 120.346227,39.6770899 C120.625897,39.6770899 120.876618,39.6232716 121.098907,39.5156349 C121.320679,39.4079982 121.508849,39.2573068 121.663417,39.0635608 C121.817986,38.8698147 121.934817,38.6355767 122.014427,38.3603343 C122.094037,38.0850919 122.133843,37.7801213 122.133843,37.4454224 C122.133843,37.1532657 122.097656,36.8708475 122.025283,36.5981679 C121.95291,36.3254882 121.843316,36.0825368 121.695985,35.8698262 C121.548654,35.6566031 121.363069,35.485922 121.138712,35.3562454 C120.914356,35.2270814 120.650194,35.1624994 120.346227,35.1624994 Z M97.7922366,35.1624994 C97.4877526,35.1624994 97.2235908,35.2260563 96.9997512,35.3526575 C96.7748776,35.4802839 96.5892923,35.6499398 96.4424783,35.8626505 C96.2951474,36.0758736 96.184003,36.3167748 96.1090451,36.5874042 C96.0346042,36.8580336 95.9968668,37.1363513 95.9968668,37.4238951 C95.9968668,37.7155393 96.0330534,37.9969324 96.1054265,38.2665366 C96.1777996,38.5371661 96.2879101,38.776017 96.4347241,38.9841146 C96.582055,39.1927248 96.7691912,39.3603305 96.9956156,39.4869318 C97.2225569,39.613533 97.4877526,39.6770899 97.7922366,39.6770899 C98.0719069,39.6770899 98.322628,39.6232716 98.5449168,39.5156349 C98.7666887,39.4079982 98.9548587,39.2573068 99.109427,39.0635608 C99.2639952,38.8698147 99.3808261,38.6355767 99.4604365,38.3603343 C99.5400469,38.0850919 99.5798521,37.7801213 99.5798521,37.4454224 C99.5798521,37.1532657 99.5436656,36.8708475 99.4712925,36.5981679 C99.3989194,36.3254882 99.2893258,36.0825368 99.1419949,35.8698262 C98.9946639,35.6566031 98.8090786,35.485922 98.584722,35.3562454 C98.3603654,35.2270814 98.0962036,35.1624994 97.7922366,35.1624994 Z M129.480953,35.3209303 L128.394839,35.3209303 L128.394839,39.5479771 L129.661885,39.5479771 C130.17315,39.5479771 130.572753,39.362432 130.860177,38.9918542 C131.146568,38.6207639 131.290797,38.0907813 131.290797,37.4019065 C131.290797,36.7130316 131.139848,36.1938127 130.837948,35.8442497 C130.536566,35.4957118 130.084234,35.3209303 129.480953,35.3209303 Z M77.0187794,35.2700848 L76.027268,38.1629491 L78.0102909,38.1629491 L77.0187794,35.2700848 Z M102.265308,35.3209303 L101.13577,35.3209303 L101.13577,37.6243556 L102.265308,37.6243556 C102.675766,37.6243556 102.974564,37.5310705 103.162734,37.3445002 C103.350904,37.1579299 103.444989,36.868336 103.444989,36.4762309 C103.444989,35.7058597 103.05159,35.3209303 102.265308,35.3209303 Z M76.5914163,19.1865485 L76.7232387,19.7447216 L76.7320269,19.7554853 C76.7542989,19.8602602 76.8769131,20.2131121 77.3419653,20.2711932 L77.4774698,20.2793172 L77.4774698,20.5689112 L79.1539409,20.5689112 L79.1539409,20.2793172 C79.7626135,20.2793172 79.8872144,19.8183649 79.9019091,19.7525146 L79.9035194,19.7447216 L79.9062672,19.752017 L80.076181,19.1865485 L81.470914,19.1865485 L81.2212268,20.0261147 C81.0810757,20.3473163 80.8849663,20.5263691 80.8431167,20.5621931 L80.8350646,20.5689112 L81.6482281,20.5689112 L81.6482281,21.9994541 L79.2097716,21.9994541 L79.2097716,23.7892986 L81.5055497,23.7892986 L81.5055497,25.2136909 L79.2097716,25.2136909 L79.2097716,27.1552518 L81.6482281,27.1552518 L81.6482281,28.5975836 L79.1492884,28.5975836 C79.0205676,29.3484776 78.7507194,30.0030113 78.3361249,30.5509333 C77.8967168,31.1526452 76.9321076,31.8503664 75.2572138,32.291758 L74.9542334,32.3669181 L74.9542334,30.915873 C75.3776161,30.7846587 76.1840592,30.5212051 76.5867637,30.1173112 C76.8943494,29.8078557 77.1425665,29.3775331 77.3234498,28.8363014 L77.3968255,28.5975836 L74.8942672,28.5975836 L74.8942672,27.1552518 L77.5012495,27.1552518 L77.5012495,25.2136909 L75.4267264,25.2136909 L75.4267264,23.7892986 L77.5012495,23.7892986 L77.5012495,21.9994541 L74.8942672,21.9994541 L74.8942672,20.5689112 L75.7968631,20.5689112 C75.7968631,20.5689112 75.4927955,20.3458142 75.3385899,19.8783011 L75.3005904,19.7447216 L75.1718697,19.1865485 L76.5914163,19.1865485 Z M99.4199593,19.173017 L99.5181799,19.4800379 C99.681754,19.7864383 100.141803,20.223945 101.427102,20.2691496 L101.649051,20.2729615 L101.649051,20.9761879 L106.959685,20.9761879 L106.959685,20.2729615 C108.350065,20.2729615 108.870043,19.8410006 109.069053,19.5205346 L109.099344,19.4682491 L109.184124,19.1863435 L109.184124,19.1786551 L109.191878,19.173017 L111.138198,19.173017 L110.960884,19.7506673 C110.67577,20.554837 109.502746,20.9308578 109.36573,20.9723129 L109.35265,20.9761879 L112.78572,20.9761879 L112.78572,22.4000677 L105.194816,22.4000677 L105.194816,24.7286082 L112.426956,24.7286082 L112.426956,26.158126 L105.194816,26.158126 L105.194816,28.6148054 L112.78572,28.6148054 L112.78572,30.0391977 L105.194816,30.0391977 L105.194816,32.2867544 L103.433565,32.2867544 L103.433565,30.0391977 L95.5397273,30.0391977 L95.5397273,28.6148054 L103.433565,28.6148054 L103.433565,26.158126 L95.8741944,26.158126 L95.8741944,24.7286082 L103.433565,24.7286082 L103.433565,22.4000677 L95.5397273,22.4000677 L95.5397273,20.9761879 L99.2503994,20.9761879 C99.2503994,20.9761879 98.0950629,20.6474713 97.7104625,19.8913267 L97.6478523,19.7445166 L97.4736399,19.173017 L99.4199593,19.173017 Z M131.941948,23.4455788 L131.941948,24.851519 L118.257746,24.851519 L116.737394,29.6300757 C116.682597,29.7940936 116.658301,29.9442724 116.658301,30.0811248 C116.658301,30.3650806 116.799428,30.5808666 117.076514,30.7069553 C117.200194,30.7650022 117.322421,30.7996958 117.445374,30.8134147 L117.568651,30.8202301 L128.423582,30.8202301 C128.923473,30.8202301 129.238296,30.8038283 129.358229,30.7684619 C129.684941,30.6649257 129.850366,30.4547779 129.850366,30.1375059 C129.850366,30.0520799 129.841635,29.9728046 129.827237,29.8977057 L129.801772,29.7879429 L129.418712,28.4947649 C129.154493,28.1512387 128.767328,28.023163 128.508464,27.9784237 L128.417895,27.9652949 L127.186002,27.9652949 L126.700068,26.5537165 L130.772606,26.5537165 L130.772606,26.9668364 L131.507193,29.5695942 C131.626608,29.9668248 131.678303,30.3292017 131.678303,30.6469862 C131.678303,31.1759437 131.369167,31.607003 130.745207,31.9396517 C130.363698,32.1509271 129.790828,32.2629769 129.036398,32.2832742 L128.77821,32.2866519 L117.486973,32.2866519 C116.767377,32.2866519 116.161511,32.1431363 115.670925,31.8617432 C115.079016,31.519356 114.780219,31.0437043 114.780219,30.4368384 C114.780219,30.2646197 114.811319,30.0671422 114.873518,29.8449309 L114.925999,29.673643 L116.452554,24.851519 L114.455057,24.851519 L114.455057,23.4455788 L131.941948,23.4455788 Z M88.7055873,23.6453217 L88.7055873,25.1235323 L90.5159487,25.1235323 C91.2655272,25.1235323 91.8729443,25.3034394 92.3304457,25.6699167 C92.7302209,25.9902071 92.9588535,26.3918988 93.0047252,26.8659925 L93.0133375,27.0471538 L93.0133375,29.84212 C93.0133375,30.4310465 92.8122437,30.9041354 92.4136747,31.2721504 C92.004715,31.6490326 91.4605055,31.853204 90.7833073,31.8902695 L90.5526522,31.8964432 L86.3338175,31.8964432 C84.8870135,31.8964432 84.3742486,30.9563346 84.2186692,30.566841 L84.1988111,30.5151057 L83.8276405,28.8744149 L85.6359341,28.8744149 L85.9264604,30.1250508 C86.0264042,30.4248959 86.4214407,30.4620561 86.835444,30.4661139 L90.3960161,30.4664129 C90.649322,30.4664129 90.8659243,30.3767156 91.0349672,30.2091099 C91.1637741,30.0724284 91.2380139,29.9040681 91.2591826,29.6978 L91.2655272,29.5694404 L91.2655272,27.4684746 C91.2655272,27.1491524 91.1781625,26.9128643 90.9884416,26.7570473 C90.8548616,26.6467453 90.7103635,26.5830244 90.5485952,26.5619481 L90.4239315,26.5540753 L83.1747318,26.5540753 L83.1747318,25.1235323 L86.8972938,25.1235323 L86.8972938,23.6453217 L88.7055873,23.6453217 Z M89.4240454,19.1863435 C90.0278438,19.1863435 90.5039554,19.3585622 90.8311852,19.7076126 C90.9888552,19.8818815 91.253534,20.3098655 91.6324588,21.0002781 C91.8656036,21.4195486 92.0594601,21.6917157 92.2124775,21.8111412 C92.3848436,21.9451379 92.6445639,22.0256614 92.9935915,22.0459335 L93.1755567,22.0510172 L93.1755567,22.0592181 L93.9204826,22.0592181 L93.9204826,23.4057019 L92.9227678,23.4057019 C92.0548075,23.4057019 91.4189582,23.2058052 91.0110841,22.8224135 C90.8823634,22.7024755 90.5933879,22.2565521 90.1369204,21.5000199 C89.8949875,21.0843372 89.7373175,20.8500992 89.6659784,20.797306 C89.5402559,20.7046359 89.3831029,20.6526423 89.1921372,20.6355516 L89.0425358,20.6291877 L86.5627233,20.6291877 C86.3218243,20.6291877 86.1207304,20.6814684 85.9749503,20.7885926 C85.8658737,20.8813651 85.6601274,21.1863435 85.3664994,21.727082 C84.9286421,22.5210308 84.5073273,23.0084713 84.122716,23.1699263 C83.8006557,23.3026782 83.3626288,23.3777436 82.7985922,23.3995863 L82.549118,23.4057019 L82.549118,22.0510172 C82.9006445,22.0356406 83.1503317,21.9869478 83.3111034,21.8957129 C83.4853158,21.7998649 83.7065707,21.5061705 83.9728003,21.0243682 C84.3760218,20.2914135 84.6453531,19.8454901 84.8102604,19.6896732 C85.0969957,19.3917074 85.4723658,19.225766 85.9458104,19.1925687 L86.1279678,19.1863435 L89.4240454,19.1863435 Z M131.643668,19.2626118 L131.643668,20.6444619 L114.792626,20.6444619 L114.792626,19.2626118 L131.643668,19.2626118 Z" id="AntelopeCloud" fill="#FFFFFF"></path>
                    <g id="Logo">
                        <path d="M39.1261825,0.000102564103 C31.1850657,0.000102564103 24.421927,4.98574359 21.8560803,11.9662564 L21.8560803,11.9662564 C19.7913796,10.9011282 17.4463066,10.296 14.9561241,10.296 L14.9561241,10.296 C6.69628467,10.296 0,16.9221538 0,25.096 L0,25.096 C0,33.2693333 6.69628467,39.8954872 14.9561241,39.8954872 L14.9561241,39.8954872 L59.4420292,39.8954872 C65.6946934,39.8954872 70.7636788,34.8795897 70.7636788,28.6918974 L70.7636788,28.6918974 C70.7636788,24.3493333 68.2657226,20.5867692 64.6151825,18.7272821 L64.6151825,18.7272821 C64.6255474,18.576 64.6385036,18.4252308 64.6385036,18.2708718 L64.6385036,18.2708718 C64.6385036,14.4118974 61.4771898,11.2836923 57.5773723,11.2836923 L57.5773723,11.2836923 C57.0995474,11.2836923 56.6331241,11.3318974 56.1817299,11.421641 L56.1817299,11.421641 C53.4702555,4.72882051 46.8589635,0.000102564103 39.1261825,0.000102564103 Z" id="Fill-1" fill="url(#radialGradient-1)"></path>
                        <polygon id="Fill-3" fill="#EDC45C" points="35.1574898 14.2451282 41.3826869 19.8287179 64.6053876 18.7092308"></polygon>
                        <path d="M56.2366124,11.3785128 C54.9378825,8.56825641 53.9894883,7.07697436 52.2606124,5.47902564 L35.0604737,14.1574872 L35.0879409,14.1841538 L56.2366124,11.3785128" id="Fill-5" fill="#EDC45C"></path>
                        <path d="M64.6515635,18.716 L64.6054394,18.7093333 L41.3827387,19.8283077 L41.3863664,19.836 L62.0784613,19.836 L64.6551912,18.7236923 C64.6551912,18.721641 64.6515635,18.7201026 64.6515635,18.716" id="Fill-7" fill="#E7AB40"></path>
                        <polygon id="Fill-9" fill="#E9AE42" points="64.6515635 18.716 64.6515635 18.7052308 64.6054394 18.7093333"></polygon>
                        <path d="M64.6515635,18.7050256 C64.3312861,10.8481026 57.4048993,11.2588718 56.3668482,11.3634872 L35.0880964,14.1819487 L35.1575416,14.2429744 L64.6054394,18.7091282 L64.6515635,18.7050256 Z" id="Fill-11" fill="#E7AB40"></path>
                        <path d="M62.9348664,39.7992308 C66.600954,38.4551282 68.5381657,36.0474359 69.5528956,34.0484615 L59.1687569,35.09 L62.9348664,39.7992308 Z" id="Fill-13" fill="#DF8629"></path>
                        <polygon id="Fill-15" fill="#E9AE42" points="59.129992 35.0391282 59.0885321 35.0975897 59.1688606 35.0904103"></polygon>
                        <path d="M59.0885321,35.0977436 L59.0273788,35.1967179 L51.8092182,38.7110769 L51.798335,38.7464615 L62.7276708,39.8767179 C62.7971161,39.8510769 62.8655248,39.8269744 62.9349701,39.8013333 L59.1688606,35.0900513 L59.0885321,35.0977436 Z" id="Fill-17" fill="#EBBA51"></path>
                        <path d="M64.6551394,18.7237949 L62.0784095,19.8361026 L62.138008,19.8361026 L59.3959569,21.0396923 L59.4234241,21.0950769 L70.4957964,26.2925128 C69.3115993,20.8925128 64.6551394,18.7237949 64.6551394,18.7237949" id="Fill-19" fill="#E2952A"></path>
                        <path d="M59.7773358,33.9932308 L59.7628248,34.0429744 L59.1300438,35.0393846 L59.1689124,35.0901538 L69.5525328,34.0486154 C69.5592701,34.029641 69.5701533,34.0111795 69.5815547,33.9932308 L59.7773358,33.9932308 Z" id="Fill-21" fill="#E2952A"></path>
                        <path d="M69.6174693,33.9190769 L62.0826591,26.5442051 L59.7774912,33.9908718 L69.5817102,33.9908718 C69.5910387,33.9672821 69.6024401,33.9431795 69.6174693,33.9190769" id="Fill-23" fill="#EDC45C"></path>
                        <path d="M70.4955372,26.293641 L59.4236832,21.0946667 L62.1377489,26.3710769 L70.5121212,26.3710769 C70.5048657,26.3459487 70.499165,26.3203077 70.4955372,26.293641" id="Fill-25" fill="#DF8629"></path>
                        <path d="M70.6367599,30.72 C70.8549423,29.0830769 70.7782416,27.6415385 70.5123803,26.3712821 L62.138008,26.3712821 L62.0784095,26.5441026 L69.6173657,33.9189744 C70.4921686,32.1410256 70.6367599,30.72 70.6367599,30.72" id="Fill-27" fill="#EBBA51"></path>
                        <polygon id="Fill-29" fill="#FFFFFF" points="62.1387854 26.3710256 59.3967343 21.0392308 62.1387854 19.835641 41.3876102 19.835641 41.3834642 19.8279487 35.1582672 14.2448718 35.1582672 14.2428205 35.0919314 14.1833333 35.0898584 14.1838462 35.0613547 14.1576923 52.2614934 5.47871795 52.2153693 5.43615385 27.4006102 14.2228205 28.3562599 15.5935897 32.4784058 15.984359 36.8519022 23.2561538 31.3797197 27.3817949 41.2020774 35.0166667 42.723654 35.4730769 41.8638803 33.2674359 41.3876102 33.4720513 40.5615226 33.3889744 35.7241942 28.5638462 41.669019 27.4679487 51.661362 29.1730769 55.2051431 28.6946154 56.7137635 34.2279487 50.2506905 38.5469231 48.9954934 39.8951282 51.4639095 39.8951282 51.8100993 38.7110256 59.0282599 35.1961538 59.763654 34.0423077"></polygon>
                    </g>
                </g>
            </g>
        </g>
    </g>
</svg>