<?xml version="1.0" encoding="UTF-8"?>
<svg width="32px" height="32px" viewBox="0 0 32 32" version="1.1" xmlns="http://www.w3.org/2000/svg" xmlns:xlink="http://www.w3.org/1999/xlink">
    <!-- Generator: Sketch 53.2 (72643) - https://sketchapp.com -->
    <title>32/Place/Business</title>
    <desc>Created with Sketch.</desc>
    <g id="32/Place/Business" stroke="none" stroke-width="1" fill="none" fill-rule="evenodd">
        <path d="M6.84638979,3 L25.1536102,3 C26.1963317,3 27.0640887,3.80110887 27.1472408,4.84050956 L28.8272408,25.8405096 C28.9153249,26.9415613 28.0941524,27.9055464 26.9931007,27.9936306 C26.9400431,27.9978752 26.8868373,28 26.8336102,28 L5.16638979,28 C4.06182029,28 3.16638979,27.1045695 3.16638979,26 C3.16638979,25.9467729 3.16851463,25.8935671 3.17275924,25.8405096 L4.85275924,4.84050956 C4.93591129,3.80110887 5.80366832,3 6.84638979,3 Z M22,6 C22,9.3137085 19.3137085,12 16,12 C12.6862915,12 10,9.3137085 10,6 C10,5.44771525 9.55228475,5 9,5 C8.44771525,5 8,5.44771525 8,6 C8,10.418278 11.581722,14 16,14 C20.418278,14 24,10.418278 24,6 C24,5.44771525 23.5522847,5 23,5 C22.4477153,5 22,5.44771525 22,6 Z" id="Rectangle-2" fill="#000000"></path>
    </g>
</svg>