<?xml version="1.0" encoding="UTF-8"?>
<svg width="32px" height="32px" viewBox="0 0 32 32" version="1.1" xmlns="http://www.w3.org/2000/svg" xmlns:xlink="http://www.w3.org/1999/xlink">
    <!-- Generator: Sketch 53.2 (72643) - https://sketchapp.com -->
    <title>32/Place/Community</title>
    <desc>Created with Sketch.</desc>
    <g id="32/Place/Community" stroke="none" stroke-width="1" fill="none" fill-rule="evenodd">
        <path d="M3,27 L3,12 C3,11.4477153 3.44771525,11 4,11 L8,11 L8,27 L9,27 L9,4 C9,3.44771525 9.44771525,3 10,3 L22,3 C22.5522847,3 23,3.44771525 23,4 L23,27 L24,27 L24,7 L28,7 C28.5522847,7 29,7.44771525 29,8 L29,27 L30,27 C30.5522847,27 31,27.4477153 31,28 C31,28.5522847 30.5522847,29 30,29 L2,29 C1.44771525,29 1,28.5522847 1,28 C1,27.4477153 1.44771525,27 2,27 L3,27 Z M5,27 L7,27 L7,25 L5,25 L5,27 Z M27,27 L27,25 L25,25 L25,27 L27,27 Z M11,27 L13,27 L13,25 L11,25 L11,27 Z M15,27 L17,27 L17,25 L15,25 L15,27 Z M19,27 L21,27 L21,25 L19,25 L19,27 Z M11,5 L11,7 L13,7 L13,5 L11,5 Z M11,9 L11,11 L13,11 L13,9 L11,9 Z M11,13 L11,15 L13,15 L13,13 L11,13 Z M11,17 L11,19 L13,19 L13,17 L11,17 Z M11,21 L11,23 L13,23 L13,21 L11,21 Z M15,5 L15,7 L17,7 L17,5 L15,5 Z M15,9 L15,11 L17,11 L17,9 L15,9 Z M15,13 L15,15 L17,15 L17,13 L15,13 Z M15,17 L15,19 L17,19 L17,17 L15,17 Z M15,21 L15,23 L17,23 L17,21 L15,21 Z M19,5 L19,7 L21,7 L21,5 L19,5 Z M19,9 L19,11 L21,11 L21,9 L19,9 Z M19,13 L19,15 L21,15 L21,13 L19,13 Z M19,17 L19,19 L21,19 L21,17 L19,17 Z M19,21 L19,23 L21,23 L21,21 L19,21 Z M25,21 L25,23 L27,23 L27,21 L25,21 Z M25,17 L25,19 L27,19 L27,17 L25,17 Z M25,13 L25,15 L27,15 L27,13 L25,13 Z M25,9 L25,11 L27,11 L27,9 L25,9 Z M5,21 L5,23 L7,23 L7,21 L5,21 Z M5,17 L5,19 L7,19 L7,17 L5,17 Z M5,13 L5,15 L7,15 L7,13 L5,13 Z" id="Rectangle-35-Copy-2" fill="#000000"></path>
    </g>
</svg>