<?xml version="1.0" encoding="UTF-8"?>
<svg width="32px" height="32px" viewBox="0 0 32 32" version="1.1" xmlns="http://www.w3.org/2000/svg" xmlns:xlink="http://www.w3.org/1999/xlink">
    <!-- Generator: Sketch 53.2 (72643) - https://sketchapp.com -->
    <title>32/Place/Entertainment</title>
    <desc>Created with Sketch.</desc>
    <g id="32/Place/Entertainment" stroke="none" stroke-width="1" fill="none" fill-rule="evenodd">
        <path d="M28.1052632,23.8947368 L23.8947368,28.1052632 L16.7834437,21.7050993 C16.3729337,21.3356403 16.3396552,20.7033504 16.7091143,20.2928404 C16.7208403,20.2798114 16.732907,20.267093 16.7453016,20.2546984 L20.2546984,16.7453016 C20.6452227,16.3547773 21.2783876,16.3547773 21.6689119,16.7453016 C21.6813066,16.7576963 21.6933732,16.7704147 21.7050993,16.7834437 L28.1052632,23.8947368 Z M28.5789474,24.4210526 L29.365318,25.2947978 C29.7211135,25.6901261 29.7052124,26.2947876 29.3291307,26.6708693 L26.6708693,29.3291307 C26.2947876,29.7052124 25.6901261,29.7211135 25.2947978,29.365318 L24.4210526,28.5789474 L28.5789474,24.4210526 Z M18.363961,5.63603897 C19.9926407,7.26471863 21,9.51471863 21,12 C21,12.7932663 20.8973707,13.5625622 20.7046656,14.2953344 L14.2953344,20.7046656 C13.5625622,20.8973707 12.7932663,21 12,21 C9.51471863,21 7.26471863,19.9926407 5.63603897,18.363961 L18.363961,5.63603897 Z M17.8444094,5.15559061 L5.15559061,17.8444094 C3.81158384,16.2719358 3,14.2307457 3,12 C3,7.02943725 7.02943725,3 12,3 C14.2307457,3 16.2719358,3.81158384 17.8444094,5.15559061 Z M19.5,19.5 C19.2238576,19.7761424 19.2238576,20.2238576 19.5,20.5 L21.5,22.5 C21.7761424,22.7761424 22.2238576,22.7761424 22.5,22.5 C22.7761424,22.2238576 22.7761424,21.7761424 22.5,21.5 L20.5,19.5 C20.2238576,19.2238576 19.7761424,19.2238576 19.5,19.5 Z" id="Oval-2" fill="#000000"></path>
    </g>
</svg>