<?xml version="1.0" encoding="UTF-8"?>
<svg width="32px" height="32px" viewBox="0 0 32 32" version="1.1" xmlns="http://www.w3.org/2000/svg" xmlns:xlink="http://www.w3.org/1999/xlink">
    <!-- Generator: Sketch 53.2 (72643) - https://sketchapp.com -->
    <title>32/Place/Gas</title>
    <desc>Created with Sketch.</desc>
    <g id="32/Place/Gas" stroke="none" stroke-width="1" fill="none" fill-rule="evenodd">
        <path d="M6,2 L18,2 C19.1045695,2 20,2.8954305 20,4 L20,28 L21,28 C21.5522847,28 22,28.4477153 22,29 L22,30.0000995 L2,30.0000995 L2,29 C2,28.4477153 2.44771525,28 3,28 L4,28 L4,4 C4,2.8954305 4.8954305,2 6,2 Z M7,4 C6.44771525,4 6,4.44771525 6,5 L6,9 C6,9.55228475 6.44771525,10 7,10 L17,10 C17.5522847,10 18,9.55228475 18,9 L18,5 C18,4.44771525 17.5522847,4 17,4 L7,4 Z M15,14 C14.4477153,14 14,14.4477153 14,15 C14,15.5522847 14.4477153,16 15,16 L17,16 C17.5522847,16 18,15.5522847 18,15 C18,14.4477153 17.5522847,14 17,14 L15,14 Z M21.7067496,13.7067496 L20,12 L19.9793053,8.6 L23.41056,12.0135938 C23.7878671,12.3889589 24,12.8992302 24,13.4314516 L24,23 C24,23.5522847 24.4477153,24 25,24 L27,24 C27.5522847,24 28,23.5522847 28,23 L28,10.4142136 C28,10.1489971 27.8946432,9.89464316 27.7071068,9.70710678 L22.8428162,4.84281623 C22.4522919,4.45229194 22.4522919,3.81912696 22.8428162,3.42860267 C22.8840131,3.38740585 22.9287313,3.34988808 22.9764607,3.31647753 L23.31268,3.08112399 C23.710205,2.80285651 24.2501319,2.85013188 24.5932491,3.19324913 L29.4142136,8.01421356 C29.7892863,8.38928632 30,8.89799415 30,9.42842712 L30,24.0023135 C30,25.106883 29.1045695,26.0023135 28,26.0023135 L23.9896527,26.004037 C22.8850832,26.004037 21.9896527,25.1086065 21.9896527,24.004037 C21.9896527,24.0034623 21.9896529,24.0028875 21.9896534,24.0023128 L21.9996425,14.4147185 C21.9998714,14.1492034 21.8944972,13.8944972 21.7067496,13.7067496 Z" id="Rectangle-2" fill="#000000"></path>
    </g>
</svg>