<?xml version="1.0" encoding="UTF-8"?>
<svg width="32px" height="32px" viewBox="0 0 32 32" version="1.1" xmlns="http://www.w3.org/2000/svg" xmlns:xlink="http://www.w3.org/1999/xlink">
    <!-- Generator: Sketch 53.2 (72643) - https://sketchapp.com -->
    <title>32/Place/Hospital</title>
    <desc>Created with Sketch.</desc>
    <g id="32/Place/Hospital" stroke="none" stroke-width="1" fill="none" fill-rule="evenodd">
        <path d="M1.79927434,13.8339029 C2.80699299,11.7373994 4.54056821,9.45943179 7,7 C9.45943421,4.54056579 11.7374039,2.80698958 13.8339091,1.79927136 C15.2029996,1.14119884 16.7970078,1.14119923 18.1660971,1.79927434 C20.2626006,2.80699299 22.5405682,4.54056821 25,7 C27.4594342,9.45943421 29.1930104,11.7374039 30.2007286,13.8339091 C30.8588012,15.2029996 30.8588008,16.7970078 30.2007257,18.1660971 C29.193007,20.2626006 27.4594318,22.5405682 25,25 C22.5405658,27.4594342 20.2625961,29.1930104 18.1660909,30.2007286 C16.7970004,30.8588012 15.2029922,30.8588008 13.8339029,30.2007257 C11.7373994,29.193007 9.45943179,27.4594318 7,25 C4.54056579,22.5405658 2.80698958,20.2625961 1.79927136,18.1660909 C1.14119884,16.7970004 1.14119923,15.2029922 1.79927434,13.8339029 Z M13,13 L9,13 C8.44771525,13 8,13.4477153 8,14 L8,17.9987842 C8,18.5510689 8.44771525,18.9987842 9,18.9987842 L13,18.9987842 L13,22.9967578 C13,23.5490425 13.4477153,23.9967578 14,23.9967578 L17.9987842,23.9967578 C18.5510689,23.9967578 18.9987842,23.5490425 18.9987842,22.9967578 L18.9987842,18.9987842 L22.9967578,18.9987842 C23.5490425,18.9987842 23.9967578,18.5510689 23.9967578,17.9987842 L23.9967578,14 C23.9967578,13.4477153 23.5490425,13 22.9967578,13 L18.9987842,13 L18.9987842,9 C18.9987842,8.44771525 18.5510689,8 17.9987842,8 L14,8 C13.4477153,8 13,8.44771525 13,9 L13,13 Z" id="Rectangle-3" fill="#000000"></path>
    </g>
</svg>