<?xml version="1.0" encoding="UTF-8"?>
<svg width="32px" height="32px" viewBox="0 0 32 32" version="1.1" xmlns="http://www.w3.org/2000/svg" xmlns:xlink="http://www.w3.org/1999/xlink">
    <!-- Generator: Sketch 53.2 (72643) - https://sketchapp.com -->
    <title>32/Place/Hostel</title>
    <desc>Created with Sketch.</desc>
    <g id="32/Place/Hostel" stroke="none" stroke-width="1" fill="none" fill-rule="evenodd">
        <path d="M4,20 L28,20 C29.1045695,20 30,20.8954305 30,22 L30,24 L2,24 L2,22 C2,20.8954305 2.8954305,20 4,20 Z M2,25 L30,25 L30,30 L29,30.0000995 L28,28 L4,28 L3,30.0000995 L2,30 L2,25 Z M4,14 C6.66666667,13.3333333 10.6666667,13 16,13 C21.3333333,13 25.3333333,13.3333333 28,14 L30,21 L29.5527864,20.1055728 C29.2140024,19.4280048 28.5214761,19 27.763932,19 L4.23606798,19 C3.47852386,19 2.78599762,19.4280048 2.4472136,20.1055728 L2,21 L4,14 Z M6,3 L26,3 C27.1045695,3 28,3.8954305 28,5 L28,13 C25.3333333,12.3333333 21.3333333,12 16,12 C10.6666667,12 6.66666667,12.3333333 4,13 L4,5 C4,3.8954305 4.8954305,3 6,3 Z" id="Rectangle-2" fill="#000000"></path>
    </g>
</svg>