<?xml version="1.0" encoding="UTF-8"?>
<svg width="32px" height="32px" viewBox="0 0 32 32" version="1.1" xmlns="http://www.w3.org/2000/svg" xmlns:xlink="http://www.w3.org/1999/xlink">
    <!-- Generator: Sketch 53.2 (72643) - https://sketchapp.com -->
    <title>32/Place/Hotel</title>
    <desc>Created with Sketch.</desc>
    <g id="32/Place/Hotel" stroke="none" stroke-width="1" fill="none" fill-rule="evenodd">
        <path d="M12,6 L12,5 L10.5,5 C10.2238576,5 10,4.77614237 10,4.5 L10,3.5 C10,3.22385763 10.2238576,3 10.5,3 L21.5,3 C21.7761424,3 22,3.22385763 22,3.5 L22,4.5 C22,4.77614237 21.7761424,5 21.5,5 L20,5 L20,6 L23,6 C23.5522847,6 24,6.44771525 24,7 L24,7.5 C24,7.77614237 24.2238576,8 24.5,8 L27,8 C27.5522847,8 28,8.44771525 28,9 L28,27 L30,27 C30.5522847,27 31,27.4477153 31,28 C31,28.5522847 30.5522847,29 30,29 L2,29 C1.44771525,29 1,28.5522847 1,28 C1,27.4477153 1.44771525,27 2,27 L4,27 L4,9 C4,8.44771525 4.44771525,8 5,8 L7.5,8 C7.77614237,8 8,7.77614237 8,7.5 L8,7 C8,6.44771525 8.44771525,6 9,6 L12,6 Z M13,6 L19,6 L19,5 L13,5 L13,6 Z M8.5,10 C8.22385763,10 8,10.2238576 8,10.5 L8,13.5 C8,13.7761424 8.22385763,14 8.5,14 L11.5,14 C11.7761424,14 12,13.7761424 12,13.5 L12,10.5 C12,10.2238576 11.7761424,10 11.5,10 L8.5,10 Z M8.5,16 C8.22385763,16 8,16.2238576 8,16.5 L8,19.5 C8,19.7761424 8.22385763,20 8.5,20 L11.5,20 C11.7761424,20 12,19.7761424 12,19.5 L12,16.5 C12,16.2238576 11.7761424,16 11.5,16 L8.5,16 Z M8.5,22 C8.22385763,22 8,22.2238576 8,22.5 L8,25.5 C8,25.7761424 8.22385763,26 8.5,26 L11.5,26 C11.7761424,26 12,25.7761424 12,25.5 L12,22.5 C12,22.2238576 11.7761424,22 11.5,22 L8.5,22 Z M14.5,16 C14.2238576,16 14,16.2238576 14,16.5 L14,19.5 C14,19.7761424 14.2238576,20 14.5,20 L17.5,20 C17.7761424,20 18,19.7761424 18,19.5 L18,16.5 C18,16.2238576 17.7761424,16 17.5,16 L14.5,16 Z M20.5,10 C20.2238576,10 20,10.2238576 20,10.5 L20,13.5 C20,13.7761424 20.2238576,14 20.5,14 L23.5,14 C23.7761424,14 24,13.7761424 24,13.5 L24,10.5 C24,10.2238576 23.7761424,10 23.5,10 L20.5,10 Z M20.5,16 C20.2238576,16 20,16.2238576 20,16.5 L20,19.5 C20,19.7761424 20.2238576,20 20.5,20 L23.5,20 C23.7761424,20 24,19.7761424 24,19.5 L24,16.5 C24,16.2238576 23.7761424,16 23.5,16 L20.5,16 Z M20.5,22 C20.2238576,22 20,22.2238576 20,22.5 L20,25.5 C20,25.7761424 20.2238576,26 20.5,26 L23.5,26 C23.7761424,26 24,25.7761424 24,25.5 L24,22.5 C24,22.2238576 23.7761424,22 23.5,22 L20.5,22 Z" id="Rectangle-3" fill="#000000"></path>
    </g>
</svg>