<?xml version="1.0" encoding="UTF-8"?>
<svg width="32px" height="32px" viewBox="0 0 32 32" version="1.1" xmlns="http://www.w3.org/2000/svg" xmlns:xlink="http://www.w3.org/1999/xlink">
    <!-- Generator: Sketch 53.2 (72643) - https://sketchapp.com -->
    <title>32/Place/InternetCafe</title>
    <desc>Created with Sketch.</desc>
    <g id="32/Place/InternetCafe" stroke="none" stroke-width="1" fill="none" fill-rule="evenodd">
        <path d="M15,25 L4,25 C2.8954305,25 2,24.1045695 2,23 L2,6 C2,4.8954305 2.8954305,4 4,4 L28,4 C29.1045695,4 30,4.8954305 30,6 L30,23 C30,24.1045695 29.1045695,25 28,25 L17,25 L17,27 L21,27 C21.5522847,27 22,27.4477153 22,28 C22,28.5522847 21.5522847,29 21,29 L11,29 C10.4477153,29 10,28.5522847 10,28 C10,27.4477153 10.4477153,27 11,27 L15,27 L15,25 Z M16.6042971,15.6170763 L20.3484904,16.0484763 L12.2709732,6 L12,18.9011094 L12.3630951,18.5501475 L14.7389412,16.2515939 L16.5620559,21.347058 C16.7049572,21.7492487 17.0837804,22 17.4891167,22 C17.599663,22 17.7102092,21.9811262 17.8198568,21.94248 C18.2121612,21.8031737 18.4736975,21.4315405 18.4741469,21.0158686 C18.4741469,20.9048729 18.4552731,20.7920798 18.4175256,20.6824322 L16.6042971,15.6170763 Z" id="Rectangle-17" fill="#000000"></path>
    </g>
</svg>