<?xml version="1.0" encoding="UTF-8"?>
<svg width="32px" height="32px" viewBox="0 0 32 32" version="1.1" xmlns="http://www.w3.org/2000/svg" xmlns:xlink="http://www.w3.org/1999/xlink">
    <!-- Generator: Sketch 53.2 (72643) - https://sketchapp.com -->
    <title>32/Place/Other</title>
    <desc>Created with Sketch.</desc>
    <g id="32/Place/Other" stroke="none" stroke-width="1" fill="none" fill-rule="evenodd">
        <path d="M5,3 L13.0037217,3 C14.1082912,3 15.0037217,3.8954305 15.0037217,5 L15.0037217,13.0037217 C15.0037217,14.1082912 14.1082912,15.0037217 13.0037217,15.0037217 L5,15.0037217 C3.8954305,15.0037217 3,14.1082912 3,13.0037217 L3,5 C3,3.8954305 3.8954305,3 5,3 Z M5,17 L13.0037217,17 C14.1082912,17 15.0037217,17.8954305 15.0037217,19 L15.0037217,27.0037217 C15.0037217,28.1082912 14.1082912,29.0037217 13.0037217,29.0037217 L5,29.0037217 C3.8954305,29.0037217 3,28.1082912 3,27.0037217 L3,19 C3,17.8954305 3.8954305,17 5,17 Z M19,17 L27.0037217,17 C28.1082912,17 29.0037217,17.8954305 29.0037217,19 L29.0037217,27.0037217 C29.0037217,28.1082912 28.1082912,29.0037217 27.0037217,29.0037217 L19,29.0037217 C17.8954305,29.0037217 17,28.1082912 17,27.0037217 L17,19 C17,17.8954305 17.8954305,17 19,17 Z M24.4142136,2.41421356 L29.5857864,7.58578644 C30.366835,8.36683502 30.366835,9.63316498 29.5857864,10.4142136 L24.4142136,15.5857864 C23.633165,16.366835 22.366835,16.366835 21.5857864,15.5857864 L16.4142136,10.4142136 C15.633165,9.63316498 15.633165,8.36683502 16.4142136,7.58578644 L21.5857864,2.41421356 C22.366835,1.63316498 23.633165,1.63316498 24.4142136,2.41421356 Z M23.7071068,3.70710678 C23.3165825,3.31658249 22.6834175,3.31658249 22.2928932,3.70710678 L17.7071068,8.29289322 C17.3165825,8.68341751 17.3165825,9.31658249 17.7071068,9.70710678 L22.2928932,14.2928932 C22.6834175,14.6834175 23.3165825,14.6834175 23.7071068,14.2928932 L28.2928932,9.70710678 C28.6834175,9.31658249 28.6834175,8.68341751 28.2928932,8.29289322 L23.7071068,3.70710678 Z" id="Rectangle-2" fill="#000000"></path>
    </g>
</svg>