<?xml version="1.0" encoding="UTF-8"?>
<svg width="28px" height="38px" viewBox="0 0 28 38" version="1.1" xmlns="http://www.w3.org/2000/svg" xmlns:xlink="http://www.w3.org/1999/xlink">
    <!-- Generator: Sketch 52.5 (67469) - http://www.bohemiancoding.com/sketch -->
    <title>Pin/Place_Avatar_Hover</title>
    <desc>Created with Sketch.</desc>
    <g id="Pin/Place_Avatar_Hover" stroke="none" stroke-width="1" fill="none" fill-rule="evenodd">
        <path d="M0.500633004,14.1623887 L0.500863157,14.1623862 C0.544875507,18.2931353 1.86577771,20.8321473 5.50811726,25.3167779 C5.48788342,25.291865 5.9325999,25.8389287 6.05609639,25.9913202 C6.62652455,26.6952139 7.02005591,27.1934079 7.4,27.7 C8.09875918,28.6316789 8.66992842,29.6908007 9.25611696,31.0522708 C9.41172898,31.4136923 9.56346452,31.7835013 9.75533293,32.2643647 C9.75723074,32.2691211 10.1175158,33.1773207 10.218723,33.4279288 C11.4318549,36.4318745 12.3114876,37.5 14,37.5 C15.6885124,37.5 16.5681451,36.4318745 17.781277,33.4279288 C17.8824842,33.1773207 18.2427693,32.2691211 18.2446671,32.2643647 C18.4365355,31.7835013 18.588271,31.4136923 18.743883,31.0522708 C19.3300716,29.6908007 19.9012408,28.6316789 20.6,27.7 C20.9799371,27.1934171 21.373461,26.6952322 21.9438782,25.991351 C22.0673722,25.8389624 22.5120799,25.2919086 22.4918456,25.3168221 C26.1342003,20.8321665 27.4550918,18.2931386 27.4990512,14.1617843 C27.4998416,14.0809696 27.4998416,14.0809696 27.5,14 C27.5,6.54415588 21.4558441,0.5 14,0.5 C6.54415588,0.5 0.5,6.54415588 0.5,14 C0.500158431,14.0809696 0.500158431,14.0809696 0.500948766,14.1617843 L0.500633004,14.1623887 Z" id="BG" stroke="#FF8800" fill="#FFAA00"></path>
        <g id="icon/S/Bar/PeopleOther" transform="translate(6.000000, 6.000000)" fill="#FFFFFF">
            <path d="M2.62532751,1.18610757 C3.01961454,0.775554774 3.58882244,0.528442947 4.19675495,0.504258364 C7.21573505,0.37241338 7.38933576,3.33443967 7.49692859,4.90331697 C7.5246519,5.49525414 7.36425276,6.08212034 7.03377334,6.59682288 C6.65158776,7.19578138 6.48414779,7.88367673 6.55389611,8.56923164 C6.58932033,8.76485371 6.44278285,8.94974875 6.22297663,8.98680577 L2.91488205,9.58088835 L2.83215218,9.58088835 C2.64050932,9.58244864 2.47284932,9.46698676 2.42686384,9.30218053 C2.35249497,9.02366775 2.27790607,8.78903829 2.2118982,8.56923164 C1.86755713,7.50510999 1.63212904,6.41543851 1.50869432,5.31386976 C1.50869432,5.18182974 1.32695264,2.46906069 2.62532751,1.18610757 Z M6.15617187,9.76307025 C6.25573412,9.74364914 6.3596771,9.76095158 6.44450414,9.81091679 C6.52933117,9.86123511 6.58727639,9.93962576 6.60539672,10.0286097 C7.01698704,11.4555314 7.24159947,12.3646157 6.81487569,12.9354196 C6.54147776,13.2622239 6.12013034,13.4661455 5.66234314,13.4929819 C5.52514637,13.5023394 5.38755134,13.5023394 5.25055369,13.4929819 C3.73860144,13.4929819 3.29694333,12.1656376 2.94509035,10.6788637 C2.9251779,10.5927046 2.94489123,10.5030144 2.99945134,10.4295673 C3.0544097,10.3561202 3.1398341,10.3049191 3.23700685,10.2874401 L6.15617187,9.76307025 Z M12.0664354,2.51440413 C12.6578573,2.56151235 13.2011927,2.82917271 13.5661354,3.25353604 C14.7719493,4.58191007 14.4675441,7.2799265 14.4613186,7.41151806 C14.2893661,8.50532429 14.0090042,9.58316822 13.6232382,10.6312289 C13.5485323,10.8480824 13.4650248,11.0791463 13.3793706,11.3542038 C13.3269906,11.5167467 13.1580436,11.6255628 12.9712787,11.616803 L12.8907767,11.6134937 L9.69366338,10.8969426 C9.48135256,10.8513917 9.34718242,10.6615961 9.39076088,10.4675181 C9.49079813,9.78678476 9.36006276,9.0945664 9.01551385,8.48293815 C8.71754882,7.95715587 8.58853082,7.36596714 8.64348691,6.77672502 C8.82166484,5.21631379 9.12971947,2.26912991 12.0664354,2.51440413 Z M9.7625408,11.7735829 L12.5349592,12.4015254 C12.6271759,12.4225093 12.7066006,12.4763679 12.7558592,12.5510355 C12.8049268,12.6257031 12.819628,12.7154092 12.7965261,12.7998693 C12.3911929,14.257899 11.9068168,15.5547026 10.4584615,15.498221 C10.3267235,15.5022429 10.1949854,15.4971718 10.064011,15.4828328 C9.62679329,15.4391164 9.23253367,15.2217584 8.98547703,14.8881148 C8.60305474,14.307386 8.86003946,13.4160958 9.32016813,12.019444 C9.34136078,11.932186 9.40054745,11.856644 9.4841725,11.8101298 C9.56760662,11.7637904 9.66822397,11.7505006 9.7625408,11.7735829 Z" id="Fill-2"></path>
        </g>
    </g>
</svg>