<?xml version="1.0" encoding="UTF-8"?>
<svg width="32px" height="32px" viewBox="0 0 32 32" version="1.1" xmlns="http://www.w3.org/2000/svg" xmlns:xlink="http://www.w3.org/1999/xlink">
    <!-- Generator: Sketch 53.2 (72643) - https://sketchapp.com -->
    <title>32/Place/Place</title>
    <desc>Created with Sketch.</desc>
    <g id="32/Place/Place" stroke="none" stroke-width="1" fill="none" fill-rule="evenodd">
        <path d="M17.75,16 L25.3333333,16 C25.7660738,16 26.187141,16.1403557 26.5333333,16.4 L28.9333333,18.2 C29.3751611,18.5313708 29.4647042,19.1581722 29.1333333,19.6 C29.0764791,19.6758057 29.009139,19.7431458 28.9333333,19.8 L26.5333333,21.6 C26.187141,21.8596443 25.7660738,22 25.3333333,22 L5,22 C4.44771525,22 4,21.5522847 4,21 L4,17 C4,16.4477153 4.44771525,16 5,16 L14.25,16 L14.3214286,12 L17.6785714,12 L17.75,16 Z M17.5535714,5 L27,5 C27.5522847,5 28,5.44771525 28,6 L28,10 C28,10.5522847 27.5522847,11 27,11 L6.66666667,11 C6.23392624,11 5.81285901,10.8596443 5.46666667,10.6 L3.06666667,8.8 C2.62483887,8.46862915 2.53529582,7.8418278 2.86666667,7.4 C2.92352092,7.32419433 2.990861,7.25685425 3.06666667,7.2 L5.46666667,5.4 C5.81285901,5.14035574 6.23392624,5 6.66666667,5 L14.4464286,5 L14.4824617,2.9821457 C14.4921981,2.43690796 14.9369776,2 15.4823023,2 L16.5176977,2 C17.0630224,2 17.5078019,2.43690796 17.5175383,2.9821457 L17.5535714,5 Z M17.875,23 L17.981824,28.9821457 C17.9916847,29.5343424 17.5520344,29.9899799 16.9998377,29.9998406 C16.9938869,29.9999469 16.9879352,30 16.9819834,30 L15.0180166,30 C14.4657318,30 14.0180166,29.5522847 14.0180166,29 C14.0180166,28.9940482 14.0180697,28.9880965 14.018176,28.9821457 L14.125,23 L17.875,23 Z" id="Rectangle-2" fill="#000000"></path>
    </g>
</svg>