<?xml version="1.0" encoding="UTF-8"?>
<svg width="32px" height="32px" viewBox="0 0 32 32" version="1.1" xmlns="http://www.w3.org/2000/svg" xmlns:xlink="http://www.w3.org/1999/xlink">
    <!-- Generator: Sketch 53.2 (72643) - https://sketchapp.com -->
    <title>32/Place/School</title>
    <desc>Created with Sketch.</desc>
    <g id="32/Place/School" stroke="none" stroke-width="1" fill="none" fill-rule="evenodd">
        <path d="M29.4,11.3 L29.4,15 L29.5,15 C29.7761424,15 30,15.2238576 30,15.5 L30,21.5 C30,21.7761424 29.7761424,22 29.5,22 L28.5,22 C28.2238576,22 28,21.7761424 28,21.5 L28,15.5 C28,15.2238576 28.2238576,15 28.5,15 L28.6,15 L28.6,11.7 L16,18 L0,10 L16,2 L32,10 L29.4,11.3 Z M6,14 L16,19 L26,14 L26,26 C26,28.209139 21.5228475,30 16,30 C10.4771525,30 6,28.209139 6,26 L6,14 Z" id="Rectangle-2" fill="#000000"></path>
    </g>
</svg>