<?xml version="1.0" encoding="UTF-8"?>
<svg width="32px" height="32px" viewBox="0 0 32 32" version="1.1" xmlns="http://www.w3.org/2000/svg" xmlns:xlink="http://www.w3.org/1999/xlink">
    <!-- Generator: Sketch 53.2 (72643) - https://sketchapp.com -->
    <title>32/Place/Shop</title>
    <desc>Created with Sketch.</desc>
    <g id="32/Place/Shop" stroke="none" stroke-width="1" fill="none" fill-rule="evenodd">
        <path d="M19,11 C19,12.6568542 17.6568542,14 16,14 C14.3431458,14 13,12.6568542 13,11 C13,12.6568542 11.6568542,14 10,14 C8.34314575,14 7,12.6568542 7,11 C7,12.6568542 5.65685425,14 4,14 C2.34314575,14 1,12.6568542 1,11 L3.75667129,3.64887656 C3.90303519,3.25857283 4.27615591,3 4.69300047,3 L27.3069995,3 C27.7238441,3 28.0969648,3.25857283 28.2433287,3.64887656 L31,11 C31,12.6568542 29.6568542,14 28,14 C26.3431458,14 25,12.6568542 25,11 L25,11 C25,12.6568542 23.6568542,14 22,14 C20.3431458,14 19,12.6568542 19,11 L19,11 Z M28,15 L28,28 C28,28.5522847 27.5522847,29 27,29 L5,29 C4.44771525,29 4,28.5522847 4,28 L4,15 C5.19469253,15 6.26705555,14.4762451 7,13.6458244 C7.73294445,14.4762451 8.80530747,15 10,15 C11.1946925,15 12.2670555,14.4762451 13,13.6458244 C13.7329445,14.4762451 14.8053075,15 16,15 C17.1946925,15 18.2670555,14.4762451 19,13.6458244 C19.7329445,14.4762451 20.8053075,15 22,15 C23.1946925,15 24.2670555,14.4762451 25,13.6458244 C25.7329445,14.4762451 26.8053075,15 28,15 Z M9,18 C8.44771525,18 8,18.4477153 8,19 L8,23 C8,23.5522847 8.44771525,24 9,24 L13,24 C13.5522847,24 14,23.5522847 14,23 L14,19 C14,18.4477153 13.5522847,18 13,18 L9,18 Z" id="Rectangle-2" fill="#000000"></path>
    </g>
</svg>