<?xml version="1.0" encoding="UTF-8"?>
<svg width="32px" height="32px" viewBox="0 0 32 32" version="1.1" xmlns="http://www.w3.org/2000/svg" xmlns:xlink="http://www.w3.org/1999/xlink">
    <!-- Generator: Sketch 53.2 (72643) - https://sketchapp.com -->
    <title>32/Place/Site</title>
    <desc>Created with Sketch.</desc>
    <g id="32/Place/Site" stroke="none" stroke-width="1" fill="none" fill-rule="evenodd">
        <path d="M3,4 L11,4 L11,8 L3,8 L3,4 Z M12,4 L20,4 L20,8 L12,8 L12,4 Z M21,4 L29,4 L29,8 L21,8 L21,4 Z M8,9 L16,9 L16,13 L8,13 L8,9 Z M17,9 L25,9 L25,13 L17,13 L17,9 Z M3,14 L11,14 L11,18 L3,18 L3,14 Z M12,14 L20,14 L20,18 L12,18 L12,14 Z M21,14 L29,14 L29,18 L21,18 L21,14 Z M7,19 L15,19 L15,23 L7,23 L7,19 Z M16,19 L24,19 L24,23 L16,23 L16,19 Z M3,24 L11,24 L11,28 L3,28 L3,24 Z M12,24 L20,24 L20,28 L12,28 L12,24 Z M21,24 L29,24 L29,28 L21,28 L21,24 Z" id="Rectangle-2" fill="#000000"></path>
    </g>
</svg>