<?xml version="1.0" encoding="UTF-8"?>
<svg width="32px" height="32px" viewBox="0 0 32 32" version="1.1" xmlns="http://www.w3.org/2000/svg" xmlns:xlink="http://www.w3.org/1999/xlink">
    <!-- Generator: Sketch 53.2 (72643) - https://sketchapp.com -->
    <title>32/Place/Station</title>
    <desc>Created with Sketch.</desc>
    <g id="32/Place/Station" stroke="none" stroke-width="1" fill="none" fill-rule="evenodd">
        <path d="M17.4736842,21 L17.9446022,29.9474412 C17.9736296,30.4989626 17.5500646,30.9695904 16.9985432,30.9986178 C16.9810387,30.9995391 16.963513,31 16.9459843,31 L15.0540157,31 C14.5017309,31 14.0540157,30.5522847 14.0540157,30 C14.0540157,29.9824713 14.0544765,29.9649456 14.0553978,29.9474412 L14.5263158,21 L4,21 C2.8954305,21 2,20.1045695 2,19 L2,5 C2,3.8954305 2.8954305,3 4,3 L28,3 C29.1045695,3 30,3.8954305 30,5 L30,19 C30,20.1045695 29.1045695,21 28,21 L17.4736842,21 Z M5,5 C4.44771525,5 4,5.44771525 4,6 L4,10 C4,10.5522847 4.44771525,11 5,11 L27,11 C27.5522847,11 28,10.5522847 28,10 L28,6 C28,5.44771525 27.5522847,5 27,5 L5,5 Z M6.5,7 L13.5,7 C13.7761424,7 14,7.22385763 14,7.5 L14,8.5 C14,8.77614237 13.7761424,9 13.5,9 L6.5,9 C6.22385763,9 6,8.77614237 6,8.5 L6,7.5 C6,7.22385763 6.22385763,7 6.5,7 Z M15.5,7 L16.5,7 C16.7761424,7 17,7.22385763 17,7.5 L17,8.5 C17,8.77614237 16.7761424,9 16.5,9 L15.5,9 C15.2238576,9 15,8.77614237 15,8.5 L15,7.5 C15,7.22385763 15.2238576,7 15.5,7 Z M6.5,13 L7.5,13 C7.77614237,13 8,13.2238576 8,13.5 L8,18.5 C8,18.7761424 7.77614237,19 7.5,19 L6.5,19 C6.22385763,19 6,18.7761424 6,18.5 L6,13.5 C6,13.2238576 6.22385763,13 6.5,13 Z M12.5,13 L13.5,13 C13.7761424,13 14,13.2238576 14,13.5 L14,18.5 C14,18.7761424 13.7761424,19 13.5,19 L12.5,19 C12.2238576,19 12,18.7761424 12,18.5 L12,13.5 C12,13.2238576 12.2238576,13 12.5,13 Z M18.5,13 L19.5,13 C19.7761424,13 20,13.2238576 20,13.5 L20,18.5 C20,18.7761424 19.7761424,19 19.5,19 L18.5,19 C18.2238576,19 18,18.7761424 18,18.5 L18,13.5 C18,13.2238576 18.2238576,13 18.5,13 Z M24.5,13 L25.5,13 C25.7761424,13 26,13.2238576 26,13.5 L26,18.5 C26,18.7761424 25.7761424,19 25.5,19 L24.5,19 C24.2238576,19 24,18.7761424 24,18.5 L24,13.5 C24,13.2238576 24.2238576,13 24.5,13 Z" id="Rectangle-2" fill="#000000"></path>
    </g>
</svg>