<?xml version="1.0" encoding="UTF-8"?>
<svg width="32px" height="32px" viewBox="0 0 32 32" version="1.1" xmlns="http://www.w3.org/2000/svg" xmlns:xlink="http://www.w3.org/1999/xlink">
    <!-- Generator: Sketch 53.2 (72643) - https://sketchapp.com -->
    <title>32/Place/Street</title>
    <desc>Created with Sketch.</desc>
    <g id="32/Place/Street" stroke="none" stroke-width="1" fill="none" fill-rule="evenodd">
        <path d="M6,3 L26,3 C27.6568542,3 29,4.34314575 29,6 L29,26 C29,27.6568542 27.6568542,29 26,29 L6,29 C4.34314575,29 3,27.6568542 3,26 L3,6 C3,4.34314575 4.34314575,3 6,3 Z M6,4 C4.8954305,4 4,4.8954305 4,6 L4,26 C4,27.1045695 4.8954305,28 6,28 L26,28 C27.1045695,28 28,27.1045695 28,26 L28,6 C28,4.8954305 27.1045695,4 26,4 L6,4 Z M16,5 C16,11.0751322 20.9248678,16 27,16 L27,21 L5,11 L5,6 C5,5.44771525 5.44771525,5 6,5 L16,5 Z M19,5 L26,5 C26.5522847,5 27,5.44771525 27,6 L27,13 C22.581722,13 19,9.418278 19,5 Z M27,23 L27,26 C27,26.5522847 26.5522847,27 26,27 L12,27 L15.6615385,17.8461538 L27,23 Z M10,27 L6,27 C5.44771525,27 5,26.5522847 5,26 L5,13 L13.9692308,17.0769231 L10,27 Z" id="Rectangle-2" fill="#000000"></path>
    </g>
</svg>