<?xml version="1.0" encoding="UTF-8"?>
<svg width="32px" height="32px" viewBox="0 0 32 32" version="1.1" xmlns="http://www.w3.org/2000/svg" xmlns:xlink="http://www.w3.org/1999/xlink">
    <!-- Generator: Sketch 53.2 (72643) - https://sketchapp.com -->
    <title>32/Place/Unit</title>
    <desc>Created with Sketch.</desc>
    <g id="32/Place/Unit" stroke="none" stroke-width="1" fill="none" fill-rule="evenodd">
        <path d="M16,2 L32,10 L3.55271368e-15,10 L16,2 Z M23,25 L23,11 L27,11 L27,25 L27,26 L5,26 L5,25 L5,11 L9,11 L9,25 L11,25 L11,11 L15,11 L15,25 L17,25 L17,11 L21,11 L21,25 L23,25 Z M3,27 L29,27 C29.5522847,27 30,27.4477153 30,28 L30,29 L2,29 L2,28 C2,27.4477153 2.44771525,27 3,27 Z" id="Rectangle-3" fill="#000000"></path>
    </g>
</svg>