<?xml version="1.0" encoding="UTF-8"?>
<svg width="32px" height="32px" viewBox="0 0 32 32" version="1.1" xmlns="http://www.w3.org/2000/svg" xmlns:xlink="http://www.w3.org/1999/xlink">
    <!-- Generator: Sketch 53.2 (72643) - https://sketchapp.com -->
    <title>32/Place/Village</title>
    <desc>Created with Sketch.</desc>
    <g id="32/Place/Village" stroke="none" stroke-width="1" fill="none" fill-rule="evenodd">
        <path d="M13.059377,8.07253702 C11.9317055,7.62209885 6.37115821,7.4309737 4.96492839,7.38883326 C7.5248772,4.10951063 11.5169374,2 16.0015761,2 C23.7331856,2 30,8.26698031 30,15.9984239 C30,17.3464203 29.8088749,18.6524421 29.4525061,19.8869579 C23.0300707,19.4624013 19.6729376,18.9829293 17.2103763,18.6783236 C14.5110654,18.3995995 13.1695394,17.4048196 17.015933,16.8863595 C21.0113113,16.0438825 20.8621607,15.2856864 20.8395973,15.1786762 C20.816868,15.0718319 21.7889186,13.8404683 16.7338907,12.9978254 C10.5578276,12.1553484 9.1092914,11.873472 9.1092914,11.873472 C8.15665199,11.4198816 8.97971784,10.9014215 9.71203242,10.8365517 C10.2985145,10.7847887 13.4061232,10.1236483 13.4061232,10.1236483 C16.0827048,9.28117131 14.2486002,8.33168414 13.059377,8.07253702 Z M17.2070582,21.9219098 C18.1436046,22.1259757 25.5867013,23.4967014 27.5827314,23.8628587 C25.0649231,27.5665721 20.816868,30.0000995 15.9984239,30.0000995 C8.2668144,30.0000995 2,23.7332851 2,16.0016757 C2,12.9751957 2.95910979,10.1755109 4.58898257,7.88466365 C9.21298343,8.06600027 9.65695122,8.39001712 10.3569139,8.72067027 C11.0925466,9.06741641 10.4637582,9.36870397 9.64401045,9.65058038 C8.82426275,9.93245679 6.13474038,10.3634838 5.19504174,10.8170742 C3.53265114,11.8345834 4.76401472,12.4373244 5.41204842,12.654497 C6.29666586,12.997925 9.84824227,13.6849469 12.6057866,14.0899265 C15.7261701,14.5499873 15.1785103,14.9647554 15.1785103,14.9647554 C14.899952,15.4832155 12.2947105,15.8850429 11.2446836,16.1508263 C10.1948225,16.4197619 8.06921887,16.7600377 8.39323572,18.1209748 C8.82426275,20.084653 16.1279974,21.6853261 17.2070582,21.9219098 Z" id="Fill-1" fill="#000000"></path>
    </g>
</svg>